<svg viewBox="0 0 64 64" xmlns="http://www.w3.org/2000/svg"><path d="M17 15a3 3 0 0 1 3 3v4a3 3 0 0 0 3 3h6a3 3 0 0 1 3 3v4a3 3 0 0 0 3 3h6a3 3 0 0 1 3 3v4a3 3 0 0 0 3 3h6a3 3 0 0 1 3 3v4a3 3 0 0 1-3 3h-7.914a3 3 0 0 1-1.92-.695L9.079 25.9A3 3 0 0 1 8 23.595V18a3 3 0 0 1 3-3h6ZM8.213 31.374a.932.932 0 0 1 1.35-.152l26.08 21.993c.226.19.357.478.357.781 0 .555-.43 1.004-.96 1.004H10.88C9.29 55 8 53.652 8 51.989V32.004c0-.23.075-.452.213-.63Zm43.35-5.455-.061.018-.139.03-.159.023L51 26H41a2 2 0 1 1 0-4h5.171l-8.585-8.586a2 2 0 0 1 2.828-2.828L49 19.17V14a2 2 0 0 1 1.85-1.995L51 12a2 2 0 0 1 2 2l-.003 10.103-.014.159-.027.157a1.977 1.977 0 0 1-.15.443l-.094.172-.09.137-.099.125-.109.118c-.049.05-.1.095-.153.138l-.129.097-.116.074-.154.082-.146.063-.152.051Z" fill="#303031" fill-rule="evenodd"/></svg>