<svg viewBox="0 0 64 64" xmlns="http://www.w3.org/2000/svg"><path d="M8 36h48l-2.698 12.143a7.48 7.48 0 0 1-7.046 5.853L46 54v2a1 1 0 0 1-1 1h-1.93a2 2 0 0 1-1.664-.89L40 54H24l-1.406 2.11a2 2 0 0 1-1.664.89H19a1 1 0 0 1-1-1v-2a7.48 7.48 0 0 1-7.302-5.857L8 36Zm0-2a2 2 0 1 1 0-4h4.999L13 13a6 6 0 0 1 5.775-5.996L19 7a5.98 5.98 0 0 1 4.506 2.04c.161-.026.326-.04.494-.04h3.757a3 3 0 0 1 2.122.879l.621.621a2.121 2.121 0 0 1 0 3l-5 5a2.121 2.121 0 0 1-3 0l-.621-.621A3 3 0 0 1 21 15.757V13a2 2 0 1 0-4 0l-.001 17H56a2 2 0 1 1 0 4H8Z" fill="#303031" fill-rule="evenodd"/></svg>