<svg viewBox="0 0 64 64" xmlns="http://www.w3.org/2000/svg"><path d="M32 12c3.424 0 6.848.156 10.272.469a8.997 8.997 0 0 1 6.996 4.5l5.444 9.527a1 1 0 0 0 .868.504H58a1 1 0 0 1 1 1v2.465a1 1 0 0 1-.445.832L57.5 32a3.369 3.369 0 0 0-1.5 2.803v8.41a1.99 1.99 0 0 1-.667 1.488c-.38.34-.823.633-1.333.883V50a2 2 0 0 1-2 2h-4a2 2 0 0 1-2-2v-3.024c-3.722.14-8.389.024-14 .024l-1.221-.005c-.988-.008-1.945-.01-2.871-.011h-1.097c-.901 0-1.772.002-2.612.003h-1.48a145.728 145.728 0 0 1-4.72-.066L18 50a2 2 0 0 1-2 2h-4a2 2 0 0 1-2-2l-.002-4.421a5.706 5.706 0 0 1-1.331-.878A1.991 1.991 0 0 1 8 43.213v-8.41A3.369 3.369 0 0 0 6.5 32l-1.055-.703A1 1 0 0 1 5 30.465V28a1 1 0 0 1 1-1h2.42a1 1 0 0 0 .868-.504l5.444-9.528a8.997 8.997 0 0 1 6.996-4.499A112.91 112.91 0 0 1 32 12ZM15.292 34H14.5c-.828 0-1.5.56-1.5 1.25v1.25c0 1.38 1.343 2.5 3 2.5h4.5c.828 0 1.5-.56 1.5-1.25v-.22c0-.631-.428-1.208-1.106-1.49l-4.26-1.776A3.5 3.5 0 0 0 15.291 34ZM49.5 34h-.792a3.5 3.5 0 0 0-1.341.264l-4.261 1.775c-.678.283-1.106.86-1.106 1.491v.22c0 .69.672 1.25 1.5 1.25H48c1.657 0 3-1.12 3-2.5v-1.25c0-.69-.672-1.25-1.5-1.25ZM32 16c-3.593 0-6.792.198-9.594.593a5.007 5.007 0 0 0-3.587 2.375L14 27h36l-4.82-8.032a5.007 5.007 0 0 0-3.586-2.375c-2.802-.395-6-.593-9.594-.593Z" fill="#303031" fill-rule="evenodd"/></svg>