<svg viewBox="0 0 64 64" xmlns="http://www.w3.org/2000/svg"><path d="M16 8a4 4 0 0 0-4 4v42a2 2 0 0 0 2 2h33.734a2 2 0 0 0 1.985-2.248l-.5-4A2 2 0 0 0 47.234 48H21a1 1 0 0 1-1-1V25a1 1 0 0 1 1-1h21.18a4 4 0 0 0 3.932-4.737l-1.5-8A4 4 0 0 0 40.68 8zm11 18a1 1 0 0 0-1 1v.667a1 1 0 0 0 .2.6l2.128 2.837a3 3 0 0 1 .592 2.013l-.69 9.67A3 3 0 0 0 31.222 46h14.624a3 3 0 0 0 3-3l-.003-.15L48.75 41H50a6 6 0 0 0 6-6v-3a6 6 0 0 0-6-6zm21.2 4H50a2 2 0 0 1 2 2v3a2 2 0 0 1-2 2h-1.45z" fill="#303031" fill-rule="evenodd"/></svg>