<svg viewBox="0 0 64 64" xmlns="http://www.w3.org/2000/svg"><path d="M16.323 5c.592 0 1.083.46 1.122 1.05l1.018 15.264a.601.601 0 0 0 1.2 0L20.68 6.05c.04-.59.53-1.05 1.122-1.05h.146c.592 0 1.083.46 1.122 1.05l1.018 15.264a.601.601 0 0 0 1.2 0L26.304 6.05c.04-.59.53-1.05 1.122-1.05h.141c.594 0 1.086.462 1.123 1.055L29.75 23c0 5.081-2.358 9.376-5.596 10.772l.95 21.856a3.231 3.231 0 0 1-3.089 3.369l-.14.003a3.231 3.231 0 0 1-3.231-3.231l.003-.14.95-21.857C16.36 32.377 14 28.082 14 23l1.06-16.945A1.125 1.125 0 0 1 16.181 5h.14Zm28.052 29.25c-3.75-.75-5.625-5.25-5.625-13.5 0-7.344 2.08-12.31 6.24-14.9A5.611 5.611 0 0 1 47.96 5h.915C49.496 5 50 5.504 50 6.125v49.5A3.375 3.375 0 0 1 46.625 59a3.225 3.225 0 0 1-3.225-3.225l.003-.147.972-21.378Z" fill="#303031" fill-rule="evenodd"/></svg>