<svg viewBox="0 0 64 64" xmlns="http://www.w3.org/2000/svg"><path d="M44 8a1 1 0 0 1 1 1v2.102a2 2 0 0 0 .671 1.495l7.658 6.806A2 2 0 0 1 54 20.898V54a2 2 0 0 1-2 2H34a2 2 0 0 1-2-2V20.898a2 2 0 0 1 .671-1.495l7.658-6.806A2 2 0 0 0 41 11.102V9a1 1 0 0 1 1-1zm-1.007 7.58-6.657 5.917a1 1 0 0 0-.336.747V25h14v-2.755a1 1 0 0 0-.336-.747l-6.657-5.918a.01.01 0 0 0-.014 0zM15 18v2.276a2 2 0 0 1-.464 1.28l-3.84 4.61a3 3 0 0 0-.696 1.92V52a4 4 0 0 0 4 4h10a4 4 0 0 0 4-4V28.086a3 3 0 0 0-.695-1.92l-3.841-4.61a2 2 0 0 1-.464-1.28V18a1 1 0 0 0-1-1h-6a1 1 0 0 0-1 1zm2-12h4a2 2 0 0 1 2 2v6a1 1 0 0 1-1 1h-6a1 1 0 0 1-1-1V8a2 2 0 0 1 2-2z" fill="#303031" fill-rule="evenodd"/></svg>