<svg viewBox="0 0 64 64" xmlns="http://www.w3.org/2000/svg"><path d="M45.155 16c5.76 0 10.571 4.335 11.105 10.004l1.713 18.208a6.164 6.164 0 0 1-1.412 4.532c-2.21 2.645-6.17 3.018-8.846.833L37.46 41.203a5.105 5.105 0 0 0-3.228-1.148h-4.465c-1.179 0-2.32.406-3.229 1.148l-10.253 8.374a6.333 6.333 0 0 1-4.584 1.396c-3.455-.318-5.996-3.345-5.675-6.76L7.74 26.004C8.274 20.335 13.086 16 18.845 16h26.31ZM20 23a2 2 0 0 0-2 2v3h-3a2 2 0 0 0-1.995 1.85L13 30a2 2 0 0 0 2 2h3v3a2 2 0 0 0 1.85 1.995L20 37a2 2 0 0 0 2-2v-3h3a2 2 0 0 0 1.995-1.85L27 30a2 2 0 0 0-2-2h-3v-3a2 2 0 0 0-1.85-1.995L20 23Zm20 6a3 3 0 1 0 0 6 3 3 0 0 0 0-6Zm8-4a3 3 0 1 0 0 6 3 3 0 0 0 0-6Z" fill="#303031" fill-rule="evenodd"/></svg>