<svg viewBox="0 0 64 64" xmlns="http://www.w3.org/2000/svg"><path d="m31.643 24.823 4.609 4.64a1.013 1.013 0 0 1 0 1.426L15.139 52.144a2.891 2.891 0 0 1-4.26-.165l-2.18-2.56a2.938 2.938 0 0 1 .196-4.015l21.347-20.596a.997.997 0 0 1 1.401.015ZM33.454 9c4.144 0 8.094 1.77 10.866 4.872l4.145 4.636c.331.37.514.851.514 1.35v1.415c0 .535.212 1.048.587 1.426l1.832 1.844c.375.378.885.59 1.416.59h1.345c.532 0 1.041.213 1.417.592l1.72 1.731a2.432 2.432 0 0 1 0 3.423l-3.612 3.636a2.393 2.393 0 0 1-3.4 0l-1.72-1.732a2.024 2.024 0 0 1-.586-1.426v-1.354c0-.535-.211-1.048-.587-1.426l-1.831-1.844a1.996 1.996 0 0 0-1.417-.59h-.172c-.63 0-1.224.298-1.602.806l-1.018 1.366a1.994 1.994 0 0 1-3.02.216l-5.964-6.005a2.026 2.026 0 0 1 0-2.852l2.06-2.074a1.72 1.72 0 0 0 .225-.264c.637-.91.42-2.169-.484-2.811-1.406-.994-2.813-1.492-4.22-1.492-1.515 0-2.649.385-3.4 1.155l-.145.16a1.998 1.998 0 0 1-1.522.702h-1.443c-.275 0-.539-.11-.734-.306a1.05 1.05 0 0 1 0-1.476l1.235-1.243A10.225 10.225 0 0 1 31.193 9h2.261Z" fill="#303031" fill-rule="evenodd"/></svg>