<svg viewBox="0 0 64 64" xmlns="http://www.w3.org/2000/svg"><path d="M39.235 8a6 6 0 0 1 4.555 2.095L57.578 26.18A1.708 1.708 0 0 1 56.28 29h-4.287v22a5 5 0 0 1-5 5h-30a5 5 0 0 1-5-5V29H7.708c-.35 0-.689-.107-.974-.305l-.138-.106a1.708 1.708 0 0 1-.185-2.409L20.2 10.095A6 6 0 0 1 24.754 8h14.48Zm8.26 25.305a.5.5 0 0 0-.43.243L36.45 51.243a.5.5 0 0 0 .429.757h9.116a2 2 0 0 0 2-2V33.805a.5.5 0 0 0-.5-.5Zm-31 0a.5.5 0 0 0-.5.5V50a2 2 0 0 0 2 2h9.116a.5.5 0 0 0 .43-.757L16.922 33.548a.5.5 0 0 0-.429-.243ZM45.11 29h-9.117a2 2 0 0 0-2 2v16.195a.5.5 0 0 0 .93.257L45.54 29.757a.5.5 0 0 0-.429-.757Zm-17.117 0h-9.116a.5.5 0 0 0-.43.757l10.618 17.695a.5.5 0 0 0 .928-.257V31a2 2 0 0 0-2-2Zm4-14a4 4 0 1 0 0 8 4 4 0 0 0 0-8Z" fill="#303031" fill-rule="evenodd"/></svg>