<svg viewBox="0 0 64 64" xmlns="http://www.w3.org/2000/svg"><path d="M35.956 39.25c1.2 3.77 1.509 7.763.919 11.657 2.165-1.806 4.473-2.709 6.92-2.709 2.308 0 4.225.535 5.75 1.607.432.306.578.889.344 1.368-1.198 2.433-3.229 4.322-6.094 5.665-3 1.406-6.044 2.126-9.131 2.16h-.545c-3.275.049-6.5-.671-9.677-2.16-2.865-1.343-4.896-3.232-6.091-5.666a1.088 1.088 0 0 1 .34-1.367c1.526-1.072 3.443-1.607 5.75-1.607 2.677 0 5.186 1.08 7.527 3.24l.414.416c.678-2.935.726-5.976.15-8.918a7.509 7.509 0 0 0 3.424-3.687ZM33.584 5.052c2.896.415 4.913 3.146 4.506 6.099-.222 1.61-.963 3.63-2.07 5.064.154.112.304.23.45.352 1.118-1.397 2.91-2.577 4.409-3.194 2.71-1.117 5.796.219 6.892 2.984 1.095 2.765-.215 5.912-2.926 7.029-1.478.61-3.565.964-5.337.704a8.542 8.542 0 0 1-.095.694c1.773.246 3.683 1.174 4.94 2.176 2.304 1.836 2.712 5.23.912 7.58a5.225 5.225 0 0 1-7.431.93c-1.275-1.016-2.68-2.656-3.376-4.316l-.207.09-.246.096-.075.027c.678 1.691.845 3.843.623 5.455-.407 2.953-3.084 5.01-5.98 4.595-2.895-.415-4.913-3.145-4.506-6.098.225-1.634.914-3.693 1.975-5.138a8.233 8.233 0 0 1-.446-.36c-1.096 1.444-2.838 2.667-4.317 3.276-2.711 1.117-5.797-.219-6.892-2.984-1.095-2.765.214-5.912 2.925-7.03 1.5-.617 3.592-1.038 5.348-.824a7.96 7.96 0 0 1 .062-.454c-1.745-.286-3.643-1.28-4.917-2.295-2.304-1.836-2.713-5.23-.913-7.58a5.225 5.225 0 0 1 7.432-.93c1.256 1.001 2.6 2.666 3.265 4.36l.316-.138.208-.082c-.628-1.687-.733-3.86-.508-5.492.407-2.953 3.084-5.01 5.98-4.596Zm-4.49 13.174c-2.71 1.117-4.02 4.265-2.925 7.03 1.096 2.765 4.181 4.1 6.892 2.983 2.711-1.117 4.021-4.264 2.926-7.029-1.095-2.765-4.181-4.1-6.892-2.984Z" fill="#303031" fill-rule="evenodd"/></svg>