<svg viewBox="0 0 64 64" xmlns="http://www.w3.org/2000/svg"><path d="M10.828 32.042a2 2 0 0 1 2.829 0l7.07 7.07 18.386-18.384-7.071-7.071a2 2 0 0 1 0-2.829l2.121-2.12a2 2 0 0 1 2.828 0l18.385 18.384a2 2 0 0 1 0 2.828l-2.121 2.122a2 2 0 0 1-2.829 0l-7.07-7.071L24.97 43.355l7.07 7.071a2 2 0 0 1 0 2.829l-2.12 2.121a2 2 0 0 1-2.83 0L8.708 36.991a2 2 0 0 1 0-2.828l2.121-2.121ZM40.527 6.586a2 2 0 0 1 2.828 0l5.072 5.07a3.001 3.001 0 0 1 4 4l5.07 5.072a2 2 0 1 1-2.828 2.828L40.527 9.414a2 2 0 0 1 0-2.828ZM6.586 40.526a2 2 0 0 1 2.828 0L23.556 54.67a2 2 0 1 1-2.828 2.828l-5.07-5.07a3.001 3.001 0 0 1-4.002-4.001l-5.07-5.07a2 2 0 0 1 0-2.83Z" fill="#303031" fill-rule="evenodd"/></svg>