<svg viewBox="0 0 64 64" xmlns="http://www.w3.org/2000/svg"><path d="M41.117 6C42.157 6 43 6.77 43 7.718v4.447l-.003.165c-.095 2.573-2.412 4.632-5.256 4.632-.825 0-1.493.61-1.493 1.362v.684l.004.12c.068 1.074 1.044 1.925 2.239 1.925h.41l.125.004c.982.058 1.76.803 1.76 1.714 0 .949-.844 1.718-1.884 1.718h-.411l-.187-.003c-1.835-.05-3.462-.852-4.527-2.078l.008 28.564 6.17 3.778a1.732 1.732 0 0 1 .567 2.427c-.5.774-1.518 1.039-2.34.636l-.152-.083-4.243-2.6v1.193c0 .926-.78 1.677-1.745 1.677-.926 0-1.683-.691-1.743-1.565l-.003-.11-.001-1.191-4.26 2.598a1.84 1.84 0 0 1-2.391-.42l-.1-.138a1.73 1.73 0 0 1 .43-2.33l.144-.096 6.176-3.765-.007-28.65c-1.063 1.268-2.72 2.101-4.59 2.153l-.188.003h-.41c-1.041 0-1.884-.77-1.884-1.718 0-.91.777-1.656 1.76-1.714l.123-.004h.411c1.195 0 2.17-.851 2.24-1.925l.003-.12v-.684c0-.752-.668-1.362-1.493-1.362-2.844 0-5.16-2.059-5.256-4.632L21 12.165V7.718C21 6.769 21.843 6 22.883 6c.999 0 1.816.709 1.88 1.605l.004.113v4.447c0 .752.668 1.362 1.492 1.362 1.615 0 3.06.663 4.025 1.708l-.003-7.558c0-.926.781-1.677 1.746-1.677.925 0 1.683.691 1.742 1.565l.004.11.002 7.498c.964-1.009 2.383-1.646 3.966-1.646.824 0 1.492-.61 1.492-1.362V7.718l.004-.113c.064-.896.881-1.605 1.88-1.605Z" fill="#303031" fill-rule="evenodd"/></svg>