<svg viewBox="0 0 64 64" xmlns="http://www.w3.org/2000/svg"><path d="M36.737 8.32c.091.303.138.618.138.935v1.05h8.75c2.343 0 4.256 1.827 4.37 4.123l.005.216v34.713c0 2.396-1.959 4.339-4.375 4.339l-8.75-.001v1.05c0 1.798-1.47 3.255-3.281 3.255-.32 0-.637-.046-.943-.137l-15.313-4.556A3.258 3.258 0 0 1 15 50.19V13.81c0-1.437.95-2.704 2.338-3.117l15.313-4.556c1.736-.516 3.565.46 4.086 2.182Zm8.888 6.324h-8.75v34.712h8.75V14.645ZM31.953 28.78c-.906 0-1.64 1.457-1.64 3.254 0 1.798.734 3.255 1.64 3.255.906 0 1.64-1.457 1.64-3.255 0-1.797-.734-3.254-1.64-3.254Z" fill="#303031" fill-rule="evenodd"/></svg>