<svg viewBox="0 0 64 64" xmlns="http://www.w3.org/2000/svg"><path d="M32 12c13.255 0 24 10.745 24 24S45.255 53 32 53l-.792-.005C18.32 52.846 8 48.99 8 36c0-13.255 10.745-24 24-24Zm0 18a8 8 0 1 0 0 16 8 8 0 0 0 0-16Zm0 2c2.21 0 4 1.343 4 3s-1.79 3-4 3-4-1.343-4-3 1.79-3 4-3Zm9.5-6c-1.933 0-3.5 1.708-3.5 3.815s2.267.763 4.2.763c1.933 0 2.8 1.344 2.8-.763S43.433 26 41.5 26Zm-19 0c-1.933 0-3.5 1.708-3.5 3.815s.867.763 2.8.763c1.933 0 4.2 1.344 4.2-.763S24.433 26 22.5 26Zm-10-14a6.49 6.49 0 0 1 5.037 2.391 26.117 26.117 0 0 0-8.582 9.558A6.5 6.5 0 0 1 12.5 12Zm39 0a6.5 6.5 0 0 1 3.544 11.95 26.116 26.116 0 0 0-8.58-9.559A6.485 6.485 0 0 1 51.5 12Z" fill="#303031" fill-rule="evenodd"/></svg>