<svg viewBox="0 0 64 64" xmlns="http://www.w3.org/2000/svg"><path d="M6 28v.764c0 .757.464 1.45 1.198 1.789l2.046.944c.677.312 1.128.928 1.19 1.623l1.57 17.378C12.283 53.608 15.1 56 18.48 56h27.038c3.38 0 6.197-2.392 6.478-5.502l1.569-17.378c.062-.695.513-1.31 1.19-1.623l2.046-.944c.734-.339 1.198-1.032 1.198-1.79V28c0-1.105-.97-2-2.167-2H8.167C6.97 26 6 26.895 6 28ZM37.046 8c2.485 0 4.652 1.673 5.255 4.058l.92 3.642c.194.768.8 1.367 1.577 1.56l1.81.447-.007.032c3.24.618 5.984 1.481 8.232 2.59.613.302 1 .922 1 1.6 0 .591-.485 1.071-1.083 1.071H9.25c-.598 0-1.083-.48-1.083-1.071 0-.678.387-1.298 1-1.6 2.248-1.109 4.992-1.972 8.232-2.59l-.008-.032 1.811-.448a2.155 2.155 0 0 0 1.577-1.56l.92-3.641C22.302 9.673 24.47 8 26.954 8h10.092Zm0 4.348H26.954c-.497 0-.93.34-1.05.823l-.921 3.695-.019.061c2.192-.154 4.537-.231 7.036-.231 2.499 0 4.844.077 7.036.231l-.019-.061-.92-3.695a1.084 1.084 0 0 0-1.051-.823Z" fill="#303031" fill-rule="evenodd"/></svg>