<svg viewBox="0 0 64 64" xmlns="http://www.w3.org/2000/svg"><path d="M56 22a2 2 0 0 1 2 2v1.558a2 2 0 0 1-1.368 1.898l-.49.163a2 2 0 0 0-1.34 1.569l-3.245 19.47A4 4 0 0 1 47.611 52H16.364a4 4 0 0 1-3.94-3.315l-3.22-18.508a2 2 0 0 0-1.337-1.555l-.5-.166A2 2 0 0 1 6 26.558V24a2 2 0 0 1 2-2zM24 40h-4a1 1 0 0 0-1 1v4a1 1 0 0 0 1 1h4a1 1 0 0 0 1-1v-4a1 1 0 0 0-1-1zm9.718 0h-3.436c-.446 0-.607.046-.77.134a.909.909 0 0 0-.378.378c-.088.163-.134.324-.134.77v3.436c0 .446.046.607.134.77a.906.906 0 0 0 .378.378c.163.088.324.134.77.134h3.436c.446 0 .607-.046.77-.134a.909.909 0 0 0 .378-.378c.088-.163.134-.324.134-.77v-3.436c0-.446-.046-.607-.134-.77a.909.909 0 0 0-.378-.378c-.163-.088-.324-.134-.77-.134zM44 40h-4a1 1 0 0 0-1 1v4a1 1 0 0 0 1 1h4a1 1 0 0 0 1-1v-4a1 1 0 0 0-1-1zM19 30h-4a1 1 0 0 0-1 1v4a1 1 0 0 0 1 1h4a1 1 0 0 0 1-1v-4a1 1 0 0 0-1-1zm9.718 0h-3.436c-.446 0-.607.046-.77.134a.909.909 0 0 0-.378.378c-.088.163-.134.324-.134.77v3.436c0 .446.046.607.134.77a.906.906 0 0 0 .378.378c.163.088.324.134.77.134h3.436c.446 0 .607-.046.77-.134a.909.909 0 0 0 .378-.378c.088-.163.134-.324.134-.77v-3.436c0-.446-.046-.607-.134-.77a.909.909 0 0 0-.378-.378c-.163-.088-.324-.134-.77-.134zm10 0h-3.436c-.446 0-.607.046-.77.134a.909.909 0 0 0-.378.378c-.088.163-.134.324-.134.77v3.436c0 .446.046.607.134.77a.906.906 0 0 0 .378.378c.163.088.324.134.77.134h3.436c.446 0 .607-.046.77-.134a.909.909 0 0 0 .378-.378c.088-.163.134-.324.134-.77v-3.436c0-.446-.046-.607-.134-.77a.909.909 0 0 0-.378-.378c-.163-.088-.324-.134-.77-.134zM49 30h-4a1 1 0 0 0-1 1v4a1 1 0 0 0 1 1h4a1 1 0 0 0 1-1v-4a1 1 0 0 0-1-1zm1.382-10H15.12a1 1 0 0 1-.58-1.814l3.417-2.44A4 4 0 0 1 20.282 15h1.507a4 4 0 0 1 2.219.672L24.5 16c.884.59 2.054.508 2.847-.198l5.166-4.591a4 4 0 0 1 5.113-.168L44 16h3.764c1.37 0 2.623.774 3.236 2l.276.553A1 1 0 0 1 50.382 20z" fill="#303031" fill-rule="evenodd"/></svg>