<svg viewBox="0 0 64 64" xmlns="http://www.w3.org/2000/svg"><path d="M8 24a2 2 0 0 1 2 2v3a5 5 0 0 0 5 5h34a5 5 0 0 0 5-5v-3a2 2 0 0 1 2-2h2a4 4 0 0 1 4 4v10a6 6 0 0 1-5.775 5.996L56 44v4a1 1 0 0 1-1 1h-1.868a2 2 0 0 1-1.715-.971L49 44H15l-2.417 4.029a2 2 0 0 1-1.715.971H9a1 1 0 0 1-1-1v-4a6 6 0 0 1-6-6V28a4 4 0 0 1 4-4h2Zm20-8a3 3 0 0 1 3 3v10a3 3 0 0 1-3 3H15a3 3 0 0 1-3-3v-3a4 4 0 0 0-3.8-3.995L8 22v-3a3 3 0 0 1 3-3h17Zm25 0a3 3 0 0 1 3 3v3l-.2.005A4 4 0 0 0 52 26v3a3 3 0 0 1-3 3H36a3 3 0 0 1-3-3V19a3 3 0 0 1 3-3h17Z" fill="#303031" fill-rule="evenodd"/></svg>