<svg viewBox="0 0 64 64" xmlns="http://www.w3.org/2000/svg"><path d="M15.571 24.368a2.2 2.2 0 0 1 2.19 2.21v3.317c0 3.052 2.453 5.526 5.477 5.526h17.524c3.024 0 5.476-2.474 5.476-5.526v-3.316a2.2 2.2 0 0 1 2.19-2.21h2.191c2.42 0 4.381 1.979 4.381 4.42v11.053c0 3.58-2.81 6.496-6.325 6.627l-.246.005v4.42A1.1 1.1 0 0 1 47.333 52h-2.045c-.77 0-1.483-.407-1.878-1.073l-2.648-4.453H23.238l-2.648 4.453A2.186 2.186 0 0 1 18.712 52h-2.045a1.1 1.1 0 0 1-1.096-1.105v-4.421c-3.629 0-6.571-2.97-6.571-6.632V28.79c0-2.441 1.961-4.42 4.381-4.42zM41.857 10c3.63 0 6.572 2.97 6.572 6.632v5.526c-2.42 0-4.381 1.98-4.381 4.42v3.317c0 1.831-1.471 3.316-3.286 3.316H23.238c-1.815 0-3.286-1.485-3.286-3.316v-3.316c0-2.368-1.844-4.3-4.162-4.416l-.219-.005v-5.526c0-3.663 2.943-6.632 6.572-6.632z" fill="#303031" fill-rule="evenodd"/></svg>