<svg viewBox="0 0 64 64" xmlns="http://www.w3.org/2000/svg"><path d="M32 50a3 3 0 1 1 0 6 3 3 0 0 1 0-6Zm17-26a2 2 0 0 1 2 2v6a6.002 6.002 0 0 1-5.001 5.917L46 38a4 4 0 0 1-4 4h-8v3.62c3.644.443 6.795 2.075 8.67 4.398l.154-.013L43 50a3 3 0 1 1-2.753 1.805C38.625 49.862 35.574 48.5 32 48.5s-6.625 1.362-8.248 3.305a3 3 0 1 1-2.42-1.787c1.874-2.323 5.025-3.956 8.668-4.398V42h-8a4 4 0 0 1-4-4l.002-.083A6.002 6.002 0 0 1 13 32v-6a2 2 0 1 1 4 0v6a2 2 0 0 0 2 2h26a2 2 0 0 0 2-2v-6a2 2 0 0 1 2-2ZM37.435 8c2.032 0 3.74 1.406 3.974 3.27l2.077 16.614c.253 2.026-1.321 3.858-3.516 4.092a4.33 4.33 0 0 1-.458.024H24.488c-2.21 0-4-1.653-4-3.692 0-.142.009-.283.026-.424l2.077-16.615C22.824 9.406 24.533 8 26.565 8h10.87Z" fill="#303031" fill-rule="evenodd"/></svg>