<svg viewBox="0 0 64 64" xmlns="http://www.w3.org/2000/svg"><path d="M24.417 8a3.25 3.25 0 0 0-3.25 3.25v41.5a3.25 3.25 0 0 0 3.25 3.25h15.166a3.25 3.25 0 0 0 3.25-3.25v-41.5A3.25 3.25 0 0 0 39.583 8H24.417Zm23.833 8.727a3.25 3.25 0 0 0-3.25 3.25V52.75A3.25 3.25 0 0 0 48.25 56h6.5A3.25 3.25 0 0 0 58 52.75V19.977a3.25 3.25 0 0 0-3.25-3.25h-6.5Zm-36.87 6.546c-.662 0-1.286.301-1.697.819L6.47 28.135c-.304.384-.47.859-.47 1.348v24.35C6 55.03 6.97 56 8.167 56h8.666C18.03 56 19 55.03 19 53.833v-24.35c0-.49-.166-.964-.47-1.348l-3.213-4.043a2.167 2.167 0 0 0-1.696-.82Zm39.037 24h2.166c.599 0 1.084.485 1.084 1.083v2.197c0 .598-.485 1.083-1.084 1.083h-2.166a1.083 1.083 0 0 1-1.084-1.083v-2.197c0-.598.485-1.083 1.084-1.083Zm-15.167 0h2.167c.598 0 1.083.485 1.083 1.083v2.197c0 .598-.485 1.083-1.083 1.083H35.25a1.083 1.083 0 0 1-1.083-1.083v-2.197c0-.598.485-1.083 1.083-1.083Zm-8.667 0h2.167c.598 0 1.083.485 1.083 1.083v2.197c0 .598-.485 1.083-1.083 1.083h-2.167a1.083 1.083 0 0 1-1.083-1.083v-2.197c0-.598.485-1.083 1.083-1.083Zm-15.166 0h2.166c.599 0 1.084.485 1.084 1.083v2.197c0 .598-.485 1.083-1.084 1.083h-2.166a1.083 1.083 0 0 1-1.084-1.083v-2.197c0-.598.485-1.083 1.084-1.083Zm39-8.728h2.166c.599 0 1.084.485 1.084 1.084v2.197c0 .598-.485 1.083-1.084 1.083h-2.166a1.083 1.083 0 0 1-1.084-1.083v-2.197c0-.599.485-1.084 1.084-1.084Zm-15.167 0h2.167c.598 0 1.083.485 1.083 1.084v2.197c0 .598-.485 1.083-1.083 1.083H35.25a1.083 1.083 0 0 1-1.083-1.083v-2.197c0-.599.485-1.084 1.083-1.084Zm-8.667 0h2.167c.598 0 1.083.485 1.083 1.084v2.197c0 .598-.485 1.083-1.083 1.083h-2.167a1.083 1.083 0 0 1-1.083-1.083v-2.197c0-.599.485-1.084 1.083-1.084Zm-15.166 0h2.166c.599 0 1.084.485 1.084 1.084v2.197c0 .598-.485 1.083-1.084 1.083h-2.166a1.083 1.083 0 0 1-1.084-1.083v-2.197c0-.599.485-1.084 1.084-1.084Zm39-8.727h2.166c.599 0 1.084.485 1.084 1.084v2.196c0 .599-.485 1.084-1.084 1.084h-2.166a1.083 1.083 0 0 1-1.084-1.084v-2.196c0-.599.485-1.084 1.084-1.084Zm-15.167 0h2.167c.598 0 1.083.485 1.083 1.084v2.196c0 .599-.485 1.084-1.083 1.084H35.25a1.083 1.083 0 0 1-1.083-1.084v-2.196c0-.599.485-1.084 1.083-1.084Zm-8.667 0h2.167c.598 0 1.083.485 1.083 1.084v2.196c0 .599-.485 1.084-1.083 1.084h-2.167a1.083 1.083 0 0 1-1.083-1.084v-2.196c0-.599.485-1.084 1.083-1.084Zm-15.166 0h2.166c.599 0 1.084.485 1.084 1.084v2.196c0 .599-.485 1.084-1.084 1.084h-2.166a1.083 1.083 0 0 1-1.084-1.084v-2.196c0-.599.485-1.084 1.084-1.084Zm39-8.727h2.166c.599 0 1.084.485 1.084 1.083v2.197c0 .599-.485 1.084-1.084 1.084h-2.166a1.083 1.083 0 0 1-1.084-1.084v-2.197c0-.598.485-1.083 1.084-1.083Zm-15.167 0h2.167c.598 0 1.083.485 1.083 1.083v2.197c0 .599-.485 1.084-1.083 1.084H35.25a1.083 1.083 0 0 1-1.083-1.084v-2.197c0-.598.485-1.083 1.083-1.083Zm-8.667 0h2.167c.598 0 1.083.485 1.083 1.083v2.197c0 .599-.485 1.084-1.083 1.084h-2.167A1.083 1.083 0 0 1 25.5 24.37v-2.197c0-.598.485-1.083 1.083-1.083Zm8.667-8.727h2.167c.598 0 1.083.485 1.083 1.083v2.197c0 .598-.485 1.083-1.083 1.083H35.25a1.083 1.083 0 0 1-1.083-1.083v-2.197c0-.598.485-1.083 1.083-1.083Zm-8.667 0h2.167c.598 0 1.083.485 1.083 1.083v2.197c0 .598-.485 1.083-1.083 1.083h-2.167a1.083 1.083 0 0 1-1.083-1.083v-2.197c0-.598.485-1.083 1.083-1.083Z" fill="#303031" fill-rule="evenodd"/></svg>