<svg viewBox="0 0 64 64" xmlns="http://www.w3.org/2000/svg"><path d="M22.13 18a5 5 0 0 1 4.998 4.868l.791 30.053a3 3 0 0 1-2.744 3.068L24.92 56H11.08a3 3 0 0 1-3-3l.792-30.132A5 5 0 0 1 13.87 18zM22 28h-8a2 2 0 0 0-2 2v14a2 2 0 0 0 2 2h8a2 2 0 0 0 2-2V30a2 2 0 0 0-2-2zM16 8h4a2 2 0 0 1 2 2v4a2 2 0 0 1-2 2h-4a2 2 0 0 1-2-2v-4a2 2 0 0 1 2-2zm18.618 29h18.764a1 1 0 0 1 .894.553l.985 1.969a7 7 0 0 1 .739 3.13V50a6 6 0 0 1-6 6H38a6 6 0 0 1-6-6v-7.348a7 7 0 0 1 .739-3.13l.985-1.97a1 1 0 0 1 .894-.552zM34 30h20a1 1 0 0 1 1 1v3a1 1 0 0 1-1 1H34a1 1 0 0 1-1-1v-3a1 1 0 0 1 1-1z" fill="#303031" fill-rule="evenodd"/></svg>