<svg viewBox="0 0 64 64" xmlns="http://www.w3.org/2000/svg"><path d="M25.28 21a1 1 0 0 1 .948.684l.544 1.632a1 1 0 0 0 .949.684h8.558a1 1 0 0 0 .949-.684l.544-1.632a1 1 0 0 1 .949-.684H41a3 3 0 0 1 3 3v2.144a5 5 0 0 0 .285 1.664l4.86 13.77a15 15 0 0 1 .855 4.99V48a4 4 0 0 1-4 4H18a4 4 0 0 1-4-4v-1.43a15 15 0 0 1 .855-4.993l4.86-13.77A5 5 0 0 0 20 26.145V24a3 3 0 0 1 3-3zM32 30c-4.97 0-9 3.134-9 7s4.03 7 9 7 9-3.134 9-7-4.03-7-9-7zm0 3c2.21 0 4 1.343 4 3s-1.79 3-4 3-4-1.343-4-3 1.79-3 4-3zm0-21c11.736 0 20.038 2.575 24.906 7.726A3.986 3.986 0 0 1 58 22.468v.588a4 4 0 0 1-.422 1.789l-.907 1.813A2.427 2.427 0 0 1 54.5 28h-.679a4 4 0 0 1-1.576-.323l-4.407-1.89A3.033 3.033 0 0 1 46 23v-1.559c0-.3-.135-.585-.369-.774-2.12-1.735-6.496-2.623-13.13-2.665L32 18c-6.914 0-11.458.889-13.631 2.667a.994.994 0 0 0-.369.774V23c0 1.213-.723 2.31-1.838 2.788l-4.407 1.889a4 4 0 0 1-1.576.323H9.5c-.92 0-1.76-.52-2.17-1.342l-.908-1.813A4 4 0 0 1 6 23.055v-.587c0-1.02.391-2.002 1.094-2.742C11.962 14.576 20.264 12 32 12z" fill="#303031" fill-rule="evenodd"/></svg>