<svg viewBox="0 0 64 64" xmlns="http://www.w3.org/2000/svg"><path d="m52.954 51.633.246.187c.83.653 1.815.98 2.8.98V57a8.368 8.368 0 0 1-4.908-1.6l-.292-.22a4.487 4.487 0 0 0-5.406-.145l-.194.145c-3 2.363-7.096 2.425-10.154.187l-.246-.187a4.487 4.487 0 0 0-5.406-.145l-.194.145c-3 2.363-7.096 2.425-10.154.187l-.246-.187a4.487 4.487 0 0 0-5.406-.145l-.194.145A8.385 8.385 0 0 1 8 57v-4.2c.985 0 1.97-.327 2.8-.98 3-2.363 7.096-2.425 10.154-.187l.246.187a4.49 4.49 0 0 0 5.6 0c3-2.363 7.096-2.425 10.154-.187l.246.187a4.49 4.49 0 0 0 5.6 0c2.921-2.3 6.882-2.42 9.91-.358l.244.171Zm0-9 .246.187c.83.653 1.815.98 2.8.98V48a8.368 8.368 0 0 1-4.908-1.6l-.292-.22a4.487 4.487 0 0 0-5.406-.145l-.194.145c-3 2.363-7.096 2.425-10.154.187l-.246-.187a4.487 4.487 0 0 0-5.406-.145l-.194.145c-3 2.363-7.096 2.425-10.154.187l-.246-.187a4.487 4.487 0 0 0-5.406-.145l-.194.145A8.385 8.385 0 0 1 8 48v-4.2c.985 0 1.97-.327 2.8-.98 3-2.363 7.096-2.425 10.154-.187l.246.187a4.49 4.49 0 0 0 5.6 0c3-2.363 7.096-2.425 10.154-.187l.246.187a4.49 4.49 0 0 0 5.6 0c2.921-2.3 6.882-2.42 9.91-.358l.244.171ZM43 7a6 6 0 0 1 6 6 2 2 0 0 1-3.995.15L45 13a2 2 0 1 0-4 0v23a2 2 0 1 1-4 0v-4H26v4a2 2 0 1 1-4 0V13a6 6 0 1 1 12 0 2 2 0 0 1-3.995.15L30 13a2 2 0 1 0-4 0v7h11v-7a6 6 0 0 1 6-6Zm-6 21v-4H26v4h11Z" fill="#303031" fill-rule="evenodd"/></svg>