<svg viewBox="0 0 64 64" xmlns="http://www.w3.org/2000/svg"><path d="M46.34 32.343a.86.86 0 0 1 .25.675 21.883 21.883 0 0 1-1.688 7.326 2.084 2.084 0 0 0 .348 2.203l.12.125 7.722 7.433a3.1 3.1 0 0 1 0 4.384l-1.645 1.644a3.1 3.1 0 0 1-4.384-.083c-3.078-3.2-5.418-5.63-7.019-7.293l-.196-.204a2.454 2.454 0 0 0-2.718-.561l-.107.044a21.883 21.883 0 0 1-7.153 1.56.816.816 0 0 1-.683-1.307l.074-.086 1.62-1.62 8.397-8.397 1.179-1.179.75-.75 3.627-3.627.288-.287a.861.861 0 0 1 1.218 0ZM39 15.126l1.194 1.195a21.898 21.898 0 0 1 5.266 8.472c.24.723.046 1.52-.499 2.052l-.03.03-.607.607-20.6 20.6a1.749 1.749 0 0 1-1.773.43 21.898 21.898 0 0 1-8.63-5.317L12.126 42c-6.835-6.835-6.835-17.917 0-24.752l2.122-2.122c6.835-6.835 17.917-6.835 24.752 0ZM51.5 7a5.5 5.5 0 1 1 0 11 5.5 5.5 0 0 1 0-11Z" fill="#303031" fill-rule="evenodd"/></svg>