<svg viewBox="0 0 64 64" xmlns="http://www.w3.org/2000/svg"><path d="M46.98 15c1.29 0 2.439.784 2.86 1.952l7.994 22.207c.544 1.513-.294 3.161-1.873 3.683-.317.105-.65.158-.986.158H9.025C7.353 43 6 41.703 6 40.103c0-.32.056-.64.165-.944l7.995-22.207C14.58 15.784 15.729 15 17.019 15H46.98ZM21.267 33h-8.588l-2.069 6h9.697l.96-6Zm19.44 0H33v6h8.667l-.96-6ZM31 33h-7.708l-.96 6H31v-6Zm20.32 0h-8.588l.96 6h9.697l-2.07-6Zm-28.773-8h-7.11l-2.07 6h8.22l.96-6ZM31 25h-6.428l-.96 6H31v-6Zm8.427 0H33v6h7.387l-.96-6Zm9.135 0h-7.11l.96 6h8.219l-2.07-6Zm-24.895-7H17.85l-1.724 5h6.74l.8-5ZM31 18h-5.308l-.8 5H31v-5Zm7.307 0H33v5h6.107l-.8-5Zm7.841 0h-5.816l.8 5h6.74l-1.724-5ZM32 49l.836-.005C41.836 48.893 49 47.143 49 45H15c0 2.21 7.611 4 17 4Z" fill="#303031" fill-rule="evenodd"/></svg>