<svg viewBox="0 0 64 64" xmlns="http://www.w3.org/2000/svg"><path d="M41.75 6C43.545 6 45 7.343 45 9v14c0 1.657-1.455 3-3.25 3h-19.5C20.455 26 19 24.657 19 23V9c0-1.657 1.455-3 3.25-3zm-1 3h-17.5c-.69 0-1.25.522-1.25 1.167v11.666c0 .645.56 1.167 1.25 1.167h17.5c.69 0 1.25-.522 1.25-1.167V10.167C42 9.522 41.44 9 40.75 9zM47 29a1 1 0 0 1 1 1v1.222c0 3.193-3.958 5.937-9.618 7.135l-.342.07-.235.044a2.007 2.007 0 0 0-1.63 2.192l.775 16.29a1 1 0 0 1-.835 1.034l-.164.013H28.05a1 1 0 0 1-1-1l.776-16.34a2.007 2.007 0 0 0-1.629-2.188L26 38.435c-5.864-1.154-10-3.949-10-7.213V30a1 1 0 0 1 1-1z" fill="#303031" fill-rule="evenodd"/></svg>