<svg viewBox="0 0 64 64" xmlns="http://www.w3.org/2000/svg"><path d="M38 49v5a2 2 0 0 1-2 2h-8a2 2 0 0 1-2-2v-5h12Zm0-31v29H26V18h12ZM36 8a2 2 0 0 1 2 2v6H26v-6a2 2 0 0 1 2-2h8ZM21 22a2 2 0 0 1 2 2v30a2 2 0 0 1-2 2h-9a2 2 0 0 1-2-2V24a2 2 0 0 1 2-2h9Zm-4 21h-1a1 1 0 0 0-1 1v7a1 1 0 0 0 1 1h1a1 1 0 0 0 1-1v-7a1 1 0 0 0-1-1Zm24.85-28.416 6.961-.731a2 2 0 0 1 2.198 1.78l3.933 37.414a2 2 0 0 1-1.78 2.198l-6.962.731a2 2 0 0 1-2.198-1.78l-3.933-37.414a2 2 0 0 1 1.78-2.198Z" fill="#303031" fill-rule="evenodd"/></svg>