<svg viewBox="0 0 64 64" xmlns="http://www.w3.org/2000/svg"><path d="M55.121 32.243c.486 0 .879.393.879.878V48a4 4 0 0 1-4 4H12a4 4 0 0 1-4-4V33.121a.879.879 0 0 1 1.5-.621l.036.036A5 5 0 0 0 13.07 34H18v3a2 2 0 0 0 1.85 1.995L20 39h2a2 2 0 0 0 2-2v-3h16v3a2 2 0 0 0 1.85 1.995L42 39h2a2 2 0 0 0 2-2v-3h4.929a5 5 0 0 0 3.344-1.282l.227-.218a.879.879 0 0 1 .621-.257zM38.586 8a5 5 0 0 1 4.961 4.38L44 16h8a4 4 0 0 1 4 4v6a6 6 0 0 1-6 6h-4v-2a1 1 0 0 0-.883-.993L45 29h-4a1 1 0 0 0-1 1v2H24v-2a1 1 0 0 0-.883-.993L23 29h-4a1 1 0 0 0-1 1v2h-4a6 6 0 0 1-6-6v-6a4 4 0 0 1 4-4h7.999l.454-3.62A5 5 0 0 1 25.413 8zm0 4H25.414a1 1 0 0 0-.992.876L24.03 16h15.939l-.39-3.124a1 1 0 0 0-.993-.876z" fill="#303031" fill-rule="evenodd"/></svg>