<svg viewBox="0 0 64 64" xmlns="http://www.w3.org/2000/svg"><path d="M40 35a2 2 0 1 1 0 4h-6v16a2 2 0 1 1-4 0V39h-6a2 2 0 1 1 0-4h16Zm16.369-4.966a2 2 0 0 1 1.597 2.335l-2.738 14.597.623 8.11.001.072A1.852 1.852 0 0 1 54 57h-.21a2 2 0 0 1-1.987-1.78l-.605-5.44A2 2 0 0 0 49.21 48h-2.42a2 2 0 0 0-1.987 1.78l-.605 5.44A2 2 0 0 1 42.21 57H42a1.852 1.852 0 0 1-1.846-1.994l.704-9.16A2 2 0 0 1 42.852 44h8.863l2.32-12.369a2 2 0 0 1 2.334-1.597Zm-48.737 0a2 2 0 0 1 2.334 1.597L12.286 44h8.862a2 2 0 0 1 1.994 1.847l.705 9.159a1.852 1.852 0 0 1-1.705 1.989l-.07.004-.282.001a2 2 0 0 1-1.987-1.78l-.605-5.44A2 2 0 0 0 17.21 48h-2.42a2 2 0 0 0-1.987 1.78l-.605 5.44A2 2 0 0 1 10.21 57H10a1.852 1.852 0 0 1-1.852-1.852l.006-.142.619-8.04-2.738-14.597a2 2 0 0 1 1.597-2.335ZM34 24v9h-4v-9h4ZM28.634 7.87a6.943 6.943 0 0 1 6.733 0l22.119 12.255A1 1 0 0 1 57.005 22H6.996a1.002 1.002 0 0 1-.48-1.875L28.633 7.871Z" fill="#303031" fill-rule="evenodd"/></svg>