<svg viewBox="0 0 64 64" xmlns="http://www.w3.org/2000/svg"><path d="M17 8h2a5 5 0 0 1 5 5v19a3 3 0 0 1-3 3h-4a3 3 0 0 1-3-3V11a3 3 0 0 1 3-3Zm11 23h20a2 2 0 0 1 2 2v1a1 1 0 0 1-1 1H27a1 1 0 0 1-1-1v-1a2 2 0 0 1 2-2Zm19 6a2 2 0 0 1 2 2v.5c0 3.795-3.068 7.12-7.665 8.965l-.316.123a1.109 1.109 0 0 0-.075 2.04l.091.045C43.47 51.862 45 53.584 45 55.5l-.008.09a.5.5 0 0 1-.492.41h-22a.5.5 0 0 1-.5-.5l.005-.185c.02-.4.289-.873.806-1.42a5.991 5.991 0 0 0-.69-8.864C19.374 42.912 18 41.07 18 39.5V39a2 2 0 0 1 2-2h27Z" fill="#303031" fill-rule="evenodd"/></svg>