<svg viewBox="0 0 64 64" xmlns="http://www.w3.org/2000/svg"><path d="M47 8a2 2 0 0 1 2 2v9a1 1 0 0 1-1 1H16a1 1 0 0 1-1-1v-9a2 2 0 0 1 2-2h30Zm-6 3a3 3 0 1 0 0 6 3 3 0 0 0 0-6Zm-15 1h-5a1 1 0 0 0-1 1v2a1 1 0 0 0 1 1h5a1 1 0 0 0 1-1v-2a1 1 0 0 0-1-1Zm22 10a1 1 0 0 1 1 1v29a4 4 0 0 1-4 4H19a4 4 0 0 1-4-4V23a1 1 0 0 1 1-1h32Zm-16 4c-6.627 0-12 5.373-12 12s5.373 12 12 12 12-5.373 12-12-5.373-12-12-12Zm9.381 8.53A9.98 9.98 0 0 1 42 38c0 5.523-4.477 10-10 10s-10-4.477-10-10c0-1.22.218-2.389.618-3.47.975-.056 1.96.1 2.882.47l.424.17a4.98 4.98 0 0 0 3.835-.057L30 35a4.472 4.472 0 0 1 3.776-.105L34 35a4.98 4.98 0 0 0 4.076.17L38.5 35a6.73 6.73 0 0 1 2.881-.47Z" fill="#303031" fill-rule="evenodd"/></svg>