<svg viewBox="0 0 64 64" xmlns="http://www.w3.org/2000/svg"><path d="M32.504 14a6.5 6.5 0 0 1 6.5 6.5v2.124a6.99 6.99 0 0 1-2.646 5.473l-.906.72-.228.181 22.021 17.434c1.445 1.144.699 3.436-1.086 3.563l-.155.005h-48c-1.896 0-2.728-2.392-1.24-3.569A25513.74 25513.74 0 0 0 30.76 27.433l-.015.012.034-.027.017-.014.368-.291 2.419-1.92.287-.229a2.991 2.991 0 0 0 1.133-2.341V20.5a2.5 2.5 0 0 0-2.5-2.5h-.5a3 3 0 0 0-3 3 2 2 0 1 1-4 0 7 7 0 0 1 7-7h.5Zm-.5 17.551-.116.094c-4.355 3.452-10.232 8.105-17.63 13.958l-.503.397h36.5L32.004 31.551Z" fill="#303031" fill-rule="evenodd"/></svg>