<svg xmlns="http://www.w3.org/2000/svg" viewBox="0 0 960 960"><g fill="none" fill-rule="evenodd"><path d="M702.57 353.72c19.186-2.355 32.584-21.818 29.925-43.47-2.658-21.653-20.367-37.296-39.553-34.94-19.185 2.355-32.583 21.818-29.925 43.47 2.659 21.653 20.367 37.296 39.553 34.94zM768 251c7.18 0 13-7.163 13-16s-5.82-16-13-16-13 7.163-13 16 5.82 16 13 16zm5 42c7.18 0 13-7.163 13-16s-5.82-16-13-16-13 7.163-13 16 5.82 16 13 16zm8 42c7.18 0 13-7.163 13-16s-5.82-16-13-16-13 7.163-13 16 5.82 16 13 16zM628 209a10 10 0 0 1 9.878 8.44l3 19c.958 6.07-3.733 11.56-9.878 11.56h-42a10 10 0 0 1-9.878-8.44l-3-19c-.958-6.07 3.733-11.56 9.878-11.56h42zm90.867 0a10 10 0 0 1 9.982 9.405l1.133 19C730.325 243.15 725.757 248 720 248h-15.867a10 10 0 0 1-9.982-9.405l-1.133-19C692.675 213.85 697.243 209 703 209h15.867z" fill="#000"/><path d="M480.91 64c.252 0 .506 0 .759.011l23.288.787c116.685 3.98 197.443 7.331 242.406 10.063l2.881.178c47.553 2.964 81.998 7.03 103.928 12.39l.616.153a20 20 0 0 1 13.982 12.511l1.526 4.159c24.771 67.64 41.514 121.394 50.246 161.492l.533 2.475c8.691 40.853 16.94 102.717 24.836 185.891A20 20 0 0 1 946 456v20.547c-.109 161.681-1.444 258.642-4.061 292.017-1.196 15.249-2.925 28.616-5.845 42.263-3.87 18.087-9.509 34.653-17.435 49.561-6.56 12.34-19.075 27.064-37.812 45.043a20 20 0 0 1-13.28 5.561l-388 11.008c-.499 0-.998 0-1.496-.022l-387-18a20 20 0 0 1-14.861-7.703l-1.441-1.864c-17.143-22.293-28.709-41.762-34.655-58.83l-.494-1.432c-7.996-23.426-12.66-48.96-17.468-87.685-6.485-52.246-8.164-148.945-5.147-290.889a20 20 0 0 1 .054-1.113l.392-5.037c6.414-81.833 13.703-142.873 21.95-183.412l.5-2.43c8.068-38.711 23.054-89.057 44.968-151.22l2.415-6.818-.002-.029c-.347-6.31 1.696-12.581 6.076-17.763l.302-.352c4.525-5.176 10.551-8.472 18.243-10.99 11.162-3.653 27.551-5.997 49.866-7.373l2.6-.155c43.713-2.504 149.017-4.122 316.54-4.883zm425.089 400.006L265.336 464l-.184.014c-2.526.182-4.546.444-6.013.758l-.286.064a13.24 13.24 0 0 0-.4.098l-.33.089-.075.113c-.206.32-.404.74-.585 1.275l-.076.236c-.464 1.499-.62 2.99-.66 5.417l-.192 14.306c-.4 31.36-.605 60.22-.618 86.575v7.615c.033 31.818.356 59.848.972 84.088l.189 7.154c.078 3.035.145 5.963.204 8.87l.07 3.667.095 6.167c.093 6.873.147 14.153.178 22.909l.061 29.726c.05 14.745.174 24.297.476 32.833l.058 1.57.092 2.268.106 2.325.15 2.962.093 1.71c1.015 18.05 3.012 33.137 6.475 47.622.477 1.996.982 3.98 1.517 5.958l.338 1.232c4.955 17.86 10.007 25.992 17.703 30.109.91.486 1.852.933 2.856 1.344l191.639 8.913L637 878l-10 40 196-1 17-45 18.619-.77 1.457-1.458c11.796-11.87 19.55-21.327 23.105-27.865l.16-.295c11.063-20.81 16.296-45.265 18.72-76.176 2.566-32.718 3.897-133.602 3.938-301.43zM124.657 119.839l-.66 1.852-1.991 5.642C100.75 187.768 86.359 236.319 78.84 272.804l-.242 1.183-.48 2.39c-7.746 39.07-14.769 98.726-20.986 178.682l-.15 1.937-.075 3.618C54.08 597.006 55.7 690.393 61.664 740.03l.184 1.506.41 3.28c4.427 34.978 8.742 57.84 15.628 77.604 3.79 10.873 11.557 24.502 23.333 40.6l1.056 1.436 155.129 7.216c-3.94-6.791-7.15-15.317-10.057-26.06a227.9 227.9 0 0 1-1.663-6.531c-3.764-15.745-5.914-31.986-6.991-51.15l-.143-2.645-.11-2.182-.055-1.199-.136-3.21-.117-3.232c-.308-9.285-.42-19.85-.458-36.597l-.036-21.245c-.033-12.483-.103-21.931-.252-31.028l-.031-1.846-.094-4.878-.085-3.84c-.031-1.32-.064-2.655-.1-4.012l-.215-8.235c-.609-24.534-.923-52.846-.943-84.938l-.001-5.833c.013-28.351.249-59.57.708-93.661l.108-7.904c.023-1.404.068-2.364.192-3.695.224-2.404.648-4.733 1.357-7.02 1.37-4.423 3.687-8.31 7.22-11.331 4.013-3.432 9.858-4.781 18.835-5.378A10 10 0 0 1 265 444l639.748-.001c-7.426-75.55-15.13-131.826-23.036-168.57l-.254-1.173c-7.943-36.474-23.218-85.961-45.812-148.263l-.648-1.787-.53-.1c-5.602-1.054-11.974-2.058-19.108-3.01l-10.378 1.183C636.415 141.424 514.148 151 438 151c-79.374 0-183.789-10.394-313.343-31.161zm367.575-15.45-11.52-.388-22.253.109c-138.491.719-231.315 2.07-278.069 4.038C284.901 123.387 370.79 131 438 131c60.103 0 149.824-6.082 269.076-18.25l-11.068-.528c-48.438-2.269-116.381-4.88-203.776-7.833z" fill="#000" fill-rule="nonzero"/><path d="m659.439 444.047 1.23.022h6.634l.474-.02a69.13 69.13 0 0 1 5.693.02h54.758l1.317-.022 2.85-.033c3.286-.027 6.443-.014 9.471.033l1.172.022h15.622c1.745 0 3.429.409 4.93 1.157l.14.073.266.028c12.05 1.349 21.06 3.755 27.335 7.642l.397.25c12.1 7.758 18.393 25.51 21.039 53.652l.063.696 39.028 321.754c.03.247.05.495.063.743l.011.373.037 2.933.023 2.92c.166 30.84-2.152 51.902-7.425 64.058-6.215 14.325-19.933 42.559-39.605 48.526-.969.294-35.016-.021-36.03 0H643.83c-30.024 0-27.022-39.961-24.02-50.682 2.002-7.148 7.153-26.553 15.454-58.216.628-2.834 2.418-5.288 4.943-6.796l.295-.17 26.672-14.813c.546-.303 1.118-.56 1.71-.766 4.303-1.504 8.244-2.424 11.894-2.713l.843-.057c3.262-.181 7.63-.005 13.297.497.162.014.323.032.484.054l22.812 3.036-31.16-286.556-.742-.035c-16.587-.801-28.099-3.143-35.25-7.599l-.323-.204c-9.637-6.206-14.443-17.936-15.69-34.537a10.34 10.34 0 0 1-.03-.775v-33.884c0-5.774 4.738-10.484 10.65-10.588 4.855-.085 9.444-.093 13.77-.023zm27.034 391.969-.314.018-.318.028-.17.022c-.93.13-2.108.483-3.509 1.08l-.378.164-16.082 12.097-9.697 59.29c-.165 1.007 4.046 2.435 12.632 4.285h35.172a13.184 13.184 0 0 1 1.322-6.921l.683-1.386c8.099-16.517 12.574-28.797 13.445-36.085.793-6.645.957-15.817.456-27.41l-26.242-4.734-1.363-.152c-2.474-.258-4.374-.353-5.637-.296zm41.615-369.95-14.088.001c4.964 7.866 8.382 18.284 10.499 31.155l.046.307 44.507 332.55.028.233c3.16 28.51.296 49.258-9.637 62.474-5.846 7.777-13.169 14.515-21.917 20.214h24.327l.056-.033c16.727.022 29.392-.662 37.994-2.051l.527-.17c12.688-4.169 20.321-10.022 23.685-17.393l.165-.37.233-.555c3.773-9.281 5.754-28.902 5.458-57.938l-.03-2.354-39.02-321.477-.156-1.631c-2.107-21.7-6.571-34.256-11.298-37.284-3.106-1.99-10.02-3.76-20.3-4.763l-1.447-.135a11.073 11.073 0 0 1-2.986-.704l-.18-.074h-12.007l-2.664-.041a394.871 394.871 0 0 0-11.795.04zM656 465v22.885l.014.17c.839 10.146 3.182 15.854 5.872 17.709l.145.096c2.962 1.883 10.467 3.408 21.969 4.14l-.242-1.506c-1.712-10.418-3.761-18.272-6.061-23.445-2.715-6.106-7.754-12.806-15.185-19.994h-2.68l-2.687-.042L656 465z" fill="#000" fill-rule="nonzero"/><path d="M523.56 214.125C531.65 300.015 535.797 345.64 536 351c.181 4.78 4.944 13.567 11 18 6.832 5 17.35 7 20 7 3.2 0 80.46-.307 231.78-.922 3.059-.012 11.774-1.007 15.22-6.078 3.63-5.342 3.411-14.91 3-19-8.558-85.159-14.653-130.464-15.27-135.988-1.012-9.061-1.27-14.27-3.73-18.012-5.958-9.067-14.812-9.14-17.696-9.166C631.148 185.517 553.38 184.905 547 185c-9.962.148-14.305 2.6-18 6-7.3 6.718-5.8 19.303-5.44 23.125z" stroke="#000" stroke-width="20" stroke-linejoin="round"/></g></svg>