<svg xmlns="http://www.w3.org/2000/svg" viewBox="0 0 960 960"><g fill="none" fill-rule="evenodd"><g transform="translate(0 207)"><circle cx="190" cy="340" r="170" stroke="#000" stroke-width="40"/><circle cx="770" cy="340" r="170" stroke="#000" stroke-width="40"/><path d="m191 340 175-190 302-57 102 257" stroke="#000" stroke-linecap="round" stroke-linejoin="round" stroke-width="40"/><circle cx="770" cy="350" fill="#000" r="40"/><circle cx="191" cy="350" fill="#000" r="40"/><path d="m333 67 94 304 127.54-122.518L681 127" stroke="#000" stroke-linecap="round" stroke-linejoin="round" stroke-width="40"/><circle cx="430" cy="376" fill="#000" r="50"/><g stroke="#000" stroke-linecap="round" stroke-linejoin="round"><path d="M431 390v71m-29.5.5h60m-266-103L432 385" stroke-width="20"/><path d="M669 118 432 350M668 93l-24-72 37-21" stroke-width="40"/></g></g><g fill="#000"><rect height="40" rx="5" width="31" x="666" y="283"/><path d="M269 245c9.981 14.397 15.81 23.225 28 25s17 4.273 36-7.363c12.667-7.758 36.333-10.637 71-8.637-.667-20.065-15.667-28.254-45-24.565-29.333 3.69-55.333 2.306-78-4.15-14.654 3.545-18.654 10.117-12 19.715z"/></g></g></svg>