<svg viewBox="0 0 960 960" xmlns="http://www.w3.org/2000/svg"><g fill="none" fill-rule="evenodd" stroke="#000" transform="matrix(-1 0 0 1 676.88 18.1)"><path d="M295.019 504.908c32.966-293.57 49.449-444.463 49.449-452.68C344.468 39.9 236.523 39.9 182.55 39.9c-53.973 0-161.918 6.412-161.918 12.327 0 3.944 14.406 154.837 43.216 452.68-19.55 1.67-29.325 4.67-29.325 9.002C34.523 520.406 0 853.872 0 858.544s12.148 25.896 34.523 31.229c22.374 5.333 81.413 10.187 114.307 11.177 32.893.99 99.082 2.83 121.52.841 9.49-.841 28.943-1.136 47.074-12.018 20.174-12.109 44.074-32.87 42.946-49.351-2.086-30.456-32.103-329.494-32.103-332.031 0-1.692-11.083-2.853-33.248-3.483z" stroke-width="40"/><ellipse cx="187.073" cy="502.111" rx="146.849" ry="17.618" stroke-width="20"/><path d="M56.187 894.947c-12.478 3.301-16.438 7.04-11.881 11.214 6.836 6.262 20.83 8.323 29.78 7.293 5.967-.687 10.021-5.494 12.163-14.422zm193.905 9.713c-12.355 3.735-16.183 7.609-11.483 11.622 7.05 6.02 21.107 7.591 30.016 6.249 5.94-.895 9.824-5.84 11.653-14.838z" stroke-width="40"/><g stroke-width="20"><path d="M33.324 518.192c96.837 6.734 164.522 9.427 203.054 8.079 33.011-1.155 62.798-3.848 89.36-8.08M20.632 612.745c152.812 9.957 254.514 8.298 305.105-4.978"/><ellipse cx="138.231" cy="751.393" rx="41.067" ry="42.631"/><ellipse cx="150.217" cy="748.266" rx="85.36" ry="89.529"/><path d="m69.04 54.385 5.27 82.515c52.67-5.31 89.051-7.965 109.144-7.965 72.762 0 109.143 7.965 109.143 7.965l5.442-87.628C265.944 43.024 228.351 39.9 185.26 39.9c-43.09 0-81.83 4.828-116.22 14.485zm253.77 150.103c35.624-5.901 53.436-5.901 53.436 0 0 8.85-17.788 184.17-17.788 195.106 0 7.29-16.737 7.29-50.212 0"/><path d="M332.02 171.063c46.315-3.623 71.724-3.623 76.226 0 6.754 5.435-16.3 254.733-24.14 264.584-5.227 6.567-29.513 6.567-72.86 0M69.04 97.416c38.166-6.16 76.333-9.239 114.5-9.239 38.166 0 76.333 3.08 114.5 9.239"/><ellipse cx="182.59" cy="148.9" rx="108" ry="2"/><path d="m288.095 902.651-28.546-375.705"/><path d="M69.04 59.957c-2.967-34.097-2.967-52.037 0-53.818C71.255 4.808 127.64.965 184.216.206c56.974-.765 109.112.747 112.707 2.17 2.398.948 2.77 18.71 1.115 53.284" fill="#000"/></g></g></svg>