<svg xmlns="http://www.w3.org/2000/svg" viewBox="0 0 960 960"><g fill="none" fill-rule="evenodd"><path d="M450.93 44.685c41.023 4.873 76.638 10.319 106.85 16.316 27.971 5.553 49.756 20.675 64.497 45.041 12.645 20.904 20.044 49.462 20.044 85.955v350.166l.671.942c16.702 23.518 30.27 47.974 31.555 52.819l.035.14.142.614c.71 3.107 2.02 9.236 3.279 15.568l.217 1.098.26 1.328.257 1.316c.71 3.638 1.388 7.13 1.835 9.804l2.574 15.383-12.686 9.074c-.658.47-1.293.916-1.906 1.336-4.22 2.89-10.107 6.424-17.683 10.567a321.626 321.626 0 0 1-8.353 4.423l-.197.099v58.977c0 31.09-10.016 58.175-23.902 80.259l-.44.696c-21.28 33.486-51.396 54.825-66.483 61.725-14.625 6.688-42.669 19.95-84.134 39.785H454.87c-58.934-.167-104.272-.256-136.01-.268h-13.165c-22.618.01-34.483-1.015-34.922-.878-3.889 1.22-9.339 2.03-16.571.782a42.707 42.707 0 0 1-4.386-.99 439.16 439.16 0 0 1-2.721-1.375c-19.078-9.73-32.708-18.507-41.179-25.938-9.43-8.271-21.554-22.759-35.915-43.905V76.031c23.094-13.481 40.217-21.501 51.104-24.767 9.711-2.913 23.036-4.758 40.072-5.037l63.798 10.213 107.894.001Z" stroke="#000" stroke-width="49.997" stroke-linejoin="round"/><path fill="#000" d="m450.587 74.71 48.233 6.729h-48.233"/><path d="M530.931 69.342c27.85 9.517 51.612 34.459 51.612 80.254v344.256m.044 110.048c0 79.855-.044 126.531-.044 147.639 0 43.951-11.295 86.464-35.876 104.536M268.284 893.78c34.159-15.48 58.728-26.945 73.708-34.393 22.47-11.172 44.905-54.403 44.905-99.737V172.746c0-58.114-22.995-97.92-68.61-104.746" stroke="#000" stroke-width="24.999" stroke-linecap="round" stroke-linejoin="round"/><path d="M195 90.598c22.924 2.996 42.342 5.474 58.253 7.434 23.867 2.939 51.907 25.03 51.907 82.823v539.9c0 56.366-18.108 70.238-41.214 79.79-15.403 6.369-38.385 15.436-68.946 27.204" stroke="#000" stroke-width="24.999" stroke-linecap="round" stroke-linejoin="round"/><path d="M201.317 793.75c22.177-11.065 38.235-19.2 48.175-24.406 14.91-7.81 25.559-19.567 25.559-56.71V181.136c0-35.704-16.793-46.936-30.206-49.008-8.942-1.381-23.452-3.8-43.528-7.26m185.58 151.64h195.69m0 377.71h-195.69m173.857-164.692c-11.265-37.878-41.26-64.967-76.491-64.967-44.876 0-81.256 43.95-81.256 98.166 0 54.216 36.38 98.167 81.256 98.167 31.381 0 58.608-21.492 72.145-52.958" stroke="#000" stroke-width="24.999" stroke-linecap="round" stroke-linejoin="round"/><path d="M468.247 487.194h77.438c15.128 0 41.182 8.47 62.457 31.78 21.275 23.309 52.712 73.576 54.192 79.927 1.48 6.351 6.497 30.43 6.497 35.005 0 3.05-9.886 9.82-29.658 20.312-15.55-7.023-26.628-14.57-33.237-22.638-9.914-12.104-45.946-56.114-54.317-73.367-8.37-17.253-27.203-29.628-45.738-24.162" stroke="#000" stroke-width="24.999" stroke-linecap="round" stroke-linejoin="round"/><path d="M468.247 487.194h77.438c15.128 0 41.182 8.47 62.457 31.78 21.275 23.309 52.712 73.576 54.192 79.927 1.48 6.351 6.497 30.43 6.497 35.005 0 3.05-9.886 9.82-29.658 20.312-15.55-7.023-26.628-14.57-33.237-22.638-9.914-12.104-45.946-56.114-54.317-73.367-8.37-17.253-27.203-29.628-45.738-24.162" stroke="#000" stroke-width="24.999" stroke-linecap="round" stroke-linejoin="round"/><path d="M468.247 487.194c-10.934 6.204-16.401 18.048-16.401 35.531s5.467 31.418 16.401 41.805c13.105 6.97 26.18 9.976 39.228 9.017 13.047-.96 27.762-6.07 44.144-15.334m120.939 81.539c30.217 33.04 54.721 108.376 73.397 227.355C763.447 978.548 768.9 1152.44 762.273 1389l-31.146-.836c6.565-234.424 1.26-406.578-15.954-516.246-17.749-113.074-40.093-184.524-67.216-212.968l24.601-19.198Z" stroke="#000" stroke-width="24.999" stroke-linecap="round" stroke-linejoin="round"/></g></svg>