<svg xmlns="http://www.w3.org/2000/svg" viewBox="0 0 960 960"><g fill="none"><path d="M328.005 27.772c9.348-6.684 14.161-8.434 23.56-7.875 2.907.173 69.475 5.072 118.142 8.655 25.41 1.871 45.926 3.382 49.866 3.666 12.346.89 18.669 4.608 22.792 8.442 5.49 5.105 8.963 11.911 8.963 23.774v9.468c12.665.866 19.088 1.315 19.271 1.315l1.966.001c10.528.008 17.859.112 29.61 1.152 13.141 1.164 19.386 4.792 23.413 8.59 5.051 4.765 8.725 11.128 8.725 24.445l-.001 36.236.01.004c3.768 1.396 6.969 3.44 9.635 5.973l.305.295c4.732 4.634 8.734 11.371 8.734 22.553v12.02c37.12 1.593 59.336 2.477 66.647 2.65 14.74.347 22.74 5.149 28.25 11.978 4.518 5.603 7.926 14.063 7.926 28.657v1.11l-.001 1.181v.196l-.001.847v.951l-.001.254v.527l-.001.273-.001.856v.298l-.001.615-.001.969v.676l-.002 1.06v.737l-.026 20.708c-.078 64.958-.263 216.81-.267 330.689v15.037l.001 6.046c.01 63.994.082 111.967.29 118.08.466 13.675-2.722 21.833-6.342 27.236-6.167 9.204-15.1 13.184-25.769 14.192l-.65.058a109.52 109.52 0 0 1-4.076.247c-5.253.243-27.008 1.4-65.263 3.47l.002 89.438c-.012 12.527-1.382 22.24-5.062 29.045-4.669 8.632-12.06 15.378-26.912 17.013-12.948 1.426-138.451 10.716-165.76 12.733-5.607 3.516-13.98 7.81-21.895 8.186-3.623.172-18.74 1.223-35.156 2.406l-1.135.081-2.277.165-2.15.156-.76.055-1.516.11c-13.895 1.011-27.582 2.035-35.161 2.643l-1.114.09c-.86.07-1.618.132-2.262.188-20.564 1.76-28.671-1.185-40.665-10.357-14.301-10.937-16.778-19.956-17.207-25.76l-.014-.204-13.627-9.69V614.025l13.463 1.181-1.048-261.04h-12.415V59.082c28.169-18.638 43.83-29.067 46.968-31.31Z" stroke="#000" stroke-width="40" stroke-linejoin="round"/><path d="M336.744 32.445c3.248-1.795 14.437-.727 17.717-.174 3.28.553 5.79.72 5.79 11.317v50.228c0 4.017.992 5.41 6.475 2.448 4.365-2.357 26.956-13.475 36.847-18.352 2.536-1.25 11.818-5.564 19.807-3.147 7.221 2.185 8.575 6.08 8.575 12.828v60.916c0 3.41 2.335 4.031 4.884 2.418 2.55-1.613 11.093-6.159 11.093 5.063v59.267c0 5.287 2.77 6.207 9.226 3.75 6.456-2.459 63.516-19.761 69.24-21.374 5.724-1.613 10.101-2.825 10.101 10.674V749.11c0 12.12-1.712 16.044-12.995 12.644-11.283-3.4-60.873-20.659-66.905-22.9-6.032-2.24-8.326-.956-8.326 6.97v159.451c0 4.407-4.777 11.126-20.98 2.442s-64.106-36.896-70.82-40.773c-6.716-3.876-8.47-3.55-8.47 8.402v35.502c0 10.79-11.111 9.07-22.007 1.203a8478.69 8478.69 0 0 0-18.074-13.018M434.882 77.36l133.412 6.093m-124.332 65.308 184 5m88.678 45.265-184-2M728 764l-198.066 1.137" stroke="#000" stroke-width="20" stroke-linecap="round" stroke-linejoin="round"/><path d="M643.614 524.104c19.832 2.085 37.715-13.404 39.942-34.594 2.227-21.19-12.044-40.058-31.876-42.142-19.832-2.085-37.715 13.403-39.942 34.594-2.227 21.19 12.045 40.058 31.876 42.142ZM585.45 415.633c10.802 1.136 20.542-7.3 21.755-18.842 1.213-11.541-6.56-21.817-17.362-22.953-10.801-1.135-20.54 7.3-21.754 18.842-1.213 11.542 6.56 21.818 17.362 22.953ZM462.165 73.021c1.224-11.649 11.055-20.164 21.957-19.018 10.632 1.118 18.357 11.01 17.598 22.304l-39.635-2.34c.02-.314.046-.63.08-.946Zm-59.53-3.608c1.225-11.649 11.055-20.163 21.958-19.018 10.66 1.121 18.399 11.064 17.592 22.396l-22.059-1.303-17.5 2.613a22.68 22.68 0 0 1 .01-4.688Zm-27.116 807.736 34.086 23.648c-3.744 8.107-11.92 13.319-20.777 12.388-11.316-1.19-19.459-11.955-18.188-24.046.482-4.589 2.251-8.709 4.879-11.99Z" fill="#000" fill-rule="evenodd"/></g></svg>