<svg xmlns="http://www.w3.org/2000/svg" viewBox="0 0 960 960"><g stroke="#000" fill="none" fill-rule="evenodd" stroke-linejoin="round"><path d="m203.1 403.171 1.025.003h.127l.553.006.54.007 680.462 11.372c12.817.215 24.365 5.544 32.712 14.025 8.347 8.48 13.492 20.112 13.503 32.93l.11 133.367c.01 11.942-4.459 22.938-11.896 31.291-7.437 8.354-17.842 14.065-29.704 15.437L217 719.5a120 120 0 0 1-49.734-4.716L56.742 680.08a46.936 46.936 0 0 1-23.844-17.078 46.936 46.936 0 0 1-9.076-27.888L24 567.973v-91.982a46.914 46.914 0 0 1 10.558-29.681 46.914 46.914 0 0 1 26.93-16.347l117.623-24.309a120 120 0 0 1 23.99-2.483z" stroke-width="40"/><path stroke-width="20" stroke-linecap="round" d="m194 403-.438 299.078m79.895-42.418 579.393-65.662c8.593-.974 15.086-8.244 15.086-16.892v-87.015c0-9.344-7.541-16.936-16.885-17l-579.924-3.928c-13.255-.09-24.072 10.583-24.162 23.837v.128l-.21 142.65c-.02 13.254 10.71 24.015 23.964 24.035a24 24 0 0 0 2.738-.153zM247 535l620.936-17.063M247 598l620.936-44.996"/></g></svg>