<svg xmlns="http://www.w3.org/2000/svg" viewBox="0 0 960 960"><g fill="none" fill-rule="evenodd" stroke="#000"><path d="m532.246 491.809 15.254-23.112m-67.754-24.494 27.754-15.808" stroke-width="15"/><path d="M600.299 206.34c34.631 0 63.027 14.89 82.993 39.49 21.5 26.49 33.29 63.944 33.29 106.097 0 41.392-15.187 79.754-39.573 107.698-23.772 27.242-56.353 44.61-92.067 44.61-35.432 0-65.594-14.315-86.935-38.536-21.958-24.922-34.557-60.13-34.557-100.705 0-41.013 16.707-81.1 42.569-110.801 24.981-28.691 58.628-47.853 94.28-47.853z" stroke-width="20"/><path d="M28.312 573.746c0 3.117-6.775 19.355-6.123 45.966.586 23.93 9.486 80.743 26.699 170.438l884.26-229.872c3.559-29.217 5.338-47.06 5.338-53.528 0-9.702-15.903-9.702-15.903-17.976s9.026-58.696 5.556-61.742c-3.47-3.045-139.512-25.26-151.277-29.661-11.765-4.402-16.3-36.942-19.211-53.551-5.424-30.948-4.542-71.941-39.072-116.922-35.373-46.08-83.519-69.146-144.436-69.2l-84.74 3.647c-45.237 1.367-84.203 23.218-116.899 65.553C323.46 290.4 334.12 405.1 225.114 458.827c-5.808 2.862-36.882 18.41-80.877 29.947-31.472 8.253-110.336 17.976-115.925 25.461-5.59 7.486 0 48.528 0 59.51z" stroke-width="40"/><path d="M928.14 427.032c-92.6 43.53-150.718 29.822-174.356-41.126-14.479-43.454-6.805-115.465-36.73-153.775-21.759-27.856-76.67-52.791-89.213-52.791-12.544 0-88.461-21.333-162.551 76.484-74.091 97.818-60.651 219.548-206.926 285.342-16.9 7.601-60.41 23.492-76.228 27.473-48.73 12.264-85.56 20.445-110.49 24.541L43.49 514.235M925.932 480.5 680 536.752c-21.419 18.62-46.779 30.951-76.08 36.994-29.303 6.042-63.937 3.463-103.903-7.739L77.704 666.991l-3.603-70.625m-8.02 188.03-8.119-75.202c2.44-22.062 9.021-36.13 19.742-42.203m-10.297 6.158L34.441 566.007" stroke-width="20"/><ellipse cx="603.919" cy="364.949" fill="#000" rx="10.545" ry="13"/><ellipse cx="559.919" cy="398.949" fill="#000" rx="10.545" ry="13"/><ellipse cx="640.919" cy="384.949" fill="#000" rx="10.545" ry="13"/><path d="M604.146 365.117 647.5 318.5m-43.354 46.617L517.5 313.5m80.873 195.838L598 474m.246-238.738-.373-35.338M457.246 371.262 491 368m216.746 44.111L680 399m-33.754-149.191 15.254-23.112m12 66.803L701 274m-17.5 70.5 36 .349m-46.508 128.96L645 450M542 259l-24.508-26.605m-12.5 74.414-27.746-13.112" stroke-width="15"/></g></svg>