<svg xmlns="http://www.w3.org/2000/svg" viewBox="0 0 960 960"><g fill="none"><path d="M197.902 19.575 811.91 69.62c13.237 1.079 24.95 7.147 33.356 16.265 8.405 9.118 13.501 21.286 13.501 34.566v704.43c0 13.114-4.973 25.159-13.21 34.247-8.236 9.088-19.735 15.22-32.786 16.506l-606.968 59.837-40.036-5.815c-15.485-2.25-28.971-10.012-38.586-21.124-9.615-11.112-15.358-25.574-15.358-41.222V93.436a62.918 62.918 0 0 1 11.985-36.965A62.918 62.918 0 0 1 155.2 33.569l42.701-13.994Z" stroke="#000" stroke-width="40" stroke-linejoin="round"/><path d="M154.29 84.378v789.525c0 28.72 23.282 52 52 52a52 52 0 0 0 5.297-.27l598.557-61.293c21.937-2.246 38.62-20.724 38.62-42.776V120.88c0-22.485-17.324-41.173-39.744-42.876L210.228 32.527c-28.636-2.175-53.614 19.277-55.788 47.913a52 52 0 0 0-.15 3.938Z" stroke="#000" stroke-width="20" stroke-linecap="round" stroke-linejoin="round"/><path d="M278.767 773.233V190.56c0-10.87 7.804-20.172 18.51-22.06l15.628-2.757a25 25 0 0 1 5.8-.338l445.606 26.022c13.218.772 23.542 11.716 23.542 24.958v519.972c0 13.185-10.239 24.103-23.396 24.949l-457.052 29.37a25 25 0 0 1-6.06-.348l-9.785-1.773a15.57 15.57 0 0 1-12.793-15.32Z" stroke="#000" stroke-width="20" stroke-linecap="round" stroke-linejoin="round"/><path d="M304.353 191.7v572.514c0 13.807 11.193 25 25 25a25 25 0 0 0 1.604-.052l433.5-27.857c13.157-.846 23.396-11.764 23.396-24.949v-519.94c0-13.254-10.344-24.205-23.577-24.96l-433.5-24.716c-13.784-.786-25.596 9.752-26.382 23.537a25 25 0 0 0-.04 1.423Zm168.271-15.457v599.613M665.5 188.5l-.752 575.099" stroke="#000" stroke-width="20" stroke-linecap="round" stroke-linejoin="round"/><path fill="#000" fill-rule="evenodd" d="M561 249h18v21h-18z"/></g></svg>