<svg xmlns="http://www.w3.org/2000/svg" viewBox="0 0 960 960"><g stroke="#000" fill="none" fill-rule="evenodd" stroke-linejoin="round"><path d="m683.85 313.486 280.144 180.246-792.536 196.702L6.824 442.501 683.85 313.486z" stroke-width="40"/><path d="M220.172 533.742c48.586-2.534 87-23.052 85.8-45.83-1.199-22.777-41.558-39.188-90.144-36.654-48.586 2.534-87 23.052-85.8 45.83 1.199 22.777 41.558 39.188 90.144 36.654zm73.019 82.056c37.82-1.984 67.722-18.053 66.788-35.89-.934-17.838-32.35-30.69-70.17-28.706-37.82 1.984-67.722 18.053-66.788 35.89.934 17.838 32.35 30.69 70.17 28.706zm445.562-115.205c40.297 2.814 73.97-9.273 75.212-26.998 1.24-17.725-30.42-34.374-70.718-37.188-40.297-2.814-73.97 9.273-75.212 26.998-1.24 17.725 30.42 34.374 70.718 37.188zm-96.145-78.983c36.159 2.533 66.319-7.55 67.364-22.524 1.045-14.972-27.42-29.163-63.58-31.696-36.159-2.533-66.319 7.55-67.364 22.524-1.045 14.972 27.42 29.163 63.58 31.696zM461.13 500.962c60.75 1.065 110.386-20.44 110.865-48.034.48-27.594-48.378-50.825-109.127-51.89-60.75-1.065-110.386 20.44-110.865 48.034-.48 27.594 48.378 50.825 109.127 51.89z" stroke-width="18" stroke-linecap="round"/><path d="m449.152 588.985-4.608-4.74c-6.93-7.126-6.77-18.522.357-25.452a18 18 0 0 1 8.382-4.606l145.638-34.652a60 60 0 0 1 51.022 11.243l7.822 6.164" stroke-width="20" stroke-linecap="round"/></g></svg>