<svg xmlns="http://www.w3.org/2000/svg" viewBox="0 0 960 960"><g fill="none" fill-rule="evenodd"><path d="M474.023 21.194c34.497 1.458 62.228 10.763 61.939 20.784a5.377 5.377 0 0 1-.017.294l43.259 1.653a6.382 6.382 0 0 1-.135-1.596c.434-10.014 24.929-16.6 54.71-14.71 29.783 1.889 53.575 11.538 53.141 21.55v.026c4.282 1.039 7.309 2.316 9.079 3.833 2.642 2.263 3.975 6.335 4.002 12.215v38.522c19.577 1.034 40.243 2.15 61.999 3.351v805.377c-94.822 7.77-171.155 12.99-229 15.657-57.845 2.668-144.178 4.952-259 6.85l-71-55.78V134.517l71-44.036 3.243.042c46.665.613 88.269 1.267 124.81 1.962-.031-10.014-.048-18.361-.052-25.04v-5.819c.006-7.983.037-12.612.095-13.887.19-4.25.796-6.713 2.999-8.463 1.068-.85 3.072-1.369 6.012-1.558a5.303 5.303 0 0 1-.069-1.019c.29-10.02 28.489-16.962 62.985-15.504z" stroke="#000" stroke-width="40" stroke-linejoin="round"/><path d="M203 879.255V135.01L274 91v8.802c108.354 2.062 189.688 4.018 244 5.868 54.312 1.85 135.646 6.088 244 12.714v794.123c-94.822 7.765-171.155 12.981-229 15.647-57.845 2.667-144.178 4.949-259 6.846l-71-55.745z" stroke="#000" stroke-width="20" stroke-linejoin="round"/><path stroke="#000" stroke-width="20" d="m274 935-71-55.745V135.01L274 91z"/><path d="M711 731.767v132.818c0 5.179-4.139 9.457-9.433 9.75-71.73 3.98-130.107 6.912-175.139 8.797l-1.355.056c-44.845 1.868-102.77 3.803-173.784 5.808-5.634.16-10.289-4.258-10.289-9.762V741.533c0-5.27 4.281-9.59 9.675-9.761 68.74-2.186 124.428-3.814 167.068-4.885 42.604-1.07 103.596-2.698 182.975-4.883 5.631-.155 10.282 4.261 10.282 9.763zm-20 10.044-1.49.041c-73.677 2.024-130.76 3.544-171.253 4.56-40.458 1.016-92.7 2.536-156.725 4.558l-.532.016v118.193l.358-.01c66.09-1.894 120.38-3.726 162.862-5.495l1.352-.057c42.68-1.786 97.42-4.517 164.214-8.194l1.214-.067V741.811zm-211 81.757c5.523 0 10 4.372 10 9.766v4.883c0 5.393-4.477 9.766-10 9.766h-5c-5.523 0-10-4.373-10-9.766v-4.883c0-5.394 4.477-9.766 10-9.766h5zm113-4.883c5.523 0 10 4.372 10 9.766v4.883c0 5.393-4.477 9.766-10 9.766h-5c-5.523 0-10-4.373-10-9.766v-4.883c0-5.394 4.477-9.766 10-9.766h5zm-29-9.767v18.186c0 5.262-4.27 9.579-9.655 9.76l-40 1.347c-5.655.19-10.345-4.235-10.345-9.76v-18.185c0-5.263 4.27-9.58 9.655-9.76l40-1.348c5.655-.19 10.345 4.235 10.345 9.76zm-84-14.649c5.523 0 10 4.373 10 9.766v4.883c0 5.394-4.477 9.767-10 9.767h-5c-5.523 0-10-4.373-10-9.767v-4.883c0-5.393 4.477-9.766 10-9.766h5zm113-4.883c5.523 0 10 4.373 10 9.766v4.883c0 5.394-4.477 9.767-10 9.767h-5c-5.523 0-10-4.373-10-9.767v-4.883c0-5.393 4.477-9.766 10-9.766h5zM548.005 44.688l19.99.625-2 64-19.99-.625 2-64zm20.712 2.65c1.065-19.88 30.733-29.972 65.575-28.185 34.858 1.787 63.315 14.872 62.248 34.785-1.065 19.882-30.734 29.973-65.575 28.186-34.857-1.786-63.315-14.871-62.248-34.786zM426.7 19.178c12.916-3.96 29.826-5.836 47.664-5.226 17.838.61 34.575 3.636 47.18 8.468 6.638 2.544 12.103 5.573 16.144 9.104 5.204 4.549 8.248 10.11 8.022 16.429-.225 6.313-3.651 11.643-9.16 15.82-4.277 3.243-9.941 5.889-16.74 7.973-12.917 3.96-29.827 5.835-47.665 5.226-17.838-.61-34.575-3.636-47.18-8.468-6.637-2.545-12.102-5.573-16.143-9.104-5.205-4.549-8.248-10.11-8.023-16.43.225-6.312 3.652-11.642 9.16-15.818 4.278-3.244 9.942-5.89 16.74-7.974zm206.567 19.95c-13.298-.683-25.754.766-34.737 3.821-3.917 1.333-6.887 2.884-8.673 4.4a7.149 7.149 0 0 0-.967.965l-.075.097.058.094c.155.245.382.54.689.876l.16.171c1.607 1.683 4.39 3.526 8.137 5.249 8.603 3.955 20.834 6.67 34.13 7.351 13.296.682 25.753-.766 34.736-3.821 3.917-1.333 6.887-2.884 8.673-4.4.434-.368.752-.695.967-.965l.074-.098-.057-.093a6.53 6.53 0 0 0-.689-.876l-.16-.172c-1.607-1.682-4.39-3.525-8.137-5.248-8.603-3.956-20.834-6.67-34.13-7.352zm-159.585-5.19c-15.745-.538-30.474 1.096-41.12 4.36-4.728 1.449-8.339 3.136-10.52 4.789a11.18 11.18 0 0 0-.71.584l-.027.024.016.016c.138.143.296.297.476.46l.187.167c2.053 1.795 5.531 3.722 10.141 5.49 10.385 3.98 24.96 6.615 40.704 7.154 15.746.538 30.474-1.096 41.12-4.36 4.728-1.449 8.34-3.136 10.52-4.789.275-.21.512-.405.71-.584l.026-.025-.014-.015a10.088 10.088 0 0 0-.477-.461l-.187-.167c-2.053-1.794-5.53-3.721-10.14-5.488-10.386-3.982-24.96-6.617-40.705-7.155z" fill="#000" fill-rule="nonzero"/></g></svg>