<svg xmlns="http://www.w3.org/2000/svg" viewBox="0 0 960 960"><g fill="none" stroke-linejoin="round" stroke="#000"><path d="M197.902 19.575 811.91 69.62c13.237 1.079 24.95 7.147 33.356 16.265 8.405 9.118 13.501 21.286 13.501 34.566v704.43c0 13.114-4.973 25.159-13.21 34.247-8.236 9.088-19.735 15.22-32.786 16.506l-606.968 59.837-40.036-5.815c-15.485-2.25-28.971-10.012-38.586-21.124-9.615-11.112-15.358-25.574-15.358-41.222V93.436a62.918 62.918 0 0 1 11.985-36.965A62.918 62.918 0 0 1 155.2 33.569l42.701-13.994Z" stroke-width="40"/><path d="M154.29 84.378v789.525c0 28.72 23.282 52 52 52a52 52 0 0 0 5.297-.27l598.557-61.293c21.937-2.246 38.62-20.724 38.62-42.776V120.88c0-22.485-17.324-41.173-39.744-42.876L210.228 32.527c-28.636-2.175-53.614 19.277-55.788 47.913a52 52 0 0 0-.15 3.938Z" stroke-width="20" stroke-linecap="round"/><ellipse stroke-width="20" stroke-linecap="round" transform="rotate(3 589 478)" cx="589" cy="478" rx="185" ry="202"/><path d="M579.884 276.373a171.521 171.521 0 0 1 19.688-.096c102.033 5.347 180.013 99.997 174.174 211.405-5.838 111.409-93.285 197.388-195.318 192.041l1.039.044v.034l-56.634-1.85a173.823 173.823 0 0 1-15.739-.514l-.554-.025-.003-.02c-99.571-8.09-174.97-100.576-169.283-209.074 5.656-107.935 89.462-191.722 188.656-190.264Z" stroke-width="20" stroke-linecap="round"/></g></svg>