<svg xmlns="http://www.w3.org/2000/svg" viewBox="0 0 960 960"><g fill="none" stroke-linejoin="round" stroke="#000"><path d="m182.787 15.75 629.257 50.054c13.257 1.054 24.996 7.114 33.42 16.236C853.89 91.16 859 103.344 859 116.643l.003 293.56c10.95 19.85 16.86 43.19 15.895 67.944l-.087 1.893c-1.085 20.425-6.735 39.461-15.808 56.056L859 820.52c0 13.137-4.99 25.2-13.25 34.292-8.26 9.092-19.79 15.215-32.866 16.473l-622.097 59.85-41.629-5.9c-15.533-2.203-29.073-9.952-38.73-21.074C100.774 893.041 95 878.548 95 862.86V89.822a62.92 62.92 0 0 1 12.117-37.147 62.916 62.916 0 0 1 31.69-22.858l43.98-14.066Z" stroke-width="40"/><path d="M165.896 33.343c12.037-10.338 28.018-16.084 45.09-14.787l598.791 45.477c13.817 1.049 26.064 7.332 34.856 16.818 8.792 9.485 14.13 22.172 14.13 36.03l.001 317.739c4.38 13.42 6.524 27.971 5.952 43.093l-.082 1.82c-.582 11.172-2.61 21.895-5.867 31.964l-.004 306.067c0 13.59-5.14 26.08-13.66 35.517-8.52 9.437-20.421 15.823-33.94 17.207l-598.557 61.293a62 62 0 0 1-6.316.322c-17.12 0-32.62-6.94-43.84-18.159-11.22-11.22-18.16-26.72-18.16-43.84V80.377a62 62 0 0 1 .178-4.695c1.297-17.072 9.39-32.002 21.428-42.34Z" stroke-width="20" stroke-linecap="round"/><path d="M685.503 388.594c20.495-20.152 47.984-31.75 77.541-30.201 29.557 1.549 55.683 15.957 73.96 38.14 17.99 21.837 28.349 51.226 26.681 83.037-1.667 31.812-15.04 59.958-35.215 79.793-20.495 20.152-47.984 31.75-77.541 30.201-29.557-1.549-55.683-15.957-73.96-38.14-17.99-21.836-28.348-51.226-26.681-83.037 1.667-31.812 15.04-59.957 35.215-79.793Z" stroke-width="20" stroke-linecap="round"/><path d="m763.191 357.98 1.83.472c28.817 1.806 54.305 15.846 72.338 37.37 18 21.485 28.546 50.448 27.357 81.891l-.082 1.82c-1.659 31.826-15.035 59.987-35.217 79.83-20.496 20.152-47.985 31.75-77.542 30.201l-79.365-.823c-28.996-2.495-54.517-17.19-72.288-39.245-17.379-21.57-27.325-50.19-25.704-81.11 1.576-30.076 13.811-56.847 32.456-76.31 19.04-19.874 44.745-32.136 72.743-32.752l83.474-1.344Z" stroke-width="20" stroke-linecap="round"/><path d="m484.19 353.98 1.967.507c31.311 1.936 59.002 17.186 78.59 40.565 19.558 23.343 31.01 54.812 29.718 88.972l-.089 1.985c-1.802 34.578-16.33 65.175-38.258 86.735-20.017 19.681-46.18 31.85-74.596 32.862l-.165.004-.025.544-95.83-1.533c-31.538-2.597-59.307-18.497-78.66-42.418-18.97-23.451-29.832-54.62-28.067-88.296 1.716-32.754 15.064-61.9 35.401-83.057 20.735-21.57 48.716-34.845 79.18-35.41l90.833-1.46Z" stroke-width="20" stroke-linecap="round"/><path d="M399.95 387.21c22.24-21.869 52.07-34.463 84.146-32.782 32.076 1.681 60.424 17.324 80.258 41.397 19.547 23.726 30.796 55.66 28.985 90.222-1.812 34.562-16.337 65.145-38.257 86.697-22.241 21.868-52.07 34.462-84.146 32.78-32.076-1.68-60.425-17.323-80.258-41.396-19.547-23.726-30.796-55.66-28.985-90.221 1.812-34.563 16.337-65.146 38.257-86.698Z" stroke-width="20" stroke-linecap="round"/></g></svg>