<svg viewBox="0 0 960 960" xmlns="http://www.w3.org/2000/svg"><g fill="none" fill-rule="evenodd" stroke="#000"><path d="M363.207 24.16c32.55 0 137.559 37.469 137.559 150.344V789.39c0 7.73-21.91 131.168-127.364 146.18-42.15 6-105.644-17.352-148.685-30.946-74.455-23.516-103.696-72.401-103.696-122.965V174.504c.542-65.977 33.155-106.712 97.838-122.205 97.026-23.24 111.797-28.139 144.348-28.139z" stroke-width="40"/><path d="M363.207 24.16c-93.982 8.58-140.973 69.417-140.973 182.508v590.246c0 37.594 20.594 139.623 140.973 139.623" stroke-width="20"/><path d="M747.375 223.537c21.686 0 91.646 21.109 91.646 84.699V654.64c0 4.355-14.597 73.896-84.854 82.353-28.082 3.38-70.384-9.775-99.06-17.434-49.605-13.248-69.086-40.788-69.086-69.274v-342.05c.361-37.168 22.09-60.117 65.184-68.845 64.642-13.093 74.483-15.853 96.17-15.853z" stroke-width="40"/><g stroke-width="20"><path d="M747.375 223.537c-62.615 4.835-93.922 39.107-93.922 102.819v332.523c0 21.179 13.72 78.658 93.922 78.658m-161.354-257h67.432"/><circle cx="363.5" cy="223.5" r="27.5"/></g></g></svg>