<svg viewBox="0 0 960 960" xmlns="http://www.w3.org/2000/svg"><g fill="none" fill-rule="evenodd"><g stroke="#000"><path d="M261.787 71.731a1.996 1.996 0 0 1 2.202 1.776l.011 100a1.996 1.996 0 0 1-1.86 1.995l-66 4.623a1.995 1.995 0 0 1-2.135-1.855L194 80.784a1.995 1.995 0 0 1 1.787-1.989z" stroke-width="20"/><path d="M861.563 53.007V884.95l-507.03 53.524L92.39 896.879V48.696l262.143-25.309z" stroke-width="40"/><path d="m95.39 260.112 269.035-14.132 500.138 14.132M92.39 445.887l268.9 4.758 500.273-7.488M92.39 631.675l268.946 23.29 500.227-27.655M354.533 23.387v915.087M95.39 219.333l262.143-16.765 507.03 16.765" stroke-width="20"/></g><ellipse cx="229" cy="139" fill="#000" rx="9" ry="13"/><path d="m92.39 830.79 262.143 36.744 507.03-47.582v64.998l-507.03 53.524L92.39 896.879z" fill="#000" stroke="#000" stroke-width="20"/></g></svg>