<svg xmlns="http://www.w3.org/2000/svg" viewBox="0 0 960 960"><g fill="none" stroke-linecap="round" stroke-linejoin="round" stroke="#000"><path d="M644.778 862.85c-.678-.474-1.424-.949-2.306-1.356-1.153-.61-2.51-1.22-3.935-1.831-20.688-8.344-63.975-14.245-126.244-15.466l-.218-461.156c88.384-11.87 149.036-87.774 149.036-179.414 0-99.849-81.263-181.043-181.111-181.043-99.848 0-181.043 81.194-181.043 181.043 0 91.572 61.415 167.544 149.8 179.414l.218 461.156c-62.27 1.221-106.32 7.122-127.008 15.466a57.109 57.109 0 0 0-4.002 1.831c-.814.475-1.628.882-2.306 1.357-3.731 2.51-5.698 5.494-5.698 8.886 0 .678.068 1.424.271 2.102.136.407.271.747.34 1.018l6.24 33.049c.068.271.135.542.271.814l.204.475.407.881.203.272c.204.339.34.61.61.95l.204.27c.204.272.475.611.746.882l.136.136c.203.271.475.475.746.746l.204.204c.203.203.407.339.61.542l.271.204c.272.271.61.475.95.746l.204.136c.27.203.542.407.814.542l.135.068c.34.204.746.475 1.153.746.34.204.679.407 1.086.61l.339.204c.339.204.678.34 1.017.543.34.136.61.34.95.475l.407.203c8.275 3.799 21.231 7.123 38.46 9.972h.136c.814.135 1.628.27 2.578.407h.135c.747.135 1.56.203 2.307.339l14.176 1.899 22.453 2.238 28.557 1.764 39.003.95h12.142l29.235-.679h.204l25.64-1.356 26.726-2.374 15.67-1.967c.745-.136 1.491-.204 2.17-.34l.475-.067c.746-.136 1.56-.204 2.306-.34l2.78-.474c17.298-2.782 30.254-6.173 38.53-9.972l.135-.068 1.22-.61c.34-.203.747-.34 1.086-.543l.475-.271c.34-.203.678-.34.882-.543l.203-.135 1.018-.61.135-.069c.272-.135.475-.339.747-.542l.271-.204c.34-.271.678-.475.95-.746l.203-.136c.204-.135.407-.339.61-.542l.204-.204.746-.746.272-.339c.203-.204.407-.475.542-.678l.34-.475v-.068c.135-.203.27-.475.406-.678l.543-1.153s0-.068.068-.068l.407-.95 6.308-33.388c.136-.271.272-.61.34-1.017.203-.679.27-1.425.27-2.103-.135-3.256-2.034-6.308-5.765-8.818Z" stroke-width="40"/><path d="M305.84 197.083c0-96.212 78.314-174.526 174.525-174.526 96.212 0 174.526 78.314 174.526 174.526 0 89.899-68.326 164.12-155.797 173.485-1.387.139-2.844.278-4.231.416h-.347c-9.434.763-18.868.763-28.301 0h-.347c-1.388-.138-2.844-.277-4.232-.416-87.47-9.364-155.797-83.586-155.797-173.485Zm14.906 678.076c.204-.136.407-.34.814-.61.407-.272.882-.543 1.425-.815.813-.474 1.831-.881 2.984-1.356 19.264-7.8 76.022-13.499 136.121-14.72v11.229c0 5.426 5.766 5.833 10.446 6.104 3.731.272 2.527.407 7.75.407 7.53 0 6.976-.135 10.707-.61 1.831-.204 3.595-.543 4.952-1.289 1.899-.95 2.645-2.442 2.645-4.612v-11.229c60.099 1.221 116.817 6.92 136.013 14.72 1.153.475 2.17.95 2.985 1.356.542.272 1.017.543 1.424.814.34.204.61.407.814.61l-.746 2.85c-4.816 2.645-16.076 6.58-42.463 10.175-31.066 4.273-72.376 6.58-116.33 6.58-43.956 0-85.265-2.307-116.332-6.58-26.455-3.596-37.647-7.53-42.463-10.175l-.746-2.85Z" stroke-width="10"/><path d="M445.634 173.072c-13.988-5.798-28.224-7.957-43.324-5.71-34.434 5.124-57.07 35.42-51.95 69.702 3.773 25.276 16.538 45.525 34.748 62.749 2.991 2.829 6.643 5.16 10.348 7 8.734 4.339 15.136 2.205 19.926-6.194 1.146-2.01 2.09-4.14 3.085-6.238 7.621-16.062 17.16-30.842 29.377-43.843 1.094-1.163 2.074-2.433 3.09-3.633-.203-.202-.38-.416-.58-.62-11.286-9.187-18.498-23.159-18.498-38.819 0-13.332 5.26-25.416 13.778-34.394Zm163.583 73.215c.95-3.972 1.147-8.265.895-12.36-.59-9.65-5.586-14.084-15.163-14.02-2.295.015-4.59.262-6.88.451-17.556 1.441-34.962.601-52.161-3.423-1.54-.36-3.112-.57-4.645-.845-.074.275-.17.532-.247.805-2.31 14.251-10.74 27.382-24.186 35.166-11.445 6.625-24.418 8.117-36.336 5.269 1.935 14.885 7.115 28.175 16.507 40.017 21.417 27.006 58.614 31.375 85.517 9.945 19.835-15.8 30.913-36.816 36.699-61.005Zm-147.289-89.293c.461 1.523 1.067 3 1.598 4.474.276-.074.545-.12.821-.19 13.503-5.139 29.109-4.383 42.592 3.43 11.48 6.65 19.278 17.21 22.785 29.027 11.926-9.158 20.84-20.344 26.389-34.473 12.656-32.223-2.209-66.837-34.265-79.528-23.635-9.358-47.396-8.464-71.252-1.368-3.917 1.166-7.735 3.15-11.156 5.424-8.063 5.358-9.4 11.937-4.543 20.254 1.164 1.992 2.53 3.867 3.842 5.77 10.053 14.578 18.052 30.17 23.189 47.18Z" stroke-width="20"/><path d="M481.672 160.202c-13.795 0-26.2 5.824-34.988 15.11-8.17 8.638-13.215 20.264-13.215 33.091 0 15.067 6.918 28.51 17.743 37.348 8.303 6.78 18.903 10.857 30.46 10.857 26.623 0 48.203-21.582 48.203-48.205 0-26.621-21.58-48.2-48.203-48.2Z" stroke-width="20"/></g></svg>