<svg xmlns="http://www.w3.org/2000/svg" viewBox="0 0 960 960"><path d="M422.98-98c12.408-.049 22.51 10.035 22.561 22.526l-.78 354.275c24.055 2.582 46.576 9.305 65.231 19.712 13.634 7.606 25.211 17.166 33.923 28.656 10.55 13.915 16.543 30.252 16.543 47.69v10.862l.767.425 343.654 6.524c30.707.583 55.193 25.864 55.121 56.665l-.02.935a56.806 56.806 0 0 1-10.442 31.782l-1.262 1.771c-3.536 4.938-6.734 9.2-9.645 12.836-5.605 6.999-12.305 14.377-20.106 22.197-11.28 11.327-26.804 17.294-42.707 16.426l-302.161-16.495v4.173c0 1.994-.128 3.957-.376 5.883l-.073.529-.006.063c-1.725 16.066-8.582 30.767-19.25 43.272l-.545.634c-9.619 11.076-22.072 20.226-36.613 27.508-26.161 13.1-59.22 20.151-93.815 20.151-34.095 0-66.702-6.85-92.682-19.59-13.692-6.715-25.576-15.064-35.046-25.089l-.545-.582-66.051 35.398a50.322 50.322 0 0 1-20.667 5.86l-.776.043-2.64.117c-27.524 1.19-49.2 1.127-65.542-.298l-1.825-.166c-12.581-1.198-27.425-3.63-44.778-7.28l-2.504-.532c-27.307-5.864-44.72-32.899-38.895-60.385 3.268-15.419 13.45-28.442 27.551-35.253l164.41-79.513.937-.501a47.287 47.287 0 0 1 2.205-1.074l.204-.09-.308-.2a46.22 46.22 0 0 1-3.86-2.878l-.515-.438L33.636 289.502a75.623 75.623 0 0 1-26.171-30.25l-.348-.738c-17.624-37.899-1.39-83.002 36.268-100.746l2.34-1.098c9.278-4.34 17.56-8.04 24.894-11.115l2.087-.868c14.87-6.15 35.318-13.76 61.554-22.934 29.689-10.38 62.663-2.51 84.561 20.183l140.544 145.64.542-.185c12.482-4.202 25.938-7.097 39.915-8.594l.781-354.084c-.05-12.49 9.967-22.658 22.376-22.713ZM271.426 470l-6.387 3.088-.4.146.056.019L97.198 554.21a5.663 5.663 0 0 0-3.073 3.928c-.65 3.061 1.292 6.073 4.335 6.726l1.172.25 3.462.724c15.583 3.216 28.62 5.28 39.11 6.195l1.364.113c14.503 1.157 34.871 1.138 61.104-.055a5.609 5.609 0 0 0 2.387-.657L291 526.477c-8.615-7.539-14.652-16.229-17.524-26.103l-.082-.294-.048-.105a22.694 22.694 0 0 1-1.915-8.776l-.003-.39V470ZM569 431c2.032 5.246 3.114 10.785 3.114 16.562 0 .667-.015 1.333-.045 1.999l-.042.752v22.821l306.212 16.85a11.119 11.119 0 0 0 8.523-3.304c6.453-6.52 11.876-12.512 16.271-17.977l.568-.71c2.646-3.331 5.75-7.528 9.31-12.59a11.532 11.532 0 0 0 2.089-6.396c.113-6.287-4.815-11.48-11.012-11.599L569 431Zm-147.447-35c-50.3 0-93.798 11.83-114.553 29.016 1.691 3.774 2.356 7.54 1.996 11.297 4.34-2.34 9.006-4.52 13.968-6.535 26.613-10.811 61.574-16.818 98.59-16.818 37.015 0 71.976 6.007 98.589 16.818 11.25 4.57 20.974 9.976 28.857 16.222-.737-8.751-6.817-16.951-16.957-24.079-1.773-1.14-4.513-3.022-8.08-5.008-1.706-.95-4.605-2.364-8.695-4.242C491.969 402.42 458.607 396 421.553 396ZM148.896 164.998l-8.15 2.861c-22.315 7.88-39.727 14.426-52.235 19.636l-.631.264c-7.301 3.056-15.776 6.854-25.426 11.392-15.15 7.127-21.682 25.247-14.59 40.473a30.4 30.4 0 0 0 10.67 12.45l212.82 142.043-.422.08c.957.506 1.895 1.011 2.816 1.516L292.155 408c8.236-6.95 18.69-12.906 30.956-17.869 18.609-7.529 41.289-12.71 65.889-15.135l-39.496-32.978-.383.264-2.929-3.03-1.298-1.084a11.247 11.247 0 0 1-2.335-2.676L186.42 173.942c-9.717-10.056-24.35-13.543-37.525-8.944ZM422.125 323c-18.462 0-35.665 3.034-50.125 8.264l50.608 42.727.432.002c34.149.135 66.47 5.46 91.96 15.007v-13.694C515 346.418 473.418 323 422.125 323Zm-127.69 169.295.028.14.177.781.145.56.246.842.273.816.152.418.16.42.157.39.243.566.098.22c.06.133.12.266.183.398l.077.154c2.462-7.668 7.124-14.638 13.48-20.712 7.602-7.264 17.688-13.318 29.75-18.216 22.533-9.15 51.933-14.205 83.01-14.205 31.16 0 60.631 5.082 83.185 14.277 8.638 3.521 16.258 7.637 22.672 12.368 1.942.084 3.894.176 5.854.276l.124-.06 8.551.467C526.613 451.205 478.408 436 421.49 436 351.08 436 294 459.27 294 487.974c0 1.197.1 2.385.295 3.563l.14.758Zm127.067 83.7 1.488.005 1.914-.009 1.559-.02.71-.013 1.32-.03 1.499-.045 1.807-.069.588-.025 1.658-.082 1.678-.096 1.135-.073c1.008-.068 2.012-.143 3.011-.225l1.673-.145 1.708-.163 1.959-.205 1.47-.167 1.61-.195 1.622-.212 1.65-.23.997-.145 1.889-.292 1.815-.299 1.375-.239 1.808-.33 1.82-.354 1.783-.364 1.964-.425 1.8-.41 1.977-.476.814-.203 1.425-.366.591-.156.902-.243 1.26-.348 1.622-.466 1.275-.38 1.501-.464 1.374-.439 1.244-.41.582-.197.825-.283 1.328-.469 1.227-.446 1.3-.488.574-.221.876-.342 1.1-.44a126.5 126.5 0 0 0 2.258-.944l.832-.36.597-.264.57-.256 1.19-.545 1.2-.566.752-.365a105.116 105.116 0 0 0 3.085-1.571l.767-.411.582-.318 1.236-.692.872-.503 1.284-.763.809-.497.933-.587 1.137-.74.99-.664a77.821 77.821 0 0 0 1.667-1.171l.544-.396.513-.381.384-.29.64-.491.842-.666.758-.617.903-.76.746-.65.91-.823c.457-.421.903-.846 1.339-1.274 7.262-7.136 11.54-15.2 11.984-23.756H529v-13.016h-.033l-.01-.532-.044-.724-.074-.739-.108-.748-.085-.478-.068-.341-.102-.452-.094-.38-.147-.529-.18-.59-.059-.182-.161-.464a21.262 21.262 0 0 0-.2-.53l-.342-.818-.244-.533-.165-.34-.156-.31-.189-.36-.29-.525-.255-.44-.191-.316-.264-.419-.183-.282-.35-.518-.522-.73-.337-.445-.426-.542-.295-.36-.437-.517-.458-.52-.542-.588-.224-.236-.64-.652-.607-.591-.586-.548-.563-.51-.952-.822-.695-.573-.716-.568-.937-.713-.688-.507-.798-.566-.857-.587-.86-.569-1.002-.638-.684-.422-.916-.55-1.236-.712-1.11-.617-1.147-.612-1.302-.67-1.087-.538-1.261-.604-1.112-.514-1.056-.473-.887-.388-1.535-.648-.79-.324-1.43-.569-.982-.377-1.193-.448-1.173-.426-.71-.252-1.536-.53-.943-.315-.75-.245-.892-.288-1.494-.466.143.044a150.89 150.89 0 0 0-2.833-.841l-1.54-.433-.708-.194-1.605-.427-2.024-.515-1.631-.397-1.31-.306-1.425-.323-.85-.188-1.021-.219-.79-.165-.075-.015-.161-.034-1.507-.303a196.753 196.753 0 0 0-4.207-.789l-2.194-.375-1.883-.304-2.03-.307a197.44 197.44 0 0 0-1.705-.244l-1.11-.152-1.55-.202-2.28-.279-1.763-.2-2.033-.213-1.947-.189-2.226-.195-1.914-.152-1.056-.078a238.91 238.91 0 0 0-2.455-.163l-1.834-.106-1.694-.086-1.604-.072-1.64-.062-1.368-.044-1.689-.045-1.005-.021-1.643-.027-1.883-.018-1.598-.005c-58.381 0-105.737 19.218-105.99 42.964v14.24h.138c.795 8.365 5.257 16.234 12.576 23.192l.768.716.806.727.687.599.474.403.551.46c.244.201.492.402.741.602l.42.333.542.424.9.684.781.576.952.682 1.01.698.963.647a84.84 84.84 0 0 0 1.807 1.161l1.212.744.945.562 1.073.62 1.03.578 1.152.626 1.144.604 1.183.605 1.002.497 1.042.505 1.467.687.997.453 1.118.494 1.287.553 1.105.46 1.472.594 1.082.424 1.34.508 1.322.486 1.002.359.914.318 1.287.438 1.302.428.857.275 1.244.388 1.377.416 1.369.4 1.14.322 1.776.484 1.824.474 1.146.286 1.204.291 1.644.382 1.37.306 1.525.326 1.407.289 1.799.351 1.284.239 1.355.242 1.729.293 1.453.233 1.58.24c2.445.362 4.926.679 7.44.95l1.968.202 1.474.139 1.904.162.665.053 1.704.124.907.06 1.486.09 1.847.096 1.553.069 1.791.064 1.595.044 1.496.03 1.995.024Z"/></svg>