<svg viewBox="0 0 960 960" xmlns="http://www.w3.org/2000/svg"><g fill="none" fill-rule="evenodd"><g stroke="#000"><path d="M682.275 37.102v837.476h-26.013c-18.575 38.1-77.147 57.148-175.716 57.148-147.854 0-201.729-31.41-201.729-70.468V52.774c0-8.322 66.177-31.068 132.354-31.068 44.119 0 88.237 5.132 132.355 15.396z" stroke-width="40"/><path d="M523.275 37.102v826h159m-403.458 0c62.832 12.699 125.664 19.048 188.496 19.048s125.664-6.35 188.496-19.048" stroke-width="20"/><path d="M560 475h78v93h-78zM278.817 314.042c28.486-5.778 69.23-8.666 122.23-8.666h122.228" stroke-width="20"/></g><circle cx="598.5" cy="539.5" fill="#000" r="9.5"/></g></svg>