<svg xmlns="http://www.w3.org/2000/svg" viewBox="0 0 960 960"><g stroke="#000" fill="none" fill-rule="evenodd"><path d="m68.401 50.05 50.409-24.89 541.48 49.966v62.855h14.628V94.982l39.168-6.337 187.801 13.28 6.787 761.372-183.462 13.017-43.69-3.765v-47.027h-15.411v56.373L125.115 924.16l-56.714-25.353V50.05z" stroke-width="40" stroke-linecap="round" stroke-linejoin="round"/><path stroke-width="20" stroke-linecap="round" stroke-linejoin="round" d="M129.137 25.16v899m43.125-830.816 436.265 36.672v266.496l-436.265-10.996zM650.29 74.126v800.729m52.499-781.511L703 868"/><path d="M245.355 808.02v54.436L177 867.566v-56.64l68.355-2.906zm109.891-3.244v50.987L291 860.566v-53.06l64.246-2.73z" stroke-width="20"/></g></svg>