<svg xmlns="http://www.w3.org/2000/svg" viewBox="0 0 960 960"><path d="M853.433 61.95C901.788 65.376 942 103.64 942 150.758v584.688c0 47.487-40.76 85.349-89.47 87.693L708 830.092V882a45.802 45.802 0 0 1-9.73 28.295l-.286.36-.152.689c-4.638 20.186-22.56 35.3-44.071 35.656h-11.892a49.22 49.22 0 0 1-6.478-.418l-.701-.1-.62.092a46.741 46.741 0 0 1-5.422.426H609c-21.34 0-39.286-14.532-44.483-34.24l-.114-.445-.33-.38a45.812 45.812 0 0 1-11.067-29.175L553 882v-44.45l-178.649 8.597-.003.067c-1.172 24.098-20.889 43.327-45.184 43.721l-.76.006h-22c-22.611 0-41.412-16.313-45.274-37.811l-.091-.53-27.97 1.346-.003.332c-.402 24.801-20.432 44.831-45.233 45.233l-.76.007h-22c-25.406 0-46-20.595-46-46l-.001-9.385-27.464-8.141a39.971 39.971 0 0 1-9.883-4.459l-.194-.123-.43-.217c-28.24-14.43-46.7-42.813-47.095-75.191L34 753.944V372.971l-2.29-2.137A40.019 40.019 0 0 1 19 342.144V139.952a40 40 0 0 1 15.293-31.457l2.356-1.851.016-.062c5.556-21.59 19.493-40.01 38.895-51.512l.021-.013.04-.029a40.008 40.008 0 0 1 5.306-3.378l.434-.227 39.255-20.247.523-.386c16.625-12.134 37.19-18.068 58.473-16.56l673.82 47.72ZM668 811.617l-75 3.599V882a6 6 0 0 0 6 6h4v13a6 6 0 0 0 6 6h18.86c1.277 0 2.166-.423 3.02-.884l.51-.278c.853-.461 1.742-.884 3.019-.884 4.449 0 3.337 2.046 7.46 2.046H653a6 6 0 0 0 6-6v-13h3a6 6 0 0 0 6-6v-70.384Zm-508.928 21.918v18.984a6 6 0 0 0 6 6h22a6 6 0 0 0 6-6v-18.111l-15.143.728a70.789 70.789 0 0 1-18.857-1.601Zm175.331-5.909-34 1.632v14.684a6 6 0 0 0 6 6h22a6 6 0 0 0 6-6v-16.316ZM902 637.53l-752.923 20.705a10 10 0 0 1-1.37-.057l-22.159-2.441V766.28c0 28.357 23.023 50.24 51.422 48.878l674.198-32.354c10.303-.495 19.899-3.617 27.944-8.586 13.8-8.781 22.888-23.061 22.888-38.773V637.53ZM105.548 365.025l-29.103 9.908c-.814.277-1.63.499-2.444.667L74 753.944c0 19.192 11.823 35.244 28.973 42.322l.003.375 11.17 3.311c-5.482-9.906-8.598-21.367-8.598-33.672V365.025ZM125.981 96.4l-.025.218c.03.455.044.915.044 1.382v245.744c0 1.443-.155 2.859-.452 4.23v287.702c.362 0 .727.02 1.095.061l22.573 2.486L902 617.523V150.757c0-7.2-1.908-14.142-5.304-20.426-8.61-14.968-25.767-25.97-45.528-27.366L176.97 55.349c-26.128-1.846-47.704 16.088-50.989 41.05Zm-20.273 1.86-31.69 28.22c-.012.425-.018.852-.018 1.28v.412l-7.564 5.94L59 142.63v198.96l10.894 10.165V131.628l.104 220.224 3.257 3.039 32.293-10.993V103.063c0-1.617.054-3.219.16-4.804Z" fill-rule="evenodd"/></svg>