<svg xmlns="http://www.w3.org/2000/svg" viewBox="0 0 960 960"><path d="M222.34 114.999c.91 0 1.822 0 2.734.014l1.37.03 568.683 15.786C853.717 132.455 902 178.677 902 235.895v393.21c0 49.207-35.71 90.282-82.976 101.853L818 731.2v94.647c0 21.355-16.763 38.902-38.017 39.951l-.645.027-.689.022-.334.427a49.222 49.222 0 0 1-4.221 4.668l-.229.219V960h-40V847.749l-57.866 1.929L676 960h-40.264l-.001-86.721-.43-.417a49.19 49.19 0 0 1-2.348-2.478l-.033-.038-3.61.121-.048.069a49.196 49.196 0 0 1-2.982 3.786l-.09.1V960h-40V852.33l-46.195 1.54L540 960h-40.593l-.001-83.429-.219-.25a49.21 49.21 0 0 1-.443-.52l-.32-.387-.161.014a40.55 40.55 0 0 1-1.283.084l-.645.027-24.531.818-.168.276a54.85 54.85 0 0 1-.72 1.123l-.347.514V960H430.57V859.806l.43-.08v-.218l.646-.118a8.974 8.974 0 0 0 4.252-2.05l-44.134 1.47a9.002 9.002 0 0 0 2.952 2.204 9.001 9.001 0 0 0 2.16.548l.471.057c.213.024.43.047.652.07l.001 98.31h-40.039l-.001-79.633-.023-.034a48.968 48.968 0 0 1-4.916-9.24l-.019-.045-9.872-3.649a40.002 40.002 0 0 1-25.978-34.031l-.034-.406-73.976 2.024a40 40 0 0 1-18.678-4.058l-.579-.289-26.049-13.276A40 40 0 0 1 176 781.724v-34.86l-21.577-1.582a40.5 40.5 0 0 1-2.485-.26l-.594-.085-1.136-.11c-51.497-5.369-91.378-48.506-92.195-100.801L58 642.389V222.61c0-56.885 46.115-103 102.996-103l.264.001 55.682-4.482c1.4-.112 2.788-.152 4.16-.121l.361.011.877-.021ZM478 773.815l-94.93 2.086h-.219v63.026l.192.072.006-.208 5.951-.2v.208l49.998-1.677.001-.206 41.668-1.396a19.968 19.968 0 0 1-2.667-9.977v-51.728Zm142-.013-95.524 2.099h-.22v58.056l3.022-.101v.035l57.131-1.905 13.915-.464v-.041l24.448-.817A19.97 19.97 0 0 1 620 820.505v-46.703Zm-257.148 36.32-.254.128a19.866 19.866 0 0 1-5.3 1.758l-.298.051v17.284l5.851 2.169v-21.39Zm415.07-38.841-112.04 2.461-.221.002.001 55.928 83.273-2.776v-.076l28.987-.97v-54.57ZM337 730.268l-95 1.495v63.213l.046.023 17.554-.48 77.4-2.117v-62.134ZM221.445 732H216v49.724l5.445 2.775v-52.5ZM620 721.453l-95.743 1.674-.001 32.6.828.156L620 753.797v-32.344Zm-142 3.108-94.952 5.402v1.219l-.048-.004v.592l-.149-.011v23.968l.828.156L478 753.81v-29.25ZM777.922 718l-17.581.51-94.292 2.734-.388-.001v32.498l112.042-2.461.219-.003v-33.276Zm-554.69-563-1.02.012a73.9 73.9 0 0 0-2.061.065v-.015l-.151.006v-.056l-5.844.47c-32.279 4.402-56.906 31.745-56.906 65.523V644.14c0 33.287 23.915 60.323 55.5 65.316l3.25.236v.015l4 .293v-.07c1.656.07 3.33.09 5.017.044L778 694.63l16.017-.444.896-.032.195-.007c.249-.01.497-.022.745-.035 33.341-1.762 60.696-25.649 65.424-55.74.476-3.032.723-6.127.723-9.268v-393.21c0-3.264-.266-6.477-.78-9.622-4.904-30.036-32.36-53.809-65.74-55.404a72.684 72.684 0 0 0-1.485-.057l-6.103-.17-562.875-15.617a66.745 66.745 0 0 0-1.784-.025Zm-60.492 4.609-.217.002-5.523.444v.07c-32.93 2.063-59 29.424-59 62.875v419.389c0 33.569 26.255 61.005 59.35 62.896v.104l5.662.416c-15.913-15.58-25.762-37.36-25.762-61.664V221.005c0-24.165 9.737-45.835 25.49-61.396Z"/></svg>