<svg xmlns="http://www.w3.org/2000/svg" viewBox="0 0 960 960"><g fill="none" stroke-linejoin="round" stroke="#000"><path d="M131.833 187a50 50 0 0 0-4.553.208l-47.832 4.373c-12.872 1.177-24.234 7.162-32.378 16.085C38.926 216.588 34 228.448 34 241.372v10.039A29.86 29.86 0 0 0 29 268v304.16a28.736 28.736 0 0 0 5 16.23V731c0 13.807 5.596 26.307 14.645 35.355C57.693 775.404 70.193 781 84 781h46.105c.399 0 .797-.005 1.196-.014l208.133-4.979 547.156-6.464c13.691-.161 26.044-5.814 34.973-14.85 8.93-9.036 14.437-21.454 14.437-35.146V258.124a48.432 48.432 0 0 0-11.097-30.884 48.432 48.432 0 0 0-28.216-16.758l-20.81-4.023a50 50 0 0 0-7.734-.878l-527.655-18.55a50 50 0 0 0-1.757-.031Z" stroke-width="40"/><ellipse stroke-width="20" stroke-linecap="round" transform="matrix(-1 0 0 1 1810.752 0)" cx="905.376" cy="662.626" rx="29.139" ry="51.092"/><ellipse stroke-width="20" stroke-linecap="round" transform="matrix(-1 0 0 1 1819.759 0)" cx="909.879" cy="351.904" rx="23.371" ry="44.337"/><path d="M915.955 584.107h-84.178c-25.508 0-46.186-20.678-46.186-46.186V248.124h0v-13.342c0-14.074-11.409-25.483-25.482-25.483h0M391.362 197c17.197.55 30.853 14.65 30.853 31.855v297.722c0 35.623-28.878 64.5-64.5 64.5-.57 0-1.138-.007-1.707-.022l-64.06-1.696a85.928 85.928 0 0 0-4.295-.007l-193.02 4.542h0H64.21" stroke-width="20" stroke-linecap="round"/><ellipse stroke-width="20" stroke-linecap="round" transform="matrix(-1 0 0 1 474.422 0)" cx="237.211" cy="338.394" rx="55.595" ry="45.463"/><path d="M212 300a32.262 32.262 0 0 0-4.901.376c-.635.339-1.267.692-1.895 1.059C190.76 309.876 182 323.532 182 338.5c0 14.968 8.76 28.624 23.203 37.065.632.369 1.266.723 1.904 1.062A32.291 32.291 0 0 0 212 377c9.798 0 18.747-4.402 25.195-11.753C243.2 358.402 247 348.967 247 338.5c0-10.468-3.8-19.902-9.805-26.747C230.747 304.403 221.798 300 212 300Z" stroke-width="20" stroke-linecap="round"/><ellipse stroke-width="20" stroke-linecap="round" transform="matrix(-1 0 0 1 488.897 0)" cx="244.448" cy="666.003" rx="62.832" ry="51.092"/><path d="M212.5 626a35.801 35.801 0 0 0-10.281 1.505c-.596.45-1.187.913-1.77 1.39C188.848 638.368 182 651.36 182 665.5c0 14.14 6.848 27.132 18.448 36.605a56.41 56.41 0 0 0 1.775 1.393A35.767 35.767 0 0 0 212.5 705c10.43 0 19.912-4.475 26.76-11.822 6.603-7.083 10.74-16.855 10.74-27.678s-4.137-20.595-10.74-27.678C232.412 630.475 222.93 626 212.5 626Zm506.419-380.698c-.332-7.79-1.128-13.514-2.389-17.174-1.26-3.66-3.927-7.99-8-12.987m-16.63 28.841c-.332-7.79-1.128-13.514-2.389-17.175-1.26-3.66-3.928-7.989-8.001-12.987m-16.63 28.842c-.331-7.79-1.127-13.514-2.388-17.175-1.261-3.66-3.928-7.99-8.002-12.987m-16.63 28.842c-.33-7.79-1.127-13.515-2.388-17.175-1.26-3.66-3.928-7.99-8-12.987m-16.631 30.162c-.331-7.79-1.127-13.515-2.388-17.175-1.26-3.66-3.928-7.99-8.001-12.987m-17.756 28.842c-.331-7.79-1.127-13.515-2.388-17.175-1.26-3.66-3.928-7.99-8.001-12.987m-16.63 28.841c-.331-7.79-1.127-13.514-2.388-17.174s-3.928-7.99-8.002-12.987m-18.881 28.841c-.331-7.79-1.127-13.514-2.388-17.175-1.261-3.66-3.928-7.989-8.001-12.987m-16.63 28.842c-.331-7.79-1.128-13.514-2.388-17.175-1.261-3.66-3.928-7.99-8.002-12.987m229.922 519.169c-.332 7.718-1.128 13.377-2.389 16.978-1.26 3.601-3.927 7.833-8 12.695m-16.63-28.987c-.332 7.718-1.128 13.377-2.389 16.978-1.26 3.601-3.928 7.833-8.001 12.695m-16.63-28.987c-.331 7.718-1.127 13.377-2.388 16.978-1.261 3.601-3.928 7.833-8.002 12.695m-16.63-28.987c-.33 7.718-1.127 13.377-2.388 16.978-1.26 3.601-3.928 7.833-8 12.695m-16.631-30.296c-.331 7.717-1.127 13.377-2.388 16.978-1.26 3.6-3.928 7.833-8.001 12.695m-17.756-29.013c-.331 7.717-1.127 13.377-2.388 16.978-1.26 3.601-3.928 7.833-8.001 12.695m-16.63-28.987c-.331 7.717-1.127 13.377-2.388 16.978-1.261 3.601-3.928 7.833-8.002 12.695m-18.881-29.039c-.331 7.718-1.127 13.377-2.388 16.978-1.261 3.601-3.928 7.833-8.001 12.695m-16.63-28.987c-.331 7.718-1.128 13.377-2.388 16.978-1.261 3.601-3.928 7.833-8.002 12.695M58.54 248.026a19.937 19.937 0 0 0-14.142 5.858 19.937 19.937 0 0 0-5.858 14.142v304.096c0 5.23 2.12 9.964 5.547 13.39a18.879 18.879 0 0 0 13.39 5.548h6.468a20 20 0 0 0 9.315-2.302l5.935-3.123a19.985 19.985 0 0 0 7.807-7.362 19.985 19.985 0 0 0 2.879-10.337v-299.91a19.937 19.937 0 0 0-5.858-14.142 19.937 19.937 0 0 0-14.142-5.858Z" stroke-width="20" stroke-linecap="round"/></g></svg>