<svg viewBox="0 0 960 960" xmlns="http://www.w3.org/2000/svg"><g fill="none" fill-rule="evenodd"><g stroke="#000" stroke-linejoin="round"><path d="M475.86 817.917c-134.547-2.816-202.494-15.559-203.84-38.227l-.019-.648.012.47-2.264-.311c-32.285-4.5-57.003-10.806-74.154-18.917L195 760C100.846 714.779 71 608.608 71 533c0-107.369 66.18-216.533 154-277 58.584-40.337 133.771-41.934 241.506-41.997h26.988c107.735.063 182.922 1.66 241.506 41.997 87.82 60.467 154 169.631 154 277 0 75.608-29.846 181.779-124 227-17.567 8.437-43.238 14.941-77.013 19.512l-.008.185C686.606 802.592 617.28 815.36 480 818z" stroke-width="20"/><path d="M475.86 817.917C339.955 815.072 272 802.1 272 779l-2.265-.31c-32.66-4.531-57.563-10.442-74.735-18.69-94.154-45.221-124-151.392-124-227 0-107.369 72.061-227.866 160-288 22.676-15.506 45.68-25.9 69.999-32.864L301 187c0-14.667 59.667-22 179-22s179 7.333 179 22l.001 25.136C683.32 219.1 706.324 229.494 729 245c87.939 60.134 160 180.631 160 288 0 75.608-29.846 181.779-124 227-17.567 8.437-43.225 14.43-77 19 0 23.333-69.333 36.333-208 39z" stroke-width="40"/><g stroke-width="20"><path d="M475.86 817.917c-134.547-2.816-202.494-15.559-203.84-38.227l-.019-.648.012.47-2.264-.311c-32.285-4.5-57.003-10.806-74.154-18.917L195 760C100.846 714.779 71 608.608 71 533c0-107.369 66.18-216.533 154-277 58.584-40.337 133.771-41.934 241.506-41.997h26.988c107.735.063 182.922 1.66 241.506 41.997 87.82 60.467 154 169.631 154 277 0 75.608-29.846 181.779-124 227-17.567 8.437-43.238 14.941-77.013 19.512l-.008.185C686.606 802.592 617.28 815.36 480 818z"/><path d="M475.86 807.917C339.955 805.072 272 792.1 272 769c0-23.333 69.333-35 208-35s208 11.667 208 35-69.333 36.333-208 39z"/><path d="M242 595c12.667-45.333 36.667-99 72-161m-98 121c17.333-62 44.667-116 82-162M194 516c9.333-43.333 39.333-95 90-155m-8 234c-29.333-30.667-56.667-77.333-82-140m97 100c-35.333-44-60.333-91.333-75-142m98 103c-30.667-40.667-54.667-90-72-148m238-203v-524" stroke-linecap="round"/></g></g><ellipse cx="475" cy="770.5" fill="#000" fill-rule="nonzero" rx="161" ry="9.5"/></g></svg>