<svg viewBox="0 0 960 960" xmlns="http://www.w3.org/2000/svg"><g fill="none" fill-rule="evenodd" stroke="#000"><g stroke-width="15"><ellipse cx="480" cy="539" rx="372.5" ry="75.5"/><ellipse cx="480" cy="530" rx="469" ry="118" stroke-linejoin="round"/><path d="M11 522v-35h.017l-.017-.486c0-57.144 205.8-103.577 461.244-104.5L480 382c259.022 0 469 46.792 469 104.514V522" stroke-linejoin="round"/></g><path d="M480 303c121.53 0 231.664 13.765 311.957 35.943 42.245 11.668 76.402 25.762 100.09 41.273 27.405 17.946 41.01 38.258 42.079 58.45l.067 2.328.674 40.407c5.577 8.243 8.18 16.74 8.132 25.262l-.805 28.79c-.097 3.436-2.98 16.512-4.44 19.587-13.508 28.438-69.286 56.515-156.947 74.946C701.025 646.76 595.7 657 480 657c-116.962 0-223.555-10.465-303.887-27.566-88.676-18.879-143.9-47.734-155.853-76.622-.63-1.524-1.888-6.172-3.26-14.134l.017-31.749c-.016-8.991 2.626-17.424 8.12-25.538l.67-40.396.067-2.328c1.069-20.193 14.674-40.505 42.08-58.45 23.687-15.512 57.844-29.606 100.089-41.274C248.336 316.765 358.47 303 480 303z" stroke-width="30"/></g></svg>