<svg xmlns="http://www.w3.org/2000/svg" viewBox="0 0 960 960"><g stroke="#000" fill="none" fill-rule="evenodd" stroke-linecap="round" stroke-linejoin="round"><path stroke-width="20" d="M480 250v-524"/><path d="M480.329 240.322c190.701-3.332 346.88 19.58 357.078 51.648l4.343-.066-3.972 421.84-6.234.115c-13.987 14.937-167.491 29.186-355.007 32.461-184.791 3.227-336.943-5.35-355.203-19.42l-.925.017.001-.855c-.593-.656-.901-1.322-.913-2-.012-.725.314-1.45.969-2.173l5.614-409.403c-.785-1.61-1.199-3.244-1.227-4.9-.589-33.71 158.564-63.826 355.476-67.264z" stroke-width="40"/><path d="M832 665.684c-.274-15.558-160.107-25.414-356.997-22.013C278.113 647.072 118.726 662.441 119 678" stroke-width="20"/></g></svg>