<svg xmlns="http://www.w3.org/2000/svg" viewBox="0 0 960 960"><g stroke="#000" fill="none" fill-rule="evenodd" stroke-linecap="round" stroke-linejoin="round"><path d="M383 588c0 7.18 37.16 13 83 13s83-5.82 83-13" stroke-width="20"/><path d="M383 588c0 7.18 37.16 13 83 13s83-5.82 83-13" stroke-width="20"/><path d="M466.385 92.858c102.14 0 184.941 82.768 184.941 184.867 0 42.417-14.29 81.497-38.322 112.692l-2.215 2.86c-45.72 59.24-69.219 105.353-71.93 138.578v55.658h4.96l143.97 19.719v299.114L398.356 932.24l-125.652-37.508V587.513H393.9l.001-55.657c-2.792-33.028-26.773-79.637-71.637-138.056l-1.366-1.774-.4-.666c-24.473-31.349-39.054-70.79-39.054-113.635 0-102.1 82.801-184.867 184.941-184.867z" stroke-width="40"/><path stroke-width="20" d="m397 630 .356 301.922M272.704 600.513l125.652 29.742 289.433-14.87M454.63 252.75c-15.347 0-41.109 37.794-48.644 68.495-9.123 37.172 2.285 68.496 11.368 68.496 16.584 0 30.027-30.667 30.027-68.496 0-37.829-13.443-68.495-30.027-68.495-16.584 0-30.028 30.666-30.028 68.495"/><path d="M491.905 252.75c-15.346 0-41.108 37.794-48.643 68.495-9.123 37.172 2.285 68.496 11.367 68.496 16.584 0 30.028-30.667 30.028-68.496 0-37.829-13.444-68.495-30.028-68.495" stroke-width="20"/><path d="M544.117 320.945c-.351-13.305-.743-22.472-1.174-27.5-1.75-20.39-7.3-39.472-19.75-39.472-10.043 0-36.94 43.988-42.656 67.272-9.123 37.172 2.286 68.496 11.368 68.496 16.584 0 30.027-30.667 30.027-68.496 0-37.829-13.443-68.495-30.027-68.495m-104.579 68.495c0 45.473 25.773 99.813 32.209 148.896.918 7.003 1.443 13.898 1.443 20.646v67.963m123.21-237.505c0 51.96-33.651 115.5-33.651 169.542 0 24.577-.561 47.232-1.684 67.963" stroke-width="20"/></g></svg>