<svg xmlns="http://www.w3.org/2000/svg" viewBox="0 0 960 960"><path d="M498-30c5.523 0 10 4.477 10 10l.001 84.01C518.898 71.812 526 84.577 526 99c0 12.116-5.01 23.06-13.073 30.877 9.673 6.648 17.584 11.365 23.642 14.126 7.828 3.567 20.777 7.62 38.65 12.039l1.745.428c8.7 2.125 10.435 13.738 2.735 18.312-22.284 13.238-39.114 22.38-50.655 27.482l-.99.434c-5.18 2.247-10.2 4.079-15.061 5.491C521.017 216 526 226.918 526 239c0 13.455-6.18 25.467-15.857 33.352 6.641 5.885 11.386 14.184 12.57 24.597l.002.034 1.444 3.795c10.43 27.31 19.114 47.44 25.79 59.986l.23.43c5.438 10.15 11.392 18.615 17.77 25.44l.483.524a42.873 42.873 0 0 1 7.765 12.15l.078.189 1.295 1.01a234.129 234.129 0 0 0 12.735 9.194l1.452.968c22.473 14.87 46.653 25.484 71.553 32.667a281.73 281.73 0 0 0 26.443 6.268c3.127.585 6.05 1.08 9.22 1.579l6.51 1.01 1.372.232c13.47 2.342 25.097 6.084 35.061 11.774 13.599 7.767 23.89 19.132 28.912 33.844a40 40 0 0 1 2 9.537c.827 9.733 1.666 18.884 2.515 27.444l.255 2.55c3.248 32.227 6.639 55.822 10.022 70.279l.218.92c1.753 7.287 6.988 21.638 15.487 41.908l1.552 3.683a50 50 0 0 1 3.334 11.62c4.35 27.27-14.229 52.903-41.492 57.252-30.229 4.827-71.419 8.293-123.94 10.503l-3.98.164c-23.696.942-62.969 1.437-118.124 1.5l-14.952.007h-4.728c-2.382-.002-4.79-.004-7.224-.009l-9.312-.015-4.19.008-7.424.01-15.682.006c-58.646-.018-100.374-.495-125.507-1.448l-3.903-.156c-52.216-2.161-93.325-5.553-123.676-10.275l-1.864-.294c-27.272-4.347-45.854-29.982-41.503-57.252a50.021 50.021 0 0 1 3.338-11.63c9.2-21.711 14.917-37.154 16.904-45.05l.24-.99c3.347-14.106 6.702-37.16 9.922-68.674l.464-4.617a1908.46 1908.46 0 0 0 2.204-23.822l.31-3.622a40 40 0 0 1 2.001-9.537c5.021-14.712 15.313-26.077 28.912-33.844 10.207-5.829 22.16-9.613 36.05-11.942l8.46-1.323a303.94 303.94 0 0 0 7.653-1.33 281.73 281.73 0 0 0 26.442-6.268c24.9-7.183 49.08-17.797 71.554-32.667 4.85-3.21 9.581-6.595 14.187-10.162l1.303-1.018.059-.14a42.996 42.996 0 0 1 7.745-12.16l.481-.525c6.413-6.858 12.364-15.32 17.804-25.47 6.627-12.368 15.266-32.322 25.651-59.454l1.812-4.759.083-.693c1.342-10.375 6.243-18.608 13.016-24.395C445.945 264.007 440 252.198 440 239c0-14.445 7.123-27.227 18.048-35.024A9.754 9.754 0 0 1 458 203v-69.01c-10.898-7.8-18-20.566-18-34.99 0-14.424 7.102-27.19 18-34.99V-20c0-5.523 4.477-10 10-10h30zm17.111 559.947-23.639 31.355a10.66 10.66 0 0 1-8.178 4.237l-.334.005a10.66 10.66 0 0 1-8.511-4.242l-23.64-31.355-23.429 28.333a12 12 0 0 1-1.837 1.791l-.342.26c-5.355 3.903-12.862 2.727-16.766-2.629l-19.792-27.15-23.104 30.35a12 12 0 0 1-2.806 2.658l-.362.236c-5.614 3.523-13.02 1.829-16.544-3.784l-15.214-24.24-12.578 22.509a12 12 0 0 1-5.864 5.224l-.341.136c-6.194 2.358-13.126-.751-15.485-6.945l-6.223-16.343-9.887 18.672a12 12 0 0 1-8.022 6.103l-.345.07c-6.51 1.237-12.791-3.04-14.027-9.55l-.827-4.352-2.754 5.755a12 12 0 0 1-9.493 6.744l-.334.033a11.986 11.986 0 0 1-10.212-4.271l-.247-.306-.08.07a12.002 12.002 0 0 1-6.406 2.77l-.392.037-.048.156c-.072.22-.152.437-.238.65-2.808 23.977-5.753 42.375-8.836 55.193-2.395 9.954-8.293 26.126-17.696 48.514l-1.401 3.32a10 10 0 0 0-.667 2.325c-.87 5.454 2.846 10.58 8.3 11.45 28.155 4.497 67.417 7.821 117.785 9.974l5.443.226c23.538.935 63.553 1.425 120.045 1.474h16.178l16.499-.023 9.358.014 17.92.009c58.155-.018 99.475-.49 123.96-1.417l3.798-.152c50.827-2.104 90.546-5.38 119.16-9.828l1.755-.276a10 10 0 0 0 7.633-13.775c-10.22-24.117-16.586-41.395-19.097-51.835l-.15-.631c-2.809-11.86-5.503-28.364-8.081-49.51a9.957 9.957 0 0 1-2.289-6.093l-.004-.207-.062-.018a12.053 12.053 0 0 1-4.232-2.258l-.187-.157-.165.209a11.989 11.989 0 0 1-3.81 3.082l-.301.149c-5.978 2.862-13.144.336-16.005-5.642l-2.756-5.755-.825 4.352a12 12 0 0 1-5.864 8.197l-.31.17c-5.856 3.1-13.118.867-16.22-4.99l-9.889-18.672-6.221 16.343a12 12 0 0 1-5.043 6.021l-.318.184c-5.785 3.233-13.096 1.165-16.33-4.62l-12.579-22.508-15.212 24.239a12 12 0 0 1-2.556 2.9l-.34.268c-5.272 4.015-12.802 2.994-16.816-2.279l-23.106-30.348-19.79 27.15a12 12 0 0 1-1.725 1.899l-.325.279c-5.108 4.223-12.672 3.507-16.895-1.6l-23.43-28.334zM411.89 432.094l-1.715 1.32c-61.525 46.89-127.46 55.634-143.1 58.067l-1.405.225c-19.197 3.219-30.437 9.638-33.72 19.257-.333 3.921-.668 7.753-1.005 11.496a11.989 11.989 0 0 1 11.125-1.36l.284.113a11.99 11.99 0 0 1 4.847 3.649l.183.238 2.12-4.428c2.818-5.884 9.806-8.424 15.725-5.772l.281.13a12 12 0 0 1 6.608 8.586l1.118 5.89 7.477-14.116c3.053-5.765 10.138-8.02 15.945-5.13l.275.142a12 12 0 0 1 5.6 6.334l6.405 16.828 10.803-19.328c3.182-5.693 10.313-7.787 16.053-4.77l.276.15a12 12 0 0 1 4.31 4.095l16.245 25.883 22.611-29.699c3.95-5.188 11.302-6.26 16.56-2.469l.257.19a12 12 0 0 1 2.428 2.48l20.05 27.503 23.322-28.203c4.154-5.024 11.54-5.8 16.641-1.805l.254.204a12 12 0 0 1 1.934 2.024l22.28 29.55 22.279-29.55c3.99-5.292 11.514-6.348 16.806-2.358a12 12 0 0 1 2.023 1.935l23.321 28.203 20.05-27.504c3.842-5.269 11.17-6.493 16.506-2.813l.26.185a12 12 0 0 1 2.48 2.428l22.61 29.699 16.246-25.883c3.468-5.524 10.696-7.253 16.275-3.948l.268.164a12 12 0 0 1 4.096 4.31l10.801 19.327 6.408-16.828c2.322-6.098 9.079-9.206 15.198-7.05l.286.106a12 12 0 0 1 6.335 5.598l7.475 14.117 1.12-5.891c1.217-6.411 7.325-10.656 13.727-9.605l.3.053a12 12 0 0 1 8.586 6.608l2.118 4.427.167-.214a11.99 11.99 0 0 1 10.118-4.552l.304.022c1.713.143 3.341.647 4.795 1.448-.231-2.565-.46-5.174-.69-7.824l-.257-3.015c-3.283-9.62-14.523-16.038-33.72-19.257-12.72-2.133-82.146-9.966-146.222-59.611a23.003 23.003 0 0 1-20.167 6.634c-7.225-1.18-13.18-1.963-17.795-2.351l-.688-.056c-5.871-.461-15.102-.796-27.54-.987l-4.379-.06-2.105.027c-13.85.188-23.967.544-30.163 1.048l-.84.07c-4.206.373-9.478 1.059-15.77 2.063l-1.53.247a23 23 0 0 1-20.164-6.636zM483 216c-12.703 0-23 10.297-23 23s10.297 23 23 23 23-10.297 23-23-10.297-23-23-23zm4.999-73H478v50h9.999v-50zM508 150.652v38.157l.595-.178c3.358-1.026 6.86-2.31 10.503-3.854l.998-.428.86-.376c6.452-2.853 14.955-7.215 25.473-13.072l2.34-1.31-1.503-.456c-7.5-2.307-13.669-4.543-18.536-6.727l-.455-.206c-5.714-2.604-12.44-6.439-20.22-11.515l-.055-.035zM483 76c-12.703 0-23 10.297-23 23s10.297 23 23 23 23-10.297 23-23-10.297-23-23-23zm5-86h-10v65h10v-65zm-61.289 428.542.044.028-.026-.016.029.018.029.018.011.007.071.041-.025-.014.028.016.088.048.077.039-.017-.008.018.008.017.008.092.042.025.011.071.029.163.06a3 3 0 0 0 1.427.114c7.133-1.166 13.19-1.978 18.17-2.44l1.552-.134c6.608-.537 16.825-.904 30.652-1.101l3.255-.043c15.762.187 27.19.579 34.282 1.175l1.174.104c4.582.424 10.075 1.146 16.479 2.166l1.691.273c.373.06.75.05 1.11-.027l.215-.055.073-.023.015-.005-.014.005.016-.005.057-.02-.047.016.076-.025.073-.029-.07.028.106-.04-.02.007.084-.035.021-.009.071-.033.009-.004.04-.02.021-.011.026-.012.082-.044.016-.01.028-.016.046-.027.01-.006.03-.019.003-.002.051-.032.002-.001.012-.008-.011.007.056-.038.089-.063a2.994 2.994 0 0 0 .398-4.45c-8.87-9.49-16.816-20.79-23.841-33.899l-.266-.499a215.157 215.157 0 0 1-1.674-3.207 261.914 261.914 0 0 1-2.341-4.687 331.677 331.677 0 0 1-2.282-4.767 426.05 426.05 0 0 1-3.38-7.38c-.32-.717-.644-1.443-.969-2.178l-.13-.293a556.662 556.662 0 0 1-.515-1.173l-.138-.315a583.645 583.645 0 0 1-2.872-6.665l-.004-.01-.165-.389-.245-.58a723.44 723.44 0 0 1-2.277-5.45 844.635 844.635 0 0 1-1.454-3.538 956.459 956.459 0 0 1-4.34-10.82 1141.894 1141.894 0 0 1-1.852-4.721l-.327-.84a1279.835 1279.835 0 0 1-3.152-8.188l-.07-.183-.002-.005-.445-1.171-1.043-2.75-1.98-5.268.002-2.89-.54 1.45-.539-1.45v2.892a1631.046 1631.046 0 0 1-3.76 9.957 1349.664 1349.664 0 0 1-4.858 12.533l-.414 1.047-.303.768a1053.594 1053.594 0 0 1-3.354 8.362l-.434 1.065c-.468 1.15-.933 2.282-1.395 3.4l-.144.35a803.47 803.47 0 0 1-3.237 7.709l-.174.408a647.964 647.964 0 0 1-3.209 7.374 523.977 523.977 0 0 1-1.952 4.345l-.092.203a447.029 447.029 0 0 1-2.577 5.548 362.158 362.158 0 0 1-1.547 3.223l-.043.09a293.051 293.051 0 0 1-2.682 5.364 233.992 233.992 0 0 1-1.385 2.652l-.361.677c-6.818 12.724-14.505 23.743-23.063 33.056l-.78.841a3 3 0 0 0 .147 4.24l.156.137.165.124.048.033-.025-.017.04.027.003.002.02.013z"/></svg>