<svg xmlns="http://www.w3.org/2000/svg" viewBox="0 0 960 960"><g stroke="#000" fill="none" fill-rule="evenodd"><path d="m194.531 586.245-7.14-1.01-5.525-.787c-60.266-8.61-61.471-28.47-61.496-94.49V101.259c0-69.136 38.59-71.196 85.463-71.259h546.088c47.512.028 86.886 1.425 86.886 71.26v390.704c-.056 64.419-1.845 83.962-61.497 92.484l-5.525.787-7.177 1.015c-57.193 8.023-117.804 14.792-285.02 14.792h-5.35c-163.202-.145-223.116-6.857-279.707-14.797z" stroke-width="20"/><path d="M476.379 930c-98.364-.133-190.678-6.315-276.942-18.547-9.014-1.931-13.57-11.508-13.665-28.732l-.012-4.888c-.11-26.94-1.082-121.156-2.917-282.648l6.19.366-2.804-.514c-1.12-.21-2.182-.41-3.186-.602l-3.447-.66-5.774-1.08c-27.505-5.219-53.452-12.437-53.452-75.601V101.258c0-69.135 38.59-71.195 85.463-71.258h546.088c47.512.028 86.886 1.425 86.886 71.26v415.835c0 64.454-27.016 70.655-55.139 75.918l-4.087.763-4.679.895c-1.471.28-3.056.573-4.759.881l6.192-.366-1.056 93.943c-1.155 104.595-1.776 167.497-1.862 188.705l-.01 4.337c0 17.57-4.556 27.331-13.668 29.283C672.538 923.818 579.154 930 479.59 930h-3.21z" stroke-width="40"/><path d="M199.437 830.434c-9.014-1.932-13.57-11.51-13.665-28.733l-.012-4.14c-.108-21.678-1.07-89.397-2.885-203.157l-3.28-.628-5.773-1.082c-27.505-5.217-53.452-12.434-53.452-75.6V101.26c0-69.137 38.59-71.197 85.463-71.26h546.088c47.512.028 86.886 1.425 86.886 71.26v415.835c0 64.454-27.016 70.655-55.139 75.918l-4.087.763-3.28.628-1.178 75.235c-1.085 70.85-1.657 113.93-1.712 129.245l-.005 2.267c0 17.57-4.555 27.332-13.667 29.284-87.201 12.365-180.585 18.547-280.15 18.547h-3.21c-98.364-.135-190.678-6.317-276.942-18.548z" stroke-width="20"/></g></svg>