<svg xmlns="http://www.w3.org/2000/svg" viewBox="0 0 960 960"><g fill="none" stroke-linejoin="round" stroke="#000"><path d="M425.797 155.678c62.612-16.052 141.17 2.04 205.943 54.552 47.914 38.843 79.062 89.033 90.88 138.664 12.131 50.945 3.96 101.255-26.619 139.059a139.171 139.171 0 0 1-11.56 12.62l-.602.435c-9.954 7.157-20.888 12.552-32.723 15.945-42.498 12.181-89.264-3.707-130.272-40.91-39.124-35.495-72.902-90.308-91.803-156.197-15.937-55.557-18.74-110.047-10.609-156.216a234.01 234.01 0 0 1 1.183-6.243 174.85 174.85 0 0 1 6.182-1.71Z" stroke-width="20" stroke-linecap="round"/><path d="M419.986 195.177c25.773-12.06 58.137-14.383 92.088-6.815 32.088 7.153 65.604 23.123 95.94 47.668 38.613 31.24 64.673 70.4 75.804 108.326 11.676 39.782 6.973 78.124-15.57 105.936-15.044 18.562-36.262 30.3-60.993 35.153-24.587 4.825-52.707 2.802-81.33-6.073-.694-.215-1.385-.433-2.081-.66-.543-.476-1.082-.953-1.618-1.431-39.71-35.45-74.063-90.772-93.185-157.435-11.512-40.134-16.177-79.712-14.81-115.988.075-1.966.167-3.94.28-5.923a106.744 106.744 0 0 1 5.475-2.758Z" stroke-width="20" stroke-linecap="round"/><path d="M642.935 76.237c-40.998-37.208-87.752-53.098-130.238-40.915-42.486 12.183-73.716 50.434-88.767 103.713-14.358 50.829-13.946 115.21 4.948 181.104 18.895 65.894 52.663 120.71 91.774 156.207 40.998 37.208 87.752 53.097 130.238 40.914 42.487-12.183 73.717-50.433 88.767-103.713 14.359-50.829 13.947-115.21-4.948-181.104-18.895-65.893-52.662-120.71-91.774-156.206ZM437.399 751.453c22.1-1.525 42.325.924 57.113 5.925 22.015 3.033 40.713 8.871 54.072 16.546 15.996 9.19 24.46 21.112 25.34 33.765.647 9.325-2.763 18.703-10.305 27.474-6.484 7.54-16.183 14.716-28.518 20.93-22.47 11.32-54.004 19.668-89.337 22.155-35.334 2.487-67.716-1.365-91.535-9.427-13.077-4.427-23.677-10.176-31.142-16.737-8.685-7.632-13.362-16.445-14.01-25.773-.886-12.745 5.961-25.841 20.765-37.243 12.371-9.528 30.364-17.954 52.05-24.01 13.924-6.928 33.519-12.087 55.507-13.605Z" stroke-width="20" stroke-linecap="round"/><path d="M649.836 68.44c-44.063-39.878-94.328-56.002-139.741-43.017-20.002 5.719-37.68 16.63-52.637 31.862l-1.463 1.512a146.667 146.667 0 0 0-11.76 14.04L347.281 189.18a149.113 149.113 0 0 0-8.095 9.173c-26.537 32.677-37.41 74.102-33.51 117.612l-78.086 90.25c-23.875 25.74-32.302 61.99-25.107 100.36 6.638 35.398 26.721 72.534 59.206 102.74 28.762 26.745 62.289 43.46 94.479 49.778 35.102 6.89 68.58 1.437 94.077-15.732l1.072-.731a99.68 99.68 0 0 0 8.625-6.697l7.065-5.525v88.098c0 3.62-1.896 6.689-4.725 9.565-4.89 4.973-12.14 9.208-21.432 13.141-1.55.072-3.11.163-4.679.273-23.523 1.655-44.432 7.403-59.294 14.974-22.337 6.477-40.783 15.423-53.551 25.365-17.642 13.736-25.033 29.62-24.274 44.721l-.005 44.553a41.948 41.948 0 0 0 .053 4.925c.814 11.71 6.41 22.943 17.387 32.586 8.289 7.281 20 13.77 34.537 18.69 24.833 8.402 58.586 12.518 95.44 9.926 36.851-2.593 69.704-11.393 93.13-23.19 13.71-6.903 24.405-14.965 31.602-23.332 9.421-10.952 13.422-22.708 12.726-34.28l-1.235-35.677a42.356 42.356 0 0 0 1.213-13.397c-.767-11.03-5.769-21.595-15.46-30.825a64.582 64.582 0 0 0-1.977-1.803c3.988-4.174 6.949-8.296 9.221-12.418 7.049-12.786 7.691-26.326 7.042-44.992-.15-4.299-.315-8.944-.315-14.023V551.354l.296-.015c41.539-2.323 79.24-16.969 107.477-43.394l1.004-.949c31.876-23.633 54.527-64.67 63.913-115.925 8.746-47.766 6.067-104.382-10.537-162.124-19.483-67.753-54.416-124.025-94.729-160.508Z" stroke-width="40"/><path d="M492.844 756.52c-14.563-4.236-34.362-6.287-55.968-4.98-21.631 1.308-40.932 5.732-54.688 11.687-7.954 3.443-14.178 7.475-18.355 11.65-5.866 5.861-8.14 12.203-7.645 18.323.487 6.015 3.691 11.939 10.322 16.946 4.768 3.6 11.523 6.808 19.88 9.239 14.564 4.235 34.363 6.286 55.968 4.98 21.632-1.309 40.932-5.733 54.688-11.688 7.954-3.443 14.178-7.475 18.355-11.65 5.866-5.861 8.14-12.203 7.645-18.323-.486-6.015-3.69-11.939-10.322-16.946-4.768-3.6-11.523-6.808-19.88-9.239Z" stroke-width="20" stroke-linecap="round"/><path d="M490.195 756.434c-14.385-4.27-33.106-6.25-53.413-4.83-20.425 1.429-38.782 6.04-52.398 12.321-17.647 8.14-26.96 19.389-28.108 29.813l-.268 21.535.164 2.344c.468 6.696 3.663 12.906 9.787 18.253 4.806 4.197 11.609 7.92 20.036 10.754 14.69 4.941 34.659 7.342 56.457 5.817 21.798-1.524 41.238-6.68 55.097-13.617 7.951-3.98 14.17-8.613 18.345-13.438 5.34-6.17 7.617-12.792 7.16-19.32a23.01 23.01 0 0 0-.052-.624l-.001-15.28a23.041 23.041 0 0 0 0-4.482l-.002-3.073c-2.51-10.397-13.695-20.5-32.804-26.173Zm211.54-272.726c-61.874 76.312-190.91 74.384-288.21-4.306-97.301-78.692-126.02-204.347-64.147-280.66m109.999 429.417 100.445-87.158" stroke-width="20" stroke-linecap="round"/></g></svg>