<svg xmlns="http://www.w3.org/2000/svg" viewBox="0 0 960 960"><g stroke="#000" fill="none" fill-rule="evenodd"><path d="M480 129c92.068 0 175.377 34.392 235.276 92.001 58.597 56.358 94.724 134.92 94.724 225 0 91.126-36.937 173.626-96.655 233.344C653.627 739.063 571.127 776 480 776c-91.127 0-173.627-36.937-233.345-96.655C186.937 619.628 150 537.128 150 446c0-90.078 36.127-168.642 94.724-224.999 59.9-57.609 143.208-92 235.276-92z" stroke-width="20"/><path d="M480 47c66.547-.002 121.755-2.079 162.544 15.068 16.83 7.074 30.56 15.483 39.737 25.762 6.803 7.62 10.834 16.273 10.834 26.16v7.926l-.001.961v1.904l-.001.942-.001 1.865c-.01 21.26-.048 37.358-.112 48.296-.016 2.844-.039 6.036-.064 9.585a333.458 333.458 0 0 1 7.242 5.88C772.49 251.759 810 334.495 810 436.001c0 91.127-36.937 173.627-96.655 233.345-59.718 59.718-142.218 96.655-233.345 96.655-91.127 0-173.627-36.937-233.345-96.655C186.937 609.628 150 527.128 150 436c0-101.338 29.528-184.24 101.824-244.653a302.95 302.95 0 0 1 7.072-5.73c.049-3.898.084-7.049.103-9.452.063-7.592.1-22.643.112-45.153l.001-1.677.001-2.566v-2.626l.001-.89v-3.624l.001-.924v-4.716c0-11.214 3.764-20.81 10.591-28.958 8.698-10.378 21.79-18.463 37.84-25.1C349.179 42.716 413.453 47.002 480 47.001z" stroke-width="40"/></g></svg>