<svg xmlns="http://www.w3.org/2000/svg" viewBox="0 0 960 960"><g stroke="#000" fill="none" fill-rule="evenodd" stroke-linecap="round" stroke-linejoin="round"><path d="M27.779 636.167c10.063 35.4 21.71 59.106 34.944 71.116 57.382 52.075 220.15 57.562 406.622 59.812 181.21 2.187 343.492-35.954 361.102-44.228 44.66-20.983 91.313-61.797 103.128-139.236 13.414-87.92-44.53-137.36-78.552-146.87-.769-.215-3.726-.892-8.871-2.032.644-3.726 1.011-6.07 1.1-7.034 6.315-67.97-8.66-123.602-44.923-166.896-37.594-44.884-89.78-65.335-156.556-61.353-39.034-44.174-88.915-66.26-149.644-66.26-57.355 0-88.646 9.923-118.515 30.688-8.917 6.2-41.329 31.804-61.652 68.66-4.247 7.704-9.827 21.516-16.739 41.436-53.378-13.02-99.828-.313-139.351 38.12-56.044 54.496-60.502 103.043-64.559 158.703-.234 3.218-.234 9.729-.71 9.729-40.766 15.442-64.13 51.078-70.092 106.908-1.022 9.564 1.625 42.96 3.268 48.737z" stroke-width="40"/><path d="M319.863 286.354c6.877 1.53 15.393 3.692 25.55 6.485a880.694 880.694 0 0 1 29.49 8.65M102.86 488.779c17.194.583 30.45 1.503 39.767 2.758 9.317 1.256 22.573 3.908 39.767 7.958M362.88 296.422c-2.715-20.735 6.492-45.732 27.621-74.991 13.28-18.389 31.449-35.094 54.508-50.116 5.54-3.61 23.061-14.557 43.997-19.928 8.938-2.294 24.074-3.943 45.408-4.947" stroke-width="20"/><path d="M319.863 286.354c-48.98 0-90.676 27.252-125.085 81.756-34.409 54.505-41.712 96.106-21.91 124.805-62.762 17.563-91.411 56.96-85.95 118.191 5.463 61.231 37.288 102.774 95.476 124.627" stroke-width="20"/></g></svg>