<svg xmlns="http://www.w3.org/2000/svg" viewBox="0 0 960 960"><g stroke="#000" fill="none" fill-rule="evenodd"><path d="M406.208 60.01c5.085-1.125 9.016-1.795 11.792-2.01 2.776-.215 6.802-.162 12.076.16L699 84v770l-61.015 25.611-7.433 3.12-8.472 3.557L537 922l-289.617-34.905c-7.635-1.25-12.43-2.949-14.383-5.095-1.954-2.146-2.954-6.813-3-14V105l176.208-44.99z" stroke-width="40" stroke-linejoin="round"/><path stroke-width="20" stroke-linejoin="round" d="M537 128v794l62-27 31.552-12.269 7.433-3.12L699 854V84zm0 0-307-23v763c.046 7.187 1.046 11.854 3 14 1.954 2.146 6.748 3.844 14.383 5.095L537 922V128z"/><path d="m230 105 176.208-44.99c5.085-1.125 9.016-1.795 11.792-2.01 2.776-.215 6.802-.162 12.076.16L699 84l-162 44-307-23z" stroke-width="20" stroke-linejoin="round"/><path d="M618 895c68-12 124.333-15 169-9s112 9 202 9" stroke-width="20"/></g></svg>