<svg xmlns="http://www.w3.org/2000/svg" viewBox="0 0 960 960"><g fill="none" fill-rule="evenodd" stroke="#000"><path d="m851.94 739.17-108.156-5.563-111.687 5.562-84.129 19.62c-7.334 5.733-13.668 11.584-19.003 17.551-5.334 5.968-10.99-28.555-16.965-103.567l16.965-68.343 54.549-83.116 73.236-36.666L717.66 470l71.007 14.648 63.273 36.666 55.951 83.116L933 672.773l-13.548 91.051c-.698 5.53-1.45 7.973-2.255 7.329-5.022-4.017-12.074-5.717-20.423-10.297-10.357-5.683-25.302-12.911-44.834-21.687Z" stroke-width="40"/><path stroke-width="20" d="m718-217-.5 680"/><path stroke-width="10" d="m893 573.098-60.691-21.936L734.946 541l-105.114 8.06L543 575m-31 97 58.995-28.106L678.575 628h122.152l91.348 18.78L933 672"/><path stroke-width="10" d="M624 499.276 630.165 550 700 474"/><path stroke-width="10" d="M831 506.132V552l-63.099-74-33.727 63.77L687 478"/><path stroke-width="10" d="m891 647-60.59-96.95-30.9 78.355L733.212 542l-56.043 86.405-48.894-78.355-58.853 94.093L552 567.822"/><path stroke-width="10" d="m915 767-22-109.175-41.2 80.616L800.457 627 743.37 732.802 677.996 627 631.4 738.441l-61.257-95.5-23.745 110.082L511 690.601"/><path stroke-width="40" d="M851.344 738.883 742.9 733l-120.121 5.883-69.918 18.567L536 780.28l26.836 16.646 59.944 10.58L717.554 813l105.071-6.006 55.894-10.068L910 774.042l-1.574-2.895zM639.94 618.17l-108.156-5.563-111.687 5.562-84.129 19.62c-7.334 5.733-13.668 11.584-19.003 17.551-5.334 5.968-10.99-28.555-16.965-103.567l16.965-68.343 54.549-83.116 73.236-36.666L505.66 349l71.007 14.648 63.273 36.666 55.951 83.116L721 551.773l-13.548 91.051c-.698 5.53-1.45 7.973-2.255 7.329-5.022-4.017-12.074-5.717-20.423-10.297-10.357-5.683-25.302-12.911-44.834-21.687Z"/><path stroke-width="20" d="m507-97-.5 441"/><path stroke-width="10" d="m682 454.098-60.691-21.936L523.946 422l-105.114 8.06L332 456m-32 97 58.995-28.106L466.575 509h122.152l91.348 18.78L721 553M412 379.276 418.165 430 488 354"/><path stroke-width="10" d="M620 386.132V432l-63.099-74-33.727 63.77L476 358"/><path stroke-width="10" d="m680 527-60.59-96.95-30.9 78.355L522.212 422l-56.043 86.405-48.894-78.355-58.853 94.093L341 447.822"/><path stroke-width="10" d="m703 648-21-108.176-42.2 79.617L588.457 508 531.37 613.802 465.996 508 419.4 619.441l-61.257-95.5-23.745 110.082L299 571.601"/><path stroke-width="40" d="M639.344 618.883 530.9 613l-120.121 5.883-69.918 18.567L324 660.28l26.836 16.646 59.944 10.58L505.554 693l105.071-6.006 55.894-10.068L698 654.042l-1.574-2.895zM392.97 496.458l-116.119-5.96-119.91 5.96-90.324 21.026c-7.875 6.144-14.675 12.414-20.403 18.81-5.727 6.394-11.798-30.602-18.214-110.99l18.214-73.24 58.565-89.072 78.63-39.294L248.804 208l76.236 15.698 67.93 39.294 60.072 89.071L480 425.304l-14.545 97.576c-.75 5.926-1.558 8.544-2.422 7.854-5.391-4.305-12.963-6.126-21.926-11.035-11.12-6.09-27.165-13.837-48.136-23.24Z"/><path stroke-width="20" d="M249.5-133v336"/><path stroke-width="10" d="m435 320.93-64.853-23.871L266.107 286l-112.321 8.77L61 323M28 424l63.339-30.022L206.84 377h131.148l98.073 20.06L480 424M147 239.272 153.651 294 229 212"/><path stroke-width="10" d="M370 249.033V298l-67.92-79-36.302 68.078L215 219"/><path stroke-width="10" d="m437.243 400.5-67.122-104.914-33.087 83.58L266.04 287l-60.01 92.166-52.357-83.58-63.018 100.366L72 314.543"/><path stroke-width="10" d="m460 526-23.987-118.136-43.594 87.945L337.519 378l-61.044 111.848L206.57 378l-49.825 117.81-65.502-100.96-25.39 116.373L28 445.236"/><path stroke-width="40" d="M393.11 497.25 276.837 491l-128.793 6.25-74.966 19.728L55 541.234l28.773 17.687 64.272 11.241L249.66 576l112.656-6.382 59.93-10.697L456 534.607l-1.687-3.076z"/></g></svg>