<svg xmlns="http://www.w3.org/2000/svg" viewBox="0 0 960 960"><g stroke="#000" fill="none" fill-rule="evenodd" stroke-linejoin="round"><path d="M503.295 30c31.85.048 63.987 1.501 96.41 4.36 14.979 1.322 28.839 6.817 40.174 15.36 11.547 8.7 20.475 20.556 25.401 34.417l2.148 6.078c9.436 26.844 20.337 59.937 32.7 99.28l.867 2.775C729.734 284.65 754 408.5 754 586.6c0 122.08-63.827 206.444-114.24 241.05-11.027 7.571-23.91 14.037-38.687 19.308l-.421.148.211.465a53.304 53.304 0 0 1 3.613 11.364l.127.665c3.744 11.653 5.1 23.53 4.068 35.633.226 1.316.329 2.629.329 3.932 0 5.816-1.813 12.477-9.178 18.44-2.423 1.963-5.915 4.068-10.608 5.885-5.64 2.183-13.877 4.266-24.147 5.913-17.554 2.815-41.802 4.598-68.591 4.598-26.79 0-51.037-1.783-68.591-4.598-10.27-1.647-18.506-3.73-24.147-5.913-4.693-1.817-8.185-3.922-10.608-5.884-6.517-5.278-8.687-11.1-9.1-16.401-2.649-17.726-.253-34.984 7.267-51.763a52.825 52.825 0 0 1 2.855-5.999l.118-.208-.59-.246c-10.223-4.3-19.425-9.24-27.624-14.782l-.817-.556C314.827 793.043 251 708.679 251 586.599c0-178.1 24.266-301.95 53.005-394.329l.868-2.775c12.362-39.343 23.263-72.436 32.7-99.28l2.147-6.078c4.926-13.861 13.854-25.716 25.401-34.418 11.335-8.542 25.195-14.037 40.175-15.358 30.71-2.709 61.165-4.155 91.364-4.34z" stroke-width="40"/><path d="M502.98 40.006c31.583.048 63.45 1.488 95.599 4.322 13.068 1.152 25.165 5.933 35.056 13.38 9.999 7.529 17.743 17.778 22.012 29.772l2.143 6.062c9.412 26.755 20.284 59.737 32.615 98.946l.864 2.762c28.544 91.681 52.594 214.603 52.594 391.349 0 117.715-61.26 199.383-109.987 232.806-25.888 17.757-62.752 28.888-110.83 32.82-9.615.524-16.76.772-21.71.772-4.207 0-10.8-.25-19.777-.76-48.327-3.944-85.192-15.074-111.081-32.832-48.727-33.423-109.987-115.091-109.987-232.806 0-176.746 24.05-299.668 52.595-391.35l.864-2.76c12.33-39.21 23.202-72.192 32.614-98.947l2.144-6.062c4.268-11.994 12.013-22.243 22.011-29.771 9.89-7.448 21.988-12.23 35.057-13.381 30.454-2.684 60.655-4.118 90.603-4.302z" stroke-width="20" stroke-linecap="round"/><path d="M356.489 177.34c3.593 106.131 9.065 184.312 16.414 234.541 7.35 50.23 23.717 121.311 49.104 213.245m-98.81-339.486c1.751 90.737 6.588 159.47 14.51 206.2 7.924 46.731 25.086 107.757 51.489 183.078m-.97-521.422c.962 88.096 7.744 158.868 20.348 212.316 12.605 53.447 33.185 127.975 61.74 223.582" stroke-width="20" stroke-linecap="round"/><path d="M310.182 542.207c14.34-70.192 28.343-124.516 42.01-162.974 13.665-38.458 36.937-92.783 69.815-162.975m27.134 26.875c-39.255 112.1-65.604 196.305-79.047 252.612-13.443 56.307-22.17 119.031-26.185 188.173m345.127-283.172c8.795 86.833 5.324 158.138-10.413 213.916-15.737 55.777-37.046 102.207-63.927 139.288m41.59-330.198c4.9 67.221 2.104 117.975-8.389 152.262-10.493 34.287-31.762 78.144-63.81 131.57" stroke-width="20" stroke-linecap="round"/><path d="M625.198 453.174c19.456 47.834 32.607 86.623 39.454 116.368 6.846 29.745 15.112 79.666 24.8 149.764M606.08 532.934c16.656 55.395 28.231 98.142 34.727 128.24 6.496 30.098 10.657 60.271 12.485 90.52" stroke-width="20" stroke-linecap="round"/></g></svg>