<svg xmlns="http://www.w3.org/2000/svg" viewBox="0 0 960 960"><g fill="none" fill-rule="evenodd"><path d="M481 382c95.988 0 164.89 9.504 207.172 28.912 5.019 2.304 7.22 8.24 4.916 13.26-2.304 5.019-8.24 7.22-13.26 4.916C640.777 411.163 574.345 402 481 402c-.168 0-.334-.004-.5-.012l-.22.008-.28.004c-93.345 0-159.777 9.163-198.828 27.088-5.02 2.304-10.956.103-13.26-4.916-2.304-5.02-.103-10.956 4.916-13.26C315.11 391.504 384.012 382 480 382c.168 0 .334.004.5.012.166-.008.332-.012.5-.012zm0-55c146.075 0 248.336 14.175 307.388 43.014 4.963 2.424 7.021 8.412 4.598 13.374-2.424 4.963-8.412 7.021-13.374 4.598C723.997 360.826 624.259 347 481 347c-.168 0-.334-.004-.5-.012l-.22.008-.28.004c-143.259 0-242.997 13.825-298.612 40.986-4.962 2.423-10.95.365-13.374-4.598-2.423-4.962-.365-10.95 4.598-13.374C231.664 341.174 333.925 327 480 327c.168 0 .334.004.5.012.166-.008.332-.012.5-.012zm-6.162-76.993L480.5 250h-.5c206.126 0 338.366 21.928 398.03 67.022 4.406 3.33 5.278 9.602 1.948 14.008-3.27 4.327-9.379 5.245-13.77 2.122l-.238-.174C811.013 291.44 682.088 270.035 480.502 270c-199.574.035-327.93 21.014-383.801 61.738l-1.91 1.414c-4.39 3.123-10.498 2.205-13.769-2.122-3.33-4.406-2.458-10.678 1.948-14.008 59.068-44.643 189.267-66.581 391.868-67.015zm2.04-76.006L480 174c137.808 0 235.212 4.351 292.512 13.115 5.46.835 9.208 5.937 8.373 11.397-.835 5.46-5.937 9.208-11.397 8.373-55.405-8.474-150.469-12.788-284.901-12.883l-4.086-.002c-136.596.01-233.025 4.326-288.99 12.885-5.459.835-10.561-2.914-11.396-8.373-.835-5.46 2.914-10.562 8.373-11.397 56.727-8.676 152.76-13.028 288.39-13.114z" fill="#000" fill-rule="nonzero"/><path d="m481 131 3.267.006C624.636 131.369 721.88 149.7 776 186l.005 1.434c18.107 1.539 33.105 3.061 44.995 4.566 79 10 116 47 116 63 0 15-63 76-174 132-73.784 37.225-167.784 58.21-281.998 62.959L481 450l-.5-.02-.5.02-.001-.041C365.784 445.21 271.785 424.225 198 387 87 331 24 270 24 255c0-16 37-53 116-63 11.89-1.505 26.888-3.027 44.995-4.566L185 186c54.667-36.667 153.333-55 296-55h-1 1z" stroke="#000" stroke-width="40" stroke-linejoin="round"/></g></svg>