<svg xmlns="http://www.w3.org/2000/svg" viewBox="0 0 960 960"><path d="m480.045 0 .001.01c5.947.687 10.246 3.037 12.896 7.052 2.664 4.035 3.996 8.407 3.996 13.115 5.994.673 10.657 3.363 13.987 8.07 3.33 4.709 4.329 10.426 2.997 17.151 7.992 4.036 12.321 9.752 12.987 17.15.666 7.399-2.33 14.125-8.991 20.178-8.047-.673-14.324-.392-18.832.843a39.733 39.733 0 0 1 5.23 1.91c14.093 6.296 24.336 18.003 28.887 32.665 1.13 3.644 1.952 7.532 2.539 11.841l.031.242.066.1a43.991 43.991 0 0 1 3.897 7.416l.311.782.024.028c.496.599.981 1.207 1.457 1.825L542 141c2.563 3.417 4.736 7.061 6.457 10.9l.124.281.185.215a44 44 0 0 1 10.108 22.797l.073.59.076.692a40 40 0 0 1 .048.463c.684 7.131.135 14.151-2.866 21.751l-.292.721-.147.345.053.107a42.03 42.03 0 0 1 1.544 3.62l.152.42.174.132c8.915 6.864 15.971 14.258 21.163 22.652l.396.647c5.124 8.493 8.838 18.88 11.732 31.836l.256 1.166.228.261a44.873 44.873 0 0 1 6.462 9.847l.081.169.283.362a44.186 44.186 0 0 1 3.605 5.47l.293.535c1.825 3.375 3.018 6.608 3.806 9.811l.105.441.11.19a45.108 45.108 0 0 1 2.675 5.492l.193.488.383.11c65.523 19.252 113.39 79.029 114.52 149.922L724 446c0 73.868-50.696 136.001-119.447 153.847l-2.246.564-.013.035c-1.921 4.58-4.53 8.83-7.684 12.699l-.381.462-.242.286-.012.036a46.118 46.118 0 0 1-6.997 12.93l-.491.625-.05.19c-2.474 9.306-6.023 18.367-10.61 27.139l-.533 1.01c-5.74 10.763-13.588 20.138-23.275 28.132l-.395.322.104.276a46.796 46.796 0 0 1 1.848 6.39l.147.712a44.357 44.357 0 0 1-7.64 34.813l-.135.182.106.106a47.967 47.967 0 0 1 4.512 5.251l.52.717.21.118c10.406 5.962 19.44 14.146 26.813 24.297l.44.611c6.806 9.528 11.559 20.52 14.551 32.901l.168.71.432.202a79.19 79.19 0 0 1 8.425 4.59l.716.457c5.394 3.488 10.16 7.614 14.179 12.795.366.472.724.95 1.074 1.436l.329.463.012.01a54.436 54.436 0 0 1 4.389 4.411l.519.594c5.914 6.87 10 15.2 11.253 24.596l.05.407.273.482c4.431 7.933 6.974 16.81 7.078 26.572L642 869c0 3.415-.312 6.75-.912 9.994l-.048.252.056.279a49.13 49.13 0 0 1 .9 8.86L642 889c0 12.196-4.507 23.071-11.867 31.886-4.998 5.985-11.042 10.748-18.021 14.791-10.13 5.87-22.726 10.438-37.642 14.094C547.536 956.37 512.525 960 475.5 960s-72.036-3.629-98.97-10.23c-14.916-3.655-27.511-8.223-37.642-14.093-6.979-4.043-13.023-8.806-18.021-14.791C313.507 912.07 309 901.196 309 889a47.92 47.92 0 0 1 2.826-16.236l.259-.706-.02-.365a55.107 55.107 0 0 1-.06-2.017L312 869c0-7.057 1.289-13.683 3.655-19.837l.36-.912-.01-.558-.005-.64c0-11.461 4.166-21.647 10.91-29.847a53.23 53.23 0 0 1 2.553-2.884l.398-.413.206-.332a50.078 50.078 0 0 1 3.306-4.672l.36-.446c4.39-5.39 9.584-9.597 15.486-13.13 2.922-1.75 6.052-3.349 9.398-4.819l.354-.155.19-.762c2.933-11.667 7.457-22.08 13.82-31.18l.47-.663c7.283-10.197 16.222-18.444 26.532-24.49l.928-.535.01-.014a47.978 47.978 0 0 1 5.017-5.948l.113-.113-.134-.183a44.389 44.389 0 0 1-7.733-34.332l.11-.565a46.996 46.996 0 0 1 1.975-7.002l.108-.289-.396-.324c-9.462-7.808-17.17-16.934-22.871-27.383l-.404-.748c-4.846-9.086-8.573-18.486-11.144-28.153l-.052-.196-.023-.028a46.116 46.116 0 0 1-7.21-12.821l-.263-.732-.243-.287c-3.838-4.605-6.897-9.765-8.933-15.384l-.1-.28-1.206-.37C283.39 577.356 237.1 518.16 236.02 448.493L236 446c0-72.013 48.227-133.005 114.54-152.49l.382-.11.194-.487a45.108 45.108 0 0 1 2.675-5.493l.109-.189.106-.44a40.79 40.79 0 0 1 3.49-9.218l.316-.594a44.277 44.277 0 0 1 3.898-6.005l.282-.362.082-.169a44.873 44.873 0 0 1 6.462-9.847l.227-.261.057-.257c2.861-13.102 6.532-23.608 11.607-32.199l.325-.546c5.078-8.414 12.007-15.824 20.78-22.694l.948-.735.157-.425a42.45 42.45 0 0 1 1.208-2.907l.387-.819-.145-.343-.292-.721c-3-7.6-3.55-14.62-2.866-21.75l.083-.791.041-.365a44.001 44.001 0 0 1 10.19-23.396l.174-.204.126-.283a56.956 56.956 0 0 1 6.075-10.386L418 141a65.99 65.99 0 0 1 1.274-1.643l.678-.832.028-.069a43.967 43.967 0 0 1 3.77-7.49l.476-.739.032-.242c.557-4.094 1.327-7.808 2.372-11.293l.167-.548c4.55-14.662 14.794-26.37 28.887-32.665a40.032 40.032 0 0 1 5.23-1.912c-4.508-1.233-10.785-1.514-18.832-.841-6.66-6.053-9.657-12.78-8.991-20.177.666-7.399 4.995-13.115 12.987-17.15-1.332-6.726-.333-12.443 2.997-17.151s7.993-7.398 13.987-8.071c0-4.708 1.332-9.08 3.996-13.115 2.65-4.015 6.95-6.365 12.896-7.052V0h.091ZM349.92 885.24l-.027.057c-.59 1.214-.893 2.45-.893 3.703 0 17.12 56.636 31 126.5 31S602 906.12 602 889a7.95 7.95 0 0 0-.292-2.123C578.144 902.435 536.653 910 477 910c-61.709 0-103.982-8.095-127.08-24.76Zm249.25-25.168-.019.009C575.081 870.788 533.814 876 475 876l-3.359-.006c-54.544-.187-93.653-4.966-117.613-14.57-1.332 2.457-2.028 4.99-2.028 7.576 0 2.15.481 4.263 1.408 6.326l-.24-.194C373.192 891.529 414.568 900 477 900c62.182 0 103.478-8.403 123.592-24.673.927-2.064 1.408-4.177 1.408-6.327 0-3.064-.976-6.05-2.83-8.928Zm-213.567-36.78-.227.066C371.326 827.452 363 832.54 363 838.053l.011.374c-4.538 2.694-7.011 5.599-7.011 8.626 0 1.892.965 3.736 2.798 5.51C381.72 861.44 420.553 866 475 866l3.326-.006c54.002-.187 92.271-4.963 114.506-14.08 1.423-1.574 2.168-3.199 2.168-4.86 0-3.09-2.575-6.052-7.293-8.793l-.71-.408c-.19-5.182-7.734-9.98-20.458-13.92C549.837 836.136 519.899 842 476.5 842c-44.152 0-74.372-6.07-90.897-18.707Zm142.166-57.602.343-.158C514.494 771.878 496.631 775 474.5 775c-21.12 0-38.354-2.843-51.72-8.619-6.558 3.265-12.151 8.139-16.78 14.619-6.135 8.589-9.73 20.847-10.783 36.776C410.395 827.126 437.552 832 476.5 832l2.32-.006c37.652-.19 64.01-5.04 78.898-14.177a41.378 41.378 0 0 0-.962-.44C555.67 801.643 552.084 789.517 546 781c-4.967-6.954-11.044-12.057-18.231-15.31Zm-27.876-29.644-.327.099C493.103 738.064 485.255 739 476 739c-9.412 0-17.368-.968-23.893-2.954-1.305 3.37-2.674 6.022-4.107 7.954-2.112 2.846-6.166 6.098-12.163 9.753a8 8 0 0 0-3.727 5.506c11.225 3.809 25.36 5.741 42.39 5.741 18.46 0 33.517-2.27 45.153-6.739a7.986 7.986 0 0 0-3.49-4.507l-1.069-.66c-5.412-3.389-9.11-6.42-11.094-9.094-1.354-1.825-2.65-4.291-3.889-7.4l-.218-.554Zm6.816-17.772-.427.09C497.988 720.131 487.904 721 476 721c-12.11 0-22.336-.9-30.71-2.728.212.629.448 1.204.71 1.728 1.005 2.01 2.958 3.832 5.86 5.464l.038-.09C457.718 727.762 465.766 729 476 729s18.282-1.238 24.102-3.626l.039.09c2.9-1.632 4.854-3.453 5.859-5.464.262-.524.498-1.1.709-1.726ZM386.886 585.57l.051.102c1.416 2.776 4.437 5.551 9.063 8.327l-.5 4a6.047 6.047 0 0 0 3 6l.536.307a7 7 0 0 1 3.434 4.944c1.564 9.519 4.74 18.768 9.53 27.749 4.92 9.227 12.963 17.034 24.127 23.423l.673.382a3.459 3.459 0 0 1 1.733 3.503l-.033.192a4.296 4.296 0 0 0 1.38 4.073c5.413 4.746 8.12 9.222 8.12 13.427 0 4.135-2.617 8.531-7.85 13.19l-.37.324a7 7 0 0 0-2.263 3.903l-.017.083a4.353 4.353 0 0 0 1.436 4.16l4.48 3.84c8.117 2.316 18.996 3.5 32.584 3.5 13.589 0 24.468-1.184 32.586-3.5l4.478-3.84a4.353 4.353 0 0 0 1.436-4.16l-.017-.083a7 7 0 0 0-2.263-3.903l-.37-.325c-5.233-4.658-7.85-9.054-7.85-13.189 0-4.205 2.707-8.68 8.12-13.427a4.296 4.296 0 0 0 1.419-3.847l-.039-.226a3.459 3.459 0 0 1 1.7-3.695l.673-.382C527.037 654.034 535.08 646.227 540 637c4.79-8.98 7.966-18.23 9.53-27.749a7 7 0 0 1 3.434-4.944l.536-.307a6.047 6.047 0 0 0 3-6l-.5-4c4.626-2.776 7.647-5.551 9.063-8.327l-2.589.242c-22.71 2.06-51.353 3.085-85.974 3.085l-4.348-.005c-34.526-.088-62.932-1.225-85.266-3.424Zm91.007 26.124a3 3 0 0 1 3.842 0l3 2.5a3 3 0 0 1 1.079 2.305v20.764a3 3 0 0 1-.428 1.543l-3 5a3 3 0 0 1-5.144 0l-3-5a3 3 0 0 1-.428-1.543V616.5a3 3 0 0 1 1.08-2.305l3-2.5Zm-44.182 3.125a2 2 0 0 1 2.828 0l2.941 2.941a2 2 0 0 1 .483.782l5.61 16.83a2 2 0 0 1-.059 1.42l-1.753 4.092a2 2 0 0 1-2.948.876l-3.4-2.267a2 2 0 0 1-.806-1.089l-5.523-18.409a2 2 0 0 1 .252-1.684l2.125-3.187a2 2 0 0 1 .25-.305Zm92.206 0a2 2 0 0 1 .25.305l2.125 3.187a2 2 0 0 1 .252 1.684l-5.523 18.409a2 2 0 0 1-.806 1.09l-3.4 2.266a2 2 0 0 1-2.948-.876l-1.753-4.091a2 2 0 0 1-.06-1.42l5.61-16.831a2 2 0 0 1 .484-.782l2.94-2.941a2 2 0 0 1 2.83 0ZM480.087 561l-.25-.001-.356-.025-.3-.04-.23-.045-.195-.046-.283-.082-.112-.037c-11.933-4.14-22.917-8.32-32.954-12.546l-1.837-.778c-8.427-3.593-20.073-8.866-34.951-15.823l-7.747-3.636-.403.366c-5.279 4.823-9.066 8.68-11.322 11.509l-.207.262c-2.58 3.302-5.76 8.709-9.464 16.15l-.104.198a5 5 0 0 1-6.787 1.952L319.7 529.2l-2.002 5.508a5.015 5.015 0 0 1-.512 1.026c18.854 16.301 42.6 27.501 69.05 29.547-.028.257 54.015 3.718 90.263 3.718l5.52-.009c22.731-.074 50.724-1.227 83.98-3.458 29.383-.476 56.199-11.975 76.815-29.796a4.977 4.977 0 0 1-.514-1.028l-2.002-5.508-52.884 29.177a5 5 0 0 1-6.787-1.952l-.104-.198-.63-1.256c-3.332-6.59-6.221-11.477-8.612-14.606l-.222-.288c-2.16-2.765-5.853-6.56-11.039-11.321l-.893-.816-5.14 2.415c-14.958 7.014-26.806 12.407-35.556 16.185l-2.476 1.06c-9.95 4.23-20.849 8.415-32.696 12.558l-1.752.608-.336.094-.279.06-.248.038-.209.023-.199.014-.15.005Zm153.778-90.753L565.524 514.4a10 10 0 0 1-10.007.49l-74.992-38.641-74.992 38.64a10 10 0 0 1-9.722-.312l-.285-.177-68.341-44.153-18.824 34.539a10 10 0 0 1-11.386 4.869l-2.873-.775a119.632 119.632 0 0 0 15.27 19.467l2.929-8.056.077-.198a5 5 0 0 1 7.037-2.47l53.486 29.51.274-.518c2.899-5.44 5.515-9.66 7.885-12.693l.462-.581c3.101-3.836 8.134-8.83 15.154-15.077a5 5 0 0 1 5.46-.785l7.166 3.375c16.493 7.741 29.226 13.525 38.186 17.345l.468.2c9.73 4.135 20.411 8.237 32.043 12.306 11.104-3.884 21.342-7.798 30.713-11.743l2.275-.966c10.209-4.367 25.175-11.208 44.877-20.517a5 5 0 0 1 5.46.785l1.584 1.42c6.544 5.899 11.203 10.616 14.032 14.238 2.279 2.916 4.785 6.93 7.552 12.07l.607 1.141 53.486-29.51a5 5 0 0 1 7.037 2.47l.077.198 2.93 8.057a119.648 119.648 0 0 0 15.053-19.125l-1.607.432a10 10 0 0 1-11.386-4.87l-18.824-34.538Zm-2.853-25.847-72.529-46.86-74.495 38.384-.311.15-.337.15-.212.085a9.92 9.92 0 0 1-3.235.685l-.429.008a9.93 9.93 0 0 1-3.245-.546l-.457-.17-.341-.144-.289-.134-.173-.085-74.492-38.383-72.53 46.86c-4.803 3.103-11.206 1.547-14.064-3.362l-.143-.252-20.208-37.078-10.795 2.911C278.369 418.945 276 432.2 276 446c0 13.708 2.337 26.874 6.638 39.128.34.053.678.126 1.017.217l10.917 2.947 20.208-37.078.143-.252c2.858-4.909 9.26-6.465 14.065-3.362l72.529 46.86 74.495-38.384.311-.15.337-.15.212-.085a9.92 9.92 0 0 1 3.235-.685l.429-.008a9.93 9.93 0 0 1 3.245.546l.457.17.341.144.289.134.173.085 74.492 38.383 72.53-46.86c4.803-3.103 11.206-1.547 14.064 3.362l.143.252 20.208 37.078 10.796-2.913C681.63 473.054 684 459.801 684 446c0-13.708-2.337-26.874-6.638-39.13a9.363 9.363 0 0 1-1.017-.215l-10.917-2.947-20.208 37.078-.143.252c-2.858 4.909-9.26 6.465-14.065 3.362ZM480 341.295l-1.539.54c-10.485 3.697-20.187 7.422-29.104 11.174l-1.401.593c-7.62 3.238-18.054 7.94-31.29 14.101-4.517 2.103-9.36 4.376-14.53 6.818a5 5 0 0 1-5.46-.785l-1.584-1.42c-6.544-5.899-11.203-10.616-14.032-14.238-2.279-2.916-4.785-6.93-7.552-12.07l-.607-1.141-53.486 29.51a5 5 0 0 1-7.037-2.47l-.077-.198-2.93-8.056a119.648 119.648 0 0 0-15.054 19.126l1.608-.434a10 10 0 0 1 11.386 4.87l18.824 34.538 68.341-44.153a10 10 0 0 1 10.007-.49l74.992 38.64 74.992-38.64a10 10 0 0 1 9.722.313l.285.177 68.341 44.153 18.824-34.539a10 10 0 0 1 11.386-4.869l2.873.775a119.633 119.633 0 0 0-15.269-19.466l-2.93 8.055-.077.198a5 5 0 0 1-7.037 2.47l-53.486-29.51-.274.518c-2.899 5.44-5.515 9.66-7.885 12.693l-.462.581c-3.101 3.836-8.134 8.83-15.154 15.077a5 5 0 0 1-5.46.785l-7.166-3.375c-16.493-7.741-29.226-13.525-38.186-17.345l-.468-.2c-9.288-3.947-19.443-7.864-30.464-11.751l-1.58-.555Zm6.927-15.291h-13.854c-33.19.036-60.31.335-81.347.896l-.11.178c-28.449 1.013-54.373 11.847-74.43 29.185.206.317.379.66.513 1.028l2.002 5.508 52.884-29.177a5 5 0 0 1 6.787 1.952l.104.198.63 1.256c3.332 6.59 6.221 11.477 8.612 14.606l.222.288c2.16 2.765 5.853 6.56 11.039 11.321l.893.816 7.747-3.636c13.734-6.422 24.714-11.409 32.949-14.964l2.476-1.06c9.95-4.23 20.849-8.415 32.696-12.558l1.752-.608.336-.094.279-.06.248-.038.209-.023.273-.017.25-.002.284.014.21.02.239.034.229.044.195.046.283.082.112.037c11.933 4.14 22.917 8.32 32.954 12.546l1.837.778c8.427 3.593 20.073 8.866 34.951 15.823l7.747 3.636.403-.366c5.279-4.823 9.066-8.68 11.322-11.509l.207-.262c2.58-3.302 5.76-8.709 9.464-16.15l.104-.198a5 5 0 0 1 6.787-1.952L640.3 362.8l2.002-5.508c.134-.368.307-.711.512-1.026-20.055-17.34-45.98-28.172-74.43-29.185l-.11-.18-6.4-.158c-20.043-.46-45.029-.706-74.946-.738Zm-4.138-34.002-4.134-.002c-34.264.022-62.3.851-84.086 2.485-.693.358-1.217.863-1.569 1.515-.43.796-.43 2.796 0 6-2.07 1.943-3.499 3.601-4.285 4.976l4.347-.117c21.864-.559 49.94-.844 84.239-.858l14.965.01c32.227.065 58.562.386 79.02.965-.787-1.375-2.216-3.033-4.286-4.976l.089-.692c.339-2.802.31-4.571-.089-5.308-.352-.652-.876-1.157-1.57-1.515l-1.856-.136c-21.202-1.522-48.136-2.305-80.785-2.347ZM480 195c-11.492 0-21.42.436-29.77 1.302 3.39 7.486.296 14.195-9.282 20.126a2 2 0 0 0-.948 1.7V227c-12.603 7.266-20.937 14.266-25 21-3.97 6.578-7.242 18.499-9.818 35.763l2.133-.12c18.983-1.037 41.698-1.583 68.156-1.638l5.883-.005 4.516.008c26.879.074 49.858.659 68.947 1.757-2.575-17.266-5.848-29.187-9.817-35.765-4.063-6.734-12.397-13.734-25-21v-8.872a2 2 0 0 0-.948-1.7c-9.578-5.93-12.673-12.64-9.283-20.127-8.07-.836-17.617-1.271-28.625-1.3L480 195Zm20.37 40.085a2 2 0 0 1 .93.599l4.282 4.893a2 2 0 0 1 .448.883l3.76 16.922a2 2 0 0 1-.08 1.136l-1.617 4.311a2 2 0 0 1-3.377.615l-4.48-5.119a2 2 0 0 1-.434-.832l-3.75-14.998a2 2 0 0 1 .025-1.06l1.803-6.01a2 2 0 0 1 2.49-1.34Zm-37.412 1.34 1.803 6.01a2 2 0 0 1 .024 1.06l-3.75 14.998a2 2 0 0 1-.434.832l-4.48 5.119a2 2 0 0 1-3.377-.615l-1.617-4.311a2 2 0 0 1-.08-1.136l3.76-16.922a2 2 0 0 1 .448-.883l4.282-4.893a2 2 0 0 1 3.421.742Zm-33.14 7.42a1 1 0 0 1 .07 1.196l-.941 1.434c-1.61 2.474-2.869 4.546-3.78 6.217L425 253c-.96 1.793-2.023 4.079-3.187 6.857a1 1 0 0 1-1.915-.498l.457-3.874a14 14 0 0 1 4.86-9.052l3.194-2.706a1 1 0 0 1 1.409.118Zm102.773-.118 3.193 2.706a14 14 0 0 1 4.861 9.052l.457 3.874a1 1 0 0 1-1.917.499l-.46-1.085c-.984-2.295-1.893-4.219-2.725-5.773l-.342-.626c-1.074-1.936-2.589-4.381-4.544-7.335a.992.992 0 0 1 .068-1.194 1 1 0 0 1 1.41-.118ZM481.07 173H480c-13.953 0-25.601.643-34.918 1.916l-3.156 3.153a4 4 0 0 0-1.144 2.363l-.035.327c-.134 1.394-.05 2.474.253 3.241.401 1.017 1.23 1.963 2.289 3.069 9.657-1.348 21.513-2.033 35.595-2.068L480 185c14.572 0 26.8.685 36.712 2.07 1.058-1.107 1.887-2.053 2.288-3.07.303-.767.387-1.847.253-3.24l-.035-.328a4 4 0 0 0-1.144-2.363l-3.155-3.152c-9.078-1.241-20.37-1.884-33.85-1.916Zm6.93-51h-16c-3.496 1.562-5.83 4.229-7 8s-1.837 10.438-2 20l-2.658.443a4 4 0 0 0-3.342 3.946V159c-2.398 1.199-4.526 2.937-6.385 5.214 8.126-.783 17.52-1.185 28.194-1.212L480 163c11.168 0 20.958.402 29.385 1.214-1.859-2.277-3.987-4.015-6.385-5.214v-4.611a4 4 0 0 0-3.342-3.946L497 150l-.025-1.258c-.198-8.89-.857-15.138-1.975-18.742-1.17-3.771-3.504-6.438-7-8Zm-29.06-68.883-.084.139a14.97 14.97 0 0 1-6.017 5.532c-3.604 1.82-4.635 3.182-4.809 5.106a6.343 6.343 0 0 0 .62 3.414l.029.058.367-.005c11.002-.138 19.532 1.696 25.88 6.435-.323-8.15-1.423-13.563-3.067-15.994-1.649-2.437-5.872-4.155-12.92-4.685Zm42.121.002-.194.015c-6.916.55-11.069 2.257-12.7 4.668-1.643 2.43-2.742 7.835-3.067 15.974l.173-.128c6.201-4.537 14.456-6.351 25.03-6.293l1.017.011.03-.058c.52-1.093.7-2.131.636-3.2l-.016-.214c-.174-1.924-1.205-3.286-4.809-5.106a14.97 14.97 0 0 1-6.1-5.67ZM480 15.234l-.101.033c-.09.03-.17.06-.242.09l-.144.067-.128.201c-.86 1.391-1.267 2.723-1.318 4.227l-.005.325c0 7.526-5.573 13.869-12.999 14.866l-.329.04c-1.793.202-2.587.66-3.413 1.827-.798 1.128-1.076 2.587-.59 5.249l.061.325c.051.256.095.512.132.769 9.094.874 15.53 3.657 19.09 8.76 3.554-5.098 9.982-7.88 19.062-8.759l.06-.385.072-.385c.568-2.87.3-4.4-.53-5.574-.784-1.109-1.54-1.578-3.15-1.794l-.262-.033a15 15 0 0 1-13.328-14.906c0-1.64-.402-3.062-1.323-4.552l-.129-.201-.041-.02a3.071 3.071 0 0 0-.344-.137l-.101-.033Z"/></svg>