<svg xmlns="http://www.w3.org/2000/svg" viewBox="0 0 960 960"><path d="M340.702 59.91c15.542-1.367 29.996-1.205 43.385.559 17.13 2.256 35.337 8.225 54.807 17.697 25.885 12.594 38.257 42.543 28.823 69.713l-.208.587-2.401 6.612-2.025 5.603-1.998 5.554-2.487 6.954-2.288 6.436a3521.102 3521.102 0 0 0-3.377 9.57l-2.214 6.325c-16.129 46.215-29.872 88.82-41.231 127.792l-1.534 5.292c-.254.878-.506 1.754-.756 2.629l-1.49 5.224c-10.817 38.147-19.25 72.659-25.299 103.515-14.913 76.07-21.258 166.142-19.88 251.741l.004.315 1.548-2.256c39.055-57.331 73.645-134.841 99.797-223.577l1.1-3.756 1.644-5.665 2.468-8.56 2.066-7.22 1.664-5.848 2.948-10.43 2.142-7.632 2.622-9.397 3.145-11.344 3.256-11.816 3.49-12.727 2.97-10.881 10.112-37.122 2.815-10.305 2.78-10.137 1.222-4.437 2.39-8.646 2.326-8.35 1.702-6.073 1.668-5.917 2.173-7.651 2.118-7.387 1.555-5.374 1.526-5.234 1.004-3.414 1.484-5.011.975-3.27 1.445-4.798.95-3.131.943-3.078 1.396-4.52.92-2.95 1.366-4.333c.15-.476.301-.95.452-1.42l.898-2.807.891-2.76.886-2.716.88-2.673.874-2.63.869-2.59.865-2.55.86-2.51.857-2.473.854-2.437.85-2.402.848-2.367.846-2.335.845-2.302.843-2.272.421-1.125.842-2.228.42-1.104.842-2.187.421-1.084.843-2.148.421-1.065.844-2.112.846-2.09.847-2.068.894-2.152.469-1.117.939-2.209c.156-.365.313-.73.47-1.092l.94-2.16c7.84-17.854 15.816-32.268 24.461-43.661 12.753-16.806 27.584-27.87 45.536-31.32 10.921-2.1 23.64-2.62 37.782-1.869l1.983.113.998.063 2.01.137 1.011.075 2.037.161 1.025.087 2.062.185c1.381.128 2.774.267 4.177.416l2.114.23 1.063.121 2.139.254 1.075.132 2.163.275 2.179.289c.728.099 1.46.2 2.194.303l2.21.318 2.224.331 2.24.345 1.126.177 2.261.365c1.786.293 3.57.596 5.343.908l2.654.474a459.57 459.57 0 0 1 15.361 3.06l2.421.534 1.191.268 2.34.539 1.148.27 1.826.436 2.279.553 2.11.526 1.48.381 1.399.373.89.245.857.242.828.242.798.241.772.242.746.242.364.122.71.246.69.249.67.252.328.128.643.26c.212.087.42.176.628.265l.613.272.303.139.596.283.294.145.582.296.288.151.572.311.566.322c.095.054.189.11.282.165l.563.339c23.466 14.417 36.117 41.784 31.357 69.301l-1.56 9.136-5.31 30.956-4.468 25.827-3.882 22.194-2.86 16.133-2.521 13.957 2.195-2.495 2.748-3.113 2.75-3.102 2.75-3.092 2.753-3.08 2.753-3.07 2.754-3.058 2.754-3.045 2.753-3.032 2.753-3.02 1.376-1.505 2.75-2.999 2.75-2.985 2.748-2.97 2.745-2.957 2.742-2.94 2.74-2.925 2.736-2.91 2.732-2.892 2.728-2.876 1.362-1.431 2.721-2.85 2.716-2.832 2.71-2.814 2.706-2.795 2.698-2.776 2.692-2.757 2.685-2.737 2.678-2.717 2.67-2.696 2.663-2.675 2.653-2.654 2.645-2.632 1.32-1.308 2.63-2.598 1.313-1.29 2.616-2.565 1.305-1.273 2.6-2.53 2.591-2.504 1.291-1.244 2.574-2.468 2.562-2.443c.852-.81 1.701-1.616 2.55-2.418l2.537-2.392 1.264-1.186 2.518-2.353c.418-.39.836-.779 1.254-1.166l2.497-2.313 1.244-1.146 2.477-2.27 2.462-2.244c.41-.371.818-.742 1.226-1.11l2.44-2.201 2.425-2.172 1.206-1.075 1.97-1.746c.117-.103.236-.208.357-.312l.745-.637.795-.658c.275-.224.559-.453.854-.689l.921-.729c21.145-16.58 52.074-1.293 51.754 25.575l-1.341 108.202a32 32 0 0 1-6.641 19.127l-1.752 2.263-1.197 1.525-50.117 62.721-.246.338-21.54 29.669-38.83 53.631-2.732 3.81-1.366 2c-42.824 63.24-101.103 192.528-173.67 386.302-3.601 9.617-8.882 19.983-15.837 31.252l-1.142 1.836a310.188 310.188 0 0 1-3.603 5.602l-1.26 1.9a363.124 363.124 0 0 1-2.607 3.851 32 32 0 0 1-2.256 2.913c-14.753 16.932-36.71 26.1-59.552 24.347l-1.835-.146-2-.171-1.976-.182-1.952-.193-1.383-.144c-6.77-.725-13.02-1.644-18.767-2.772l-1.535-.31-1.676-.355-1.505-.334a132.805 132.805 0 0 1-7.717-1.998l-.781-.232-1.093-.332-1.427-.447-1.435-.465-.857-.285-.721-.243-1.32-.456-.856-.3-1.347-.484-1.484-.545-.857-.32-1.393-.53-1.718-.669-1.813-.72-1.937-.789-2.358-.982-2.396-1.022-2.36-1.03-1.648-.732-1.667-.75-1.753-.798-2.56-1.184-2.542-1.197-1.85-.882-.857-.413a74.1 74.1 0 0 1-31.739-29.186l-.433-.747-.484.53c-16.528 17.97-34.55 32.194-54.098 42.12l-.553.277-.808.487c-31.064 18.295-81.699 12.264-140.72-19.302l-1.847-.994c-30.006-16.271-50.17-47.44-62.656-90.393-3.736-12.852-6.802-26.84-9.227-41.898l-.187-1.172-1.037 1.21a410.063 410.063 0 0 1-4.828 5.505l-1.203 1.342-1.767 1.946-1.314 1.431a329.825 329.825 0 0 1-13.528 13.841l-2.552 2.451-1.27 1.216-2.532 2.412-2.517 2.385-1.253 1.184-2.497 2.347-2.482 2.321-2.469 2.297-1.23 1.138-2.448 2.258-2.435 2.233-2.422 2.208-2.409 2.183-2.396 2.159-2.383 2.134-2.37 2.11-2.357 2.084-2.345 2.061-2.333 2.037-1.162 1.01-2.314 2.001-2.302 1.978-1.146.98-2.284 1.942-2.272 1.919-2.26 1.896-2.249 1.872-2.237 1.85-2.226 1.827-2.214 1.805-2.203 1.782-2.192 1.76-2.182 1.736-2.17 1.716-1.081.849-2.154 1.682-1.073.833-2.139 1.65-2.128 1.628-2.118 1.607-2.107 1.586-2.098 1.564a619.4 619.4 0 0 1-1.045.775l-2.083 1.533-2.073 1.512-2.063 1.492c-.686.494-1.37.984-2.054 1.471l-2.044 1.451-1.019.718-2.03 1.42-1.012.703-2.017 1.39-1.005.689-2.003 1.36-.998.674-1.99 1.331-.932.618-3.549 2.33C29.313 871.386 1.1 856.138 1.078 830.724L1 742.367a32.034 32.034 0 0 1 8.255-21.48l5.86-6.51c53.391-59.685 92.547-113.479 117.484-161.1a1103.056 1103.056 0 0 0 50.368-110.493l.193-.495.393-1.017.605-1.587.624-1.662.86-2.33.891-2.458.69-1.929.947-2.682.978-2.808 1.009-2.932.777-2.28 1.061-3.146 1.091-3.266 1.405-4.25 1.745-5.34.896-2.768 2.152-6.707 1.911-6.02 1.638-5.205 2.02-6.467 2.076-6.705 2.494-8.115 2.878-9.448 2.07-6.844 2.006-6.666 2.43-8.121 2.451-8.234 2.475-8.356 2.502-8.49 2.533-8.634 3.215-11.01 3.276-11.273 2.67-9.22 11.994-41.605 35.94-120.697.09-.289c7.743-24.308 29.333-41.583 54.75-43.818Zm39.206 32.285c-10.953-1.443-23.087-1.579-36.403-.408a31.251 31.251 0 0 0-15.435 5.699 19.173 19.173 0 0 0-2.378 4.978c-49.053 157.617-79.568 287.172-91.558 388.579-.71 5.998-1.381 11.96-2.016 17.883l-.535 5.067c-7.972 76.699-9.582 146.592-3.715 202.55 5.37 51.204 16.834 89.309 34.21 112.299 4.997 5.093 10.467 9.303 16.437 12.54 40.28 21.842 70.017 27.7 89.724 26.462a65.156 65.156 0 0 1-7.495-4.09c-19.493-12.361-31.908-34.87-35.01-70.531-.048-.559-.097-1.118-.144-1.68l-.283-3.384c-.047-.567-.093-1.135-.138-1.705l-.27-3.434-.261-3.466-.252-3.498-.244-3.529-.234-3.558-.225-3.588-.11-1.804-.211-3.63-.203-3.657-.098-1.839-.19-3.696-.09-1.858-.175-3.734c-.029-.625-.057-1.25-.084-1.877l-.161-3.77-.077-1.894-.147-3.804-.137-3.826-.128-3.848-.118-3.867a620.4 620.4 0 0 1-.056-1.942l-.103-3.896-.094-3.916-.084-3.932-.074-3.95-.034-1.98-.06-3.974-.025-1.993-.044-3.995-.034-4.01-.024-4.022-.014-4.034-.003-2.022.001-4.052.012-4.061.023-4.072c.004-.68.01-1.359.015-2.039l.038-4.084.023-2.045.054-4.096.03-2.05.07-4.105.04-2.054.085-4.113.047-2.058.103-4.118c.035-1.374.073-2.748.113-4.122l.124-4.124c2.166-69.042 8.772-135.717 20.112-195.074 14.698-76.93 42.655-174.137 83.87-291.681l2.62-7.451 2.657-7.505 1.341-3.773a13.569 13.569 0 0 0-.103-9.403 24.788 24.788 0 0 0-7.486-5.59c-16.574-8.063-31.569-12.979-44.986-14.746Zm280.856 7.386-.924.03c-2.322.085-4.648.216-6.977.39a20.802 20.802 0 0 0-19.054 17.958l-4.981 36.5-3.296 25.055-1.405 10.503-.72 5.3-.732 5.317-.37 2.667-.747 5.354-1.144 8.085-.779 5.433-.793 5.472-.808 5.514-.823 5.561-.418 2.8-.848 5.638-.43 2.84c-9.233 60.747-19.915 120.879-32.307 178.654l-1.457 6.764-1.476 6.803-1.497 6.842c-.25 1.144-.503 2.289-.755 3.435l-1.527 6.9-1.546 6.939-.78 3.483-1.576 6.997-.795 3.512-1.606 7.055-1.625 7.093-1.646 7.131-.83 3.58-1.675 7.19-1.695 7.228-1.715 7.267-1.734 7.306-1.755 7.344a5591.04 5591.04 0 0 1-.885 3.686l-1.784 7.402-1.804 7.441-1.824 7.48-1.844 7.518-1.864 7.556a5568.1 5568.1 0 0 1-1.883 7.596l-1.904 7.634-1.923 7.672-.969 3.851-1.953 7.73-1.973 7.77-1.993 7.808-2.012 7.846-2.033 7.886-1.023 3.957-2.063 7.943-2.082 7.982-2.102 8.02-1.058 4.025-2.132 8.078-1.073 4.054-2.162 8.137-2.181 8.175-2.201 8.213-2.222 8.253-2.24 8.29-2.261 8.33-2.281 8.369-2.3 8.407-2.32 8.446-1.169 4.237-2.35 8.504-2.37 8.542-1.192 4.286-2.4 8.6-1.207 4.314-2.43 8.659a28.871 28.871 0 0 0-.955 5.147c2.905 11.97 10.991 22.473 22.743 28.138l.83.399 1.641.783 1.618.764 2.382 1.108 2.328 1.065 1.522.685 1.498.665 1.84.804 1.802.774 2.114.888 2.06.844 2.006.799 1.308.509 1.602.608 1.564.577 1.224.44.603.212 1.189.41 1.165.391 1.14.371 1.118.352 1.094.332.537.158c2.123.62 4.4 1.196 6.833 1.728l1.342.285 1.373.277c5.092 1 10.804 1.824 17.137 2.473l1.743.172 1.773.164 1.804.155 1.835.147a39.46 39.46 0 0 0 22.164-4.815 26.323 26.323 0 0 0 7.025-12.761l-.019.08.018-.081 3.668-16.129 3.602-15.869 4.7-20.754 3.446-15.262 3.38-15.003 4.403-19.6 3.225-14.396 4.195-18.79 4.078-18.33 3.958-17.867 3.84-17.405 2.803-12.75 3.633-16.597 2.647-12.144 3.426-15.788 2.491-11.537 2.425-11.278 2.358-11.018 1.535-7.2 2.247-10.585 1.462-6.912 2.136-10.15 1.387-6.624 2.025-9.718 1.312-6.334 1.914-9.285 1.848-9.024 1.78-8.765 1.15-5.699 1.12-5.583 1.091-5.468 1.061-5.352 1.032-5.236 1.002-5.12 1.792-9.235 1.948-10.086 1.95-10.142 2.602-13.612 1.954-10.276 1.956-10.333 2.61-13.867 1.96-10.466 2.616-14.044 1.31-7.06 1.964-10.638 1.311-7.124 1.968-10.733 2.627-14.4 1.972-10.866 1.974-10.924 1.976-10.98 1.977-11.039 1.98-11.095 1.98-11.152 1.983-11.21 2.646-15.034 1.987-11.343 2.652-15.213 1.327-7.644 1.992-11.515 2.66-15.44 1.996-11.649c1.258-7.36-1.101-14.511-5.795-19.62a35.774 35.774 0 0 0-2.713-1.844c-.374-.23-1.39-.601-2.948-1.077l-1-.298-.548-.157-1.187-.332-.639-.174-1.363-.362-1.476-.38-1.583-.396-1.685-.41-1.784-.423-.927-.216-1.921-.438-2.008-.446-2.09-.453-2.166-.457a432.402 432.402 0 0 0-8.12-1.608l-2.456-.455c-14.108-2.572-30.704-4.881-45.929-5.446Zm-40.827 8.305-.507.397c-24.91 20.007-45.494 77.443-68.075 155.777l-1.88 6.554c-1.257 4.4-2.52 8.864-3.792 13.388l-1.912 6.83c-.64 2.29-1.281 4.596-1.925 6.916l-1.938 7.003-1.953 7.087-2.775 10.118-2.806 10.274-10.105 37.098-2.977 10.901-3.02 11.025-.972 3.532-2.94 10.668-2.987 10.767-1.005 3.61-2.027 7.252-1.022 3.641-2.06 7.311-2.082 7.35-1.05 3.687-2.117 7.403-2.14 7.436a4020.79 4020.79 0 0 1-2.166 7.469c-35.253 121.14-88.637 231.419-153.876 295.814l.044.699.114 1.76.236 3.5.245 3.47.253 3.437.262 3.406.134 1.69.275 3.357.283 3.323c2.69 30.918 12.586 48.86 27.638 58.406 4.236 2.686 8.753 4.63 13.85 6.148l.468.135.83.228.955.252 1.412.36 1.689.418 2.55.616 3.769.886.145.04c38.58-20.584 69.433-62.386 92.532-110.235l1.976-7.239c.38-1.391.758-2.781 1.135-4.17l2.256-8.31 2.236-8.273 2.216-8.234 2.197-8.195 2.176-8.156 1.08-4.064 2.147-8.098 2.127-8.06 2.107-8.02 2.087-7.983 2.068-7.943 2.047-7.905 1.016-3.938 2.018-7.847 1.002-3.909 1.987-7.788.987-3.88 1.958-7.73.972-3.852 1.928-7.672.957-3.822 1.899-7.614 1.878-7.576 1.86-7.537 1.838-7.498 1.82-7.46 1.799-7.421 1.78-7.382 1.76-7.344 1.74-7.305 1.72-7.266.852-3.618 1.69-7.208.838-3.59 1.66-7.15c.55-2.377 1.097-4.747 1.641-7.111l1.62-7.072c.27-1.176.537-2.35.804-3.522l1.59-7.015 1.572-6.975.778-3.474 1.542-6.917 1.521-6.88 1.502-6.84c.249-1.136.496-2.272.743-3.405l1.472-6.782c.488-2.255.972-4.503 1.453-6.744 12.317-57.428 22.945-117.252 32.132-177.701.288-1.89.572-3.771.853-5.643l.836-5.587.82-5.537.804-5.49.79-5.449.776-5.41.762-5.374.75-5.345 1.104-7.968 1.081-7.922.724-5.384 3.757-28.515 5.2-38.163a36.83 36.83 0 0 1 1.984-7.922Zm-386.54 285.492-.734 2.34-1.669 5.285c-6.915 21.812-13.316 40.888-18.227 53.441a1135.031 1135.031 0 0 1-41.115 92.722l-1.937 3.87a1159.357 1159.357 0 0 1-8.768 17.086c-25.23 48.181-63.687 101.564-115.37 160.147l-3.283 3.707c-1.65 1.857-3.312 3.72-4.988 5.587l-.335.372L33 742.34l.078 88.358 2.331-1.528 2.773-1.837 1.705-1.146.859-.58 1.73-1.18 1.747-1.2L45.987 822l1.78-1.247 1.799-1.27 1.815-1.294 1.833-1.318 1.851-1.342 1.868-1.367 1.887-1.391 1.904-1.417 1.923-1.443.968-.73 1.95-1.482 1.97-1.508.992-.763 1.997-1.548 2.016-1.575 2.036-1.603 1.025-.812 2.065-1.644 1.04-.833 2.093-1.686 2.114-1.716 2.134-1.745 1.075-.883 2.164-1.789 2.184-1.818 2.205-1.85 2.225-1.879 1.12-.951 2.257-1.926 2.278-1.957 1.147-.99 2.31-2.005 1.162-1.014 2.342-2.053 2.363-2.085 2.385-2.119 2.407-2.151 2.429-2.185 1.223-1.105 2.462-2.236 2.485-2.27c.832-.763 1.668-1.531 2.508-2.305l2.53-2.34 2.553-2.375 2.577-2.411 2.6-2.447 2.622-2.483c.44-.417.88-.835 1.32-1.255l2.659-2.538 2.682-2.575c4.395-4.232 8.843-8.808 13.343-13.728l1.69-1.861c5.922-6.571 11.934-13.736 18.035-21.493l1.746-2.232.875-1.129 1.673-2.176c5.864-7.67 11.81-15.879 17.836-24.629l7.978-12.05c-.835-45.011 1.771-95.484 7.433-149.13l.55-5.143c.561-5.151 1.15-10.33 1.765-15.537 3.5-29.599 8.55-61.527 15.151-95.786ZM927 157.058l-.513.405-.68.545-.57.472-.32.273-2.036 1.804c-59.69 53.078-136.218 135.878-201.337 218.796l-.883 4.702-1.959 10.384-2.61 13.756-2.606 13.654-1.953 10.174-2.6 13.477-1.796 9.25-1.015 5.185-1.578 7.999-1.646 8.263-1.715 8.53-1.18 5.833-1.211 5.95-1.241 6.07-1.919 9.323-1.986 9.589-1.362 6.54-1.392 6.657-2.145 10.207-1.467 6.952-2.259 10.65-2.326 10.913-3.207 14.964-1.649 7.659-2.53 11.709-1.724 7.953-2.644 12.15-1.8 8.249-3.69 16.848-3.812 17.32-2.938 13.3-3.006 13.564-3.074 13.83-3.142 14.095-4.295 19.205-4.416 19.676-3.39 15.067-4.628 20.501-4.43 19.571c.46-1.106.89-2.191 1.289-3.256 74.177-198.072 133.694-329.769 178.551-395.09l.096-.138 1.266-1.778 6.89-9.559 32.025-44.21 24.188-33.306 50.251-62.889.812-1.03 1.981-2.557L927 157.058Z"/></svg>