<svg xmlns="http://www.w3.org/2000/svg" viewBox="0 0 960 960"><g stroke="#000" fill="none" fill-rule="evenodd" stroke-linecap="round" stroke-linejoin="round"><path d="M491.917 32.158c54.606-.173 98.85 8.637 98.82 19.678a4.465 4.465 0 0 1-.429 1.863l2.543.045 59.711 223.217-2.847.012c-6.524 7.943-76.726 14.402-162.35 14.674-84.378.268-153.747-5.569-161.95-13.3l-.423.001.1-.342c-.324-.397-.49-.799-.488-1.204.001-.707.508-1.404 1.49-2.088l67.172-220.736a4.32 4.32 0 0 1-.276-1.515c.03-11.04 44.32-20.13 98.928-20.304z" stroke-width="40"/><path d="M650.645 250.9c.023-8.483-72.848-15.13-162.763-14.844-89.914.285-162.822 7.394-162.845 15.878" stroke-width="20"/><path d="M535.98 870.197c62.293 2.254 104.508 9.71 104.508 18.061v30.847c0 9.54-67.371 17.272-150.478 17.272-82.275 0-149.13-7.579-150.458-16.987l-.02-.285v-30.847c0-8.793 47.836-16.144 115.224-17.948 2.585-.07 80.567-.137 81.225-.113zm-45.7-2.935L490 246" stroke-width="40"/></g></svg>