<svg viewBox="0 0 960 960" xmlns="http://www.w3.org/2000/svg"><g fill="none" fill-rule="evenodd" stroke="#000"><ellipse cx="454.5" cy="534" rx="74.5" ry="12" stroke-width="20"/><path d="M235.549 794.758c-4.857-232.277-7.285-413.369-7.285-543.275 0-194.86 153.11-228.725 229.665-228.725s229.665 44.86 229.665 228.725c0 122.576-1.463 300.51-4.389 533.8 6.432 3.823 9.649 11.972 9.649 24.447v50.614c0 11.953-45.987 77.562-232.295 77.562-186.309 0-232.295-58.718-232.295-68.14V809.73c0-7.425 2.428-12.416 7.285-14.972z" stroke-width="40"/><path d="M234.416 800.52c35.267 41.516 111.648 62.275 229.143 62.275 117.494 0 189.567-25.09 216.218-75.268M379.951 534v219.045c0 10.055 37.25 19.014 74.5 19.014s74.5-10.075 74.5-19.014V533.832" stroke-width="20"/><path d="M381.944 699.777S256.7 715.76 253.946 759.922s155.434 55.855 206.158 55.855 200.807-9.861 200.807-58c0-32.092-44.83-51.425-134.49-58m166.433 147.344c19.428-30.24 48.55-43.53 87.365-39.871 58.222 5.488 56.511 39.871 106.086 55.545 49.574 15.674 110.07-23.252 110.07-23.252" stroke-width="20"/><g stroke-linecap="round" stroke-linejoin="round"><path d="M453.5 126.451c-82.567 0-149.5 64.745-149.5 144.611 0 33.515 11.787 64.367 31.57 88.89l.323.52c36.978 46.348 56.733 83.284 59.014 109.38v57.74c24.986 4.573 44.223 6.86 57.71 6.86 13.488 0 33.31-2.287 59.468-6.86v-57.74c2.192-25.99 21.187-62.061 58.146-108.4l1.79-2.238C591.449 334.812 603 304.242 603 271.062c0-79.866-66.933-144.61-149.5-144.61z" stroke-width="20"/><path d="M446.095 294.858c-10.482 0-28.077 25.814-33.224 46.783-6.231 25.388 1.56 46.783 7.764 46.783 11.327 0 20.51-20.946 20.51-46.783s-9.183-46.783-20.51-46.783-20.509 20.945-20.509 46.783" stroke-width="10"/><path d="M471.554 294.858c-10.482 0-28.077 25.814-33.224 46.783-6.23 25.388 1.561 46.783 7.765 46.783 11.326 0 20.509-20.946 20.509-46.783s-9.183-46.783-20.51-46.783" stroke-width="10"/><path d="M507.215 341.436c-.24-9.088-.507-15.349-.802-18.783-1.195-13.927-4.986-26.96-13.49-26.96-6.858 0-25.23 30.044-29.133 45.948-6.231 25.388 1.56 46.783 7.764 46.783 11.327 0 20.51-20.946 20.51-46.783s-9.183-46.783-20.51-46.783m-71.428 46.782c0 31.059 17.603 68.174 21.999 101.697.627 4.783.985 9.493.985 14.102v46.419m84.154-162.218c0 35.49-22.984 78.887-22.984 115.799 0 16.786-.384 32.26-1.15 46.419" stroke-width="10"/></g></g></svg>