<svg viewBox="0 0 960 960" xmlns="http://www.w3.org/2000/svg"><g fill="none" fill-rule="evenodd" stroke="#000"><path d="M480.242-93.04 480 319" stroke-width="20"/><g stroke-linecap="round" stroke-linejoin="round"><path d="M480 936c-93.336 0-169-75.913-169-169.556 0-39.296 13.324-75.47 35.687-104.222l.366-.61c41.8-54.343 64.133-97.65 66.71-128.249V333.54c22.078-9.971 44.155-14.957 66.232-14.957 22.077 0 44.154 4.986 66.232 14.957v199.825c2.477 30.473 23.95 72.767 65.73 127.1l2.024 2.623C635.94 691.697 649 727.54 649 766.444 649 860.087 573.336 936 480 936z" stroke-width="40"/><g stroke-width="10"><path d="M470 758c-11.857 0-31.761-29.796-37.583-54-7.049-29.305 1.766-54 8.783-54 12.813 0 23.2 24.177 23.2 54s-10.387 54-23.2 54-23.2-24.177-23.2-54"/><path d="M501 758c-12.1 0-32.414-29.796-38.355-54-7.194-29.305 1.802-54 8.963-54 13.076 0 23.677 24.177 23.677 54s-10.6 54-23.677 54"/><path d="M541 704.237c-.273 10.49-.577 17.716-.913 21.68-1.36 16.075-5.67 31.119-15.343 31.119-7.802 0-28.699-34.68-33.138-53.036-7.088-29.305 1.775-54 8.831-54 12.884 0 23.328 24.177 23.328 54s-10.444 54-23.328 54M418 704c0-36.186 20.679-79.428 25.842-118.487.737-5.573 1.158-11.06 1.158-16.43V515m96 189c0-41.349-25.713-91.911-25.713-134.917 0-19.558-.43-37.586-1.287-54.083"/></g></g><g stroke-width="20" transform="translate(311 -93.04)"><ellipse cx="168.5" cy="609.539" rx="57.5" ry="30.5"/><path d="M101.352 551.645c22.516-12.404 45.032-18.606 67.548-18.606s45.033 6.202 67.55 18.606"/></g><path d="m782.75-225-.121 282.342" stroke-width="20"/><g stroke-linecap="round" stroke-linejoin="round"><path d="M783 480c-64.065 0-116-52.009-116-116.164 0-26.923 9.146-51.706 24.495-71.405l.251-.418c28.692-37.23 44.02-66.9 45.79-87.864V67.247C752.69 60.416 767.843 57 782.996 57s30.308 3.416 45.461 10.247V204.15c1.701 20.878 16.44 49.854 45.117 87.078l1.39 1.797C890.035 312.626 899 337.182 899 363.836 899 427.99 847.065 480 783 480z" stroke-width="40"/><g stroke-width="10"><path d="M776.136 358.05c-8.138 0-21.8-20.413-25.796-36.996-4.839-20.077 1.211-36.996 6.028-36.996 8.795 0 15.924 16.564 15.924 36.996s-7.13 36.996-15.924 36.996c-8.795 0-15.924-16.563-15.924-36.996"/><path d="M797.414 358.05c-8.306 0-22.248-20.413-26.327-36.996-4.937-20.077 1.237-36.996 6.153-36.996 8.975 0 16.251 16.564 16.251 36.996s-7.276 36.996-16.251 36.996"/><path d="M824.87 321.216c-.188 7.187-.396 12.138-.627 14.854-.933 11.013-3.892 21.32-10.531 21.32-5.355 0-19.699-23.76-22.746-36.336-4.865-20.077 1.219-36.996 6.062-36.996 8.843 0 16.012 16.564 16.012 36.996s-7.169 36.996-16.012 36.996m-56.584-36.996c0-24.791 14.193-54.417 17.738-81.177.505-3.818.794-7.577.794-11.256v-37.053m65.894 129.486c0-28.328-17.65-62.97-17.65-92.433 0-13.4-.294-25.75-.883-37.053"/></g></g><g stroke-width="20" transform="translate(667 -225)"><ellipse cx="115" cy="417.5" rx="36" ry="17.5"/><path d="M69 378c15.5-8.667 31-13 46.5-13s31 4.333 46.5 13"/></g><path d="m176.75-93-.121 282.342" stroke-width="20"/><g stroke-linecap="round" stroke-linejoin="round"><path d="M177 612c-64.065 0-116-52.009-116-116.164 0-26.923 9.146-51.706 24.495-71.405l.251-.418c28.692-37.23 44.02-66.9 45.79-87.864V199.247C146.69 192.416 161.843 189 176.996 189s30.308 3.416 45.461 10.247V336.15c1.701 20.878 16.44 49.854 45.117 87.078l1.39 1.797C284.035 444.626 293 469.182 293 495.836 293 559.99 241.065 612 177 612z" stroke-width="40"/><g stroke-width="10"><path d="M170.136 490.05c-8.138 0-21.8-20.413-25.796-36.996-4.839-20.077 1.211-36.996 6.028-36.996 8.795 0 15.924 16.564 15.924 36.996s-7.13 36.996-15.924 36.996c-8.795 0-15.924-16.563-15.924-36.996"/><path d="M191.414 490.05c-8.306 0-22.248-20.413-26.327-36.996-4.937-20.077 1.237-36.996 6.153-36.996 8.975 0 16.251 16.564 16.251 36.996s-7.276 36.996-16.251 36.996"/><path d="M218.87 453.216c-.188 7.187-.396 12.138-.627 14.854-.933 11.013-3.892 21.32-10.531 21.32-5.355 0-19.699-23.76-22.746-36.336-4.865-20.077 1.219-36.996 6.062-36.996 8.843 0 16.012 16.564 16.012 36.996s-7.169 36.996-16.012 36.996m-56.584-36.996c0-24.791 14.193-54.417 17.738-81.177.505-3.818.794-7.577.794-11.256v-37.053m65.894 129.486c0-28.328-17.65-62.97-17.65-92.433 0-13.4-.294-25.75-.883-37.053"/></g></g><g stroke-width="20" transform="translate(61 -93)"><ellipse cx="115" cy="417.5" rx="36" ry="17.5"/><path d="M69 378c15.5-8.667 31-13 46.5-13s31 4.333 46.5 13"/></g></g></svg>