<svg xmlns="http://www.w3.org/2000/svg" viewBox="0 0 960 960"><path d="M479.5 66c89.459 0 169.433 49.776 212.43 126.287l.323.584.78-.353c23.618-10.59 49.443-16.325 76.11-16.513L770.5 176C875.161 176 960 260.868 960 365.55c0 25.664-5.06 50.646-14.597 77.046a380.953 380.953 0 0 1-3.113 8.324l-.425 1.089-.643 1.63-.644 1.609-.424 1.046-.428 1.048-.951 2.293c-4.983 11.894-11.054 24.6-20.478 43.489l-4.448 8.899c-9.72 19.487-15.246 31.126-19.654 41.977l-.346.856c-.287.712-.569 1.422-.847 2.13l-.662 1.701-.341.892a301.432 301.432 0 0 0-1.676 4.506c-6.734 18.544-10.056 34.849-10.056 50.716a40 40 0 0 1-.27 4.638l-.182 1.55.09.133a59.796 59.796 0 0 1 10.206 32.728l.004.734a59.96 59.96 0 0 1-1.901 14.996l-.077.285-.085.338a59.98 59.98 0 0 1-16.899 28.497l-.46.428-.045.384.006.657c0 43.643-35.015 79.115-78.488 79.82l-1.32.011h-39.808c-40.473 0-74.105-30.197-79.154-69.588l-.138-1.148-.07-.3a40.274 40.274 0 0 1-.631-3.554l-.075-.603-.664-5.679-.46-.428a59.978 59.978 0 0 1-16.898-28.499l-.076-.298-.084-.316a59.929 59.929 0 0 1-1.897-14.105l-.006-.898a59.8 59.8 0 0 1 9.844-32.914l.455-.681-.18-1.55a40 40 0 0 1-.263-3.863l-.008-.775c0-18.006-3.902-35.457-12.942-58.025l-.689-1.706-1.265 2.823c-7.519 16.866-13.036 30.815-17.609 44.707l-.555 1.7c-8.159 25.202-12.273 48.223-12.273 70.927a40 40 0 0 1-.25 4.47l-1.056 9.378.383.485c9.103 11.643 14.434 26.237 14.618 41.757l.005.833c0 6.071-.788 12.075-2.33 17.875l-.096.353c-3.779 14.228-11.919 26.612-22.898 35.57l-.63.506-1.482 13.182-.014.621c-1.621 51.22-42.258 92.885-93.172 93.73L506.9 894h-54.8c-50.954 0-92.265-40.97-94.688-92.191a40.002 40.002 0 0 1-.034-.947l-.025-1.07-1.5-13.337-.077-.062c-11.058-8.831-19.31-21.104-23.24-35.245l-.303-1.114a69.467 69.467 0 0 1-2.327-16.974l-.006-.91c0-15.83 5.357-30.74 14.623-42.59l.382-.485-1.054-9.378a40 40 0 0 1-.241-3.574l-.01-.896c0-24.835-4.968-50.084-14.878-78.393a464.756 464.756 0 0 0-2.633-7.328l-.488-1.316-.693-1.847c-3.373-8.926-7.091-17.85-11.933-28.636l-.671-1.489-.272.691-.348.89a294.454 294.454 0 0 0-2.362 6.288c-6.734 18.543-10.055 34.848-10.055 50.714a40 40 0 0 1-.27 4.638l-.182 1.55.09.133a59.796 59.796 0 0 1 10.206 32.728l.004.734a59.96 59.96 0 0 1-1.901 14.996l-.077.285-.085.338a59.98 59.98 0 0 1-16.899 28.497l-.46.428-.045.384.006.657c0 43.643-35.015 79.115-78.488 79.82l-1.32.011h-39.808c-40.473 0-74.105-30.197-79.154-69.588l-.138-1.148-.07-.3a40.274 40.274 0 0 1-.631-3.554l-.075-.603-.664-5.679-.46-.428a59.978 59.978 0 0 1-16.898-28.5l-.076-.298-.084-.316a59.929 59.929 0 0 1-1.897-14.105l-.006-.898a59.8 59.8 0 0 1 9.844-32.914l.455-.681-.18-1.55a40 40 0 0 1-.263-3.863l-.008-.775c0-26.773-8.419-51.77-29.93-95.265l-1.625-3.277-1.152-2.315-6.513-13.046-2.227-4.487c-11.93-24.13-19.243-40.617-25.395-58.609C4.467 413.169 0 389.617 0 365.55 0 260.868 84.839 176 189.5 176c26.875 0 52.923 5.633 76.753 16.2l.699.312.456-.815C309.974 116.414 388.39 67.183 476.318 66.02L479.5 66Zm84.013 714.962c-.626.025-1.256.038-1.888.038h-164.25c-.632 0-1.261-.013-1.887-.038l1.812 16.115.067 2.841C398.792 830.036 422.752 854 452.1 854h54.8c30.265 0 54.8-25.485 54.8-56.923l1.813-16.115ZM561.625 704h-164.25C382.256 704 370 716.76 370 732.5c0 2.636.344 5.188.987 7.61 2.941 10.51 11.56 18.51 22.177 20.18l.043.382c1.36.216 2.751.328 4.168.328h164.25c1.417 0 2.81-.112 4.169-.328l.043-.383c10.617-1.67 19.235-9.67 22.177-20.178A29.66 29.66 0 0 0 589 732.5c0-15.74-12.256-28.5-27.375-28.5Zm-312.5-9h-119.25c-.26 0-.52-.003-.78-.007l1.184 7.164C131.315 723.23 148.72 740 170.04 740h39.807c21.985 0 39.808-17.833 39.808-39.831l.25-5.176c-.26.005-.519.007-.779.007Zm581 0h-119.25c-.26 0-.52-.002-.779-.007l1.183 7.164C712.315 723.23 729.72 740 751.04 740h39.807c21.985 0 39.808-17.833 39.808-39.831l.25-5.176c-.259.004-.519.007-.779.007ZM479.5 106l-3.066.023-1.064.02c-.705.014-1.408.032-2.11.054l2.11-.055-1.585.039-.525.016c-1.116.034-2.229.078-3.34.13l2.284-.095c-1.026.037-2.05.082-3.072.135l.788-.04a199.803 199.803 0 0 0-10.07.736l2.164-.201c-1.06.093-2.116.194-3.17.303l1.005-.102c-1.062.105-2.123.218-3.181.34l2.175-.238c-1.024.106-2.046.22-3.066.342l.891-.104c-1.293.148-2.582.309-3.868.482l2.977-.378a198.4 198.4 0 0 0-3.546.456l.569-.078c-1.003.135-2.004.278-3.002.428l2.433-.35-1.77.252-.663.098-1.491.23-1.489.242c-1.083.18-2.164.368-3.242.565l2.123-.376-1.497.263-.626.113a197.76 197.76 0 0 0-3.838.743l2.97-.581-1.632.313-1.338.268c-.964.196-1.926.4-2.885.61l2.597-.551-1.194.248-1.403.303c-.996.218-1.988.444-2.978.677l2-.46c-1.01.227-2.018.461-3.023.704l1.023-.244c-1.011.238-2.02.484-3.026.737l2.003-.493-1.473.36-.53.133c-1.239.313-2.474.637-3.704.973l2.765-.733-1.234.321-1.53.412c-.954.26-1.905.527-2.853.8l1.924-.545-1.52.43-.404.116c-1.003.29-2.004.587-3 .893l1.89-.569c-.95.28-1.898.568-2.843.863l.952-.294c-1.039.318-2.074.644-3.106.98l2.154-.686-1.429.451-.725.234c-1.168.379-2.33.768-3.49 1.167l2.79-.939c-.776.255-1.55.515-2.321.779l-.468.16c-.931.321-1.859.65-2.784.984l2.096-.745c-1.033.36-2.063.73-3.09 1.107l-1.791.668c-1.082.41-2.16.829-3.233 1.257l2.166-.85-1.34.523-.826.327c-1.063.423-2.122.856-3.176 1.297l2.665-1.093-1.207.49-1.458.603-1.378.583-.963.415-.41.178c-.953.416-1.903.84-2.848 1.27l1.866-.838c-.905.401-1.807.808-2.706 1.222l.84-.384c-1.037.471-2.07.952-3.097 1.44l2.257-1.056c-.899.414-1.795.835-2.687 1.262l.43-.205c-1.006.478-2.007.965-3.004 1.46l2.574-1.255c-.783.375-1.563.755-2.34 1.14l-1.566.782.4-.202c-.893.45-1.784.905-2.67 1.368l.943-.489-1.358.705.415-.216c-.888.463-1.772.932-2.652 1.408l.886-.476a202.332 202.332 0 0 0-3.095 1.688l2.21-1.212a204 204 0 0 0-2.555 1.404l-2.482 1.412-1.296.755.381-.223c-.853.499-1.703 1.004-2.549 1.516l.878-.529a232.95 232.95 0 0 0-2.579 1.568l1.701-1.04-1.292.789-.409.251a204.386 204.386 0 0 0-5.664 3.632l-1.243.833-1.238.842-1.231.851-.94.658-.286.202a206.032 206.032 0 0 0-3.196 2.307l2.27-1.647c-.95.68-1.895 1.369-2.834 2.065l.564-.418a211.21 211.21 0 0 0-2.281 1.705l1.717-1.287-1.35 1.01-1.553 1.183-.965.748-1.438 1.13.269-.212a207.506 207.506 0 0 0-5.237 4.28l-.694.588-.488.418-1.175 1.015-1.134.995-1.209 1.075-.982.888-.129.116c-.986.897-1.963 1.804-2.932 2.721l2.003-1.869c-.65.6-1.297 1.203-1.94 1.811l-1.085 1.031-1.016.98-1.066 1.044-1.06 1.051-1.082 1.09-.89.91-.186.19a211.09 211.09 0 0 0-2.728 2.86l1.908-2.01c-.605.63-1.206 1.263-1.803 1.9l-1.085 1.165.192-.206c-.707.765-1.41 1.535-2.107 2.31l.941-1.042a211.78 211.78 0 0 0-1.94 2.16l1-1.117a211.91 211.91 0 0 0-1.94 2.188l.94-1.071c-.638.72-1.272 1.446-1.9 2.175l-.95 1.114-1.706 2.031-.973 1.184.972-1.185-.904 1.098-.068.087c-.625.766-1.245 1.536-1.86 2.31l1.03-1.292c-.602.748-1.2 1.5-1.793 2.257l.763-.964c-.577.727-1.15 1.458-1.717 2.193l.954-1.23a217.62 217.62 0 0 0-1.862 2.41l.908-1.18c-.561.726-1.118 1.456-1.67 2.19l-.824 1.104c-.278.37-.553.744-.827 1.118l.827-1.118c-.628.846-1.25 1.698-1.866 2.554l1.039-1.436c-.573.782-1.14 1.568-1.702 2.359l.663-.923-.83 1.163.167-.24c-.565.793-1.124 1.592-1.678 2.394l.688-.986-.816 1.176.128-.19c-.53.767-1.056 1.538-1.576 2.313l.639-.941a214.444 214.444 0 0 0-3.044 4.606l-.99 1.555c-.167.259-.33.52-.495.783l.496-.783-.749 1.195.253-.412c-.495.793-.985 1.59-1.47 2.39l.477-.777a215.133 215.133 0 0 0-3.927 6.681c-.079.133-.155.269-.231.404l.231-.404-.595 1.064.364-.66c-.468.834-.93 1.672-1.388 2.513l.434-.785-.678 1.244.244-.459a215.62 215.62 0 0 0-1.315 2.457l.4-.747a215.817 215.817 0 0 0-4.64 9.254c-.102.204-.199.41-.296.617l.295-.617-.603 1.29.308-.673a217.92 217.92 0 0 0-1.084 2.353l.18-.386a216.504 216.504 0 0 0-4.112 9.633c-.05.113-.096.228-.142.344l.142-.344a217.098 217.098 0 0 0-4.584 12.623l-.501 1.524C277.68 273.197 274 295.882 274 319.46c0 51.195 17.512 97.843 38.536 143.578l2.031 4.394 1.291 2.769 1.801 3.836 1.887 3.988 1.967 4.135 2.641 5.52 3.329 6.927 4.7 9.767 2.48 5.173 1.648 3.45c1.175 2.465 2.346 4.93 3.51 7.398l1.74 3.703c1.09 2.331 2.174 4.664 3.25 7l1.808 3.948 1.642 3.63 1.387 3.097 1.697 3.839 1.335 3.062 1.63 3.792.59 1.39.87 2.066.605 1.446.81 1.958.596 1.45.79 1.945.604 1.5.798 2.002.602 1.527.777 1.994.609 1.578.713 1.873.596 1.58.718 1.93a436.064 436.064 0 0 1 1.588 4.372l1 2.827.506 1.458.715 2.092.492 1.462.667 2.013.489 1.5.66 2.064.493 1.566.557 1.8.495 1.629.605 2.034.465 1.597.57 1.992.45 1.612.548 2.011.428 1.604.508 1.95.41 1.617.49 1.974.398 1.655.465 1.983.367 1.614.469 2.124.344 1.614.395 1.91c.219 1.077.431 2.155.637 3.235l.401 2.152.334 1.872.29 1.692.354 2.165.26 1.663.28 1.884.247 1.751.248 1.85.227 1.796.249 2.107.189 1.717.2 1.956.167 1.755.176 2.039c.252 3.062.445 6.14.576 9.234l.076 2.026.054 1.83.041 1.948c.01.613.018 1.226.024 1.84l.008 1.936 1.181 10.5A46.484 46.484 0 0 1 397.375 684h164.25c4.368 0 8.59.602 12.594 1.727l1.181-10.5c0-58.074 22.313-110.096 46.803-161.468l2.35-4.917 2.36-4.914 4.93-10.233a6398.4 6398.4 0 0 0 2.414-5.014l3.006-6.268 1.47-3.079a1854.4 1854.4 0 0 0 1.97-4.15l1.922-4.076c1.46-3.11 2.909-6.224 4.34-9.341l.714-1.559 1.224-2.69C668.825 413.57 685 368.663 685 319.46c0-25.43-4.28-49.82-12.135-72.438l-.417-1.188c-.343-.972-.694-1.94-1.05-2.905l.814 2.24a216.96 216.96 0 0 0-1.15-3.14l.336.9c-.363-.981-.733-1.958-1.11-2.932l.774 2.032-.559-1.476-.214-.556c-.404-1.047-.817-2.09-1.236-3.128l.88 2.214-.555-1.405-.325-.809a216.642 216.642 0 0 0-1.384-3.34l1.144 2.75a224.63 224.63 0 0 0-1.025-2.47l-.119-.28c-.395-.934-.797-1.864-1.205-2.79l.8 1.841-.62-1.432-.18-.41-.62-1.39-.465-1.032-.162-.355c-.51-1.115-1.03-2.226-1.558-3.33l1.076 2.285-.622-1.33-.454-.956c-.493-1.03-.994-2.057-1.502-3.078l1.325 2.709-.557-1.149-.768-1.56c-.46-.922-.925-1.84-1.396-2.754l1.033 2.029-.744-1.466-.289-.563-.71-1.363.245.467a215.65 215.65 0 0 0-1.4-2.64l.437.815a215.448 215.448 0 0 0-4.857-8.615l1.009 1.715-.775-1.32-.234-.395c-.538-.904-1.08-1.803-1.63-2.697l1.08 1.776a218.5 218.5 0 0 0-1.554-2.544l.474.768a214.699 214.699 0 0 0-5.382-8.32l1.23 1.827a214.332 214.332 0 0 0-1.773-2.622l.543.794a214.17 214.17 0 0 0-1.709-2.475l1.166 1.681a214.096 214.096 0 0 0-1.761-2.526l.595.845a213.804 213.804 0 0 0-5.888-8l1.251 1.636-.938-1.23-.313-.407a210.24 210.24 0 0 0-1.847-2.356l1.213 1.54-.925-1.176-.288-.364a212.786 212.786 0 0 0-3.291-4.036l-1.118-1.327a212.231 212.231 0 0 0-1.91-2.217l1.407 1.627-1.057-1.225-.35-.402c-.673-.77-1.35-1.533-2.034-2.292l1.318 1.477-.966-1.086-.352-.391a211.557 211.557 0 0 0-2.62-2.859l1.998 2.17-1.078-1.179-.92-.99a211.17 211.17 0 0 0-2.042-2.158l1.875 1.978a211.112 211.112 0 0 0-2.537-2.665l-1.073-1.1-.307-.31c-.709-.72-1.423-1.433-2.143-2.14l1.37 1.36-1.044-1.04-.326-.32a210.079 210.079 0 0 0-2.824-2.728l2.098 2.016-1.158-1.12-.94-.896a209.64 209.64 0 0 0-2.161-2.021l1.934 1.805c-.89-.84-1.786-1.673-2.689-2.497l-1.354-1.225a208.883 208.883 0 0 0-2.44-2.155l1.56 1.37-1.081-.952-.48-.418c-.94-.818-1.889-1.627-2.844-2.428l2.236 1.902-1.303-1.115-.933-.787c-.755-.633-1.515-1.26-2.279-1.882l1.9 1.566c-.863-.72-1.732-1.433-2.607-2.139l.707.573c-.77-.627-1.545-1.249-2.324-1.865l1.617 1.292-1.204-.964-.413-.328a207.099 207.099 0 0 0-2.51-1.953l1.712 1.326-1.151-.894-.561-.432c-.965-.739-1.936-1.47-2.914-2.19l2.317 1.735c-.972-.739-1.95-1.468-2.934-2.19l.617.454c-.8-.59-1.603-1.174-2.411-1.753l1.794 1.3-1.301-.946-.493-.354a205.705 205.705 0 0 0-2.425-1.71l1.61 1.13-1.243-.874-.367-.256a205.274 205.274 0 0 0-2.5-1.71l1.618 1.101-1.222-.833-.396-.267a204.76 204.76 0 0 0-3.262-2.15l2.429 1.592-1.391-.918-1.038-.674c-.82-.53-1.643-1.053-2.47-1.57l2.11 1.337-1.471-.935-.64-.402a198.497 198.497 0 0 0-2.54-1.563l1.702 1.041-1.263-.775-.438-.266a203.39 203.39 0 0 0-2.809-1.669l1.978 1.17a203.27 203.27 0 0 0-2.554-1.505l.576.335a202.904 202.904 0 0 0-3.144-1.797l2.568 1.462-1.535-.88-1.033-.582c-.857-.48-1.718-.954-2.582-1.421l2.072 1.137a202.348 202.348 0 0 0-2.91-1.588l.838.45c-.872-.47-1.747-.935-2.625-1.394l1.786.944-1.355-.718-.431-.226a204.52 204.52 0 0 0-2.758-1.413l1.828.93-1.319-.673-.51-.257a201.183 201.183 0 0 0-3.439-1.687l2.625 1.28a201.088 201.088 0 0 0-3.132-1.522l.507.242c-.886-.425-1.777-.843-2.67-1.255l2.163 1.013a200.67 200.67 0 0 0-3.02-1.406l.857.393c-.894-.412-1.791-.818-2.691-1.217l1.834.824-1.415-.638-.42-.186a200.05 200.05 0 0 0-3.023-1.31l2.022.87-1.328-.575-.694-.296c-1.118-.473-2.24-.936-3.367-1.39l2.727 1.12-1.149-.477-1.578-.643c-.899-.361-1.8-.717-2.706-1.066l1.976.774-1.52-.597-.456-.177c-.951-.366-1.905-.726-2.863-1.078l1.792.67-1.378-.517-.414-.153a198.775 198.775 0 0 0-3.286-1.176l2.316.822c-.924-.335-1.851-.662-2.781-.984l.465.162a198.512 198.512 0 0 0-3.244-1.098l2.779.936-1.22-.416-1.56-.52a185.55 185.55 0 0 0-2.879-.923l1.992.633c-.986-.32-1.975-.63-2.967-.935l.975.302c-.956-.299-1.916-.59-2.879-.875l1.904.573-1.478-.446-.426-.127a197.954 197.954 0 0 0-3.328-.952l2.272.644-1.409-.403-.863-.24a197.832 197.832 0 0 0-3.387-.905l2.837.753-1.258-.34-1.58-.413c-.976-.252-1.956-.496-2.938-.733l1.992.492-1.504-.374-.488-.118a197.7 197.7 0 0 0-3.057-.712l2.036.469-1.479-.343-.557-.126a197.7 197.7 0 0 0-3.607-.775l2.682.57-1.463-.316-1.219-.254a197.748 197.748 0 0 0-3.182-.625l2.935.575c-.87-.177-1.741-.349-2.615-.514l-1.801-.333.49.088c-1.044-.19-2.091-.373-3.14-.547l-1.48-.24-.444-.07c-1.24-.194-2.483-.375-3.73-.546l2.69.386-1.495-.219-1.194-.167a198.404 198.404 0 0 0-3.269-.419l2.965.378-1.325-.174-1.64-.204c-1.03-.123-2.062-.238-3.097-.346l2.08.227-1.567-.173-.513-.054a199.016 199.016 0 0 0-3.105-.298l2.047.191-1.56-.147-.487-.044a199.666 199.666 0 0 0-10.28-.638l2.196.092c-1.075-.05-2.152-.093-3.23-.127l1.034.035a200.879 200.879 0 0 0-3.212-.09l2.178.055a210.82 210.82 0 0 0-3.189-.074L479.5 106Zm350.625 529h-119.25C699.898 635 691 643.954 691 655c0 1.61.19 3.177.547 4.678l.121.483.03.113c.128.472.273.937.433 1.394l.163.445.078.204c.125.319.257.633.397.944l.292.618.247.484c.152.289.312.573.477.854l.171.283.156.25.349.53.197.285.308.424c.222.299.452.59.69.876l.364.422c.181.205.366.406.556.604l.347.353.175.172.239.227.242.223c.13.118.262.234.396.349l.322.271.318.257.422.324c.22.164.442.323.668.478l.216.146.54.347.457.275c.203.119.409.234.616.345l.339.178.206.103.356.173.293.136.55.24.314.127.394.15.54.193.481.156.5.148-.139-.04c.39.113.786.215 1.186.304l.324.07.506.097c1.134.202 2.3.307 3.491.307h119.25c1.217 0 2.408-.11 3.565-.32l.474-.093c.3-.062.596-.131.89-.207l.578-.158.36-.108.316-.1.564-.196.536-.203.314-.128.338-.144.505-.23.282-.137.45-.228.388-.21.397-.225.457-.275.128-.08c.212-.134.421-.271.628-.413l.25-.174.247-.178.416-.313.421-.334.396-.331.266-.233.255-.23.355-.336.175-.172a20.07 20.07 0 0 0 1.256-1.366l.304-.372.201-.257.304-.404.161-.224.237-.34.2-.3.276-.433.2-.331c.14-.236.274-.475.404-.717l.126-.238.194-.383c.178-.36.345-.726.501-1.098l.095-.231.093-.233a19.932 19.932 0 0 0 .674-2.043l.067-.255c.412-1.604.631-3.286.631-5.019 0-11.046-8.898-20-19.875-20Zm-581 0h-119.25C118.898 635 110 643.954 110 655c0 1.61.19 3.177.547 4.678l.121.483.03.113c.128.472.273.937.433 1.394l.163.445.078.204c.125.319.257.633.397.944l.292.618.247.484c.152.289.311.573.477.854l.171.283.151.242.241.372.113.167.197.284.308.424c.222.299.452.59.69.876l.364.422c.181.205.366.406.556.604l.347.353.175.172.239.227.242.223c.13.118.262.234.396.349l.322.271.318.257.422.324c.22.164.442.323.668.478l.216.146.54.347.457.275c.203.119.409.234.616.345l.339.178.206.103.356.173.293.136.55.24.314.127.394.15.54.193.481.156.5.148-.14-.04c.392.113.787.215 1.187.304l.324.07.506.097c1.134.202 2.3.307 3.491.307h119.25c1.217 0 2.408-.11 3.565-.32l.474-.093c.3-.062.596-.131.89-.207l.578-.158.36-.108.316-.1.564-.196.536-.203.314-.128.338-.144.505-.23.282-.137.45-.228.388-.21.397-.225.457-.275.128-.08c.212-.134.421-.271.628-.413l.25-.174.247-.178.416-.313.421-.334.396-.331.266-.233.255-.23.355-.336.175-.172a20.07 20.07 0 0 0 1.256-1.366l.304-.372.201-.257.304-.404.161-.224.237-.34.2-.3.216-.338a20.026 20.026 0 0 0 .664-1.143l.126-.238.194-.383c.178-.36.345-.726.501-1.098l.095-.231.093-.233a19.932 19.932 0 0 0 .674-2.043l.067-.255c.412-1.604.631-3.286.631-5.019 0-11.046-8.898-20-19.875-20ZM189.5 216C106.933 216 40 282.956 40 365.55c0 41.33 16.916 78.43 35.164 115.195l2.336 4.692 4.148 8.304 2.892 5.806 1.64 3.312 1.065 2.164 1.542 3.151c16.555 33.982 30.946 68.505 30.946 106.627l.17 1.46a39.842 39.842 0 0 1 9.972-1.261h119.25c3.444 0 6.785.438 9.971 1.26l.17-1.46c0-41.482 16.874-78.556 35.096-115.236l1.46-2.933 5.352-10.705-2.315-4.903c-7.66-16.283-13.208-28.684-17.932-40.32l-.472-1.166a479.01 479.01 0 0 1-2.508-6.353l-.56-1.455a514.934 514.934 0 0 1-5.139-14.05C260.25 383.403 254 351.64 254 319.46c0-28.541 4.951-55.9 14.017-81.197C245.201 224.147 218.302 216 189.5 216Zm581 0c-29.146 0-56.345 8.344-79.335 22.774C700.115 263.929 705 291.111 705 319.46c0 31.868-6.132 63.307-17.904 97.145a518.732 518.732 0 0 1-3.193 8.92l-.542 1.463-.47 1.257a472.892 472.892 0 0 1-1.673 4.392l-1.052 2.697c-5.586 14.187-12.191 28.97-21.941 49.55l5.593 11.202 1.722 3.46 1.64 3.313 1.065 2.164 1.542 3.151c16.555 33.982 30.946 68.505 30.946 106.627l.17 1.46a39.842 39.842 0 0 1 9.972-1.261h119.25c3.444 0 6.785.438 9.971 1.26l.17-1.46c0-90.174 79.734-159.52 79.734-249.25C920 282.956 853.067 216 770.5 216Z"/></svg>