<svg xmlns="http://www.w3.org/2000/svg" viewBox="0 0 960 960"><g stroke="#000" fill="none" fill-rule="evenodd" stroke-linecap="round" stroke-linejoin="round"><path d="M454.41 378.672c.724-5.14 1.392-11.975 2.152-19.323 1.643-15.874 4.283-34.01 13.103-41.625 12.902-11.14 39.736-19.755 92.608-9.878 52.873 9.878 130.776 79.77 127.094 164.016-3.682 84.245-42.444 120.988-66.326 139.692-23.883 18.703-73.312 51.236-108.661 5.406-35.35-45.831-86.655-67.65-97.747-113.619-11.09-45.968 32.313-85.898 37.777-124.669z" stroke-width="20"/><path d="M232.325 343.844c-41.443-94.554-26.928-163.502 43.544-206.842 105.708-65.01 171.904-53.295 202.547-34.223 14.557 9.06 24.574 17.456 30.053 25.189 2.21 3.12 6.578 7.582 8.068 6.876 3.42-1.62 8.278-3.17 14.572-4.652 13.555-3.19 91.979-34.138 145.14 25.739 53.162 59.877 107.794 98.144 104.115 165.37-2.452 44.816-12.244 76.667-29.376 95.551 37.738 15.39 60.513 42.372 68.324 80.943 11.718 57.856-8.504 143.84-22.408 169.622-13.903 25.78-53.259 66.811-92.57 82.215-26.206 10.27-40.975 15.404-44.306 15.404-8.64 19.794-15.463 33.555-20.467 41.282-11.579 17.88-22.409 29.876-55.477 42.97-70.549 27.937-137.578 32.989-203.476-2.956-10.472-5.712-41.456-23.334-55.104-68.52-9.098-30.123-12.199-51.581-9.301-64.373-52.898 12.629-99.887-14.924-140.966-82.658-61.618-101.602-36.836-229.985 0-257.306 24.557-18.214 43.587-28.091 57.088-29.63z" stroke-width="40"/><path d="M500.31 127.158c40.586 51.47 60.88 85.823 60.88 103.057 0 10.643.57 24.5 0 40.74-.236 6.706-.984 17.7-2.243 32.982m-329.184 45.886c60.241-1.304 103.269 1.182 129.082 7.457 25.813 6.275 55.438 21.45 88.877 45.527M306.809 707.46c52.503-16.608 88.789-32.134 108.857-46.579 20.068-14.444 41.5-40.461 64.296-78.05m166.401 196.722c12.358-42.556 16.983-73.217 13.874-91.984-3.109-18.766-16.75-42.532-40.921-71.298m67.219-180.148c15.372-2.413 26.699-4.853 33.979-7.32 7.28-2.465 17.438-7.303 30.474-14.514" stroke-width="20"/></g></svg>