<svg xmlns="http://www.w3.org/2000/svg" viewBox="0 0 960 960"><g stroke="#000" fill="none" fill-rule="evenodd"><path d="m751.792 780.642-227.1-11.668-234.517 11.668-176.65 41.156c-15.4 12.028-28.701 24.3-39.902 36.818-11.201 12.518-23.075-59.9-35.623-217.255l35.623-143.365 114.539-174.353 153.779-76.915L469.837 216l149.099 30.728 132.856 76.915 117.486 174.353L922 641.361l-28.447 191c-1.467 11.6-3.046 16.724-4.736 15.373-10.544-8.426-25.352-11.991-42.883-21.6-21.747-11.92-53.128-27.084-94.142-45.492Z" stroke-width="40"/><path stroke-width="20" d="M472.5-453v659M837 436.972 710.068 390.52 506.441 369l-219.839 17.068L105 441M38 641l123.875-58.129L387.767 550h256.492l191.807 38.84L922 641M273 278.546 285.978 386 433 225"/><path stroke-width="20" d="M711 294.545V390L577.79 236l-71.2 132.709L407 236"/><path stroke-width="20" d="M840.781 591.38 710.923 384.866 646.116 549.04 507.062 368 389.521 549.04 286.97 384.866 163.54 582.014 127 422.103"/><path stroke-width="20" d="m885 840-43.19-228.623-89.156 169.466L645.14 550 525.597 769.162 388.7 550l-97.573 230.843-128.275-197.824-49.723 228.029L39 681.746"/><path stroke-width="40" d="M753.728 781.355 525.824 769l-252.447 12.355-146.94 38.99L91 868.286l56.399 34.959 125.978 22.217L472.555 937l220.818-12.613 117.467-21.142L877 855.189l-3.307-6.08z"/></g></svg>