<svg xmlns="http://www.w3.org/2000/svg" viewBox="0 0 960 960"><g stroke="#000" fill="none" fill-rule="evenodd"><path d="M476.511 925c-114.615-.534-178.426-26.863-178.426-33.495-5.745-9.57-5.745-20.734 0-33.494-15.583-8.913-26.753-16.57-33.51-22.968-35.656-33.763-36.369-86.826-36.383-103.346v-200.02l-4.788-12.44C154.468 499.459 120 451.928 120 376.645 120 263.72 128.617 35 480 35s360 228.72 360 341.645c0 75.283-34.468 122.814-103.404 142.592l-4.787 12.44-.003 201.076c-.056 17.622-1.453 69.216-36.38 102.29-6.758 6.399-17.928 14.055-33.511 22.968 5.745 12.76 5.745 23.924 0 33.494 0 6.7-65.106 33.495-181.915 33.495h-3.489z" stroke-width="40"/><path d="M264.574 834.9c-35.655-33.757-36.368-86.81-36.382-103.328V531.589l-4.788-12.439C154.468 499.376 120 451.854 120 376.584 120 263.68 128.617 35 480 35l10.439.068C831.554 39.562 840 264.808 840 376.584c0 75.27-34.468 122.792-103.404 142.566l-4.787 12.439-.003 201.04c-.056 17.618-1.453 69.203-36.38 102.271C659.043 869.345 566.17 867 480 867c-86.17 0-179.043 2.345-215.426-32.1z" stroke-width="20"/><path d="M223 508c-68.936-19.79-103-55.8-103-131.133C120 263.87 128.617 35 480 35l10.439.068C831.554 39.566 840 265 840 376.868c0 75.331-30.064 111.341-99 131.132-24.894 8.3-114.83 24-261 24l-8.697-.005C330.433 531.832 247.396 516.133 223 508z" stroke-width="20"/></g></svg>