<svg xmlns="http://www.w3.org/2000/svg" viewBox="0 0 960 960"><g stroke="#000" fill="none" fill-rule="evenodd" stroke-linecap="round" stroke-linejoin="round"><path d="M535.98 870.197c62.293 2.254 104.508 9.71 104.508 18.061v30.847c0 9.54-67.371 17.272-150.478 17.272-82.275 0-149.13-7.579-150.458-16.987l-.02-.285v-30.847c0-8.793 47.836-16.144 115.224-17.948 2.585-.07 80.567-.137 81.225-.113zm-45.7-2.935L487 409m3-243V36m-16.291 8.98c11.67 16.197 14.362 26.58 8.075 31.147l-1.296.807-.829.52c-13.472 8.45-23.914 15.855-31.328 22.216-6.017 4.371-4.8 9.209-6.581 12.03-1.781 2.819-8.481 7.305-9.45 13.35-1.084 15.562-15.426 32.63-37.596 52.11l-.51.447c-7.78 6.786-20.968 17.19-39.561 31.21l.13.364c2.102 5.92 2.46 9.912.688 11.2-5.465 3.97-29.105-19.253-52.802-51.87s-38.48-62.276-33.014-66.247c1.808-1.314 5.609.352 10.744 4.352l2.886-2.016c18.02-12.565 31.222-21.336 39.604-26.313 25.379-15.064 46.043-23.43 61.177-19.651 6.05.946 12.387-4.04 15.618-4.862 3.233-.823 7.458 1.83 13.475-2.542l.529-.323.524-.325c8.588-5.354 19.146-13.318 31.675-23.892 6.35-4.614 15.511 1.317 27.484 17.796l.358.492z" stroke-width="40"/><g transform="rotate(54 150.459 376.57)" stroke-width="20"><ellipse cx="73" cy="109.133" rx="73" ry="24"/><path d="M101.313 5.87C95.406 3.532 90.558 2.02 86.77 1.334 82.98.649 77.014.204 68.869 0M36.345 6.09c5.908-2.34 10.756-3.852 14.545-4.538C54.678.868 60.645.423 68.79.22"/></g><path d="M499.944 183.551c18.732 6.902 26.77 14.003 24.111 21.307l-.623 1.394-.396.893c-6.444 14.539-10.96 26.518-13.55 35.937-2.543 6.988 1.17 10.319 1.271 13.653.1 3.333-2.946 10.799-.369 16.353 7.804 13.507 5.458 35.676-2.028 64.223l-.173.656c-2.655 9.977-7.77 25.977-15.346 47.997l.313.228c5.052 3.734 7.582 6.842 6.832 8.902-2.31 6.347-34.894.313-72.78-13.476s-66.725-30.112-64.415-36.46c.765-2.1 4.848-2.844 11.341-2.4l1.265-3.285c7.914-20.494 13.954-35.148 18.12-43.96 12.616-26.68 25.07-45.172 39.729-50.502 5.545-2.599 8.01-10.275 10.23-12.765 2.22-2.49 7.205-2.653 9.749-9.641l.257-.564.253-.563c4.126-9.24 8.426-21.748 12.9-37.52 2.684-7.376 13.596-7.582 32.737-.615l.572.208z" stroke-width="40"/><g transform="rotate(20 -460.834 1264.784)" stroke-width="20"><ellipse cx="73" cy="109.133" rx="73" ry="24"/><path d="M101.313 5.87C95.406 3.532 90.558 2.02 86.77 1.334 82.98.649 77.014.204 68.869 0M36.345 6.09c5.908-2.34 10.756-3.852 14.545-4.538C54.678.868 60.645.423 68.79.22"/></g><path d="M531.9 312.56c17.499-9.609 28.131-11.016 31.9-4.218l.642 1.384.414.886c6.746 14.4 12.824 25.668 18.233 33.802 3.606 6.505 8.556 5.887 11.138 7.998 2.582 2.112 6.217 9.308 12.1 11.008 15.313 2.97 30.506 19.286 47.14 43.665l.38.56c5.789 8.55 14.507 22.907 26.156 43.07l.378-.085c6.133-1.364 10.138-1.234 11.2.683 3.275 5.907-22.656 26.541-57.918 46.087s-66.501 30.603-69.776 24.695c-1.084-1.955 1.033-5.525 5.628-10.135l-1.649-3.11c-10.275-19.417-17.372-33.59-21.29-42.515-11.858-27.026-17.644-48.555-12.05-63.116 1.678-5.89-2.499-12.786-2.921-16.094-.423-3.31 2.725-7.18-.88-13.684l-.258-.564-.258-.56c-4.267-9.177-10.885-20.627-19.853-34.351-3.807-6.865 3.196-15.235 21.012-25.11l.532-.295z" stroke-width="40"/><g transform="rotate(-29 1060.715 -772.412)" stroke-width="20"><ellipse cx="73" cy="109.133" rx="73" ry="24"/><path d="M101.313 5.87C95.406 3.532 90.558 2.02 86.77 1.334 82.98.649 77.014.204 68.869 0M36.345 6.09c5.908-2.34 10.756-3.852 14.545-4.538C54.678.868 60.645.423 68.79.22"/></g></g></svg>