<svg xmlns="http://www.w3.org/2000/svg" viewBox="0 0 960 960"><g fill="none" fill-rule="evenodd"><path d="M478.5 165c109.54 0 198.252 18.888 229.141 40.22l.378.267.378.146c4.809 1.876 7.963 3.765 9.645 5.454l.158.163c5.195 5.488 11.746 26.8 11.8 69.872l-.001 2.93c-.01 9.395-.091 17.645-.241 24.75 19.335 5 34.686 10.641 45.309 16.53 4.576 2.536 16.649 15.398 18.987 25.475C800.2 377.282 808 454.397 808 492.247c0 40.038-2.05 80.076-6.149 120.113-.369 3.606-3.627 20.956-15.522 33.684-8.699 9.307-24.237 15.496-31.136 17.823-7.528 2.539-16.202 4.975-25.91 7.277 2.502 18.54 3.717 33.162 3.717 43.863 0 14.509-2.237 36.233-6.884 65.164l-17.108 14.593 15.652-11.046c-2.068 5.8-9.386 15.814-33.014 21.774l-.721.18c-12.627 3.097-30.512 5.924-52.415 8.247C597.257 818.293 541.224 821 479.5 821c-61.724 0-117.757-2.707-159.01-7.081-21.903-2.323-39.788-5.15-52.415-8.248-9.75-2.391-16.78-5.468-21.836-8.673l-11.662-.003-2.861-17.872c-4.534-28.406-6.716-49.781-6.716-64.116 0-10.836 1.246-25.693 3.81-44.565-8.539-2.092-16.234-4.292-23.003-6.575-6.899-2.327-22.437-8.516-31.136-17.823-11.895-12.728-15.153-30.078-15.522-33.684A1178.528 1178.528 0 0 1 153 492.247c0-37.85 7.801-114.965 13.946-141.44 2.338-10.077 14.411-22.94 18.987-25.476 10.624-5.888 25.976-11.53 45.31-16.53-.156-7.332-.238-15.883-.243-25.655v-2.027c.029-22.69 1.11-39.148 2.956-49.422l.065-.36.003-.087c.28-7.11 2.976-14.381 9.265-21.274l.39-.421c4.155-4.44 10.195-8.93 18.224-13.03 12.545-6.409 30.873-12.347 53.712-17.18C357.3 170.526 414.884 165 478.5 165z" stroke="#000" stroke-width="40" stroke-linejoin="round"/><path d="M788.368 635.963c0-29.095-138.146-52.68-308.558-52.68s-308.558 23.585-308.558 52.68" stroke="#000" stroke-width="20" stroke-linecap="round" stroke-linejoin="round"/><path d="M718.338 657.65c0-16.626-106.979-30.103-238.944-30.103-131.965 0-238.944 13.477-238.944 30.103" stroke="#000" stroke-width="20" stroke-linecap="round" stroke-linejoin="round"/><ellipse stroke="#000" stroke-width="20" stroke-linecap="round" stroke-linejoin="round" cx="479.81" cy="776.018" rx="236.903" ry="34.851"/><ellipse fill="#000" cx="479.81" cy="776.018" rx="177.2" ry="14.046"/><path d="M171.464 345.419c1.194-4.904 7.29-11.247 9.638-12.488 41.528-21.944 159.666-37.774 298.92-37.774 139.253 0 257.39 15.83 298.919 37.774 2.348 1.24 8.444 7.584 9.638 12.488M209 445l116 71M212 403l122 77M224 368l140 87m-98-103 98 60m-7-38L248 510m91.18-165.885L225 484.82m6.279-58.898 57.745-71.741m190.997-202.014-.277-581.298" stroke="#000" stroke-width="20" stroke-linecap="round" stroke-linejoin="round"/><path stroke="#008DFF" stroke-width="32" d="M-1642-2443h4865v4028h-4865z"/></g></svg>