<svg viewBox="0 0 960 960" xmlns="http://www.w3.org/2000/svg"><g fill="none" fill-rule="evenodd" stroke="#000"><g stroke-linecap="round" stroke-linejoin="round"><path d="M662.31 861.67v45.208c0 13.982-81.435 25.314-181.89 25.314-99.449 0-180.258-11.107-181.864-24.895l-.025-.419V861.67c0-6.465 14.55-12.398 39.336-17.04L371 864l50-7 49 7 76-12 43 5 15.825-15.823c35.863 5.114 57.484 12.525 57.484 20.493z" stroke-width="40"/><path d="m435 549 19 79-9 19m-110-14 14 46c17.53 2.49 30.197 6.157 38 11 11.704 7.265 10.562-.268 20 25 6.292 16.845 9.958 36.179 11 58l66 80M325 578s-19-66-19-83 42.182-87.55 50-118c5.212-20.3 7.546-54.967 7-104m284 325-33 82c-14.778 2.405-24.111 4.405-28 6-5.833 2.393-6 2-11 10s-28.04 59.527-36 85c-5.307 16.982-8.307 36.649-9 59m-95-669s-25.207 17.143-38 26c-8.529 5.904-17.529 14.571-27 26" stroke-width="20"/><path d="m306 826-16-32-40-33-10-29v-32l-10-48v-58l-8-54 8-85-4-19 14-46 3-63 16-27-3-32 24-37 16-49 41-46 16-24 10-41 32-20 14 3 19-13 42 30 36 22 23 30 44 47 10 30 40 50 19 50 5 48 32 91 38 71-5 44 5 67-8 53-7 45-40 64-23 24-50 50-43-5-76 12-49-7-50 7z" stroke-width="40"/></g><path d="M589 932c68-12 124.333-15 169-9s112 9 202 9" stroke-width="20"/></g></svg>