<svg viewBox="0 0 960 960" xmlns="http://www.w3.org/2000/svg"><g fill="none" fill-rule="evenodd" stroke="#000"><g stroke-width="20"><path d="M589 919c68-12 124.333-15 169-9s112 9 202 9"/><path d="M533 565c20.435 0 31-22.185 31-44s-12.565-41-33-41-42 21.185-42 43 23.565 42 44 42z" stroke-linejoin="round"/><path d="M516 567c-20-18-23-22-44-73-12-57 8.04-88.545 15-101 8.273-14.804 25-36.81 25-53 0-44.183-27.52-69-59-69s-58 28.817-58 73c0 19.485 9 71 18 106 7.593 29.53-2 102-16 117z" stroke-linejoin="round"/><path d="M477 185c12.72 0 18.865-3.67 28-11 11.885-9.536 14-16.762 14-33h-91c0 6.49 3.827 14.457 6 20 7.537 19.226 20.28 24 43 24z"/></g><g stroke-linejoin="round"><path d="m507.191 28 1.441.014c12.304.191 27.808 2.171 31.676 5.07l.134.557c2.386 10.246 14.156 75.259 16.151 103.162l-1.54-.001.523.015 4.229 27.327c33.145 214.423 49.717 328.188 49.717 341.294 0 13.486-5.296 31.634-15.89 54.444a59.87 59.87 0 0 0 2.374-1.085l-1.825 4.6a1605.143 1605.143 0 0 1-5.824 14.29l-2.501 6.05c-11.5 27.728-30.525 72.63-57.076 134.707l16.513 28.442c35.293 60.841 60.25 104.237 74.872 130.187C628.48 891.829 612.985 933 479.584 933c-133.402 0-149.08-41.154-140.755-55.927l4.87-8.614c17.53-30.918 46.369-80.923 86.515-150.015l-8.625-20.181c-31.98-74.89-51.514-121.38-58.6-139.466.556.27 1.13.536 1.718.798-10.504-22.675-15.756-40.727-15.756-54.157 0-13.652 17.982-136.526 53.946-368.621l.522-.015h-1.54c.998-13.95 4.44-37.18 7.93-58.201l.427-2.563c3.49-20.822 6.931-38.969 7.929-42.955 4.02-3.012 20.614-5.033 33.116-5.083z" stroke-width="40"/><path d="m596.006 559-1.825 4.597c-1.564 3.9-3.505 8.66-5.824 14.283l-2.501 6.045c-11.5 27.714-30.525 72.592-57.076 134.635l16.513 28.427c35.293 60.808 60.25 104.18 74.872 130.116C628.48 891.852 612.985 933 479.584 933c-133.402 0-149.08-41.132-140.755-55.897l4.87-8.609c17.53-30.902 46.369-80.88 86.515-149.934l-8.625-20.17c-31.98-74.85-51.514-121.313-58.6-139.39 19.401 9.386 57.659 14.128 114.772 14.227l1.736.001c58.075-.004 96.91-4.747 116.509-14.228zM402 136.928c2.04-28.505 14.276-95.695 16.316-103.839 4.028-3.016 20.651-5.039 33.177-5.089h56.014l1.443.014c12.327.191 27.86 2.174 31.734 5.075l.135.559C543.209 43.906 555 108.993 557 136.928c-34.671 2.715-60.504 4.072-77.5 4.072-17.449 0-43.282-1.357-77.5-4.072z" stroke-width="20"/></g><path d="m527.245 717 15.998 28.499c34.192 60.961 58.37 104.443 72.536 130.444 16.12 29.588-28.269 48.525-133.166 56.81l-3.03.234V933l-.083-.006-.084.006v-.013l-3.03-.235c-104.896-8.284-149.285-27.22-133.165-56.809l4.717-8.63c16.984-30.98 44.923-81.084 83.817-150.313 6.522 3.144 13.985 5.521 22.388 7.132 4.19.803 14.81 2.04 25.44 2.038 10.552-.003 21.116-1.24 25.274-2.038 8.403-1.611 15.866-3.988 22.388-7.132z" stroke-width="20"/><path d="M504.5 228c25.681 0 44.5 23.55 44.5 60 0 21.745-7.57 50.975-19 63-7.284 7.663-14.282 8.876-23.734 8.99 3.38-7.024 5.734-13.916 5.734-19.99 0-41.547-24.334-65.97-53.412-68.736C469.46 247.567 487.85 228 504.5 228z" stroke-linejoin="round" stroke-width="20"/></g></svg>