<svg xmlns="http://www.w3.org/2000/svg" viewBox="0 0 960 960"><g fill="none" fill-rule="evenodd"><path d="M480.385 52.858c102.14 0 184.941 82.768 184.941 184.867 0 42.417-14.29 81.497-38.322 112.692l-2.215 2.86c-40.48 52.449-63.54 94.608-70.176 126.644C595.047 486.96 622 499.59 622 514l16.86 341.068a21.327 21.327 0 0 1 .137 2.773L639 858c-.747 31.527-71.424 57-158.5 57-86.662 0-157.08-25.231-158.479-56.55l-.014-.605v-.004l-.004-.171-.003-.17c0-.82.047-1.636.141-2.448L339 514l.019-.661c.809-14.101 27.428-26.428 67.084-33.37-6.842-32.342-30.65-75.414-71.205-127.943l-.4-.666c-24.473-31.349-39.054-70.79-39.054-113.635 0-102.1 82.801-184.867 184.941-184.867z" stroke="#000" stroke-width="40" stroke-linecap="round" stroke-linejoin="round"/><path d="M480.385 52.858c-102.14 0-184.94 82.768-184.94 184.867 0 42.846 14.58 82.286 39.053 113.635l.4.666C380.642 411.276 416.178 458.638 419 492l19 25c18.667 2.667 33 4 43 4s25-1.333 45-4l16-25c2.711-33.226 37.068-79.483 82.79-138.723l2.214-2.86c24.032-31.195 38.322-70.275 38.322-112.692 0-102.1-82.8-184.867-184.94-184.867z" stroke="#000" stroke-width="20" stroke-linecap="round" stroke-linejoin="round"/><g stroke="#000" stroke-linecap="round" stroke-linejoin="round" stroke-width="20"><path d="M469.629 204.75c-15.346 0-41.108 37.794-48.643 68.495-9.123 37.172 2.285 68.496 11.368 68.496 16.583 0 30.027-30.667 30.027-68.496 0-37.829-13.444-68.495-30.027-68.495-16.584 0-30.028 30.666-30.028 68.495"/><path d="M506.905 204.75c-15.347 0-41.109 37.794-48.643 68.495-9.124 37.172 2.285 68.496 11.367 68.496 16.584 0 30.028-30.667 30.028-68.496-.001-37.829-13.444-68.495-30.028-68.495"/><path d="M559.116 272.945c-.35-13.305-.742-22.472-1.174-27.5-1.75-20.39-7.3-39.472-19.75-39.472-10.042 0-36.94 43.988-42.655 67.272-9.123 37.172 2.285 68.496 11.368 68.496 16.583 0 30.027-30.667 30.027-68.496 0-37.829-13.444-68.495-30.026-68.495m-104.58 68.495c0 45.473 25.773 99.813 32.209 148.896.918 7.003 1.443 13.898 1.443 20.646v67.963m123.21-237.505c0 51.96-33.651 115.5-33.651 169.542 0 24.577-.562 47.232-1.684 67.963"/></g><ellipse stroke="#000" stroke-width="20" cx="480.5" cy="525" rx="131.5" ry="34"/><ellipse fill="#000" cx="480.5" cy="520.5" rx="78.5" ry="9.5"/><path d="M643 845.222c26 10.667 69 10.667 129 0 60-10.666 122.667-15.333 188-14" stroke="#000" stroke-width="20"/></g></svg>