<svg viewBox="0 0 960 960" xmlns="http://www.w3.org/2000/svg"><g fill="none" fill-rule="evenodd"><g stroke="#000" stroke-linejoin="round"><path d="m358.134 719.189-.43-.364c-18.297-13.823-19.553-37.981-19.553-42.421v-41.599c0-47.49-24.301-92.714-33.738-109.456-9.438-16.74-36.3-80.065-36.3-80.065-.725-1.91.013-11.763-1.42-13.856-28.614-41.766-45.372-92.332-45.372-146.831 0-143.414 115.957-259.675 259-259.675 143.041 0 259 116.26 259 259.675 0 55.497-17.377 106.916-46.955 149.116-.922 1.314.886 9.66.161 11.571 0 0-26.861 63.325-36.299 80.065-9.437 16.742-33.738 61.965-33.738 109.456v41.599c0 4.44-1.165 28.421-19.462 42.244l-.521.54s-14.882 20.606-19.157 30.401c-4.276 9.796-5.182 17.399-6.436 24.065-1.253 7.617-2.172 16.1-3.092 25.277-.39 6.752-.891 17.082-1.504 30.99-.223 15.177-.223 26.228 0 33.153l-36.015 41.725-23.482 21.208-.585.346c-4.262 3.808-8.523 7.618-30.835 8.569h-.335c-21.977-.951-26.238-4.761-30.5-8.57l-.586-.345-23.481-21.208-36.016-41.725c.334-10.388.334-21.467 0-33.153-.251-10.13-.92-20.862-1.504-30.99-.92-9.177-1.838-17.66-3.092-25.277-.692-3.94-.205-6.046-5.202-20.645s-22.55-33.82-22.55-33.82z" stroke-width="40"/><path d="M264.32 435.932c29.181 5.776 92.237 13.989 214.975 13.99 122.81-.001 185.868-8.223 215.026-14m-75.001 269a50.422 50.422 0 0 1-3.833 2.227c-21.142 11.081-130.512 11.773-130.512 11.773h-7.309s-109.37-.692-130.512-11.773a50.422 50.422 0 0 1-3.833-2.227" stroke-linecap="round" stroke-width="20"/></g><path d="M387.372 839.922c-7.393 36 24.186 54 94.737 54s100.618-18 90.201-54c-28.501 5.729-58.525 8.593-90.072 8.593s-63.168-2.864-94.866-8.593z" fill="#000"/><path d="M386.32 751.922c28.159 5.333 68.825 8 122 8m-122 23c28.159 5.333 68.825 8 122 8m-122 24c28.159 5.333 68.825 8 122 8" stroke="#000" stroke-linecap="round" stroke-linejoin="round" stroke-width="20"/></g></svg>