<svg xmlns="http://www.w3.org/2000/svg" viewBox="0 0 960 960"><g stroke="#000" fill="none" fill-rule="evenodd"><path d="m410 815 15-3c4 10.667 26.333 16 67 16l33-3 4-5h13l110-39 41-30c15.333-4.667 26.667-14.333 34-29l52-57c12-8 18-22.667 18-44 7.333-13.333 12-27.667 14-43 2-15.333 7-27.333 15-36 2.667-4 2.667-10.333 0-19s-1.333-17.667 4-27c-8-12.667-11.333-30.333-10-53l-2-4c0-10-1.667-21.333-5-34v-14l-7-8c-7.333-13.333-11-26-11-38-8-4.667-14.333-12.667-19-24-4-3.333-7-8-9-14l-40-37c-50.667-41.333-86.333-65-107-71s-38.667-12.667-54-20c-24-6-49.667-9-77-9-41 0-79 1-97 12-12 7.333-26.667 14-44 20-30.667 10-51.333 20-62 30l-6 2c-26.667 18-44.333 32-53 42l-3 2-61 86c-4 2-6 7-6 15s-6 21-18 39l-2 33c0 11.333-2.333 20.333-7 27 .667 21.333 3 41.667 7 61s4.667 33.333 2 42c25.333 44.667 38.667 72.667 40 84l22 21c0 6.667 5.667 14 17 22l22 22c34 26.667 61 43.667 81 51 20 7.333 49.667 18.667 89 34z" stroke-width="40" stroke-linejoin="round"/><path d="M317 786c28.667-18 86.667-27 174-27s142 9 164 27m-424-63c4-24.667 24.333-39 61-43s78.667-10 126-18c88.667-.667 157.667 5.333 207 18s85.667 24.667 109 36M139 581c70-20.667 158.333-31 265-31s193 5.333 259 16l143 50" stroke-width="20"/><path d="M171 669c-2-24.667 31-34.667 99-30 68 4.667 127.667 9.333 179 14 66.667 9.333 127 9.333 181 0 64 9.333 113.333 9.333 148 0m-639-93c73.333-48 166.667-74.333 280-79 170-7 384-7 401 0" stroke-width="20"/><path d="M830 518c-94.667-62.667-236-87-424-73s-280 25.667-276 35m676-104c-185.333-22-316-30.333-392-25-114 8-230 12-257 28m599-83c-286-7.333-479 18-579 76" stroke-width="20"/><path d="M428 174c-10.499 36.593-18.499 64.26-24 83-15.555 52.988-30.68 106.346-31 147-.267 33.885 4.916 73 9 111 3.518 32.736 17.148 62.02 22 91 10.863 64.879 31.53 141.545 62 230m128-646c46.667 58 72 114.333 76 169 6 82 14 105 14 140 0 23.333-9.667 51.333-29 84v27c-6 27.333-13.667 53-23 77s-39.333 68.333-90 133" stroke-width="20" stroke-linejoin="round"/><path stroke-width="20" stroke-linecap="round" stroke-linejoin="round" d="M479 170v-524"/></g></svg>