<svg xmlns="http://www.w3.org/2000/svg" viewBox="0 0 960 960"><g fill="none" fill-rule="evenodd"><g transform="translate(220 25)"><ellipse fill="#000" cx="319.37" cy="643.585" rx="25.591" ry="30.027"/><path d="M259.003 20H260c27.334 0 51.72 3.963 65.634 11.02l.077.04-.002.236c-.001 3.737.33 7.263.969 10.577l.153.76c3.98 19.034 20.244 40.487 53.205 62.158 45.774 30.097 40.618 90.781 39.468 125.508-.18 5.437-.342 10.397-.367 14.742l-.003 1.152c-.002 24.006 1.688 79.587 5.085 166.744-2.657 30.145-15.265 53.334-38.861 68.992l-.004 56.559-.037 4.987c.024.183.037.367.037.552 0 2.876-2.153 5.212-4.46 7.547-1.828 1.85-3.658 3.605-5.77 4.27l-.006 42.7c0 27.013 6.835 30.765 22.042 40.012 1.344.817 2.822 1.713 4.438 2.766 2.16 1.408 5.565 3.66 9.818 6.493l.834.555a4262.098 4262.098 0 0 1 23.556 15.83l1.13.765a4291.21 4291.21 0 0 1 6.838 4.64l2.062 1.403 1.028.7 2.06 1.405 1.492 1.018.74.506 1.488 1.017c12.944 8.856 25.277 17.424 33.009 23.094C497.878 707.714 500 710.355 500 722.657v68.062c0 18.501-21.498 36.074-53.943 56.03-.176.109-.352.217-.522.329-45.207 30.943-106.971 44.632-185.054 42.755-79.045 1.877-140.81-11.812-185.72-42.552a19.654 19.654 0 0 0-.498-.335C41.498 826.793 20 809.22 20 790.72v-68.464c.048-11.958 2.256-14.64 14.347-23.507 7.732-5.67 20.065-14.238 33.005-23.091l1.487-1.017.739-.505 1.488-1.015 2.062-1.407 1.028-.7 2.065-1.405c2.297-1.562 4.586-3.114 6.841-4.642l1.13-.764a4262.717 4262.717 0 0 1 23.558-15.832l.834-.555a1310.39 1310.39 0 0 1 9.818-6.493c1.616-1.053 3.094-1.95 4.438-2.766 15.207-9.247 22.042-13 22.042-40.015l-.006-42.697c-2.112-.665-3.942-2.42-5.77-4.27-2.307-2.335-4.46-4.671-4.46-7.547 0-.187.013-.371.038-.555l-.038-4.984-.005-56.56c-23.598-15.66-36.206-38.851-38.86-69l.739-19.161c2.903-76.147 4.346-125.329 4.346-147.543 0-4.625-.173-9.992-.37-15.925-1.15-34.734-6.308-95.436 39.496-125.526l1.636-1.084c31.857-21.27 47.624-42.325 51.543-61.052.793-3.79 1.18-7.86 1.12-12.208l.004.628.03-.015c13.587-6.906 37.208-10.85 63.8-11.037l.878-.005zm65.895 9.476c.123.135 1.191.182 2.326.227l.488.02c1.217.051 2.367.116 2.367.304 0 .278-2.512.287-4.041.38l-.028.002zm-129.796 0-1.112.932-.02-.001c-.34-.02-.729-.037-1.128-.053l-.401-.016c-1.272-.052-2.52-.115-2.52-.31 0-.189 1.15-.254 2.367-.305l.488-.02c1.135-.045 2.203-.092 2.326-.227z" stroke="#000" stroke-width="40"/><path d="M260 10c32.139 0 60.263 5.586 74.355 14.473 2.645 1.668 4.533 2.966 5.82 4.054-.063.499-.096.998-.096 1.5 0 .563-.373 1.022-.786 1.475l-.25.273-.123.137-3.329 3.76 1.028 4.915c3.623 17.326 19.191 36.308 48.91 55.849 48.921 32.165 45.215 96.56 43.969 134.194-.177 5.33-.336 10.194-.36 14.455l-.004 1.124c0 24.015 1.697 79.67 5.102 166.96-2.724 32.632-16.15 57.785-40.64 75.243-23.215 16.55-55.853 26.27-97.695 29.683l-.14.011-.002-.439c-.005-1.639.008-3.322.037-5.045l.026-1.301c.086-3.386.235-6.97.384-10.36.223-2.892.443-5.57.743-7.986.132-.767.875-2.688 1.58-4.692l.359-1.009c.892-2.495 1.702-4.935 1.878-5.24 44.177-76.3 22.04-164.202.192-202.56-8.764-15.386-14.93-24.657-19.353-30.27-10.7-13.583-15.564-12-18.616-12.018h-.212c-.285-.003-.58-.013-.886-.02l-.232-.007a27.519 27.519 0 0 0-.478-.006h-.246l-.251.004c-3.39.078-8.217 1.3-16.592 11.788-4.47 5.598-10.693 14.921-19.584 30.53-21.778 38.233-43.844 125.69-.236 201.817.212.371 1.045 2.59 1.981 5.01l.225.582.262.687.235.622c.77 2.05 1.612 4 1.72 4.724.304 2.43.526 5.13.75 8.046l.045 1.03c.137 3.067.28 6.258.338 9.289.052 2.374.073 4.664.062 6.87l-.004.372-.65-.042c-42.973-2.923-76.581-12.261-100.618-28.532l-.806-.55c-25.375-17.498-39.274-42.981-42.048-76.238l.763-19.776c2.895-75.95 4.34-125.005 4.34-147.162 0-4.529-.173-9.784-.365-15.594-1.247-37.638-4.953-102.042 43.983-134.204l1.605-1.063c28.675-19.148 43.732-37.758 47.293-54.775l1.03-4.918-3.334-3.762a12.44 12.44 0 0 0-.123-.137l-.25-.271c-.412-.453-.785-.91-.785-1.473 0-.488-.03-.973-.086-1.457 1.227-1.128 3.122-2.402 5.81-4.097 13.942-8.792 41.627-14.35 73.339-14.473H260z" stroke="#000" stroke-width="20"/><path d="M260 0c49.75 0 90.079 17.925 90.079 40.036 0 22.112-40.33 40.037-90.079 40.037-49.75 0-90.079-17.925-90.079-40.037C169.921 17.925 210.251 0 260 0zm0 40.036c-31.093 0-56.3 4.482-56.3 10.01 0 5.527 25.207 10.009 56.3 10.009 31.093 0 56.3-4.482 56.3-10.01 0-5.527-25.207-10.009-56.3-10.009z" fill="#000"/><path d="M141.26 547.498c21.837 13.345 62.44 20.018 121.81 20.018 59.37 0 97.245-6.673 113.623-20.018m-356.22 199.18C93.49 770.7 173.332 782.712 260 782.712c86.667 0 167.533-12.01 242.598-36.032M213.657 459.582a184.678 184.678 0 0 0 10.615 21.71c.212.371 1.045 2.59 1.981 5.01l.225.582.262.687.235.622c.77 2.05 1.612 4 1.72 4.724.304 2.43.526 5.13.75 8.046l.045 1.03c.137 3.067.28 6.258.338 9.289.052 2.374.073 4.664.062 6.87l-.004.373-.246-.015c-45.435-3.04-80.44-13.214-104.717-31.17l-.074-.057.044-.122c.528-1.363 1.837-2.542 3.256-3.745l.428-.361c4.34-3.662 10.804-6.941 18.86-9.953 16.631-6.217 39.621-10.941 66.22-13.52zm97.928.542.582.064c24.948 2.771 46.4 7.458 61.927 13.498 7.543 2.935 13.588 6.105 17.64 9.636 1.425 1.24 2.8 2.435 3.359 3.819l.053.144-.762.561c-23.076 16.788-55.694 26.661-97.596 30.177l-1.027.084-.002-.44c-.005-1.639.008-3.322.037-5.045l.026-1.301c.086-3.386.235-6.97.384-10.36.223-2.892.443-5.57.743-7.986.132-.767.876-2.691 1.582-4.696l.238-.673c.933-2.62 1.812-5.252 1.997-5.572a184.884 184.884 0 0 0 10.693-21.603l.126-.307z" stroke="#000" stroke-width="20"/><path d="M135 497c22.448 8.32 39.115 13.652 50 16 29.365 6.333 57.291 7 75 7 16.401 0 46.073-1.568 72-7 11.755-2.463 28.755-7.796 51-16" stroke="#000" stroke-width="20"/></g><path stroke="#000" stroke-width="20" stroke-linejoin="round" d="M465 382h29l12 156h-48z"/><path d="M715 815c26 10.667 69 10.667 129 0s122.667-15.333 188-14" stroke="#000" stroke-width="20"/><path d="M715 815c26 10.667 69 10.667 129 0s122.667-15.333 188-14" stroke="#000" stroke-width="20"/></g></svg>