<svg viewBox="0 0 960 960" xmlns="http://www.w3.org/2000/svg"><g fill="none" fill-rule="evenodd" stroke="#000"><path d="M537.824 774.43c56.665 2.878 106.096 9.912 141.222 19.635 16.762 4.64 30.144 9.817 39.2 15.54C723.395 812.859 728 815.904 728 820c0 1.615-1.071 3.022-2.364 4.467-2.672 2.987-6.72 5.77-11.85 8.511-12.45 6.654-30.729 12.552-53.367 17.563C614.374 860.734 550.759 867 480.5 867s-133.874-6.266-179.919-16.459c-22.638-5.01-40.916-10.909-53.368-17.563-5.128-2.74-9.177-5.524-11.85-8.51-1.292-1.446-2.363-2.853-2.363-4.468 0-3.937 4.333-6.884 9.184-10.03 8.607-5.583 21.338-10.644 37.307-15.212 33.9-9.696 81.838-16.816 137.058-19.97.312-.018.406.462.567.61 2.548 2.334 4.645 6.067 7.02 9.928 3.6 5.854 7.532 12.043 12.458 16.839 11.031 10.74 29.532 12.37 41.705 12.37 11.68 0 31.832-4.366 43.765-16.497 4.684-4.76 8.148-10.746 11.199-16.236 1.584-2.852 2.92-5.571 4.56-7.372z" stroke-width="20"/><path d="M480.5 45c120.778 0 230.031 48.764 309.342 126.451C869.821 249.793 919.39 357.584 919.39 474.5c0 7.875.07 15.368.136 22.607.484 52.088.898 90.397-28.488 168.13-32.831 86.847-59.624 110.82-96.571 142.854C712.157 879.456 601.477 887 480.5 887c-96.94 0-196.16-5.317-274.619-51.739-67.875-40.16-102.932-96.18-135.307-170.903C40.729 595.474 35.623 518.08 35.623 474.5c0-116.508 50.725-223.918 131.648-302.164C248.14 94.142 359.224 45 480.5 45z" stroke-width="40"/><ellipse cx="480.5" cy="587" rx="65.5" ry="9" stroke-width="10"/><path d="M420.119 589c-1.76 110.249-1.76 168.928 0 176.037 2.64 10.664 8.188 50.26 57.731 50.26 49.544 0 61.996-38.215 63.298-50.26.868-8.03.868-66.709 0-176.037" stroke-width="20"/><g stroke-linecap="round" stroke-linejoin="round"><path d="M414.383 165.674c-62.006 17.975-107.607 40.99-136.801 69.04-43.792 42.078-73.616 90.558-87.23 135.991M480.426 262C413.364 262 359 316.343 359 383.378c0 28.13 9.573 54.026 25.641 74.609l.263.436c30.034 38.902 46.08 69.904 47.932 91.808v48.463c20.294 3.838 35.918 5.757 46.873 5.757s27.055-1.919 48.3-5.757v-48.463c1.78-21.815 17.209-52.091 47.228-90.986l1.454-1.877c15.778-20.482 25.161-46.14 25.161-73.99 0-67.035-54.364-121.378-121.426-121.378z" stroke-width="20"/><path d="M473.311 389.246c-8.707 0-23.323 21.443-27.598 38.862-5.176 21.09 1.297 38.861 6.45 38.861 9.408 0 17.036-17.399 17.036-38.861s-7.628-38.862-17.037-38.862-17.036 17.4-17.036 38.862" stroke-width="10"/><path d="M494.46 389.246c-8.707 0-23.323 21.443-27.598 38.862-5.177 21.09 1.296 38.861 6.449 38.861 9.409 0 17.036-17.399 17.036-38.861s-7.627-38.862-17.036-38.862" stroke-width="10"/><path d="M524.083 427.938c-.2-7.55-.422-12.75-.667-15.603-.993-11.568-4.141-22.395-11.205-22.395-5.698 0-20.959 24.957-24.2 38.168-5.177 21.09 1.296 38.861 6.449 38.861 9.409 0 17.036-17.399 17.036-38.861s-7.627-38.862-17.036-38.862m-59.334 38.862c0 25.8 14.623 56.63 18.274 84.477.52 3.973.819 7.885.819 11.714v38.559m69.904-134.75c0 29.48-19.092 65.53-19.092 96.19 0 13.945-.319 26.798-.956 38.56" stroke-width="10"/></g><path d="M240 854.613c17.455 44.667 97.802 67 241.04 67s220.226-22.333 230.96-67c-100.6 22.334-177.587 33.5-230.96 33.5-53.371 0-133.718-11.166-241.04-33.5z" stroke-width="40"/><path d="M680.996 888.113c41.82-9.026 80.358-9.026 115.613 0C849.492 901.653 845.09 924 907.883 924c41.862 0 106.034-14.513 192.515-43.54" stroke-width="20"/></g></svg>