<svg xmlns="http://www.w3.org/2000/svg" viewBox="0 0 960 960"><g fill="none" fill-rule="evenodd"><g stroke-linecap="round" stroke-linejoin="round" stroke="#000"><path d="M377.269 128.126c-58.101 20.26-83.297 41.584-75.587 63.977l1.829 4.279 1.164 2.742c18.893 44.629 32.022 81.367 39.387 110.214 7.378 21.428-4.268 31.43-4.791 41.597-.524 10.167 8.369 33.07.081 49.906-24.889 40.873-19.099 108.61 2.102 196.02l.492 2.007c7.53 30.552 22.243 79.58 44.14 147.082l-.977.686c-15.793 11.172-23.777 20.55-21.603 26.864 6.7 19.46 107.38 2.44 224.875-38.016s207.309-89.03 200.608-108.49c-2.218-6.443-14.736-8.887-34.752-7.807l-3.681-10.075c-23.037-62.861-40.683-107.825-52.94-134.888-37.108-81.933-74.248-138.874-119.025-155.76-16.895-8.164-23.99-31.687-30.66-39.377-6.673-7.69-22.008-8.4-29.387-29.829l-.755-1.733-.74-1.725c-12.107-28.37-24.536-66.707-37.287-115.015-7.788-22.62-41.362-23.708-100.722-3.27l-1.771.61z" stroke-width="40"/><g transform="scale(-1 1) rotate(19 -930.735 -1819.05)" stroke-width="20"><ellipse cx="225" cy="456.188" rx="225" ry="37.5"/><path d="M325.142 18c-18.208-7.171-33.15-11.808-44.828-13.91C268.637 1.989 250.246.625 225.142 0M124.899 18.672c18.208-7.17 33.15-11.807 44.828-13.909 11.677-2.102 30.068-3.466 55.172-4.091"/></g></g><g fill="#000" fill-rule="nonzero"><path d="m133.851 134.001-.42.003-.246.004-114 3c-10.837.285-19.474 9.152-19.474 19.993v122c0 11.25 9.278 20.289 20.525 19.993l4.604-.121 81.199 10.949a20 20 0 0 0 2.99.176l.6-.018 87-4c10.679-.491 19.082-9.29 19.082-19.98v-44.855l76.673-3.986c9.557 8.016 21.878 12.843 35.327 12.843 30.376 0 55-24.624 55-55s-24.624-55-55-55c-18.368 0-34.633 9.004-44.622 22.84l-67.381 1.835v-.03c-.167-9.544-7.07-17.664-16.503-19.337l-62-11a20 20 0 0 0-2.866-.298l-.413-.007-.074-.003h-.001zm-1.636 40.046 43.496 7.717v80.88l-40.408-6.515a10 10 0 0 0-1.483-.127l-.372.002-93.737 2.467v-81.99l92.504-2.434z"/><path d="M384.575 116.729c-32.468-30.644-62.428-40.08-88.657-25.754-24.713 13.497-43.567 47.38-57.875 101.469l19.336 5.114c13.026-49.245 29.505-78.861 48.125-89.03 17.105-9.342 38.477-2.611 65.343 22.745l13.728-14.544zm-266.78 177.765c-2.194-3.383-6.26-5.737-11.34-4.275-3.256.937-4.915 2.716-6.161 4.94a12.632 12.632 0 0 0-.996 2.298c-.535 1.622-.975 3.82-1.47 7.015l2.172.335.011.235.016.342.015.358c.097 2.363.147 5.62.147 9.746l-.001 1.027c-.032 17.049-.856 47.45-2.47 91.117-.1 2.692-.213 5.258-.349 7.788l-.07 1.26c-1.034 18.056-3.351 34.975-10.62 83.73-5.269 35.333-8.306 59.148-9.962 82.013l-.121 1.713-.06.856-.113 1.71c-.28 4.273-.511 8.535-.702 12.857-1.033 23.366-1.425 48.07-1.305 75.904a3385.8 3385.8 0 0 0 .024 4.672l.008 1.322.009 1.318.01 1.316.01 1.313.01 1.314.011 1.314.012 1.316.013 1.32c.167 16.953.51 34.95 1.167 64.905 1.674 76.392 1.856 107.58.033 144.94-4.956 101.535-11.943 196.695-20.96 285.477l19.897 2.022c9.054-89.143 16.067-184.65 21.04-286.523.129-2.66.249-5.29.359-7.903l.092-2.238c.582-14.527.861-28.77.87-45.81l-.001-2.645c-.025-22.227-.492-49.314-1.334-87.758-.672-30.643-1.015-48.717-1.177-65.962l-.012-1.308c-.036-4.14-.063-8.248-.081-12.49-.119-27.53.268-51.92 1.285-74.932l.077-1.674c.065-1.392.135-2.78.21-4.166l.092-1.661c1.43-25.192 4.475-49.978 10.38-89.58.164-1.102.49-3.29.827-5.54l.088-.587.088-.586.885-5.91.103-.69c.698-4.671 1.229-8.243 1.738-11.72 1.365-9.318 2.44-17.014 3.373-24.263 2.28-17.702 3.649-32.348 4.142-45.696 1.656-44.793 2.485-75.723 2.485-92.882 0-9.672-.212-14.846-.944-17.65-.298-1.141-.696-2.181-1.45-3.344zm-17.055 10.427 15.143 2.343-.106.099a9.502 9.502 0 0 1-3.437 1.968l-.353.108c-4.95 1.424-8.894-.858-10.972-4.062a7.698 7.698 0 0 1-.187-.3l-.088-.156z"/></g></g></svg>