<svg viewBox="0 0 960 960" xmlns="http://www.w3.org/2000/svg"><g fill="none" fill-rule="evenodd" stroke="#000"><path d="M480.5 45c120.778 0 230.031 48.764 309.342 126.451C869.821 249.793 919.39 357.584 919.39 474.5c0 7.875.07 15.368.136 22.607.484 52.088.898 90.397-28.488 168.13-32.831 86.847-59.624 110.82-96.571 142.854C712.157 879.456 601.477 887 480.5 887c-96.94 0-196.16-5.317-274.619-51.739-67.875-40.16-102.932-96.18-135.307-170.903C40.729 595.474 35.623 518.08 35.623 474.5c0-116.508 50.725-223.918 131.648-302.164C248.14 94.142 359.224 45 480.5 45z" stroke-width="40"/><path d="M240 854.613c17.455 44.667 97.802 67 241.04 67s220.226-22.333 230.96-67c-100.6 22.334-177.587 33.5-230.96 33.5-53.371 0-133.718-11.166-241.04-33.5z" stroke-width="40"/><path d="M680.996 888.113c41.82-9.026 80.358-9.026 115.613 0C849.492 901.653 845.09 924 907.883 924c41.862 0 106.034-14.513 192.515-43.54" stroke-width="20"/></g></svg>