<svg viewBox="0 0 960 960" xmlns="http://www.w3.org/2000/svg"><g fill="none" fill-rule="evenodd" stroke="#000"><path d="M859.84 278.377c0-174.079-159.844-256.264-394.164-256.264S82.44 133.98 82.44 278.377c0 96.264 66.136 161.113 198.407 194.545 1.821 250.455 5.095 384.698 9.82 402.73 7.086 27.047 96.294 63.461 187.9 63.461 91.606 0 163.452-38.812 172.989-63.462 6.358-16.432 10.985-150.675 13.88-402.729C795.04 459.277 859.84 394.43 859.84 278.377z" stroke-width="40"/><path d="M279.133 463.4c87.38 11.248 152.371 16.78 194.976 16.6 66.214-.281 112.557-6.962 175.005-15.264" stroke-width="20"/><path d="M669.614 813.076c14.667-1.74 22 1.4 22 9.424 0 8.023-7.333 11.7-22 11.034z" stroke-width="40"/><path d="M691.495 821.626c51.295 5.193 97.446-2.444 138.454-22.911 61.512-30.701 124.533-25.354 145.108-25.354" stroke-width="20"/></g></svg>