<svg xmlns="http://www.w3.org/2000/svg" viewBox="0 0 960 960"><g fill="none" fill-rule="evenodd"><path d="m230.504 231.861 666.478 19.284 13.535 84.467v381.12l-679.762 15.241-182.238-36.806V274.55l181.987-42.69z" stroke="#000" stroke-width="40" stroke-linejoin="round"/><path stroke="#000" stroke-width="20" stroke-linecap="round" stroke-linejoin="round" d="m228.58 711.928 1.955-394.997-1.956-76.003m503.001 478 1.955-391.643-1.956-75.357"/><path fill="#000" d="m267.964 337.484-.218 289 423-10.95V347.91z"/><ellipse fill="#000" cx="825.595" cy="624" rx="29.971" ry="32"/><ellipse fill="#000" cx="825.595" cy="529" rx="29.971" ry="32"/><path d="M850.763 298.84c5.9.207 10.671 7.63 11.248 17.501l2.254 38.59c.72 12.327-5.293 23.244-12.662 22.987l-50.366-1.759c-5.9-.206-10.671-7.628-11.248-17.5l-2.254-38.59c-.72-12.327 5.293-23.244 12.662-22.987l50.366 1.759z" fill="#000" fill-rule="nonzero"/><path d="m764.078 303.62 2.178 358.191-30.22 1.584-4.524-358.254 32.566-1.521z" stroke="#000" stroke-width="20" stroke-linecap="round" stroke-linejoin="round"/></g></svg>