<svg xmlns="http://www.w3.org/2000/svg" viewBox="0 0 960 960"><path d="m346.28 3.196 1.024.144 440.494 34.098a40 40 0 0 1 28.252 15.024l.337.431 123.29 159.89A40 40 0 0 1 948 237.21v.223a40.18 40.18 0 0 1-.544 6.604l-.098.556V716.35l.1.578a40.76 40.76 0 0 1 .542 5.974v.808a40 40 0 0 1-8.321 24.423L820.1 903.237a40 40 0 0 1-24.15 14.862l-44.993 8.623a40 40 0 0 1-15.124-.012l-28.625-5.536-266.921 17.258-.29.34c-6.52 7.489-15.803 12.547-26.354 13.556l-.622.054-48.759 3.909-.1.008-10.533.817-.269.093c-6.47 2.127-13.76 2.589-21.51.78l-1.166-.287-134.503-35.133a40 40 0 0 1-18.598-10.847L34.293 764.047c-8.673-8.938-12.04-19.753-11.356-30.099l.063-.803V225.417c0-12.367 5.658-23.602 14.715-30.998l.035-.027L177.585 50.284a40 40 0 0 1 17.973-10.678l.623-.168L330.683 4.3c5.457-1.426 10.697-1.724 15.597-1.103Zm-.333 40.202L199.452 206.706v546.532l146.424 163.227 53.949-5.006v-25.637a10.04 10.04 0 0 1-.263-2.106 10.02 10.02 0 0 1 .263-2.485V834.83a10.024 10.024 0 0 1-.264-2.397c.007-.756.098-1.491.264-2.198v-27.568a10 10 0 0 1 9.563-9.99l333.603-14.613c5.69-.249 10.438 4.296 10.438 9.99v97.466l34.993-6.706 77.699-100.783 19.008-26.254 22.229-30.703v-482.2L891.3 216.693 784.443 78.094l-.434-.034.996-.19 97.55 126.744-1.172-1.62-3.6-4.972L784.71 77.319 366.778 44.967l-20.83-1.57ZM77.784 751.428l128.508 132.44 104.983 27.422-128.343-143.46-105.148-16.401Zm622.5 48.526-280.458 12.285v12.358c12.04 4.965 20.278 18.28 20.278 33.344 0 15.066-8.237 28.432-20.278 33.466l-.001 8.012 35.95-2.071 244.509-15.81v-81.584Zm-228.625 19.58c17.326.171 30.445 16.396 30.445 35.407 0 18.98-13.073 35.263-30.357 35.586-17.52.328-30.73-16.012-30.73-35.406 0-19.364 13.163-35.76 30.642-35.588Zm63-4c17.326.171 30.445 16.396 30.445 35.407 0 18.98-13.073 35.263-30.357 35.586-17.52.328-30.73-16.012-30.73-35.406 0-19.364 13.163-35.76 30.642-35.588Zm198.77-17.032-13.145.576v83.884l10.908 2.109 2.237.26v-86.83Zm-134.77 14.031c17.326.172 30.445 16.397 30.445 35.408 0 18.98-13.073 35.263-30.357 35.586-17.52.328-30.73-16.012-30.73-35.406 0-19.364 13.163-35.76 30.642-35.588Zm64-5c17.326.172 30.445 16.397 30.445 35.408 0 18.98-13.073 35.263-30.357 35.586-17.52.328-30.73-16.012-30.73-35.406 0-19.364 13.163-35.76 30.642-35.588Zm-191.198 32c-5.213-.052-10.445 6.464-10.445 15.588 0 9.095 5.184 15.507 10.357 15.41 5.408-.101 10.73-6.731 10.73-15.59 0-8.83-5.275-15.355-10.642-15.409Zm63-4c-5.213-.052-10.445 6.464-10.445 15.588 0 9.095 5.184 15.507 10.357 15.41 5.408-.101 10.73-6.731 10.73-15.59 0-8.83-5.275-15.355-10.642-15.409Zm64-3c-5.213-.052-10.445 6.464-10.445 15.588 0 9.095 5.184 15.507 10.357 15.41 5.408-.101 10.73-6.731 10.73-15.59 0-8.83-5.275-15.355-10.642-15.409Zm-178.636 21.952.001 6.908c.181-1.103.278-2.258.278-3.452 0-1.198-.097-2.354-.279-3.456Zm242.636-26.953c-5.213-.051-10.445 6.465-10.445 15.59 0 9.094 5.184 15.506 10.357 15.409 5.408-.101 10.73-6.731 10.73-15.59 0-8.83-5.275-15.355-10.642-15.409Zm-484.067-613.42-49.68 7.752L63 232.47v495.003l115.395 18.623-.001-531.985ZM470 255c39.14 0 70 37.546 70 83 0 26.923-10.875 51.76-28.886 67.236l-.113.095v56.553c0 5.43-4.326 9.848-9.72 9.996l-.28.004c-5.522 0-10-4.477-10-10v-61.37a10 10 0 0 1 4.075-8.056C510.289 381.266 520 360.77 520 338c0-35.18-22.866-63-50-63s-50 27.82-50 63c0 22.77 9.711 43.267 24.925 54.459a10 10 0 0 1 4.075 8.055V466c0 5.523-4.477 10-10 10s-10-4.477-10-10l-.001-60.669-.112-.094c-17.818-15.309-28.652-39.78-28.883-66.37L400 338c0-45.454 30.86-83 70-83Zm346.435-38.63c26.038.259 46.22 25.22 46.22 54.92 0 29.67-20.136 54.75-46.132 55.235-26.232.49-46.507-24.585-46.507-54.917 0-30.303 20.227-55.497 46.419-55.237Zm25.088 64.968-50.452.222c3.254 14.883 13.607 25.183 25.078 24.969 11.59-.217 22.011-10.649 25.374-25.19Zm-25.286-44.968c-11.487-.114-21.863 10.284-25.146 25.189l50.452-.221c-3.333-14.519-13.732-24.853-25.306-24.968Zm-88.918-113.59c25.973 1 45.934 26.96 45.934 57.228 0 30.426-20.212 55.736-46.418 55.476-26.172-.259-46.22-26.333-46.22-57.234 0-31.062 20.305-56.487 46.704-55.47Zm-113.615-4.374c26.063 1.003 45.935 27.736 45.935 58.852 0 31.272-20.117 57.362-46.419 57.101C586.957 234.1 567 207.252 567 175.5c0-31.909 20.207-58.114 46.704-57.094Zm113.33 97.08c11.57.114 22.033-10.53 25.226-25.742l-50.6-1.223c3.276 15.695 13.82 26.85 25.373 26.964Zm-113.616-1.126c11.601.115 22.206-11.207 25.31-27.363l-50.767-1.228c3.187 16.636 13.872 28.476 25.457 28.591ZM310.105 51.017 206.292 78.139 78.932 209.39l47.067-7.344 57.253-9.242L310.105 51.017ZM701.559 168.51l50.596 1.226c-3.353-15.332-13.94-26.522-25.606-26.971-11.46-.441-21.874 10.163-24.99 25.745Zm-113.691-2.75 50.763 1.229c-3.26-16.269-13.99-28.148-25.696-28.598-11.482-.442-22.036 10.838-25.067 27.369Z"/></svg>