<svg xmlns="http://www.w3.org/2000/svg" viewBox="0 0 960 960"><g fill="none" stroke="#000"><path d="m59.107 51.767 880.291 62.03v577.154L59.212 701.41l-37.814-10.054V64.517l37.71-12.75Z" stroke-width="40" stroke-linejoin="round"/><path stroke-width="20" stroke-linecap="round" stroke-linejoin="round" d="M60.893 52.648V690.7h871.384V120.057z"/><path stroke-width="20" stroke-linecap="round" stroke-linejoin="round" d="M92.11 99.129v556.93l806.16-5.996V153.464z"/><path d="M400.524 697.895v157.92c-72.708 8.78-123.185 16.286-151.429 22.517-42.366 9.345-39.41 21.582-25.75 27.839 9.105 4.172 61.828 15.48 158.17 33.927 257.65-17.662 388.854-26.493 393.608-26.493 7.133 0 3.758-22.542 0-27.402-3.757-4.86-100.528-30.941-139.732-34.94-39.205-3.997-34.302-3.997-106.637 0-3.921.218-5.898-9.576-5.93-29.379v-123.99h-122.3Z" stroke-width="40"/><path d="M398.867 857.577c5.586 6.273 27.252 9.41 65 9.41 37.748 0 59.415-4 65-12" stroke-width="20"/></g></svg>