<svg viewBox="0 0 960 960" xmlns="http://www.w3.org/2000/svg"><g fill="none" fill-rule="evenodd" stroke="#000"><path d="M749.81 914.527C760.235 905.355 775 706.716 775 486.432c0-220.285-16.188-427.557-30.76-440.569-7.194-6.423-124.518-25.145-257.24-26.43-136.152-1.317-287.694 15.029-287.694 26.43 0 22.516-.308 868.664-.308 881.137s205.907 8.986 281.958 7.98c178.758-2.363 263.98-16.163 268.855-20.453z" stroke-width="40"/><g stroke-width="20"><path d="M229.768 38.137c79.448 73.416 109.174 210.56 89.177 411.43-29.996 301.304-36.221 322.706-41.573 361.562-5.351 38.855-13.921 109.345-65.395 117.207M328.07 794.24c-.114 6.706 97.875 25.655 206.204 25.655 108.329 0 163.198-26.836 163.198-32.362 0-5.526 26.188-312.545 23.39-308.839s-70.339 20.723-161.562 20.723-203.332-26.399-203.332-20.723-27.78 308.839-27.897 315.546z"/><path d="M280.531 826.895c68.887 26.253 153.334 37.908 253.342 34.962 100.008-2.945 178.34-19.395 234.998-49.35m-488.34 14.388 47.54-32.655m369.401-6.707 60.577 32.362M318.945 444.566H775M360.557 480l-35.58-35.434M717 480l58-35.434"/><ellipse cx="571.5" cy="393.5" rx="27.5" ry="13.5"/></g></g></svg>