<svg xmlns="http://www.w3.org/2000/svg" viewBox="0 0 960 960"><path d="M196.204 136.591a90 90 0 0 1 54.985-14.4l663 43.241C939.96 167.113 960 188.505 960 214.33v559.303c0 26.392-20.865 47.91-47 48.96v5.397c0 5.326-13.431 9.643-30 9.643h-.99C865.9 837.46 853 833.21 853 827.99v-5.357H266v4.357c0 5.273-13.164 9.557-29.504 9.642l-.496.001-.99-.005C218.9 836.46 206 832.21 206 826.99v-6.395L79.678 798.621c-1.877 3.875-11.722 6.856-23.734 7.005l-.944.006-.897-.005C40.712 805.469 30 801.79 30 797.275v-8.554c-17.851-7.5-30-25.112-30-45.173V290.972a49 49 0 0 1 22.253-41.056L196.204 136.59Zm38.36 44.806a20 20 0 0 0-.022.95v581.087c0 9.093 6.067 16.768 14.374 19.198h593.816V200.856l-589.658-38.457c-9.953.72-18.023 8.78-18.51 18.998Zm628.168 20.764v580.471H911a9 9 0 0 0 8.996-8.734l.004-.266V435.01l-9.525-.772a8.133 8.133 0 0 1-7.475-8.106 6.917 6.917 0 0 1 7.475-6.894l9.525.772v-28l-9.525-.772a8.133 8.133 0 0 1-7.475-8.106 6.917 6.917 0 0 1 7.475-6.894l9.525.772v-28l-9.525-.772a8.133 8.133 0 0 1-7.475-8.106 6.917 6.917 0 0 1 7.475-6.894l9.525.772v-28l-9.525-.772a8.133 8.133 0 0 1-7.475-8.106 6.917 6.917 0 0 1 7.475-6.894l9.525.772v-28l-9.525-.772a8.133 8.133 0 0 1-7.475-8.106 6.917 6.917 0 0 1 7.475-6.894l9.525.772v-33.681a9 9 0 0 0-8.152-8.96l-.262-.021-48.854-3.187Zm-646.67-30.767L44.086 283.431a9 9 0 0 0-4.087 7.54v452.577a9 9 0 0 0 7.458 8.867l166.904 29.034a80 80 0 0 0 4.812.687 39.82 39.82 0 0 1-4.632-18.702V182.347a40.119 40.119 0 0 1 1.52-10.953ZM878 701.051a9 9 0 0 1 .409.009l26 1.182a9 9 0 0 1 8.591 8.99v33.4a9 9 0 0 1-9 9h-26a9 9 0 0 1-9-9v-34.581a9 9 0 0 1 9-9ZM318.172 192.479l449.011 32.587c15.685 1.138 27.829 14.195 27.829 29.921v464.645c0 16.569-13.432 30-30 30H316c-16.569 0-30-13.431-30-30V222.4a30 30 0 0 1 .079-2.171l.04-.495c1.447-16.278 15.693-28.442 32.053-27.255Zm2.91 54.75-.028.343a20 20 0 0 0-.054 1.47v429.854c0 11.046 8.954 20 20 20h67c11.046 0 20-8.954 20-20V253.979c0-10.475-8.083-19.176-18.53-19.946l-67-4.937c-10.901-.803-20.404 7.29-21.388 18.133Zm125.004 8.993-.029.343a20 20 0 0 0-.057 1.509v420.822c0 11.046 8.954 20 20 20h62c11.046 0 20-8.954 20-20v-416.13c0-10.46-8.06-19.154-18.49-19.943l-62-4.692c-10.9-.825-20.42 7.249-21.424 18.09Zm120.001 7.994-.03.336a19 19 0 0 0-.057 1.482v413.862c0 10.493 8.507 19 19 19h59c10.493 0 19-8.507 19-19V270.65c0-9.918-7.63-18.168-17.518-18.942l-59-4.616c-10.349-.81-19.409 6.832-20.395 17.124Zm115 10.005-.03.343a20 20 0 0 0-.057 1.515v401.817c0 11.046 8.954 20 20 20h44c11.046 0 20-8.954 20-20V279.421c0-10.458-8.057-19.15-18.485-19.943l-44-3.342c-10.9-.828-20.42 7.243-21.429 18.085ZM877 593.964a6 6 0 0 1 .322.009l15 .807a6 6 0 0 1 5.678 5.99v52.635a6 6 0 0 1-6 6l-.222-.004-15-.556A6 6 0 0 1 871 652.85v-52.886a6 6 0 0 1 6-6Zm-258-4.332c7.18 0 13 6.492 13 14.5s-5.82 14.5-13 14.5-13-6.492-13-14.5 5.82-14.5 13-14.5Zm107.5 0c6.904 0 12.5 6.492 12.5 14.5s-5.596 14.5-12.5 14.5-12.5-6.492-12.5-14.5 5.596-14.5 12.5-14.5Zm-347-1c7.456 0 13.5 6.492 13.5 14.5s-6.044 14.5-13.5 14.5-13.5-6.492-13.5-14.5 6.044-14.5 13.5-14.5Zm123 0c7.456 0 13.5 6.492 13.5 14.5s-6.044 14.5-13.5 14.5-13.5-6.492-13.5-14.5 6.044-14.5 13.5-14.5Z"/></svg>