<svg xmlns="http://www.w3.org/2000/svg" viewBox="0 0 960 960"><g fill="none" fill-rule="evenodd"><g stroke="#000" stroke-linejoin="round"><path d="M337.115 374.953 936 397.338V579.11l-598.556 16.914L25 569.789V414.348z" stroke-width="40"/><path d="M126.557 445.85v89.083m31.667-92.836v92.97m31.666-96.723V535.2m31.667-101.61v100.744M369.969 428.58l78 1.87v46.044l-78 .087z" stroke-linecap="round" stroke-width="20"/></g><path d="M490 441h10v10h-10zm24 0h10v10h-10z" fill="#000"/><path d="M490 441h10v10h-10z" fill="#000"/><path d="m740.163 435.514.082 103.795m100.918-105.795.082 103.795" stroke="#000" stroke-width="20"/><path d="M850 451h8v8h-8zm22 0h8v8h-8z" fill="#000"/><path d="m533.582 436.257.081 103.795m256.919-104.795.081 103.795M585.582 436.257l.081 103.795m51.919-103.795.081 103.795m51.821-101.472.082 103.795M480.473 431.46l409 11.585v87.924l-409 8.006z" stroke="#000" stroke-width="20"/><path d="M647 446h10v10h-10zm24 0h10v10h-10zm-24 49h10v10h-10zm24 0h10v10h-10z" fill="#000"/><path d="M481.72 485.614 888 485" stroke="#000" stroke-width="20"/><path d="M514 441h10v10h-10zm-24 54h10v10h-10zm24 0h10v10h-10zm29-52h10v10h-10zm24 0h10v10h-10zm-24 52h10v10h-10zm24 0h10v10h-10zm28-52h10v10h-10zm23 0h10v10h-10zm-23 52h10v10h-10zm24 0h10v10h-10zm80 0h10v10h-10zm24 0h10v10h-10zm-25-49h10v10h-10zm24 0h10v10h-10zm27 49h10v10h-10zm23 0h10v10h-10zm-23-46h10v10h-10zm23 0h10v10h-10zm28 0h10v10h-10zm23 0h10v10h-10zm-23 46h9v9h-9zm23 0h9v9h-9zm28 0h8v8h-8zm21 0h8v8h-8z" fill="#000"/><path d="M338 585V386.441" stroke="#000" stroke-linecap="round" stroke-linejoin="round" stroke-width="20"/></g></svg>