<svg xmlns="http://www.w3.org/2000/svg" viewBox="0 0 960 960"><g fill="none" fill-rule="evenodd"><g stroke="#000" stroke-linejoin="round"><path d="M335.766 394.98 939 415.664v127.672l-603.362 20.688L21 541.832V413.16z" stroke-width="40"/><path d="M97 456.934v46.975m28.456-48.481v49.024m28.456-49.53v51.073m28.455-52.58v53.123" stroke-linecap="round" stroke-width="20"/></g><path d="M491 457h10v10h-10zm24 0h10v10h-10z" fill="#000"/><path d="M491 462h10v10h-10z" fill="#000"/><path d="M741.163 451.514 741 505m101-43v40" stroke="#000" stroke-width="20"/><path d="M851 467h10v10h-10zm20 0h10v10h-10z" fill="#000"/><path d="M534.582 452.257 535 501m256.582-49.743L792 501m-205.418-48.743L587 501m51.582-48.743L639 501m51.484-46.42L690 505m-208.527-53.566 409 10.568v36.403l-409 9.532z" stroke="#000" stroke-width="20"/><path d="M648 463h10v10h-10zm24 0h10v10h-10zm-157-1h10v10h-10zm29 0h10v10h-10zm24 0h10v10h-10zm28 0h10v10h-10zm23 0h10v10h-10zm80 3h10v10h-10zm24 0h10v10h-10zm27 1h10v10h-10zm23 0h10v10h-10zm28 1h8v8h-8zm23 0h8v8h-8z" fill="#000"/><path d="m333 561-.5-171.559M367 448l78 1.869v46.045L367 496z" stroke="#000" stroke-linecap="round" stroke-linejoin="round" stroke-width="20"/></g></svg>