<svg xmlns="http://www.w3.org/2000/svg" viewBox="0 0 960 960"><g fill="none" stroke="#000"><path d="m489.236 30.312 370.74 41.712v831.3l-372.135 9.462-388.657-55.703V178.119L489.236 30.312Z" stroke-width="40"/><path stroke-width="20" d="M483.687 30.449V911.66"/><path d="m129.696 851.001.61 39.733c-.045 3.685 7.17 5.78 21.643 6.286 14.472.505 22.48-1.058 24.023-4.692l1.248-35.724m282.662 47.181.609 39.733c-.044 3.685 7.17 5.78 21.643 6.286 14.473.506 22.481-1.058 24.024-4.691l1.248-35.725m267.346-20.615.61 39.732c-.044 3.686 7.17 5.781 21.643 6.287 14.473.505 22.48-1.059 24.024-4.692l1.247-35.725" stroke-width="20" fill="#000" fill-rule="evenodd"/><path d="m525 242.716 284 18.139v589.033l-284 7.887v-615.06Z" stroke-width="20"/><ellipse stroke-width="10" cx="532.059" cy="97" rx="12.059" ry="15"/><ellipse stroke-width="10" cx="566.809" cy="102.5" rx="4.809" ry="6.5"/><ellipse stroke-width="10" cx="593.809" cy="105.5" rx="4.809" ry="6.5"/><path d="M434.952 121.767V857.1L153 820.056V224.095l281.952-102.328Z" stroke-width="20"/><g fill-rule="evenodd" transform="translate(533 258)" stroke-width="20"><path d="M225.137 179.995c.662-3.012.8-6.249.624-9.33-.411-7.262-3.889-10.568-10.555-10.451-1.598.027-3.195.233-4.79.394-12.22 1.247-24.337.733-36.31-2.326-1.071-.278-2.166-.437-3.233-.647-.051.22-.118.425-.172.643-1.608 11.38-7.476 22.031-16.836 28.616-7.967 5.698-16.998 7.305-25.294 5.3 1.347 12.287 4.953 23.076 11.49 32.381 14.91 20.76 40.803 21.78 59.53 3.402 13.808-13.137 21.52-29.551 25.546-47.982Zm-105.391-71.849c.326 1.291.755 2.547 1.13 3.797.195-.056.385-.087.58-.14 9.543-3.92 20.573-2.857 30.102 3.876 8.113 5.639 13.625 14.272 16.103 23.787 8.43-7.194 14.73-15.919 18.65-26.932 8.946-24.793-1.56-52.71-24.216-64.96-16.704-9.34-33.497-10.422-50.357-6.255-2.769.703-5.467 2.111-7.885 3.805-5.699 4.023-6.644 9.575-3.21 16.994.822 1.77 1.787 3.45 2.715 5.146 7.105 12.902 12.758 26.41 16.388 40.882Zm-9.884 11.945c-9.889-5.182-19.952-7.351-30.627-5.768-24.342 3.748-40.344 30.49-36.725 61.174 2.667 22.49 11.691 39.997 24.565 54.256 2.114 2.308 4.696 4.134 7.315 5.523 6.174 3.242 10.7 1.023 14.086-6.456.81-1.783 1.478-3.656 2.181-5.5 5.387-14.05 12.131-26.935 20.768-38.231.772-1.002 1.465-2.089 2.183-3.117-.143-.165-.268-.339-.41-.506-7.977-7.495-13.076-19.213-13.076-32.486 0-11.3 3.718-21.47 9.74-28.889Z" stroke-linecap="round" stroke-linejoin="round"/><path d="M133.381 109.56c-9.635-.37-18.299 4.223-24.437 11.917-5.706 7.24-9.23 17.154-9.23 28.166 0 12.936 4.832 24.36 12.393 31.675 5.799 5.539 13.202 8.68 21.274 8.358 18.594-.738 33.667-18.682 33.667-40.085 0-21.402-15.073-39.321-33.667-40.03Z" stroke-linecap="round" stroke-linejoin="round"/><ellipse cx="134" cy="150" rx="124" ry="140"/></g><g fill-rule="evenodd" stroke-width="20"><ellipse cx="134" cy="150" rx="124" ry="140" transform="translate(532 549)"/><path d="M758.137 729.995c.662-3.012.8-6.249.624-9.33-.411-7.262-3.889-10.568-10.555-10.451-1.598.027-3.195.233-4.79.394-12.22 1.247-24.337.733-36.31-2.326-1.071-.278-2.166-.437-3.233-.647-.051.22-.118.425-.172.643-1.608 11.38-7.476 22.031-16.836 28.616-7.967 5.698-16.998 7.305-25.294 5.3 1.347 12.287 4.953 23.076 11.49 32.381 14.91 20.76 40.803 21.78 59.53 3.402 13.808-13.137 21.52-29.551 25.546-47.982Zm-105.391-71.849c.326 1.291.755 2.547 1.13 3.797.195-.056.385-.087.58-.14 9.543-3.92 20.573-2.857 30.102 3.876 8.113 5.639 13.625 14.272 16.103 23.787 8.43-7.194 14.73-15.919 18.65-26.932 8.946-24.793-1.56-52.71-24.216-64.96-16.704-9.34-33.497-10.422-50.357-6.255-2.769.703-5.467 2.111-7.885 3.805-5.699 4.023-6.644 9.575-3.21 16.994.822 1.77 1.787 3.45 2.715 5.146 7.105 12.902 12.758 26.41 16.388 40.882Zm-9.884 11.945c-9.889-5.182-19.952-7.351-30.627-5.768-24.342 3.748-40.344 30.49-36.725 61.174 2.667 22.49 11.691 39.997 24.565 54.256 2.114 2.308 4.696 4.134 7.315 5.523 6.174 3.242 10.7 1.023 14.086-6.456.81-1.783 1.478-3.656 2.181-5.5 5.387-14.05 12.131-26.935 20.768-38.231.772-1.002 1.465-2.089 2.183-3.117-.143-.165-.268-.339-.41-.506-7.977-7.495-13.076-19.213-13.076-32.486 0-11.3 3.718-21.47 9.74-28.889Z" stroke-linecap="round" stroke-linejoin="round"/><path d="M666.381 659.56c-9.635-.37-18.299 4.223-24.437 11.917-5.706 7.24-9.23 17.154-9.23 28.166 0 12.936 4.832 24.36 12.393 31.675 5.799 5.539 13.202 8.68 21.274 8.358 18.594-.738 33.667-18.682 33.667-40.085 0-21.402-15.073-39.321-33.667-40.03Z" stroke-linecap="round" stroke-linejoin="round"/></g></g></svg>