<svg viewBox="0 0 960 960" xmlns="http://www.w3.org/2000/svg"><g fill="none" fill-rule="evenodd" stroke="#000"><path d="M342.206 619.477h273.301c14.36 0 26 11.64 26 26a26 26 0 0 1-.276 3.778l-38.279 260.576a26 26 0 0 1-21.866 21.93c-36.63 5.493-71.362 8.239-104.194 8.239-33.19 0-70.784-2.806-112.782-8.418h0c-11.97-1.6-21.261-11.232-22.431-23.251l-25.351-260.335c-1.392-14.291 9.066-27.005 23.358-28.397a26 26 0 0 1 2.52-.122z" stroke-linecap="round" stroke-linejoin="round" stroke-width="40"/><g stroke-width="20"><path d="M927.93 570.129c17.07 23.187 18.978 39.637 5.722 49.348-8.656-13.61-19.099-22.24-31.328-25.891s-31.107 10.203-56.633 41.562c-2.231-10.447-9.773-29.328-22.625-56.64-12.851-27.313-35.15-59.982-66.898-98.008-5.263 28.789-7.022 47.071-5.277 54.848 6.987 31.14 52.134 66.181 33.77 69.238-44.376 7.387-144.934-105.793-151.22-124.086s29.43-63.09 46.957-77.93c11.685-9.893 5.843-13.566-17.527-11.02-20.685 8.966-32.685 17.586-36 25.86-8.374 20.904 4.424 53.958-6.965 47.88-27.226-14.532-43.956-53.193-48.07-62.72-14.667-33.967-46.116-113.866-20.04-129.468 33.392-19.978 101.136 97.045 93.81 79.695-23.196-54.927-11.598-89.37 34.792-103.328 67.086-6.464 110.142 5.32 129.168 35.351 19.026 30.032 14.756 38.54-12.812 25.524-61.51-17.029-86.415-9.797-74.715 21.695 6.923 18.633 12.806 7.075 39.861 0 12.448-3.255 34.826-6.064 67.135-8.426 37.383 0 61.813 39.7 73.29 119.102 3.034 20.993-11.032-8.43-34.18-25.305-23.149-16.875-48.944-29.202-63.805-36.637-18.066-9.037-40.118-9.037-66.156 0 87.588 38.438 138.041 64.668 151.359 78.692 13.318 14.023 20.901 39.318 22.75 75.883-58.255-65.38-100.8-96.258-127.633-92.633-40.25 5.437 117.664 92.633 143.27 127.414z"/><path d="M494.266 619.477c57.408-91.93 93.862-148.59 109.359-169.98"/><path d="M548.945 619.477c10.864-138.925 3.608-244.342-21.768-316.25m-65.306-189.942c-39.63-65.9-105.328-65.9-197.094 0-5.181 3.721 139.317-7.294 131.668-5.902-74.768 13.61-134.816 42.795-180.144 87.558 106.112-39.987 162.664-52.028 169.656-36.125 5.334 12.133-85.917 23.935-132.039 46.75-44.567 22.047-49.617 40.396-52.078 59.54-3.339 25.97 10.153 51.856 40.476 77.66-8.109-61.808 26.456-105.467 103.696-130.977 115.86-38.266-48.664 45.703-64.95 70.531-16.285 24.828-17.224 96.012 19.31 123.86 15.002 11.436 23.041-18.746 53.921-30.305 13.437-5.03 32.3-11.901 56.59-20.613 40.33-8.344 50.265-56.168 29.804-143.473-8.45-36.057-4.767-30.19 0-32.332 12.55-5.635 43.663 94.226 38.813 125.855-5.159 33.646-7.469 50.296-6.93 49.95 24.16-27.79 42.044-47.004 53.653-57.64 57.921-53.073 77.402-77.44 77.402-118.165 0-24.608-8.887-37.937-23.965-45.203-11.585-5.583-29.398-10.717-53.437-15.402 48.224-33.985 82.41-23.91 102.558 30.226 16.07 43.179 24.677-32.87 0-82.945-21.73-44.099-83.492-52.62-134.515-26.278-14.444 7.457-25.242 31.934-32.395 73.43zm52.535 506.192c-19.3-155.019-33.245-243.09-41.836-264.215"/><path d="M467.559 629.457c49.487-154.226 74.23-245.624 74.23-274.195m-304.461-21.379s-113.336 24.562-97.383 205.66c1.362 15.453 43.825-56.196 56.29-66.172 19.773-15.825 38.267-23.784 55.48-23.875 22.945 10.578 7.875 24.866-45.211 42.863-45.744 15.509-56.923 57.484-49.957 84.45 5.16 19.975 45.527 61.37 55.336 93.546 9.808 32.176-39.563 5.096 101.668-93.546 56.648-39.567 56.648-50.66 64.992-89.44 5.562-25.853.725-41.16-14.512-45.919-37.226-21.819-44.114-32.728-20.664-32.728 23.45 0 40.309 7.132 50.574 21.395 21.9 40.343 31.514 50.755 28.845 31.235-.1-.735 3.736-19.264 0-52.63-1.121-10.007-5.089-27.827-11.903-53.46M491.5 160.578c-4.62 17.805 3.772 43.149 25.174 76.031 5.52-7.146 8.765-13.401 9.732-18.765 1.178-6.53 6.276-25.426 0-39.469-8.887-19.889-30.844-33.451-34.906-17.797z"/><path d="M250.188 513.566c-12.689-10.44-22.97-5.133-30.845 15.92-7.874 21.054-11.572 35.703-11.093 43.948 17.439-14.994 29.44-26.784 36.004-35.37 6.564-8.584 8.542-16.75 5.934-24.498zm77.579-54.004c.797 1.205 1.488 2.766 2.155 4.48C332.417 470.466 334 478.97 334 485.5c0 6.241-2.863 15.597-6.346 23.146-1.44 3.12-2.98 5.939-4.562 7.996-2.757-2.165-6.957-8.787-11.292-15.379l-.592-.898a230.71 230.71 0 0 0-3.544-5.24 406.82 406.82 0 0 1-2.628-3.792l-.648-.951c-5.589-8.237-10.47-16.352-10.936-21.167 1.56-1.511 3.815-2.596 6.3-3.612 9.319-3.806 22.012-5.628 28.015-6.041zm66.884-156.439c-.976 1.814-2.699 3.689-4.722 5.597-5.925 5.59-14.534 11-21.687 13.746-6.845 2.628-18.374 3.266-28.205 2.405-4.239-.37-8.173-1.018-11.216-2.05l-.828.529c-1.369-2.6 3.479-10.784 9.26-19.81l.49-.765c.821-1.278 1.658-2.57 2.495-3.862l.503-.775 1.002-1.549.5-.772a564.604 564.604 0 0 0 2.265-3.538l.612-.956c.307-.479.614-.957.923-1.434l.618-.953.62-.95.622-.945.623-.94c6.755-10.147 13.668-19.155 18.703-21.088.19-.073.317.469.387.504 2.417 1.207 4.81 3.497 7.213 6.155 8.932 9.878 17.09 25.174 19.822 31.45zm-57.143 260.615c27.995 26.711 44.31 45.29 48.945 55.739m-7.523-131.055c35.403 50.682 53.105 94.367 53.105 131.055m40.535 0-48.146-148.07"/></g><path d="M399.535 57.887c17.326 1.93 36.537 15.785 57.633 41.566C463.816 74.625 471.427 57.99 480 49.547c15.048-14.82 49.82-20.89 61.79-22.581 42.334-5.983 76.34 5.49 87.038 30.92 7.165 17.035 16.936 86.777 13.4 97.873-5.267 16.527-12.95-118.38-127.822-33.251-1.101.816 27.135 6.173 55.059 16.535 29.319 10.88 38.58 44.354 34.16 58.141-9.14 28.502-23.635 55.485-43.488 80.949 43.217 28.736 70.58 53.07 82.091 73.005 17.266 29.901-55.076-90.148 44.69-101.338 99.766-11.19 165.336 61.784 193.383 101.338 28.047 39.553 30.203 37.725 38.797 120.268s19.693 125.773 16.89 138.77c-2.803 12.997-27.92-18.878-42.812-18.569-25.612.532-43.688 22.81-43.688 58.213 0 6.883-26.422-71.312-38.734-95.87-12.313-24.56-64.698-98.875-75.234-82.544-10.537 16.332 69.569 136.61 36.71 138.77-21.905 1.44-67.218-39.495-135.937-122.807-64.717-89.59-96.646-155.004-95.79-196.244.83-39.901-2.054-1.607-67.933 46.704-1.406 1.031-38.947 26.062-48.146 31.73-3.97 2.446 32.375 71.463-13.738 138.816-4.487 6.553-6.903 4.221-24.233 19-17.33 14.78-24.473 26.574-61.973 56.43-6.057 4.822-97.053 63.248-116.271 99.418-4.04 7.601-4.42-17.132-22.729-48.075-15.822-26.74-49.527-56.423-56.656-94.244-11.095-58.861 12.795-125.275 27.496-144.912 23.386-31.236 45.076-46.854 65.07-46.854-10.59-20.55-17.737-35.022-21.437-43.416-9.764-22.15-14.588-38.15-14.473-48.652.465-42.226 45.802-69.34 53.915-79.34 11.995-14.784 17.647-42.726 31.257-62.957 14.805-22.005 37.803-44.85 53.828-50.016 23.033-9.356 55.7-9.026 75.055-6.87z" stroke-width="35"/></g></svg>