<svg viewBox="0 0 960 960" xmlns="http://www.w3.org/2000/svg"><g fill="none" fill-rule="evenodd" stroke="#000"><path d="M360.466 692.915c41.898 1.76 71.82 2.64 89.766 2.64 18.337 0 51.396-.919 99.175-2.756h0c14.349-.553 26.43 10.63 26.982 24.98a26 26 0 0 1 .009 1.757l-5.425 186.014c-.364 12.482-9.55 22.943-21.882 24.915-31.4 5.023-62.8 7.535-94.2 7.535s-62.8-2.512-94.2-7.535h0c-12.33-1.972-21.517-12.433-21.881-24.915l-5.421-185.9c-.42-14.352 10.877-26.328 25.23-26.747a26 26 0 0 1 1.847.012z" stroke-linecap="round" stroke-linejoin="round" stroke-width="40"/><g stroke-width="20"><path d="M473.867 691.694c18.538-61.583 31.03-101.823 37.478-120.717M385.873 691.694c-10.883-70.74-19.286-113.406-25.21-128.002m41.619 128.002c-16.35-68.613-6.005-126.15 31.034-172.614m21.146 179.69c3.615-83.218 7.27-144.42 10.964-183.604m-13.417 0C434.2 593.642 418.726 649.59 405.585 683.01m105.76 15.76 19.34-71.077"/><path d="M370.849 545.698c1.012 11.996-2.383 17.994-10.186 17.994-11.705 0-25.514 12.961-39.476 16.94-9.309 2.652-21.395 3.934-36.26 3.846-21.17 5.22-33.79 10.605-37.856 16.155s-9.423 5.55-16.07 0c-6.547-7.782-8.085-14.449-4.613-20.002 5.207-8.329-2.972-21.877-2.972-21.877s-19.117-25.151 17.32-31.157c12.486-2.058 22.172-4.958 29.55-9.324 4.653-2.752 12.766-8.017 24.34-15.794 13.683-4.97 25.118-4.97 34.306 0 9.187 4.97 23.16 19.376 41.917 43.219zm382.934-273.462c53.918 17.9 86.266 33.012 97.045 45.335 15.91 18.191.633 61.96 0 65.415-2.11 11.515-19.943 53.732-49.446 55.457-16.759.98-51.164-12.97-103.216-41.851 20.918-23.372 35.467-42.045 43.65-56.018.133-.229 16.692-19.807 17.614-34.214.369-5.764-1.514-17.138-5.647-34.124zM524.436 475.273c-9.172 61.615 8.94 92.423 54.335 92.423.477 0 10.04 22.02 22.04 27.127 2.535 1.08 12.11 6.512 29.512 8.837 5.506.735 15.571.735 30.195 0 13.653.413 31.805-12.91 54.457-39.968 13.27-15.852-7.973-17.344-24.316-46.558-4.81-8.598 8.46-38.227 0-60.27-3.391-8.835-19.356-22.601-47.893-41.299-48.771 3.666-80.756 8.51-95.956 14.532s-22.657 21.081-22.374 45.176zm26.146-259.413c5.675-50.232-.957-83.06-19.896-98.485s-62.653-34.916-131.138-58.474c-18.136 5.611-31.097 12.936-38.885 21.974s-15.161 25.313-22.12 48.824c-20.645 9.028-32.415 17-35.309 23.918-2.894 6.918 1.018 17.73 11.735 32.434-5.885 34.966-5.37 53.329 1.545 55.09 12.782 3.254 65.995-5.527 83.034 9.34 20.129 17.562 9.04 99.023 22.003 98.68 6.593-.175 22.066-30.675 33.34-57.028.513-1.198 16.333-35.523 25.109-41.653 15.552-10.862 39.08-22.402 70.582-34.62z"/><path d="M433.316 346.012c27.775 9.451 46.908 15.48 57.399 18.083 57.028 14.152 116.689 24.028 139.949 30.45 5.638 1.556 2.096 23.017 22.59 20.87 23.465-2.46 43.19 3.181 100.232-92.94 18.671-31.463-10.7-73.747-32.173-95.314-10.805-10.853-24.195-24.356-62.549-25.338-9.55-.244-39.281 4.117-89.195 13.084-58.802 13.62-95.75 36.597-110.844 68.932-15.094 32.336-23.564 53.06-25.409 62.173zM394.12 530.644s-39.497 29.489-43.022-27.81c-.412-6.692-10.19-32.927-29.336-78.706-9.619-29.925-6.015-43.64 10.812-41.142 16.826 2.498 47.531 13.645 92.116 33.441 15.059 9.618 22.054 19.473 20.986 29.565-1.068 10.092 2.004 15.138 9.216 15.138 29.717-15.809 51.758-20.855 66.123-15.138 10.717 4.265 3.025 16.421 1.108 34.008-1.937 17.774 1.828 40.973-1.108 43.958-16.912 17.201-48.029 0-57.609 0-12.888 0-23.33-4.539-31.328-13.617-6.325 7.502-10.96 12.041-13.908 13.617-15.176 8.118-24.05 6.686-24.05 6.686z"/><path d="M438.499 471.517c10.921-40.944-15.024-66.602-77.836-76.973-11.08-1.83-9.944-17.51-20.24-26.642-11.174-9.91-33.526-13.396-38.71-17.428-30.66-23.85 0-32.903 0-32.903s88.583 24.46 182.123 45.77c20.256 4.614 41.578 8.243 61.827 11.903 43.047 7.78 72.194 12.715 85.001 30.518 6.221 8.648-18.834 14.18-44.27 17.383-24.168 3.043-65.683 2.174-91.107 21.839-16.95 13.11-35.879 21.954-56.788 26.533z"/></g><path d="M360.663 563.692c-19.43 14.301-43.622 21.452-72.577 21.452-10.603 0-51.935 14.145-56.817 7.829-5.634-7.288-5.634-24.436 0-51.443-56.663-7.422-88.418-28.845-95.267-64.268-10.272-53.134 5.818-85.635 17.988-113.43 8.112-18.53 47.696-33.95 118.749-46.26 38.09-1.766 43.205-10.267 15.347-25.505-14.256-7.798-54.731 3.346-69.682-8.228-28.873-22.35-24.569-68.683 12.865-73.982 7.06-1 49.186 13.154 83.7 22.034 24.673 6.347-11.996-36.247-9.778-68.797 1.556-22.826 34.451-22.826 44.825-44.094 11.997-24.598 9.544-48.118 33.195-56.883 21.92-8.123 40.286 0 63.454 14.742 9.284 5.908 35.777 30.413 58.314 33.666 28.637 4.134 58-11.197 89.438-33.666 48.058-34.347 114.467 19.73 124.725 29.272 40.288 37.474 24.277 108.908 47.275 177.708 24.74-2.408 41.872.335 51.397 8.228 9.9 8.203 33.726 30.181 44.17 56.52 1.913 4.824 3.364 37.105-13.644 56.886-23.006 26.756-69.975 39.95-103.255 18.655-22.028-14.095 6.55 51.443 0 74.623-10.66 37.73-25.943 53.022-25.943 53.022s-35.458 41.2-51.666 53.023c-8.272 6.034 25.81 29.4 16.208 46.56-3.829 6.84-24.846 12.818-63.052 17.933-60.756-.657-95.423-28.706-104-84.145-12.863-83.16-62.899-80.144-91.942-66.835-19.363 8.872-40.705 24-64.027 45.383z" stroke-width="35"/></g></svg>