<svg viewBox="0 0 960 960" xmlns="http://www.w3.org/2000/svg"><g fill="none" fill-rule="evenodd" stroke="#000"><path d="M544.818 209.552c-32.945-3.018-50.019-17.619-51.222-43.804-.237-5.139 17.366-2.784 22.163-.925 4.798 1.858 19.48 17.053 23.72 22.783 3.777 5.105 5.556 12.42 5.339 21.946zM343.32 112.456c-49.92-28.206-80.032-42.308-90.333-42.308-15.45 0 40.545 45.183 57.365 52.006 11.214 4.549 22.203 1.316 32.968-9.698zm58.167 209.998c-54.695-17.21-87.08-24.744-97.155-22.602-15.113 3.212 49.052 35.766 66.924 38.942 11.914 2.118 21.991-3.329 30.23-16.34z" stroke-width="20"/><path d="M373.575 692h218.294c14.36 0 26 11.64 26 26a26 26 0 0 1-.352 4.266l-29.864 179.542a26 26 0 0 1-22.338 21.52C535.83 927.11 507.825 929 481.302 929c-26.861 0-57.167-1.939-90.918-5.816h0c-12.053-1.384-21.547-10.92-22.877-22.98l-19.775-179.355c-1.574-14.273 8.72-27.119 22.994-28.692a26 26 0 0 1 2.849-.157z" stroke-linecap="round" stroke-linejoin="round" stroke-width="40"/><g stroke-width="20"><path d="M430.656 692c-21.273-335.411-48.21-524.737-80.808-567.977m166.086 562.829c-5.88-53.625-11.677-104.085-17.391-151.38m47.695-346.832s7.292 58.982 7.278 132.512c-.027 137.242-9.185 335.783-23.813 370.848"/><path d="M309.664 440.32C387.736 582.803 428.066 666.697 430.656 692M354.7 131.018c-34.71-45.081-28.928-75.075 17.343-89.983 3.251-1.047 6.704 13.403 7.799 17.743 5.107 20.237-3.274 44.316-25.143 72.24zm14.197 19.946c11.26-63.102 39.104-88.01 83.531-74.722 3.122.934-5.896 16.623-8.564 21.37-12.436 22.131-37.425 39.915-74.967 53.352zm18 57c11.26-63.102 39.104-88.01 83.531-74.722 3.122.934-5.896 16.623-8.564 21.37-12.436 22.131-37.425 39.915-74.967 53.352z"/><path d="M399.897 264.964c11.26-63.102 39.104-88.01 83.531-74.722 3.122.934-5.896 16.623-8.564 21.37-12.436 22.131-37.425 39.915-74.967 53.352zm4.253 69.534c13.012-59.67 39.76-84.192 80.245-73.565 2.845.747-6.134 15.84-8.794 20.404-12.404 21.28-36.22 39-71.452 53.161zm-26.398-127.869c-56.558-9.43-89.677-12.383-99.356-8.86-14.518 5.284 53.553 28.59 71.693 29.249 12.093.439 21.314-6.357 27.663-20.39zm14.018 52.854c-56.384-10.415-89.446-13.946-99.185-10.593-14.609 5.03 53.046 29.521 71.171 30.496 12.084.65 21.422-5.984 28.015-19.903zm-30.383-100.181c-54.386-18.161-86.635-26.26-96.746-24.294-15.167 2.948 48.421 36.617 66.234 40.105 11.876 2.325 22.046-2.945 30.512-15.81zM584.321 271.23c46.722-31.574 74.845-47.277 84.369-47.11 14.285.249-38.393 51.214-54.081 58.775-10.46 5.04-20.555 1.152-30.288-11.666zm21-66c46.722-31.574 74.845-47.277 84.369-47.11 14.285.249-38.393 51.214-54.081 58.775-10.46 5.04-20.555 1.152-30.288-11.666zm-141.497 474.4L455 581M312.82 446.617c-19.901-29.574-35.533-46.762-46.894-51.562-11.362-4.801-10.49-21.632 2.613-50.493 19.34 7.102 30.401 14.412 33.184 21.93 4.173 11.278-4.174 29.514 0 41.52 2.782 8.004 6.481 20.872 11.097 38.605zm100.914-10.822c-24.793-40.184-46.088-62.018-63.886-65.504s6.067 55.031 71.595 175.55"/><path d="M410.756 440.32c28.35-71.226 49.44-112.284 63.267-123.172 13.829-10.888-9.54 5.735-70.105 49.87M335.05 489.559c6.6-49.09 3.514-84.743-9.257-106.96-12.77-22.216-22.058-30.746-27.861-25.59"/><path d="M338.423 493.887c-83.312-62.012-126.517-95.856-129.614-101.533-3.098-5.678 23.649.993 80.24 20.011m49.374 48.94c49.205 24.774 76.878 54.463 83.02 89.066"/><path d="M372.828 558.781c1.06-25.355 2.51-40.518 4.348-45.488s15.255 5.88 40.252 32.549"/><path d="M395.128 603.674c.998-39.146 5.331-61.813 13-68"/><path d="M384.169 576.076s-39.884-2.537-58.386-9.916c-12.334-4.92 13.71 14.142 78.135 57.184m-54.07-111.222s-49.235-15.013-68.348-27.118c-19.113-12.106 30.063 47.416 46.557 54.127 10.996 4.474 23.94 6.71 38.83 6.71M624.55 134.813c-42.655 117.496-65.667 188.634-69.034 213.413M489.99 474.309c-26.307-32.454-37.983-54.553-35.03-66.297 2.955-11.744 12.485-22.042 28.59-30.894 21.59 10.9 32.384 21.198 32.384 30.894 0 5.58 2.708 18.512-3.02 32.308-2.817 6.784-10.458 18.114-22.924 33.989zM455 587.43c-35.474-17.847-35.636-53.657-.487-107.43 4.355-6.662 22.384 36.67 22.477 37.85 2.007 25.5-5.323 48.692-21.99 69.58zm-30.92-72.817c17.67-22.763 27.241-40.533 28.713-53.308 1.471-12.776-6.702-30.54-24.52-53.293m72.889 137.83C487.054 537.85 480 525.442 480 508.619s12.191-37.49 36.573-62.002c7.14 29.507 10.711 51.342 10.711 65.505 0 14.163-7.88 25.403-23.642 33.72m-5.099 133.788c-14.153-12.87-21.23-24.306-21.23-34.31 0-15.005.566-29.568.566-38.67 0-6.067 9.786.333 29.36 19.202"/><path d="M625.277 142.701c-19.85-3.6-24.792-11.118-14.826-22.553 9.966-11.434 23.37-22.7 40.213-33.798 6.805 11.948 8.588 22.012 5.35 30.191-3.239 8.18-13.484 16.9-30.737 26.16zm-79.459 245.851c-32.945-3.018-50.019-17.619-51.222-43.804-.237-5.139 17.366-2.784 22.163-.925 4.798 1.858 19.48 17.053 23.72 22.783 3.777 5.105 5.556 12.42 5.339 21.946zm1-116c-32.945-3.018-50.019-17.619-51.222-43.804-.237-5.139 17.366-2.784 22.163-.925 4.798 1.858 19.48 17.053 23.72 22.783 3.777 5.106 5.556 12.42 5.339 21.946zm-2 61c-32.945-3.018-50.019-17.619-51.222-43.804-.237-5.139 17.366-2.784 22.163-.925 4.798 1.858 19.48 17.053 23.72 22.783 3.777 5.106 5.556 12.42 5.339 21.946zm72.205 102.243s-12.066-31.805 10.188-40.205c14.836-5.6 26.99-.3 36.465 15.9"/><path d="M613.758 440.32c21.7-21.539 45.52-32.308 71.46-32.308 4.143 0 .823 19.795 0 21.566-5.275 11.36-22.721 24.285-52.337 38.776m-87.85 82.017s64.942-56.787 46.44-92.378c-2.387-4.59-15.055 8.166-17.518 10.36-13.625 12.144-22.213 21.693-25.765 28.647"/><path d="M582.305 509.295c2.374 0 41.448-17.693 46.855-37.718 3.604-13.35 2.666-26.444-2.814-39.282-22.285 12.247-35.196 21.856-38.734 28.826m-42.581 133.253c31.713-15.994 52.304-32.172 61.774-48.532 2.407-4.159 10.02-20.02 6.953-23.672-2.519-2.997-15.141 5.647-18.97 6.652-6.574 1.726-23.16 13.92-49.757 36.581m0 114.227c21.447-12.37 33.021-29.671 34.722-51.905 2.552-33.351-.346-34.637-5.095-29.344-3.166 3.529-15.083 15.219-35.752 35.07"/><path d="M580.702 632.883c16.178-10.557 28.273-23.394 36.286-38.51 12.02-22.673 10.184-28.312 0-24.7-6.789 2.41-19.2 11.196-37.235 26.36m-26.237-163.738c4.412-6.581 57.542-40.485 60.96-62.151 2.277-14.444-18.042-9.89-60.96 13.66m0-18.546c17.397-14.913 28.903-23.98 34.517-27.201 8.421-4.832 35.115-23.455 50.684-30.348 15.568-6.893 14.913-11.837-16.166-3.404-31.08 8.432-60.914 12.191-69.035 21.625m-6.094-128.57s25.998-9.605 30.331-36.487c2.89-17.922-.392-33.153-9.844-45.693-10.73 8.733-17.56 19.389-20.487 31.968-4.39 18.87 0 50.211 0 50.211zm1.133 59.64s27.492-3.51 37.762-28.728c6.847-16.813 7.076-32.392.687-46.737-12.42 6.096-21.472 14.942-27.154 26.541C551.328 225.474 548.555 257 548.555 257z"/></g></g></svg>