<svg viewBox="0 0 960 960" xmlns="http://www.w3.org/2000/svg"><g fill="none" fill-rule="evenodd" stroke="#000"><path d="M355.593 624.519H607.32c9.192 0 33.825 203.52 7.04 239.78s-56.757 56-122.362 56-123.51-21.436-142.49-56c-29.603-53.906-.382-239.78 6.085-239.78z" stroke-width="40"/><g stroke-width="20"><path d="M434.992 613.867c29.39-119.693 47.874-200.094 55.453-241.203 3.328-18.052 14.684 9.285 13.455 37.724-.89 20.585-2.81 47.373-8 86.011-2.562 19.071-9.496 38.049-10.48 66.438-.36 10.396 1.315 27.406 5.025 51.03z"/><path d="M528.299 613.867c-14.587-77.156-24.522-120.171-29.805-129.045"/><path d="M503.992 429.326s18.436 29.523 21.643 54.103c2.072 15.881-4.362 63.54-12.239 69.778m-48.043-68.385s-21.506-118.047-3.36-152.677m-63.483-38.926s1.844 28.136-4.102 46.332c-5.945 18.195 2.705 22.06-16.445 45.496-19.15 23.436-33.416 32.838-46.22 44.28-12.805 11.44-30.888 23.823-38.196 31.993-7.309 8.17 1.275-51.9 15.209-76.273 13.933-24.373 25.264-44.156 41.215-59.358 15.95-15.2 48.539-32.47 48.539-32.47zm-3.955-6.473c-37.692 16.005-61.364 28.972-71.016 38.9-14.478 14.893-55.963 21.913-75.611 31.567-13.1 6.436-25.833 10.688-38.201 12.756 15.118-29.051 34.729-49.699 58.832-61.944 36.154-18.367 46.03-39.058 91.396-33.24 30.244 3.88 41.777 7.866 34.6 11.961z"/><path d="M410.936 284.556c13.707 23.757 25.557 38.575 35.55 44.452 14.99 8.815 53.232 35.317 72.735 37.86 13.002 1.694 21.409 2.275 25.22 1.741.036-16.651-11.971-34.621-36.022-53.91-36.076-28.932-38.25-28.8-53.703-32.524-10.303-2.483-24.896-1.69-43.78 2.38zm-14.316-6.549c-29.223-10.095-46.486-20.108-51.79-30.04-7.956-14.897-5.795-23.927 2.718-34.004 8.513-10.077 40.336 4.518 49.071 11.135s11.212 6.317 11.212 12.74-.484 31.726-2.52 35.947c-1.356 2.815-4.254 4.222-8.692 4.222z"/><path d="M381.082 214.834c8.357-4.225 11.255-10.574 8.693-19.045-5.979-7.275-18.671-7.275-38.078 0-29.11 10.912-101.08 58.541-107.564 71.758-4.323 8.811 27.592-1.589 95.746-31.2m53.713-131.173c8.203 13.194 4.793 28.14-10.229 44.84-15.022 16.699-40.752 36.867-77.191 60.505-6.868-18.044-7.867-31.083-2.999-39.117 7.303-12.05 23.14-45.07 45.288-55.49 14.766-6.947 29.81-10.526 45.13-10.738zm11.23-.514c61.304 32.503 103.867 51.725 127.69 57.665 4.944 1.232 9.017-15.615 9.017-17.384 0-20.142-18.812-44.586-52.596-50.56-26.139-4.623-54.176-1.197-84.11 10.278z"/><path d="M398.78 105.174c18.278-21.435 35.25-35.93 50.915-43.487 23.5-11.333 112.459-10.658 117.319 0 4.86 10.659-90.61 18.776-101.661 34.336m119.971 91.297c-11.896 12.07-13.694 24.578-5.396 37.524s28.24 28.19 59.826 45.734c15.061-21.146 17.314-37.652 6.758-49.517-10.556-11.866-30.952-23.113-61.188-33.74zm-32.14 76.785c-12.114 7.752-17.084 22.67-14.913 44.756 2.172 22.086 15.64 43.38 40.4 63.881 14.605-23.855 18.256-45.149 10.954-63.88s-19.45-33.651-36.441-44.757zm-2.044-5.769c-23.734-16.72-42.661-25.08-56.783-25.08-21.181 0-63.163-6.26-83.421 12.295-20.26 18.554 56.474 25.7 69.512 28.234 13.038 2.534 34.517-2.855 45.58-5.865 7.374-2.007 15.745-5.201 25.113-9.584z"/></g><path d="m508.419 314.7 36.023-47.077" stroke-width="10"/><path d="M556.322 264.105c23.045 14.513 37.147 25.11 42.307 31.788 7.74 10.017 40.353 31.412 60.932 36.252 20.578 4.84 44.972 16.574 60.144 37.824s12.676-7.85-7.728-33.567c-20.405-25.716-48.794-54.174-58.94-58.395-10.147-4.222-28.084-13.902-51.02-13.902h-45.695zm0-3.951c-3.049-11.049-2-18.464 3.149-22.244 5.148-3.78 11.921-6.265 20.32-7.455m-4.795-46.389s-6.484 26.44-23.855 31.74c-11.581 3.534-41.95 8.417-91.107 14.65-4.885-8.216 5.457-18 31.025-29.356 38.351-17.034 54.037-20.594 65.263-20.594 11.227 0 18.674 3.56 18.674 3.56z" stroke-width="20"/><path d="M404.822 280.764c-1.169 22.389 13.51 52.124 44.04 89.205" stroke-width="10"/><path d="M593.276 352.96c16.65 18.807 27.214 30.103 31.69 33.888 6.716 5.677 23.876-40.983 23.876-54.703M579.791 187.32c56.126-10.85 106.014 1.551 149.666 37.205 65.479 53.482-63.26-7.453-83.828-7.453m-128.702-26.739c-13.703-1.714-24.847-2.81-33.431-3.288-37.199-2.07-62.42-.974-75.665 3.288-26.743 8.606 42.372-28.948 65.345-32.487 22.973-3.538 64.287 9.935 101.82 25.677" stroke-width="20"/><path d="m400.232 105.174 21.672 70.945m4.906 11.201 22.051 44.92" stroke-width="10"/><path d="M373.855 162.39c2.883 11.69 7.758 20 14.624 24.93 6.867 4.93 16.103-6.591 27.707-34.565l10.623-35.71m-26.577-11.871c-48.318-14.034-84.768-16.72-109.351-8.059-36.875 12.992-16.323-8.396 0-17.809 16.322-9.413 41.262-15.732 58.16-15.732 16.898 0 62.614 6.177 70.191 15.732" stroke-width="20"/><path d="m421.904 624.519 26.957-134.152a3338.005 3338.005 0 0 1-11.026-81.884c-3.392-27.744-14.417-55.45-33.077-83.117-4.268 25.855-7.876 41.647-10.824 47.376-12.012 23.34-34.047 46.402-53.616 63.693-8.879 7.845-44.78 35.444-55.529 27.607-9.79-7.138 4.914-48.828 8.821-60.545 13.56-40.656 46.708-78.715 46.708-78.715s-103.314 51.878-143.449 57.21c-40.135 5.332 76.616-94.25 103.275-101.228 26.658-6.979 50.302-23.956 32.471-27.422-8.959-1.742-29.923 12.466-47.826 17.236-17.729 4.723-26.041 0-34.445-2.955-10.636-3.74-.664-18.088 31.39-41.777 32.055-23.69 2.314-5.48 11.876-45.34 9.563-39.86 35.226-53.494 39.005-59.957 3.78-6.463 20.45-14.89 16.426-19.688-4.025-4.797-56.933-5.017-78.806 4.313s12.777-31.76 39.652-41.6c22.728-8.322 45.611-8.322 73.396-5.988s36.12 7.371 38.621 11.252c4.905 7.611 28.173-32.654 143.622-15.4 18.5 2.765-.536 14.797-57.107 36.095 21.695 20.331 33.703 32.95 36.023 37.856 3.48 7.36 0 34.088 0 41.054 0 6.967 105.142-4.747 159.09 30.766 53.947 35.513 52.522 40.533 37.64 47.296-14.882 6.764-81.897-24.046-84.227-20.66-2.33 3.387 8.84 14.498-8.103 41.778-.647 1.042 9.897 6.99 20.387 15.047 13.196 10.135 27.74 23.395 35.965 32.03 9.099 9.55 25.74 67.195 24.263 64.904-1.477-2.292-72.673-41.55-74.545-38.53-1.872 3.018-5.207 43.446-24.044 50.957s-27.113-26.043-36.166-26.892c-9.052-.85-9.368 17.478-14.02 22.185-4.65 4.707-28.162-22.185-28.162-22.185s-15.027 24.384-44.101 7.603 13.825 70.902 19.88 91.3c6.055 20.398-2.272 75.456-2.272 93.02 0 11.71 6.138 34.196 18.415 67.457z" stroke-width="30"/></g></svg>