<svg viewBox="0 0 960 960" xmlns="http://www.w3.org/2000/svg"><g fill="none" fill-rule="evenodd" stroke="#000"><path d="M403.21 706.185h157.628c14.359 0 26 11.64 26 26a26 26 0 0 1-.258 3.65l-22.67 159.872a26 26 0 0 1-22.095 22.09c-21.287 3.014-41.57 4.521-60.846 4.521-19.65 0-41.67-1.565-66.061-4.696h0c-12.06-1.547-21.439-11.247-22.578-23.353l-15.006-159.65c-1.344-14.297 9.156-26.976 23.452-28.32a26 26 0 0 1 2.434-.114z" stroke-linecap="round" stroke-linejoin="round" stroke-width="40"/><g stroke-width="20"><path d="M458.754 706.185c23.438-127.555 35.042-219.694 34.81-276.415m-1.344-284.168c8.095-6.57 27.049-10.603 56.861-12.097m-55.516-21.859s-32.516-23.48-49.787-25.157m104.838 45.086c40.957 30.315 84.096 51.486 129.418 63.514 26.975 7.16 63.603 17.715 96.273 31.338 49.665 20.71 92.035 42.882 92.035 26.63 0-26.94-96.984-124.54-188.308-143.34-60.883-12.535-104.022-5.249-129.418 21.858z"/><path d="M488.884 150.298c-57.867 23.047-83.045 63.544-75.536 121.49 7.982 61.59 17.981 87.307 20.436 95.702 8.424 28.808 12.48 70.306 20.14 84.334 7.66 14.029 78.334-48.228 92.592-112.759 14.259-64.53 8.94-109.312-6.198-131.082-10.092-14.513-27.237-33.742-51.434-57.685z"/><path d="M533.345 200.438c44.901-10.547 87.79 12.314 128.669 68.583s58.174 117.87 51.89 184.8c-85.92-53.166-139.398-106.175-160.435-159.026m-4.853 37.132c26.465 36.009 24.283 67.576-6.547 94.701-3.336 2.936-8.994-5.029-10.224-7.388-2.714-5.207-6.446-13.95-11.194-26.23M418.78 217.674c-66.844 17.659-112.282 43.138-136.316 76.436-24.034 33.298-40.567 66.048-49.597 98.248 74.479-27.308 121.74-53.12 141.784-77.435 20.044-24.316 32.512-40.39 37.403-48.225M492.22 76.424v73.874m-43.677-61.88c-20.953-7.955-38.323-10.2-52.109-6.737-54.437 13.678-106.514 56.355-121.761 93.576-21.039 51.36-28.11 83.658-21.214 96.894 53.5-36.849 92.311-66.632 116.432-89.349 24.12-22.717 50.338-54.178 78.652-94.384z"/><path d="M355.778 99.067C236.42 82.821 150.619 111.033 98.375 183.703c-2.487 3.46 33.727 6.62 41.47 7.022 46.792 2.432 89.356 2.432 127.691 0m220.67-103.797c8.867-35.426 46.792-54.274 113.776-56.544 66.983-2.27 72.87 5.518 17.661 23.363zM369.89 182.802c43.464-10.686 81.319-27.118 113.565-49.297l-56.782-21.859"/></g><path d="M577.34 392.358c-2.729 14.992-42.249 67.431-49.73 46.77-4.988-13.773-14.57-13.773-28.747 0-18.966 20.897-35.739 31.345-50.32 31.345-9.885 0-5.77-27.407-15.879-78.115-3.2-16.054-12.73-45.168-28.59-87.342-24.159 22.333-46.689 39.166-67.59 50.5-26.875 14.573-55.7 29.344-98.482 44.113-42.883 14.803 7.912-63.626 36.853-97.57 22.41-26.283 77.329-69.188 164.756-128.713L238.002 280.715c9.187-45.091 15.99-72.683 20.406-82.775.09-.206-55.802-2.003-167.678-5.391 3.515-25.29 17.972-46.408 43.374-63.356 38.101-25.422 85.462-39.72 116.801-42.704 31.34-2.985 83.493 3.88 98.82 0 15.326-3.882 36.498-14.919 47.216-18.184S458.598 67.789 480 90.66c21.402 22.87-46.95-61.558 92.633-67.715 93.056-4.104 107.198 9.159 42.428 39.787L498.863 94.615c-8.368 28.583 6.611 37.255 44.939 26.016 57.491-16.86 102.128-33.72 148.977-16.86 46.85 16.86 119.618 52.086 173.563 122.87 35.963 47.188 16.83 55.298-57.4 24.33-119.397-41.525-180.96-63.32-184.69-65.387-5.593-3.1-67.914-33.933-85.758-39.982s-45.552-18.089-29.666 7.742c10.59 17.22 38.79 32.086 84.598 44.596 66.355 26.83 106.933 82.74 121.734 167.728 14.8 84.988 11.002 116.079-11.396 93.271-91.064-64.763-138.648-107.1-142.752-127.012-6.157-29.868 19.056 45.439 16.328 60.431z" stroke-width="30"/><path d="M466.727 711.028c-22.995.203-39.488-9.473-49.481-29.03-9.993-19.557 2.45-45.332 37.327-77.327zm3.139-3.026c22.68 3.798 40.483-3.18 53.413-20.932 12.929-17.753 4.672-45.157-24.772-82.214z" stroke-width="20"/></g></svg>