<svg xmlns="http://www.w3.org/2000/svg" viewBox="0 0 960 960"><path d="m767.93 428.678-8 95a20 20 0 0 1-5.447 12.115l-16.437 17.258-66.494 254.626.18.09c4.89 2.44 9.208 5.042 12.95 7.847l.557.423c10.973 8.414 17.51 19.197 16.724 32.173-1.026 16.928-4.528 29.492-14.094 41.963-4.168 5.433-8.268 8.073-16.305 12.148l-1.93.975c-2.122 1.073-3.357 1.742-4.194 2.272l-.035.022-.058.103c-.134.238-.247.437-.358.63l-.11.193a115.078 115.078 0 0 1-2.624 4.388c-2.626 4.168-5.512 8.073-8.914 11.829-8.768 9.68-19.682 16.909-33.079 20.562-28.182 7.686-81.658 12.52-132.974 10.692-62.538-2.226-99.39-6.566-133.124-16.857-16.276-4.966-29.299-12.225-39.705-21.453-5.262-4.666-9.569-9.552-13.531-14.996-1.525-2.096-4.382-6.372-5.54-8.094l-.057-.085-.07-.04a44.914 44.914 0 0 0-.559-.307l-.175-.095-1.068-.574a96.221 96.221 0 0 1-1.37-.75 54.64 54.64 0 0 1-3.49-2.115 44.286 44.286 0 0 1-8.332-7.096C268.739 868.967 259 848.672 259 834c0-13.849 7.648-24.912 19.98-32.858 4.304-2.773 9.25-5.226 14.844-7.415l.653-.253-56.343-239.098-13.527-10.678a20.017 20.017 0 0 1-7.607-15.29V432c0-11.425 9.554-20.528 20.966-19.977 122.473 5.922 214.466 8.578 275.838 7.978 61.274-.6 138.793-4.906 232.49-12.928 12.348-1.057 22.675 9.256 21.635 21.605zM322.972 826.531c-10.273 2.504-17.89 5.376-22.328 8.236a19.11 19.11 0 0 0-1.111.768l-.182.139.006.024c.036.136.076.279.118.428l.067.228c.535 1.813 1.377 3.951 2.455 6.198 2.222 4.632 5.16 9.118 7.735 11.923l.1.107.097.1.097.095c.447.418 1.041.757 3.493 2.08 5.87 3.167 9.697 6.002 13.587 11.287.99 1.346 4.996 7.396 6.163 9 2.362 3.245 4.79 6 7.728 8.605 6.084 5.395 14.03 9.824 24.838 13.121 29.611 9.034 63.545 13.03 122.876 15.143 47.557 1.693 97.108-2.785 121.026-9.308 5.522-1.506 10.034-4.494 13.957-8.826 1.718-1.896 3.253-3.974 4.72-6.3.332-.529.893-1.476 1.466-2.457l.246-.422c.9-1.546 1.753-3.04 1.723-2.99 2.726-4.543 6.345-8.002 10.78-11.012 2.65-1.797 5.062-3.13 8.946-5.094.24-.122 1.546-.78 1.9-.96 1.6-.811 2.608-1.35 3.3-1.766l.088-.054.125-.179c2.788-4.075 4.14-8.59 4.8-15.607l.045-.497-.203-.174a18.654 18.654 0 0 0-.473-.386l-.26-.203c-3.859-2.96-10.606-6.262-19.733-9.478l-.054-.02-6.54 21.616a10 10 0 0 1-6.62 6.658l-.298.088C575.965 880.862 532.113 888 496 888c-35.932 0-87.863-7.081-156.03-21.208a10 10 0 0 1-7.615-7.15l-9.089-33.185-.293.074zm403.112-377.633-1.535.126c-83.464 6.759-153.565 10.42-210.354 10.975-58.569.573-143.969-1.757-256.319-6.986l-.877-.041v65.336l11.393 8.994a20 20 0 0 1 6.965 10.673l.109.438 62.236 264.1c.197.834.338 1.669.426 2.5l11.894 43.427 1.962.4c62.365 12.65 110.093 19.026 142.981 19.16H496c32.744 0 72.898-6.323 120.375-19.021l.657-.178 17.835-58.95 65.782-251.904a20 20 0 0 1 4.868-8.74l15.144-15.902 5.424-64.407z"/><path d="M507.145 13.115a20 20 0 0 1 .708.09c13.145 1.894 21.757 3.945 27.809 7.283 5.982 3.301 10.5 8.264 13.92 14.558l1.277-.116a582.397 582.397 0 0 1 9.023-.749c3.896-.292 7.663-.533 11.244-.707 6.442-.313 11.94-.396 16.426-.179 3.116.152 5.814.444 8.326.992 2.06.45 4.007 1.064 6 2.024 3.279 1.58 6.233 3.816 8.53 7.206l.104.16.046.033c.935.687 2.825 2.112 4.813 3.68l.46.363.23.184.461.368c1.534 1.231 3.027 2.48 4.09 3.473 8.851 8.279 14.965 18.872 17.96 33.103.993 4.724 1.924 11.126 3.646 24.197l.214 1.627c1.76 13.39 2.45 18.368 3.108 21.979l.056.302.055.296a50.473 50.473 0 0 1 .84 11.64c18.784-4.065 39.73-4.863 62.776-2.422 2.063-11.957 6.181-22.41 11.928-31.751.346-.563.728-1.158 1.135-1.773l.31-.465c.418-.624.86-1.265 1.312-1.91l.341-.484.344-.485.347-.483.347-.482.348-.478.17-.233.34-.462c2.937-3.984 5.603-7.277 5.127-6.525l-.015.024.242-.36c5.542-8.127 14.75-12.064 24.354-11.087 6.854.697 13.304 3.73 19.392 8.456 10.354 8.036 20.249 21.552 28.76 39.382 3.506 7.346 6.245 23.247 6.939 42.91.45 12.787-.69 29.984-3.382 51.832.224-.026.45-.046.678-.063l.112-.006.028-.006.427-.071.177-.03.946-.163 1.154-.196a163.81 163.81 0 0 1 2.819-.449c9.028-1.356 17.422-1.786 26.012-.715 11.335 1.413 21.446 5.387 29.564 12.838 14.856 13.633 30.398 46.79 32.369 65.657.097.93.232 1.75.482 2.846 4.16-1.927 8.392-3.184 12.764-3.658 9.117-.987 17.92 1.653 24.986 7.798 9.27 8.06 14.84 18.944 17.078 31.762 1.816 10.404 1.452 22.012-.727 35.012-3.39 20.22-10.832 42.88-22.933 72.814-5.958 14.74-14.666 29.024-26.081 42.888 14.387 1.532 25.368 12.186 29.087 29.39 6.412 29.655-4.607 58.343-30.873 85.145A25.61 25.61 0 0 1 906 613c0 38.969-28.418 72.19-81.562 100.633a20 20 0 0 1-3.441 1.447c-17.856 5.612-35.134 2.709-49.565-8.574-12.541-9.805-22.346-25.388-30.187-46.56-11.56-31.212-4.239-63.06 15.794-90.785 8.695-12.032 19.659-22.86 30.493-30.542-22.187-41.993-52.791-72.858-92.022-92.651 1.832 9.606 2.49 20.8 2.49 35.032 0 20.726-7.442 38.5-21.622 52.393A34.68 34.68 0 0 1 677 540c0 .952-.018 1.898-.053 2.838 4.82-.442 8.361-.955 10.556-1.521 6.323-1.63 10.246-3.648 13.598-6.468a43.032 43.032 0 0 0 2.334-2.137c.333-.324 2.054-2.03 2.571-2.529 1.93-1.866 3.543-3.234 5.447-4.504l11.094 16.642c-.729.485-1.502 1.142-2.642 2.244-.405.39-2.094 2.064-2.524 2.482a62.19 62.19 0 0 1-3.403 3.104c-5.647 4.752-12.265 8.156-21.481 10.532-4.234 1.092-10.638 1.918-19.394 2.526-7.792 21.933-27.072 39.42-56.087 52.114a20 20 0 0 1-16.008.01C578.312 605.442 563.076 588.6 555.53 566h-68.88c-1.82 20.522-10.722 38.671-26.273 53.653-16.276 15.68-39.569 27.706-69.758 36.542a20 20 0 0 1-16.07-2.143c-42.447-26.016-66.782-57.724-70.916-94.625-21.765-3.527-43.575-12.98-65.367-28.235l11.47-16.384c18.236 12.765 36.104 20.817 53.654 24.259 2.26-25.758 14.296-47.768 33.272-63.921C354.543 459.923 377.692 451 398 451c4.6 0 9.267.53 13.928 1.553 6.105-6.285 11.958-11.83 17.573-16.634-23.27-1.274-41.6-4.238-55.147-9.033-8.235 9.45-18.108 17.35-27.276 20.82-24.175 9.147-48.728 2.812-68.683-13.655C261.95 420.479 250 400.9 250 385c0-.734.022-1.472.064-2.215-15.644-1.518-29.673-1.814-42.102-.921 6.246-.173 12.563 1.174 18.667 4.093 10.703 5.119 18.627 12.982 23.675 22.94 3.977 7.846 5.953 16.389 6.655 26.085.209 2.88.303 5.448.312 8.471v.97a343.71 343.71 0 0 1-.145 8.092l-.01.375c-.076 2.812-.105 4.112-.113 5.32l-.002.314v.079L257 459c0 12.372-6.377 23.153-17.28 32.757-8.602 7.578-20.588 14.903-36.121 22.3a20 20 0 0 1-21.827-3.056c-4.864-4.29-8.921-8.276-12.207-12.109-8.542 14.038-20.683 26.107-36.441 35.356-38.24 22.446-76.966 18.045-111.345-12.24a20 20 0 0 1-6.724-13.524c-2.23-29.954-2.23-51.957.212-66.742 4.381-26.533 30.003-70.941 51.97-86.917 23.933-17.406 46.768-21.579 66.72-11.842 11.979 5.845 21.033 15.546 28.599 28.622 23.115-9.796 54.087-12.477 92.75-8.39 3.031-6.707 7.224-13.492 12.219-20.123 4.354-5.78 9.112-11.054 13.669-15.098 2.652-2.354 5.279-4.337 7.942-5.905C293.412 319.571 297.779 318 303 318c.77 0 1.55.034 2.344.104-11.425-5.627-19.469-10.759-24.735-16.215-11.054-11.454-17.787-23.586-25.72-43a717.084 717.084 0 0 1-1.425-3.517l-.84-2.09-.2-.495-.232-.58-.069-.17-.034-.086a523.158 523.158 0 0 0-2.55-6.259c-6.273-15.054-7.787-30.61-5.383-44.848-8.286.309-15.996 1.363-23.135 3.153C222.94 214.264 224 224.761 224 235c0 29.537-11.21 61.672-33.04 96.6-5.934 9.495-18.507 12.269-27.885 6.152-36.079-23.53-55.715-58.394-58.047-102.7-2.402-45.638 17.894-81.674 58.978-105.376a20 20 0 0 1 23.603 2.668c11.71 10.873 22.052 30.155 28.69 52.216 10.556-2.63 21.986-3.893 34.275-3.805 11.528-23.556 35.548-39.16 66.393-34.534 15.55 2.333 28.427 6.387 38.898 12.475-4.07-5.82-6.89-11.861-8.353-18.198l-2.81-12.179 9.714-7.864c8.773-7.101 18.026-12.133 27.607-14.983-5.954-7.56-9.082-16.562-8.054-26.344 1.484-14.121 11.151-25.502 26.598-33.764 2.223-1.189 6.454-4.03 16.658-11.121l.075-.052c12.014-8.35 16.762-11.532 21.042-13.722l.356-.18.177-.089.354-.174c16.52-8.061 38.986-10.032 67.916-6.91zm306.056 556.419-.331.213a68.357 68.357 0 0 0-4.62 3.297c-6.682 5.177-13.349 12.016-18.79 19.545-12.85 17.785-17.09 36.226-10.705 53.465 5.492 14.828 11.521 24.411 17.313 28.94 3.448 2.696 6.626 3.476 11.1 2.432l.246-.06.613-.333c23.246-12.715 39.113-25.388 48.29-37.837-2.128.54-4.203.929-6.23 1.167-19.715 2.32-34.074-9.849-36.886-29.535-1.274-8.916-1.144-17.75.35-26.456l-.008-.333-.011-.413-.01-.398c-.037-1.468-.071-3.088-.131-6.047-.058-2.831-.117-5.26-.18-7.36l-.01-.287zM398 491c-10.58 0-24.606 5.406-35.411 14.604C350.094 516.241 343 530.544 343 548c0 24.09 14.01 46.128 44.206 66.633l.741.501.928-.31c39.902-13.449 57.74-32.036 58.119-56.04L447 558c0-20.587-6.819-38.002-18.373-50.616C419.022 496.898 407.059 491 398 491zm500.15 45.838-.166.097c-7.865 4.621-19.318 14.281-33.501 28.83l-.16.163-.11.154c-5.318 7.418-8.788 14.608-10.534 21.704.129 3.335.293 6.196.51 8.722l.033.383.24-.091.46-.177 1.352-.521.324-.125c4.15-2.3 8.926-5.362 14.281-9.177l.514-.37.54-.493c19.277-17.773 27.37-33.714 26.253-48.654l-.037-.445zm-305.874-33.394-.103.582A145.65 145.65 0 0 0 590 529c0 22.492 6.32 36.886 19.42 45.581l.058.038.015-.008c17.5-9.172 25.894-19.371 27.295-31.015a112.89 112.89 0 0 1-9.057-4.791l.059.024-.481-.206c-5.553-2.388-8.67-3.882-12.17-6.038-6.172-3.802-10.983-8.424-14.1-14.787-.13-.266-1.708-2.778-3.376-5.445l-.346-.553a455.614 455.614 0 0 1-3.015-4.868l-.199-.33-.088-.148a144.49 144.49 0 0 1-1.46-2.514l-.279-.496zm-43.22-54.205-6.557-3.068c-24.898 16.251-51.221 12.404-73.485-9.6-1.963.028-3.9.05-5.813.062-8.728 4.42-19.01 12.304-30.709 23.643 9.254 4.962 18.013 11.773 25.631 20.09 15.86 17.314 25.93 39.953 28.324 65.634h64.596c-.695-5.428-1.043-11.098-1.043-17 0-27.673 6.331-55.208 17.312-76.718a116.283 116.283 0 0 1 6.263-10.84c-3.242-2.612-6.193-4.328-8.816-5.15-5.584-1.75-10.263 1.327-15.702 12.947zm162.274-18.45c-.24.172-.483.343-.726.513 39.892 21.621 71.45 54.22 94.493 97.745 2.292-.824 4.507-1.424 6.615-1.775-.107.018-.079.011.061-.024-.34-11.554-.527-21.623-.55-30.248-26.63-28.84-59.901-50.92-99.893-66.212zm-602.446-52.643c-4.755.87-10.808 3.71-18.12 9.029-13.1 9.527-33.299 44.536-36.031 61.083-1.598 9.674-1.777 25.992-.39 48.44l.018.283.3.224c18.988 13.973 37.026 14.73 57.523 2.949l.692-.402c16.204-9.512 25.83-23.107 29.816-39.482 3.242-13.318 2.309-27.716-1.317-36.982a512.869 512.869 0 0 1-2.059-5.46l-.252-.679c-.925-2.48-1.804-4.85-2.038-5.467-1.817-4.792-3.41-8.668-5.098-12.297-5.168-11.106-10.52-18.018-15.513-20.454-2.143-1.046-4.415-1.354-7.53-.785zM651 443c-5.582 0-12.277 3.496-17.205 9.584a30.865 30.865 0 0 0-2.062 2.866l-.706 1.265c-.364.652-.69 1.237-.991 1.784-2.724 5.641-3.638 12.1-2.379 18.815 1.949 10.392 7.565 18.742 17.777 25.444l.52.337.135.058c.73.316 1.432.622 2.106.92l.666.295.211-.214c6.038-6.223 8.83-13.535 8.925-22.662L658 481c0-16.222-1.024-26.896-3.384-33.663-.497-1.423-1.013-2.534-1.512-3.337-.275-.443-.487-.707-.63-.843l-.01-.01-.033-.01c-.236-.068-.626-.125-1.224-.135L651 443zm265.424-97.302-.126.088c-5.141 3.564-11.774 10.353-18.97 19.476-3.857 4.889-7.867 10.491-11.662 16.139l-.732 1.093c-8.14 12.213-15.166 24.437-17.364 29.934-1.095 2.735-4.045 11.75-6.766 21.002l-.435 1.488c-.24.826-.478 1.653-.711 2.474-4.13 14.54-6.971 27.253-7.746 35.483-.449 4.769-.682 11.947-.692 21.455v.157l.425-.363c21.838-18.811 36.6-37.801 44.48-56.805l.333-.815c11.09-27.432 17.778-47.799 20.567-64.436 2.133-12.718 1.65-21.351-.598-26.364zM209.08 421.914l-.098.047c-.362.18-.84.488-1.415.948-.965.771-2.023 1.836-3.116 3.165-4.595 5.59-8.672 14.63-9.794 20.612-1.14 6.084-.18 16.278 3.363 23.637.133.276.38.656.736 1.13l.067.086.421-.238c5.835-3.314 10.42-6.431 13.72-9.283l.315-.275c1.822-1.605 3.033-2.95 3.686-3.927l.039-.06.001-.132c.013-1.417.047-2.899.125-5.785l.01-.402c.18-6.695.183-9.99-.076-13.567-.676-9.327-2.78-13.477-7.693-15.827a4.814 4.814 0 0 0-.256-.115l-.035-.014zm529.071-96.437C741.805 337.166 743 350.825 743 370c0 17.53-5.324 32.95-15.547 45.694 32.396 13.478 60.609 31.405 84.602 53.795l.033-.364c.31-3.298.813-6.894 1.487-10.751-2.61-2.712-4.4-5.848-5.894-9.501-2.243-5.485-3.94-12.891-5.455-22.872l-.52-3.425.663-3.4C805.474 403.236 807 389.808 807 379c0-7.706-1.346-18.995-4.068-33.644-20.872-10.945-42.453-17.58-64.78-19.88zm-161.88 93.974.37.188c3.185 1.623 6.404 3.757 9.67 6.402a60.778 60.778 0 0 1 7.317-5.882 370.121 370.121 0 0 0-17.358-.708zm-124.719-9.247-.426.121c-9.52 2.685-20.903 4.154-34.293 4.584 10.796 1.016 23.21 1.592 37.21 1.702a43.65 43.65 0 0 1-2.49-6.407zm52.727-10.651-.046.009c-4.872.9-8.84 1.95-11.859 3.096l-.077.03.044.058c.426.554.9 1.138 1.422 1.749l.319.37c6.165 7.079 11.415 10.467 15.592 11.138 1.847.297 3.867.087 6.177-.791-.506-3.793-1.896-7.924-4.21-12.476-1.942-1.012-4.306-2.045-7.079-3.078l-.283-.105zm-198.694-39.572-.318.327c-1.855 1.928-3.86 4.286-5.792 6.85-5.484 7.28-9.1 14.687-9.447 17.446l-.006.048.015.057c.05.19.119.42.21.686l.072.206c.5 1.397 1.344 3.123 2.486 4.995 2.702 4.425 6.603 8.933 11.05 12.603 9.735 8.035 19.754 10.62 29.067 7.095.33-.124.916-.427 1.678-.912.991-.632 2.116-1.47 3.318-2.487 2.581-2.184 5.307-5.012 7.812-8.112 2.136-2.642 3.997-5.344 5.387-7.779l.008-.015-.23-.212c-4.44-4.056-11.538-9.319-21.143-15.584l-.644-.42c-.156-.1-.31-.203-.463-.309-9.122-6.291-16.47-10.932-21.905-13.87a90.25 90.25 0 0 0-.81-.432l-.345-.181zm81.455 48.588-.25.476c-.134.252-.27.504-.408.756 2.56.714 5.336 1.374 8.327 1.98a55.926 55.926 0 0 1-7.67-3.212zm-183.384-26.342-.099.01c-12.444 1.217-23.182 3.7-32.23 7.41a275.503 275.503 0 0 1 3.656 9.337c5.706-6.514 12.256-11.508 19.785-14.428a39.973 39.973 0 0 1 8.888-2.33zM696 332c-5.582 0-12.277 3.496-17.205 9.584-5.507 6.802-7.864 15.524-6.138 24.73 2.123 11.321 8.599 20.219 20.627 27.203l.273.156.149-.147c6.29-6.303 9.193-13.724 9.291-23.034L703 370c0-16.222-1.024-26.896-3.384-33.663-.497-1.423-1.013-2.534-1.512-3.337-.275-.443-.487-.707-.63-.843l-.01-.01-.033-.01c-.236-.068-.626-.125-1.224-.135L696 332zm-61.905 11.788-2.474 1.075c-22.311 9.828-45.276 23.234-68.922 40.235 26.919.473 52.312 2.578 76.173 6.321-2.5-5.536-4.352-11.451-5.53-17.733-1.919-10.238-1.579-20.374.753-29.898zm-234.932-22.422h-.45a28.647 28.647 0 0 0-2.808.136c-.53.054-.96.119-1.295.188l-.063.013-.05.115c-.149.343-.31.793-.477 1.363l-.071.252c-1.06 3.83-1.492 9.912-.985 18.37.78 13 3.48 21.922 7.388 27.003 2.845 3.697 6.66 5.676 12.83 6.164l.239.016.716-.016c14.428-.368 24.783-2.114 30.66-4.733l.3-.136c.694-.321 1.26-.63 1.707-.913l.164-.108-.025-.316c-.59-6.824-5.764-18.815-13.408-29.534l-.366-.51c-4.164-5.757-8.623-10.563-12.646-13.704-1.714-1.337-3.219-2.27-4.383-2.784a7.18 7.18 0 0 0-.512-.205l-.082-.029h-.213l-.33-.002-.655-.008c-2.076-.032-4.185-.127-7.451-.307l-.203-.012-.275-.015c-3.343-.185-5.563-.28-7.256-.288zm428.479-55.468-.164.009.106.212c3.007 6.136 5.26 12.353 6.735 18.643l.205.9c1.681 7.565 3.067 19.119 4.293 35.152l.022.3.15.695c3.988 18.533 6.5 33.792 7.507 45.996l.008.105.125-.186a492.582 492.582 0 0 0 7.233-11.225l.329-.529c2.77-4.464 4.945-8.2 6.505-11.159 1.257-2.384 1.99-4.036 2.157-4.59 3.14-10.402 3.205-13.12 1.854-18.298a205.18 205.18 0 0 0-.406-1.539c-1.153-4.365-1.776-7.322-2.193-11.306-.994-9.52-12.28-33.597-19.63-40.343-1.294-1.187-3.75-2.152-7.467-2.615-2.265-.283-4.722-.347-7.37-.222zM496.63 299.942l.204-.13c-10.724 6.91-21.3 11.92-31.617 14.969.122.164.243.331.364.499 5.142 7.109 9.604 14.67 13.105 22.238 9.195 7.51 17.28 14.744 24.255 21.717l.128-.02 4.61-.682 4.438 1.426c3.59 1.153 6.96 2.364 10.11 3.65-2.49-24.17-11.005-45.323-25.597-63.667zm94.969 2.08-.229.35c-8.121 12.49-17.939 32.141-29.237 58.73 28.978-19.654 57.235-34.205 84.73-43.625.151-.195.304-.389.458-.582-1.429.071-2.87.105-4.321.105-20.774 0-38.083-5.208-51.401-14.978zm-231.856-.175c-9.545 7.197-21.043 13.46-34.37 18.745a19.993 19.993 0 0 1-6.43 1.386c8.466 3.732 18.784 10.16 32.412 19.558l-.22-.152.548.357c.425.277.847.554 1.265.829-.863-17.143 1.173-30.624 6.795-40.723zm208.95-29.146-5.866 15.192-7.703-2.512c-2.777 15.856-4.54 33.248-5.278 52.178l-.067 1.777.463-1.033c10.01-22.324 18.95-39.152 26.967-50.634-3.447-4.652-6.274-9.676-8.516-14.968zm163.187-18.428c-8.46 15.559-18.011 28.366-28.636 38.26 9.392 1.421 17.2 5.652 23.272 12.094 24.813.77 48.892 6.261 72.202 16.5-1.032-12.81-2.15-21.872-3.242-26.788-.88-3.962-2.423-8.06-4.674-12.31a28.628 28.628 0 0 1-3.289 2.951c-6.375 4.886-14.491 6.555-22.367 4.144-8.601-2.633-15.067-9.022-23.276-20.128-3.043-4.117-6.368-9.02-9.99-14.723zM527 278c-2.874 0-7.46 1.092-13.486 3.535l-.678.275a76.259 76.259 0 0 1-2.359 3.458c8.467 10.23 15.287 21.259 20.452 33.064 1.067-13.763 2.714-26.733 4.944-38.91-3.903-.96-6.904-1.422-8.873-1.422zM169.291 174.503l-.356.301c-17.58 14.94-25.241 33.854-23.963 58.145 1.251 23.77 8.894 42.726 23.29 57.667l.248-.476c10.276-20.4 15.355-38.596 15.487-54.505L184 235c0-15.44-3.116-31.784-8.52-46.468-1.855-5.042-3.918-9.68-6.014-13.698l-.175-.331zM379.154 282.38l-.385.53a80.751 80.751 0 0 1-2.299 2.98 38.476 38.476 0 0 1 3.895-1.655 66.935 66.935 0 0 1-1.21-1.855zm-91.536-85.996c-5.378 9.15-6.083 22.1-1.156 33.924l.287.691a603.997 603.997 0 0 1 2.453 6.032l.038.095 1.33 3.308c.513 1.276.938 2.325 1.346 3.324 6.163 15.08 10.8 23.438 17.475 30.353.5.519 2.068 1.692 4.563 3.211a94.602 94.602 0 0 0 4.493 2.552l.191.102.819-.383c24.547-11.597 34.579-25.72 33.624-43.657l-.037-.606c-1.256-18.844-4.838-30.118-10.666-36.723-5.508-6.242-14.923-10.365-31.345-12.828-10.699-1.605-18.524 2.283-23.415 10.605zm145.904 25.934.047-.007c-6.62.995-13.858 3.05-21.79 6.21l-.769.31-.115.39c-5.364 18.346-1.803 30.865 10.296 40.911l.42.346c13.542 11.002 29.31 10.733 51.48-2.979l.37-.23.217-.22c.336-.344.663-.685.98-1.023-21.192-15.292-34.849-29.254-40.925-43.215l-.211-.493zM643 192c-18.432 0-28.464 5.12-34.174 14.24C604.07 213.835 602 224.544 602 238c0 10.404 2.69 19.944 7.857 26.526C616.054 272.421 626.312 277 643 277c21.63 0 40.354-14.627 56.537-47.174l.428-.866-.06-.119c-12.729-25.041-30.755-36.586-56.059-36.837L643 192zm-144.477 6.687-.99.18a32.045 32.045 0 0 1-.955 2.69c1.13.99 2.245 2.019 3.345 3.085 11.048 10.713 18.041 22.119 20.98 33.71a55.024 55.024 0 0 1 5.41-.347L527 238c3.388 0 7.041.344 11.001 1.02l.079.013.098-.334c5.283-18.198 5.376-30.249 1.821-35.889l-.14-.216c-1.54-2.31-4.368-4.032-9.718-5.12-7.459-1.516-18.072-1.21-31.618 1.213zm257.356-67.926-.129.193c-.184.275-.347.529-.486.755-4.054 6.588-6.628 14.12-7.315 23.72-.645 9.008 1.955 29.794 7.915 60.797l.126.655.116.2c3.657 6.272 7.013 11.795 10.054 16.555l.322.501.11-.802c3.35-24.57 4.809-43.076 4.436-55.162l-.016-.468c-.303-8.59-1.031-15.89-2.024-21.658-.37-2.15-.754-3.938-1.107-5.27-.069-.258-.131-.48-.185-.658l-.028-.094-.024-.048c-3.891-8.052-7.884-14.429-11.515-18.91l-.25-.306zM379.523 181.99l.15.248c2.492 4.218 4.624 8.828 6.413 13.851l.473-.22a195.208 195.208 0 0 1 6.928-3.065c-5.37-4.07-10.021-7.672-13.964-10.814zm16.194-38.749-.179.038.118.105c6.84 6.145 22.54 18.223 46.649 35.836a50.273 50.273 0 0 1 6.126-4.875 174.707 174.707 0 0 0-4.637-5.247l-.48-.52c-13.748-14.87-26.114-23.049-36.652-25.25-3.693-.77-7.308-.823-10.945-.087zm291.032 17.876.234.108c7.927 3.703 15.253 8.502 21.946 14.368-.51-4.868-.838-9.239-.98-13.13-7.335-.805-14.4-1.254-21.2-1.346zm-113.683-87.69c-3.197.155-6.621.374-10.187.642-.692.052-1.38.105-2.063.16l-1.389.112-.016.203c-1.992 23.829-1.88 40.366-.015 48.564l.063.27c.145.613.632 1.62 1.622 3.06 1.176 1.71 2.746 3.588 5.46 6.57l.895.98.28.306 1.07 1.17a202.27 202.27 0 0 1 2.425 2.693c2.016 2.283 3.661 4.295 5.16 6.381 4.013 5.582 6.643 11.239 7.449 17.755l.062.539.218-.014a12.4 12.4 0 0 0 .29-.027l.305-.035c1.822-.232 3.981-.863 6.24-1.877 10.32-4.632 16.654-13.606 15.414-20.161l-.035-.182-.068-.364c-.045-.242-.09-.486-.133-.732l-.067-.37c-.01-.063-.022-.125-.033-.188l-.066-.378c-.735-4.25-1.47-9.62-3.173-22.585l-.213-1.616c-1.552-11.782-2.443-17.91-3.132-21.184-1.273-6.046-3.188-9.366-6.14-12.127-1.355-1.267-8.029-6.207-9.115-7.124a47.546 47.546 0 0 1-.437-.374l-.355-.311h-.024c-2.741-.037-6.246.048-10.292.244zm-85.18 29.72-1.28.785c-3.393 2.086-14.564 9.023-16.227 10.048-6.03 3.717-9.919 6.034-12.935 7.65a48.01 48.01 0 0 1-3.889 1.862c6.412 5.08 12.783 11.066 19.13 17.93 6.131 6.632 11.168 12.792 15.124 18.578a217.84 217.84 0 0 1 3.668-.687 194.896 194.896 0 0 1 11.927-1.772c-1.671-19.81-6.845-37.915-15.518-54.394zm30.636-17.45-.475.286a105.455 105.455 0 0 1-7.132 3.92 150.5 150.5 0 0 0-5.788 3.066c10.327 19.323 16.416 40.566 18.267 63.645 4.04.137 7.893.498 11.563 1.089-2.775-3.133-4.83-5.687-6.83-8.592-3.595-5.225-6.184-10.587-7.586-16.489-2.573-10.832-3.178-26.272-2.019-46.925zm-61.751-29.723c-.705.344-2.831 1.651-5.831 3.647l-.424.283-.438.293c-2.417 1.62-5.03 3.422-9.95 6.841l-.075.052c-11.08 7.7-15.49 10.685-19.416 12.887l-.346.192c-.286.159-.572.314-.858.467a35.586 35.586 0 0 0-3.475 2.095l-.164.115.18.13c6.434 4.555 16.95 6.157 22.305 3.536l.277-.142c.425-.228.908-.495 1.454-.805l.482-.276c2.076-1.193 4.965-2.935 8.895-5.358.817-.504 4.209-2.608 7.776-4.82l1.074-.665.714-.442c2.729-1.691 5.326-3.299 6.71-4.15 1.028-.632 2.02-1.239 2.984-1.827 10.281-6.274 18.07-10.758 24.44-13.93a61.328 61.328 0 0 0 2.963-1.584l.4-.23-.398-.032c-18.526-1.434-31.742.045-39.28 3.723z"/></svg>