<svg viewBox="0 0 960 960" xmlns="http://www.w3.org/2000/svg"><g fill="none" fill-rule="evenodd"><path d="M363.164 76.755 787.867 99.57c72.703 3.906 129.65 63.995 129.65 136.803v468.802c0 71.112-54.407 130.402-125.257 136.496l-424.703 36.534c-75.385 6.485-141.753-49.37-148.238-124.754a137 137 0 0 1-.504-11.742V213.557c0-75.663 61.337-137 137-137a137 137 0 0 1 7.35.198z" stroke="#000" stroke-linecap="round" stroke-linejoin="round" stroke-width="20"/><path d="M356 56.554a157 157 0 0 1 8.418.226l425 22.822c41.66 2.237 78.805 20.57 105.535 48.775C921.684 156.582 938 194.657 938 236.376V705.17c0 40.747-15.589 78.108-41.327 106.154-25.738 28.046-61.625 46.778-102.223 50.269l-425 36.543c-37.586 3.232-73.215-7.061-102.088-26.833L99.782 792.2a119.896 119.896 0 0 1-50.134-44.28 119.896 119.896 0 0 1-18.643-64.237l-.004-447.187c0-33.35 11.764-64.386 31.702-88.724s48.052-41.978 80.75-48.54L295.17 68.778c18.708-7.87 39.26-12.225 60.83-12.225z" stroke="#000" stroke-linejoin="round" stroke-width="40"/><path d="m479.01 283.925 47.154 2.319v185.434l-47.155-.094zm180.042 8.854 43.052 2.319v176.939l-43.052-.094v-83.646zm-15.438 374.213v-78.7c0-28.07-22.454-50.483-50.152-50.062-27.698.422-50.152 24.116-50.152 52.924v80.77z" fill="#000"/></g></svg>