<svg viewBox="0 0 960 960" xmlns="http://www.w3.org/2000/svg"><g fill="none" fill-rule="evenodd"><path d="M539.817 837.595c174.908 27.703 342.03-109.777 373.278-307.07 31.248-197.292-85.211-379.687-260.118-407.39-174.908-27.702-342.03 109.778-373.278 307.07-31.248 197.293 85.21 379.688 260.118 407.39z" stroke="#000" stroke-linecap="round" stroke-linejoin="round" stroke-width="20"/><path d="M559.631 102.765a307.231 307.231 0 0 1 96.118.033c93.215 14.762 171.032 70.54 221.246 149.174 49.548 77.593 72.139 177.481 55.686 281.348-15.46 97.602-62.625 181.219-127.258 239.472-66.067 59.547-150.336 92.616-238.062 87.734l-6.072-.398a309.467 309.467 0 0 1-39.673-5.605L284.179 820.68l.202-2.015-.643-.162c-79.723-20.615-145.785-69.952-189.608-135.75l-1.421-2.152C46.085 609.431 25.317 519.32 41.36 425.753c14.516-84.655 56.763-158.028 115.235-211.42 59.567-54.392 135.95-88.023 217.036-91.947z" stroke="#000" stroke-linejoin="round" stroke-width="40"/><path d="m537.285 354.318 33.933 1.67v133.441l-33.933-.067zm129.562 6.372 30.981 1.669v127.329l-30.98-.068v-60.193zm-11.11 269.292v-56.634c0-20.2-16.158-36.329-36.09-36.026-19.932.303-36.09 17.354-36.09 38.085v58.124z" fill="#000"/></g></svg>