<svg xmlns="http://www.w3.org/2000/svg" viewBox="0 0 960 960"><g fill="none" fill-rule="evenodd"><path d="M532.817 837.595c174.908 27.703 342.03-109.777 373.278-307.07 31.248-197.292-85.211-379.687-260.118-407.39-174.908-27.702-342.03 109.778-373.278 307.07-31.248 197.293 85.21 379.688 260.118 407.39z" stroke="#000" stroke-linecap="round" stroke-linejoin="round" stroke-width="20"/><path d="M552.631 102.765a307.231 307.231 0 0 1 96.118.033c93.215 14.762 171.032 70.54 221.246 149.174 49.548 77.593 72.139 177.481 55.686 281.348-15.46 97.602-62.625 181.219-127.258 239.472-66.067 59.547-150.336 92.616-238.062 87.734l-6.072-.398a309.467 309.467 0 0 1-39.673-5.605L277.179 820.68l.202-2.015-.643-.162c-79.723-20.615-145.785-69.952-189.608-135.75l-1.421-2.152C39.085 609.431 18.317 519.32 34.36 425.753c14.516-84.655 56.763-158.028 115.235-211.42 59.567-54.392 135.95-88.023 217.036-91.947z" stroke="#000" stroke-linejoin="round" stroke-width="40"/><path d="m591.527 552.053 40.783-3.565v127.004l-40.783 4.478zm60.953-201.134 35.669-20.949 63.27 105.711-35.67 21.433zm-115.625-13.667 35.318 18.295-65.252 115.787-35.318-17.839z" fill="#000"/></g></svg>