<svg xmlns="http://www.w3.org/2000/svg" viewBox="0 0 960 960"><g fill="none" fill-rule="evenodd"><path d="M205.266 160.986c16.438 3.013 32.51 8.097 44.076 13.192 17.534 7.725 629.906 286.816 650.22 296.495 19.35 9.22 32.523 22.007 39.068 40.61 2.643 7.512 3.893 15.044 4.389 23.71.033.58.063 1.141.09 1.694l.025.55.064 1.643c.088 2.625.11 5.4.097 9.528l-.084 10.358-.018 5.136c-.185 21.832-6.537 42.973-17.165 61.954l-.303.54-.082.144-.224.395.059-.105-.223.39a144.138 144.138 0 0 1-3.215 5.33l72.63 41.793a10 10 0 0 1 4.967 7.72l.026.323 3.317 52.99c.505 8.052-8.244 13.355-15.15 9.184l-77.173-46.616-34.674-20.945a4006.446 4006.446 0 0 0-7.573 5.654l-.301.226-1.41 1.055-.582.435-22.187 16.655-43.113 32.46c-13.222 9.755-27.406 14.983-42.165 15.191l-.726.007a65.366 65.366 0 0 1-2.185-.03c-12.38-.378-21.814-3.616-33.003-9.387l-1.406-.733-.673-.355c-3.773-1.994-86.825-44.154-247.06-125.414L50.843 398.425a40 40 0 0 1-5.23-3.176c-27.123-19.458-40.456-51.082-42.14-91.29-.632-15.057 1.431-28.53 6.27-41.142 3.891-10.144 8.828-18.352 16.272-28.478 14.15-19.25 33.865-34.98 57.58-48.137 16.904-9.378 34.851-16.875 51.967-22.458l.916-.294c21.406-6.776 44.625-6.892 68.788-2.464zm636.2 460.642-.13.274c-1.714 3.646-1.682 7.172-.626 9.467.348.598.775 1.089 1.268 1.444l.288.215c.283.219.55.45.804.694l.08.08 12.458 7.524-.187.25 53.27 31.586-.112.16 73.247 44.245-1.789-28.57-58.78-33.824-.016.023-52.977-30.739-.117.157-7.52-4.327a10.37 10.37 0 0 1-1.653-.768l-7.005-4.031-.178-.086-.213-.099c-2.8-1.186-7.551 1.085-10.111 6.325zm-24.268-12.49c-6.618 13.676-4.888 26.943 1.04 29.857.45.221.92.383 1.421.49l.269.06.121.013.38.043.379.03 1.745.163c-3.882-7.963-3.823-18.063.43-27.071l.192-.4c4.433-9.088 12.398-15.44 21.055-17.367l-.166-.292c-.854-1.464-1.874-2.446-3.048-3.023-5.868-2.885-17.217 3.857-23.818 17.498zm85.92-42.797-.014.31c.02-.42.038-.84.052-1.263l.008-.254.002-.073.002-.076.005-.196.002-.055.006-.252.012-.759.004-.8c0-32.397 2.74-44.904-20.841-56.14-3.147-1.5-16.798-7.774-38.121-17.536l-.029-.014c-.176.386-.36.772-.553 1.158-3.15 6.301-8.742 12.755-14.017 16.347l-20.238 13.47-7.804 5.147c-11.49 7.555-24.7 16.138-40.601 26.357-41.729 26.815-68.2 29.692-97.321 15.728l-2.278-1.098c-44.559-21.562-540.024-262.036-555.47-270.213-12.294-6.509-17.8-17.402-16.101-29.661 1.272-9.183 6.56-18.47 13.734-25.595 10.88-10.803 47.977-31.38 75.705-42.75-1.7-.077-3.408-.12-5.117-.123l-1.025.003c-8.544.067-17.123 1.15-25.153 3.769-22.86 7.457-67.144 25.543-89.724 56.26-9.146 12.44-15.664 23.774-14.806 44.252 1.215 28.988 9.712 49.143 25.492 60.463 440.313 223.204 663.787 336.56 670.422 340.066l1.201.631.893.462c4.92 2.521 10.235 4.808 16.4 4.775l.357-.004c5.601-.112 11.904-2.152 19.242-7.66l47.165-35.512 1.732-1.301 1.152-.866 1.15-.864 1.147-.861 1.087-.815a24.437 24.437 0 0 1-1.598-.261l-.133-.028-10.013-.949-.328-.024a27.312 27.312 0 0 1-.563-.054l-.325-.038-1.329-.127a10.065 10.065 0 0 1-2.766-.663l-.178-.073-.634-.192a25.971 25.971 0 0 1-3.01-1.167l-.585-.278c-17.743-8.723-21.055-34.127-10.22-56.517 10.852-22.424 32.84-35.486 50.644-26.735 4.623 2.273 8.39 5.818 11.14 10.295l.21.349 4.568 5.198c.213.243.413.494.6.753l.123.178.25.282c3.256 3.742 5.423 8.448 6.492 13.71l14.105 8.119.324-.498.03-.048.014-.02.095-.148.098-.152.194-.303.399-.63a104.265 104.265 0 0 0 3.759-6.503l.272-.517a102.976 102.976 0 0 0 2.894-5.987l.038-.087.028-.064.04-.091.238-.543c.227-.524.451-1.053.671-1.585l.047-.116.419-1.032a96.17 96.17 0 0 0 2.111-5.838l.14-.438.06-.18.09-.288-.047.145.231-.74c.181-.59.356-1.184.526-1.78l.022-.08.019-.066.066-.236.076-.27.03-.111.009-.034.042-.155.037-.134.016-.061.122-.453a88.698 88.698 0 0 0 .57-2.279l.142-.614.183-.819.175-.823.073-.355.017-.085.022-.113.005-.021.07-.353a84.047 84.047 0 0 0 .403-2.21l.125-.764.117-.766.06-.413.025-.17v-.008l.008-.048.009-.066.005-.037.01-.077.01-.076.012-.08.01-.07-.003.016.015-.11.015-.11.002-.012v-.004l.014-.103.013-.1-.027.207v-.004l.014-.103.013-.1v-.01l.02-.14.016-.13.002-.02.107-.882c.038-.327.073-.654.107-.982v-.006l.023-.23.068-.706c.056-.63.106-1.26.147-1.894v-.01l.004-.05.022-.358v-.006l.003-.04.019-.322.005-.097.002-.043.022-.436.005-.105zM190.505 215.168l-.7.272c-25.666 10.117-63.247 30.778-72.155 39.625-4.286 4.255-7.405 9.735-8.016 14.147-.55 3.973.82 6.685 5.648 9.241 15.448 8.179 526.94 256.521 557.037 270.953 10.741 5.15 19.402 7.07 29.717 5.95 12.683-1.379 27.94-7.58 47.385-19.983l7.96-5.12c15.696-10.117 28.619-18.551 39.877-25.994l21.017-13.982c2.386-1.566 5.816-5.482 7.488-8.828.092-.185.177-.364.255-.536l.016.006C765.62 453.292 665.139 407.46 563.9 361.318l-13.806-6.293c-124.233-56.619-246.916-112.48-295.387-134.502l.034.016a10 10 0 0 1-2.807-.829l-13.354-6.171-.036-.01c-17.388-4.573-33.306-3.994-48.04 1.639z" fill="#000" fill-rule="nonzero"/><path d="m653.72 472.488 11.464 5.456-29.07 21.12-11.464-5.456zm-17.764-32.141 8.479-7.09 25.54 13.014-8.478 7.09-25.54-13.014zm57 30 8.479-7.09 25.54 13.014-8.478 7.09-25.54-13.014z" fill="#000"/><path d="M593.815 446.294a4.984 4.984 0 0 1 2.532 2.87 5 5 0 0 1-1.884 5.733l-20.49 14.181a4.996 4.996 0 0 1-5.11.347l-24.705-12.55a4.984 4.984 0 0 1-2.49-2.907 5 5 0 0 1 1.904-5.66l20.076-13.923a4.997 4.997 0 0 1 5.047-.382z" stroke="#000" stroke-width="10"/><path d="m468.72 383.488 11.464 5.456-29.07 21.12-11.464-5.456zm-17.764-32.141 8.479-7.09 25.54 13.014-8.478 7.09-25.54-13.014zm57 30 8.479-7.09 25.54 13.014-8.478 7.09-25.54-13.014z" fill="#000"/><path d="M408.815 357.294a4.984 4.984 0 0 1 2.532 2.87 5 5 0 0 1-1.884 5.733l-20.49 14.181a4.996 4.996 0 0 1-5.11.347l-24.705-12.55a4.984 4.984 0 0 1-2.49-2.907 5 5 0 0 1 1.904-5.66l20.076-13.923a4.997 4.997 0 0 1 5.047-.382z" stroke="#000" stroke-width="10"/><path d="m286.72 294.488 11.464 5.456-29.07 21.12-11.464-5.456zm-17.764-32.141 8.479-7.09 25.54 13.014-8.478 7.09-25.54-13.014zm57 30 8.479-7.09 25.54 13.014-8.478 7.09-25.54-13.014z" fill="#000"/><path d="M226.815 268.294a4.984 4.984 0 0 1 2.532 2.87 5 5 0 0 1-1.884 5.733l-20.49 14.181a4.996 4.996 0 0 1-5.11.347l-24.705-12.55a4.984 4.984 0 0 1-2.49-2.907 5 5 0 0 1 1.904-5.66l20.076-13.923a4.997 4.997 0 0 1 5.047-.382z" stroke="#000" stroke-width="10"/></g></svg>