<svg xmlns="http://www.w3.org/2000/svg" viewBox="0 0 960 960"><g transform="translate(318 21)" fill="none" fill-rule="evenodd"><path d="M81.007 908.004c-15.522 0-28.15-12.655-28.15-28.212V38.217c0-15.557 12.627-28.213 28.147-28.213.951 0 1.918.049 2.873.145l205.384 20.576a28.12 28.12 0 0 1 25.397 28.068V860.43c0 14.637-10.989 26.711-25.562 28.085L83.712 907.876c-.899.085-1.811.128-2.706.128h.001Z" stroke="#000" stroke-width="20" stroke-linecap="round" stroke-linejoin="round"/><path d="m79.479 107.873 41.955 3.221a10.614 10.614 0 0 1 9.801 10.582v15.942c0 6.155-5.219 11.02-11.359 10.587l-41.955-2.953a10.613 10.613 0 0 1-9.868-10.587v-16.209c0-6.182 5.262-11.056 11.426-10.582v-.001Zm137.345 20.374v15.399c0 6.155-5.219 11.02-11.359 10.587l-37.869-2.666a10.613 10.613 0 0 1-9.868-10.587v-15.637c0-6.182 5.262-11.055 11.425-10.583l37.869 2.904a10.614 10.614 0 0 1 9.802 10.583Zm81.597 6.261v14.879c0 6.156-5.22 11.02-11.36 10.587l-33.879-2.388a10.613 10.613 0 0 1-9.867-10.587v-15.095c0-6.182 5.263-11.056 11.427-10.582l33.879 2.604c5.53.425 9.8 5.036 9.8 10.582ZM79.316 182.747l41.955 2.572a10.613 10.613 0 0 1 9.964 10.594v17.95c0 6.086-5.107 10.925-11.183 10.598l-41.955-2.255a10.614 10.614 0 0 1-10.044-10.598v-18.267c0-6.117 5.157-10.968 11.263-10.594Zm137.508 18.418v17.303c0 6.086-5.107 10.926-11.185 10.598l-37.869-2.04a10.613 10.613 0 0 1-10.043-10.598V198.84c0-6.118 5.158-10.969 11.264-10.594l37.869 2.326a10.614 10.614 0 0 1 9.963 10.594l.001-.001Zm81.597 5.001v16.686c0 6.086-5.106 10.925-11.183 10.598l-33.879-1.821a10.614 10.614 0 0 1-10.044-10.598V204.09c0-6.117 5.157-10.968 11.263-10.594l33.879 2.075a10.614 10.614 0 0 1 9.965 10.594l-.001.001ZM79.147 262.915l41.955 1.903a10.614 10.614 0 0 1 10.133 10.603v20.177c0 6.014-4.992 10.827-11.002 10.607l-41.955-1.536a10.613 10.613 0 0 1-10.225-10.607v-20.543c0-6.05 5.05-10.877 11.094-10.603v-.001Zm137.677 16.38v19.433c0 6.014-4.992 10.827-11.002 10.607l-37.869-1.387a10.613 10.613 0 0 1-10.225-10.607v-19.759c0-6.05 5.05-10.876 11.094-10.603l37.869 1.714a10.615 10.615 0 0 1 10.134 10.603l-.001-.001Zm81.597 3.694v18.722c0 6.014-4.992 10.826-11.002 10.607l-33.879-1.24a10.613 10.613 0 0 1-10.225-10.607v-19.016c0-6.05 5.05-10.876 11.093-10.603l33.879 1.533a10.615 10.615 0 0 1 10.134 10.603v.001ZM78.937 345.922l41.955 1.071c5.754.147 10.343 4.854 10.343 10.61v25.274c0 5.919-4.841 10.694-10.76 10.613l-41.955-.578c-5.804-.08-10.467-4.808-10.467-10.613v-25.768c0-5.968 4.919-10.762 10.885-10.61l-.001.001Zm137.887 13.857v24.287c0 5.919-4.842 10.694-10.76 10.613l-37.869-.524c-5.804-.08-10.467-4.808-10.467-10.613v-24.729c0-5.968 4.918-10.762 10.884-10.61l37.869.966c5.754.147 10.343 4.854 10.343 10.61Zm81.597 2.081v23.33c0 5.919-4.842 10.695-10.761 10.613l-33.879-.47c-5.804-.08-10.467-4.808-10.467-10.613v-23.722c0-5.967 4.918-10.762 10.883-10.61l33.879.861c5.755.146 10.344 4.854 10.344 10.61l.001.001ZM78.773 436.286l41.955.423c5.82.059 10.507 4.793 10.507 10.613v22.172c0 5.862-4.752 10.614-10.614 10.614H78.666c-5.862 0-10.614-4.752-10.614-10.614v-22.595c0-5.904 4.817-10.673 10.721-10.613Zm138.051 11.906v21.302c0 5.862-4.752 10.614-10.614 10.614h-37.869c-5.862 0-10.614-4.752-10.614-10.614v-21.683c0-5.903 4.817-10.672 10.72-10.613l37.869.381c5.82.059 10.507 4.793 10.507 10.613h.001Zm81.597.827v20.475c0 5.862-4.752 10.614-10.614 10.614h-33.879c-5.862 0-10.614-4.752-10.614-10.614v-20.821c0-5.904 4.818-10.673 10.722-10.613l33.879.346c5.819.059 10.505 4.794 10.505 10.613h.001ZM77.926 793.602l41.955-2.932c6.138-.429 11.354 4.435 11.354 10.588v16.008a10.614 10.614 0 0 1-9.792 10.582l-41.955 3.256c-6.167.479-11.435-4.396-11.435-10.582v-16.333a10.614 10.614 0 0 1 9.874-10.588l-.001.001Zm138.898 1.689v15.331a10.614 10.614 0 0 1-9.793 10.582l-37.869 2.938c-6.167.478-11.435-4.397-11.435-10.582v-15.63c0-5.575 4.314-10.2 9.876-10.588l37.869-2.639c6.137-.428 11.351 4.436 11.351 10.588h.001Zm81.597-5.699v14.694a10.614 10.614 0 0 1-9.792 10.582l-33.879 2.63c-6.167.479-11.435-4.396-11.435-10.582v-14.961c0-5.575 4.314-10.2 9.875-10.588l33.879-2.362c6.137-.428 11.352 4.436 11.352 10.588v-.001Z" fill="#000" fill-rule="nonzero"/><ellipse fill="#000" fill-rule="nonzero" cx="96.33" cy="62.653" rx="28.277" ry="30.291"/><path d="M186.787 510.93c-23.992 0-46.08 8.762-63.611 23.46-3.93 3.295-4.292 9.215-.774 12.947l18.753 19.893c3.075 3.262 8.118 3.754 11.717 1.081 9.762-7.252 21.614-11.498 34.403-11.498 13.09 0 25.2 4.452 35.095 12.022 3.48 2.663 8.405 2.32 11.593-.686l19.36-18.249c3.771-3.554 3.742-9.592-.109-13.06-17.959-16.169-41.129-25.91-66.427-25.91Zm-56.092 73.819-19.12-20.28c-4.174-4.427-11.445-3.447-14.331 1.909-8.758 16.255-13.77 35.115-13.77 55.221 0 21.556 5.762 41.681 15.718 58.693 2.876 4.914 9.612 5.826 13.755 1.92l19.679-18.55c2.87-2.705 3.659-6.998 1.832-10.493-4.881-9.34-7.659-20.107-7.659-31.571 0-9.69 1.989-18.878 5.549-27.132 1.421-3.294.808-7.108-1.653-9.718v.001Zm133.159-17.788-19.215 18.108c-2.713 2.557-3.635 6.536-2.191 9.974 3.405 8.105 5.304 17.096 5.304 26.556 0 13.871-4.076 26.724-11.012 37.263-2.24 3.404-1.767 7.919 1.028 10.884l18.009 19.103c3.846 4.08 10.506 3.661 13.721-.933 12.939-18.482 20.603-41.44 20.603-66.317 0-18.85-4.406-36.601-12.174-52.138-2.668-5.337-9.73-6.592-14.072-2.5h-.001Zm-76.579 119.424c-11.25 0-21.773-3.288-30.788-9.015a8.893 8.893 0 0 0-10.873 1.026l-20.309 19.139c-3.943 3.716-3.707 10.099.557 13.441 17.078 13.389 38.141 21.291 60.925 21.291 19.605 0 37.939-5.846 53.551-16.004 4.627-3.01 5.346-9.511 1.56-13.528l-19.131-20.298c-2.655-2.817-6.843-3.626-10.317-1.917a56.791 56.791 0 0 1-25.174 5.864l-.001.001Z" fill="#000" fill-rule="nonzero"/><ellipse fill="#000" fill-rule="nonzero" cx="187.275" cy="621.598" rx="50.985" ry="54.618"/><ellipse fill="#000" fill-rule="nonzero" cx="267.701" cy="75.448" rx="27.265" ry="29.208"/><path d="M66.018 3.083 15.369 33.705A31.84 31.84 0 0 0 .002 60.953v796.186a31.84 31.84 0 0 0 15.236 27.168l47.194 28.845" stroke="#000" stroke-width="20" stroke-linecap="round" stroke-linejoin="round"/><path d="M324.66 58.794v801.64c0 19.71-15 36.19-34.62 38.04l-205.39 19.36c-8.05.76-15.71-1.03-22.22-4.68l-2.46-1.5-44.73-27.35A31.818 31.818 0 0 1 0 857.134V60.954c0-11.15 5.83-21.48 15.37-27.25l41.66-25.19 8.96-5.41.03-.02C71.74.614 78.18-.476 84.87.194l205.39 20.58c19.53 1.96 34.4 18.39 34.4 38.02Z" stroke="#000" stroke-width="40" stroke-linecap="round" stroke-linejoin="round"/><path d="m65.99 3.104-8.96 5.41c2.71-2.19 5.72-4.02 8.96-5.41Z" stroke="#000" stroke-width="40" stroke-linecap="round" stroke-linejoin="round"/></g></svg>