<svg xmlns="http://www.w3.org/2000/svg" viewBox="0 0 960 960"><g transform="translate(280 21)" fill="none" fill-rule="evenodd"><path d="M183.539 907.998a427.125 427.125 0 0 1-97.204-11.24 24.728 24.728 0 0 1-1.938-.54c-13.912-4.555-27.437-21.784-28.493-36.26V58.003C56.96 43.527 70.485 26.3 84.439 21.73a24.053 24.053 0 0 1 1.9-.527 427.015 427.015 0 0 1 97.045-11.205c58.327 0 118.955 12.1 180.201 35.96 13.259 5.231 25.61 21.48 26.535 34.875l-.005 756.385c-.926 13.401-13.281 29.652-26.583 34.898-61.142 23.804-121.714 35.882-179.993 35.882Z" stroke="#000" stroke-width="20" stroke-linecap="round" stroke-linejoin="round"/><path d="M355.973 106.703v208.205c0 9.748-8.051 17.57-17.795 17.288l-228.873-6.604c-9.354-.27-16.797-7.93-16.797-17.288V88.097c0-9.899 8.449-17.69 18.316-16.89l229.571 18.605c8.8.713 15.578 8.063 15.578 16.891Z" stroke="#000" stroke-width="20" stroke-linecap="round" stroke-linejoin="round"/><path d="M293.775 412.008v18.853c0 5.761 4.647 10.442 10.407 10.485l48.588.364c5.822.043 10.564-4.665 10.564-10.486V412.75c0-5.729-4.598-10.397-10.326-10.484l-48.588-.742c-5.853-.089-10.646 4.631-10.646 10.484l.001.001Zm-110.204-2.21v18.853c0 5.761 4.647 10.442 10.407 10.485l48.588.364c5.822.043 10.564-4.665 10.564-10.486V410.54c0-5.729-4.598-10.397-10.326-10.484l-48.588-.742c-5.853-.089-10.646 4.631-10.646 10.484l.001.001Zm110.204 82.487v18.854c0 5.833 4.761 10.545 10.594 10.485l48.588-.502c5.748-.059 10.377-4.736 10.377-10.485v-18.475c0-5.802-4.711-10.5-10.512-10.486l-48.588.124c-5.781.015-10.459 4.705-10.459 10.486Zm-110.204 1.81v18.854c0 5.833 4.761 10.545 10.594 10.485l48.588-.502c5.748-.059 10.377-4.736 10.377-10.485v-18.475c0-5.802-4.711-10.5-10.512-10.486l-48.588.124c-5.781.015-10.459 4.705-10.459 10.486Zm-84.559-55.559h33.412c8.296 0 13.306-9.177 8.821-16.155l-16.706-25.99c-4.127-6.422-13.514-6.422-17.641 0l-16.706 25.99c-4.486 6.978.525 16.155 8.821 16.155h-.001Zm34.085 40.052-33.674.636c-8.379.158-13.196 9.595-8.408 16.474l18.23 26.194c4.392 6.311 13.858 5.905 17.694-.759l15.444-26.83c4.068-7.067-1.133-15.869-9.286-15.715Z" fill="#000" fill-rule="nonzero"/><path d="m75.115 14.864-.057.028-4.508 2.71-53.672 32.134A34.708 34.708 0 0 0 .001 79.513v759.133a34.69 34.69 0 0 0 16.915 29.796l52.754 31.302 6.762 4.016" stroke="#000" stroke-width="20" stroke-linecap="round" stroke-linejoin="round"/><ellipse fill="#000" fill-rule="nonzero" cx="129.462" cy="622.905" rx="45.995" ry="49.271"/><ellipse fill="#000" fill-rule="nonzero" cx="232.322" cy="617.474" rx="27.845" ry="29.828"/><ellipse fill="#000" fill-rule="nonzero" cx="335.59" cy="614.469" rx="26.966" ry="28.887"/><g stroke="#000" stroke-linecap="round" stroke-linejoin="round" stroke-width="40"><path d="m400.12 80.518-.01 757.02c-.99 17.17-15.51 37.02-32.91 43.88-95.14 37.04-189.54 46.99-283.14 25.08-.91-.21-1.83-.47-2.73-.76-1.65-.54-3.29-1.21-4.9-1.98l-.01-.01-6.66-3.94-.09-.06-52.75-31.31A34.669 34.669 0 0 1 0 838.648V79.518c0-12.21 6.41-23.51 16.88-29.78l53.67-32.14.32-.2 3.91-2.34c.11-.06.23-.12.34-.19a40.89 40.89 0 0 1 6.21-2.64c.9-.29 1.83-.55 2.73-.76 93.61-21.88 188.01-11.89 283.15 25.17 17.4 6.87 31.91 26.71 32.91 43.88Z"/><path d="m74.78 15.058-3.91 2.34c1.28-.85 2.58-1.63 3.91-2.34Zm1.64 888.69c-2.28-1.1-4.51-2.42-6.66-3.94l6.66 3.94Zm-1.64-888.69.28-.17.06-.02"/></g></g></svg>