<svg xmlns="http://www.w3.org/2000/svg" viewBox="0 0 960 960"><g fill="none" fill-rule="evenodd" stroke="#000"><ellipse cx="379" cy="702.5" rx="58" ry="101.5" stroke-width="20"/><path d="M108.224 703c-25.43-8.994-40.839-40.327-46.224-94l-36.54-14.683V399.743h60.334l73.595-161.002h491.15l94.229 190.868 168.457 17.17v19.286h19.794v126.332l-10.55 1.92V695.56l-411.955 61.236-30.514-9.25C471.803 791.849 442.188 814 391.157 814c-51.03 0-77.87-41.868-80.516-125.605l-104.982-35.147c-10.23 20.681-19.555 33.934-27.972 39.76-23.73 16.42-52.864 15.862-69.463 9.992z" stroke-width="40"/><g stroke-width="20"><path d="M923.02 476.7v106.743l-425 47.033v-127.59z"/><path d="m339.121 238.74 13.288 233.888 156.76 31.13m0 255.573V626.683"/><ellipse cx="115.5" cy="609" rx="43.5" ry="84"/><path d="m210.73 644.798-51.341-17.515M488 740l-55-18m-79-251 439-28M22 418l487.169 85.758"/><ellipse cx="565" cy="561.5" rx="27" ry="31.5"/><ellipse cx="872.096" cy="533" rx="22.096" ry="26"/><path d="m243.605 238.741-58.546 213.147m608.008 61.542v54.277l-132.089 13.52V522.3l132.089-8.869zm93.34 101.355v49.659l-348.429 49.344v-58.924l348.43-40.08zM811 712c-8.007 31.333-26.837 47-56.489 47s-48.481-10.382-56.489-31.147"/><ellipse cx="379.309" cy="702.5" rx="15.309" ry="31.5"/><ellipse cx="115.955" cy="609" rx="11.955" ry="26"/></g></g></svg>