<svg viewBox="0 0 960 960" xmlns="http://www.w3.org/2000/svg"><g fill="none" fill-rule="evenodd"><g stroke="#000" stroke-width="20"><path d="m529.593 354.482 36.19 37.199H615.5v51.004l36.285 37.297-35.98 36.983v51.537h-50.021l-35.977 36.98-35.976-36.98h-50.066v-51.537l-35.98-36.983 35.98-36.983v-50.92h50.066z"/><ellipse cx="529.847" cy="480" fill="#000" rx="56.847" ry="58"/><ellipse cx="302.847" cy="185" fill="#000" rx="56.847" ry="58"/></g><path d="M442.27 1.05c31.711.362 63.458 2.693 92.572 6.303l1.006.124c4.203.52 8.576 1.051 14.603 1.776 21.533 2.591 32.657 3.95 42.342 5.24l.697.093 2.414.326.85.116c.992.135 1.982.272 2.98.411l.857.12c2.15.301 4.35.615 6.704.955 52.71 7.607 93.271 17.322 130.68 33.247 47.227 20.103 85.782 49.254 115.45 89.955 21.54 29.55 37.219 63.346 48.028 101.401 9.202 32.4 14.785 67.398 17.729 106.711.544 7.273.99 14.226 1.355 21.24l.097 1.915c1.016 20.446 1.344 41.707 1.357 73.17v4.494c-.003 4.562-.01 9.334-.024 14.343-.016 6.252-.025 10.118-.03 13.46v.927l-.001.608v.301l-.001 1.5v1.825c0 77.97-2.745 131.921-11.33 183.702-11.428 68.938-32.727 124.231-67.917 166.133-56.987 67.857-166.223 107.722-308.997 121.244-80.696 7.642-146.161 7.497-202.866-3.085l-.673-.076c-71.159-8.236-121.047-25.234-158.908-50.833l-1.155-.787c-8.395-5.752-15.98-11.762-23.572-18.487a365.285 365.285 0 0 1-8.892-8.165c-.635-.6-1.841-1.748-3.092-2.94l-.501-.478c-1.588-1.513-3.133-2.987-3.564-3.395-47.017-44.544-73.256-92.368-87.023-156.487-6.06-28.225-9.894-60.059-12.484-100.445-.08-1.244-.158-2.483-.235-3.717l-.114-1.85-.167-2.77-.109-1.847c-1.599-27.405-2.567-55.619-4.285-116.339-3.055-107.977.274-171.39 14.91-228.136C58.154 186.193 91.54 133.257 148.083 83.83c15.338-13.408 42.625-28.898 74.038-42.304 34.98-14.93 72.543-26.27 108.194-31.743l.94-.178c33.927-6.38 71.362-9.01 111.016-8.556zm-14.836 39.98-.54.004c-12.323.289-24.493.933-36.373 1.97-62.251 5.433-110.753 21.155-140.029 48.553-49.66 46.477-77.928 94.465-92.758 156.027-13.31 55.247-16.48 119.931-13.518 232.032 1.719 65.053 2.686 95.22 4.262 124.175l.161 2.925.11 1.95.113 1.95c.075 1.303.152 2.608.23 3.919 2.474 41.297 6.075 73.305 11.613 100.922 11.846 59.073 33.434 101.199 73.484 141.824 29.894 30.323 73.484 48.65 130.325 56.723a438.78 438.78 0 0 0 12.833 1.627c48.28 4.436 100.777 2.142 152.572-2.763 125.564-11.892 230.918-46.156 282.138-107.146 64.396-76.679 69.877-207.154 69.877-324.111 0-101.86 4.49-228.718-60.833-318.333-69.293-95.062-187.329-103.35-291.182-116.23-26.341-3.266-63.09-6.38-102.485-6.019zM233.327 80.264l-.693.304c-26.74 11.815-47.87 24.326-58.226 33.379-102.96 89.999-113.489 185.084-108.373 365.91 5.413 191.348 7.988 276.008 91.944 355.549 16.373 15.512 36.87 36.895 82.333 53.59a175.314 175.314 0 0 1-20.365-17.675c-42.86-43.475-66.258-89.133-78.852-151.932-5.746-28.653-9.442-61.519-11.967-103.66-.138-2.315-.272-4.612-.402-6.906l-.11-1.966-.147-2.685c-1.567-28.976-2.536-59.299-4.246-124.029-3.006-113.755.232-179.815 14.067-237.244 15.4-63.928 44.694-114.506 95.037-162.635z" fill="#000" fill-rule="nonzero"/></g></svg>