<svg viewBox="0 0 960 960" xmlns="http://www.w3.org/2000/svg"><g fill="none" fill-rule="evenodd"><path d="m298.794 23.916 466.412 35.261C857.876 66.183 933 148.417 933 242.854v475.294c0 94.435-75.124 176.67-167.794 183.675l-431.06 32.589a497.133 497.133 0 0 1-35.188 2.66l-.164.012a145.38 145.38 0 0 1-14.386.376c-2.305.025-4.649.04-7.03.04C189.313 937.5 27 838.54 27 736.724V224.278C27 122.459 175.462 23.5 277.377 23.5c2.202 0 4.383.02 6.544.058 4.898-.138 9.86-.02 14.873.358z" stroke="#000" stroke-linecap="round" stroke-linejoin="round" stroke-width="40"/><path d="m765.709 901.323-466.694 35.26C206.289 943.59 131.12 861.356 131.12 752.91V207.093c0-108.448 75.17-190.682 167.895-183.677l466.694 35.261c92.725 7.006 167.895 89.24 167.895 183.677v475.294c0 94.435-75.17 176.67-167.895 183.675z" stroke="#000" stroke-linecap="round" stroke-linejoin="round" stroke-width="20"/><path d="M252.035 147.646c8.137.244 14.734-6.073 14.734-14.11 0-8.037-6.597-14.763-14.734-15.023s-14.734 6.058-14.734 14.11 6.596 14.779 14.734 15.023zm46.165 1.387c8.138.244 14.735-6.053 14.735-14.066s-6.597-14.72-14.734-14.98c-8.138-.26-14.734 6.038-14.734 14.067 0 8.028 6.596 14.734 14.734 14.979zm46.167 1.387c8.137.244 14.734-6.034 14.734-14.023s-6.597-14.675-14.734-14.935-14.734 6.018-14.734 14.022c0 8.004 6.597 14.691 14.734 14.935zM228.46 187.786c8.138.223 14.734-6.122 14.734-14.171 0-8.05-6.596-14.768-14.734-15.006-8.137-.238-14.733 6.106-14.733 14.171s6.596 14.783 14.733 15.006zm46.412 1.271c8.137.223 14.734-6.102 14.734-14.127s-6.597-14.724-14.734-14.962c-8.137-.239-14.734 6.086-14.734 14.127 0 8.04 6.597 14.74 14.734 14.962zm46.412 1.271c8.137.223 14.734-6.082 14.734-14.083s-6.597-14.68-14.734-14.918c-8.137-.239-14.734 6.067-14.734 14.083s6.597 14.695 14.734 14.918zm46.411 1.271c8.138.223 14.734-6.063 14.734-14.04s-6.596-14.635-14.734-14.873c-8.137-.239-14.733 6.047-14.733 14.039s6.596 14.651 14.733 14.874zm-115.66 37.618c8.137.202 14.734-6.15 14.734-14.188 0-8.037-6.597-14.728-14.734-14.944S237.3 206.22 237.3 214.273c0 8.052 6.596 14.743 14.734 14.944zm46.165 1.143c8.138.2 14.735-6.132 14.735-14.145s-6.597-14.684-14.734-14.901c-8.138-.217-14.734 6.116-14.734 14.144s6.596 14.7 14.734 14.901zm46.167 1.14c8.137.202 14.734-6.11 14.734-14.1s-6.597-14.64-14.734-14.857-14.734 6.097-14.734 14.1 6.597 14.657 14.734 14.858z" fill="#000"/><path d="M534.143 363.916a5.109 5.109 0 0 1 2.68 2.679l53.77 116.664c5.615 11.576 10.504 31.896 10.504 45.271 0 38.091-30.878 68.97-68.97 68.97s-68.969-30.879-68.969-68.97c0-13.383 6.737-33.794 12.184-45.271l52.091-116.664a5.109 5.109 0 0 1 6.71-2.68z" stroke="#000" stroke-linecap="round" stroke-linejoin="round" stroke-width="20"/><path d="M532.767 452.688c.485.234.872.669 1.08 1.214l21.671 52.848c2.263 5.243 4.234 14.449 4.234 20.507 0 17.255-12.445 31.243-27.797 31.243s-27.797-13.988-27.797-31.243c0-6.062 2.716-15.308 4.91-20.507l20.995-52.848c.448-1.174 1.66-1.718 2.704-1.214z" fill="#000" stroke="#000" stroke-linecap="round" stroke-linejoin="round" stroke-width="20"/></g></svg>