<svg viewBox="0 0 960 960" xmlns="http://www.w3.org/2000/svg"><g fill="none" fill-rule="evenodd" stroke="#000"><path d="m92.18 100.742 348.812-61.788c185.93 54.238 304.083 97.583 354.46 130.035 34.897 22.48 79.538 83.172 101.268 149.793 25.324 77.639 24.927 162.326 24.927 188.485 0 6.705-4.776 17.488-14.33 32.348 23.712 254.226-75.63 381.339-298.025 381.339-222.395 0-323.283-116.68-302.664-350.04l-136.409 43.865-131.035 8.128v-381.34c1.329-41.155 5.834-70.494 13.515-88.017 7.681-17.523 20.841-35.125 39.48-52.808z" stroke-width="40"/><g stroke-width="20"><path d="M172.318 606.853c17.708-37.175 44.017-64.542 78.929-82.1 52.367-26.34 97.988 5.436 127.095 18.528 29.108 13.092 171.66 55.066 328.63 35.067 104.646-13.333 174.8-35.763 210.459-67.29"/><path d="M345.887 527.048c-26.086 30.562-41.083 67.79-44.99 111.682M86.745 99.655l317.13 126.907c84.063 35.834 185.941 46.967 305.635 33.399 119.694-13.568 146.53-44.254 80.507-92.059"/><path d="M166.72 617.451V364.86c0-108.92 24.683-176.854 74.047-203.803l358.81-61.402m-179.936 459.3c-29.413 7.549-41.577 52.241-36.492 134.076 7.627 122.753 158.176 150.986 230.459 150.986s207.508-26.114 273.313-83.19M776.478 494.989c8.951-1.903 17.567-1.501 24.236.936 4.34 1.586 8.248 3.939 9.084 7.872.836 3.932-1.777 7.671-5.097 10.885-5.101 4.94-12.809 8.81-21.76 10.713s-17.566 1.501-24.235-.936c-4.34-1.586-8.248-3.939-9.084-7.872s1.777-7.67 5.097-10.885c5.101-4.94 12.809-8.81 21.76-10.713z"/></g></g></svg>