<svg viewBox="0 0 960 960" xmlns="http://www.w3.org/2000/svg"><g fill="none" fill-rule="evenodd" stroke="#000"><g stroke-linecap="round" stroke-linejoin="round"><path d="m297.794 23.916 466.412 35.261C856.876 66.183 932 148.417 932 242.854v475.294c0 94.435-75.124 176.67-167.794 183.675l-431.06 32.589a497.133 497.133 0 0 1-35.188 2.66l-.164.012a145.38 145.38 0 0 1-14.386.376c-2.305.025-4.649.04-7.03.04C188.313 937.5 26 838.54 26 736.724V224.278C26 122.459 174.462 23.5 276.377 23.5c2.202 0 4.383.02 6.544.058 4.898-.138 9.86-.02 14.873.358z" stroke-width="40"/><path d="m765.709 901.323-466.694 35.26C206.289 943.59 131.12 861.356 131.12 752.91V207.093c0-108.448 75.17-190.682 167.895-183.677l466.694 35.261c92.725 7.006 167.895 89.24 167.895 183.677v475.294c0 94.435-75.17 176.67-167.895 183.675zM644 481.929l82 .142M640 509l80 24m-91 2 72 42m-89-18 57 58m-80-40 40 73m-68-61 19 81m-47.05-78-1.9 85M504 590l-24 82m-1-93-44 74m21-91-61 59m41-83-74 42m63-69-81 22m76-51.921-82-.158M424 451l-80-24m92-1-72-46m89 23-57-62m80 42-40-75m66 63-19-82m48.05 80 1.9-85M559 373l24-80m3 90 44-70m-20 89 61-57m-43 80 74-39m-63 64 81-19" stroke-width="20"/></g><circle cx="532.5" cy="153.5" r="27.5" stroke-width="20"/></g></svg>