<svg viewBox="0 0 960 960" xmlns="http://www.w3.org/2000/svg"><g fill="none" fill-rule="evenodd"><g fill="#000" fill-rule="nonzero"><path d="M787 741c37.191 0 72.242 4.481 98.784 12.504 13.956 4.218 25.502 9.384 34.185 15.59C931.688 777.469 939 788.27 939 801.5s-7.312 24.031-19.031 32.406c-8.683 6.206-20.23 11.372-34.185 15.59C859.242 857.519 824.191 862 787 862s-72.242-4.481-98.784-12.504c-13.956-4.218-25.502-9.384-34.185-15.59C642.312 825.531 635 814.73 635 801.5s7.312-24.031 19.031-32.406c8.683-6.206 20.23-11.372 34.185-15.59C714.758 745.481 749.809 741 787 741zm0 21c-72.35 0-131 17.909-131 40s58.65 40 131 40 131-17.909 131-40-58.65-40-131-40z"/><path d="M788 721c39.153 0 76.236 4.707 104.898 13.31 15.963 4.79 29.496 10.802 40.277 18.452 7.121 5.053 13.184 10.903 17.942 17.882 6.27 9.197 9.883 19.872 9.883 31.327v56.058c0 11.455-3.612 22.13-9.883 31.327-4.758 6.979-10.82 12.829-17.942 17.882-10.781 7.65-24.314 13.662-40.277 18.453C864.236 934.293 827.153 939 788 939s-76.236-4.707-104.898-13.31c-15.963-4.79-29.496-10.802-40.277-18.452-7.121-5.053-13.184-10.903-17.942-17.882-6.27-9.197-9.883-19.872-9.883-31.327V801.97c0-.373.005-.746.015-1.119l.018-.652c.01-.373.025-.746.045-1.119.602-11.135 4.572-21.33 10.965-30.08 4.839-6.623 10.875-12.194 17.907-17.024 10.78-7.406 24.233-13.26 40.035-17.93C712.523 725.61 749.25 721 788 721zm-.5 42c-71.9 0-130.321 17.316-131.482 38.809l-.018.653v56.076C656 880.332 714.875 898 787.5 898S919 880.332 919 858.538v-56.076C919 780.668 860.125 763 787.5 763zM349.816.042c26.585.304 53.201 2.256 77.609 5.282 3.79.47 7.63.936 13.086 1.592 18.546 2.231 27.882 3.371 36.161 4.48l.652.087 1.294.175.713.097 2.498.345.718.1c1.803.253 3.648.516 5.621.8 44.19 6.376 78.195 14.517 109.559 27.862 39.593 16.847 71.916 41.275 96.79 75.383 18.057 24.763 31.202 53.084 40.264 84.974 7.715 27.152 12.396 56.48 14.864 89.425.477 6.371.865 12.45 1.177 18.6l.08 1.607c.82 16.89 1.087 34.559 1.098 60.514v3.765c-.002 3.823-.01 7.822-.02 12.02-.013 4.878-.02 8.022-.024 10.693v.586l-.001.52v.257l-.001.51v.252l-.001 1.257v1.53c0 65.338-2.302 110.55-9.498 153.942-9.581 57.771-27.438 104.107-56.94 139.22-47.777 56.865-139.357 90.272-259.055 101.603-67.653 6.405-122.537 6.283-170.077-2.585l-.564-.064c-59.658-6.9-101.483-21.146-133.224-42.598l-.969-.659c-7.038-4.82-13.396-9.856-19.762-15.492a306.196 306.196 0 0 1-7.454-6.842c-.532-.503-1.544-1.466-2.593-2.465l-.42-.4a2403.43 2403.43 0 0 0-2.987-2.845c-39.418-37.328-61.416-77.405-72.958-131.137-5.081-23.652-8.295-50.33-10.467-84.173-.1-1.564-.197-3.117-.292-4.666l-.094-1.547-.046-.774-.091-1.547-.045-.775-.089-1.551C3.066 475.135 2.261 451.402.87 402.233c-2.56-90.485.23-143.626 12.5-191.18 14.414-55.86 42.404-100.221 89.808-141.64 12.86-11.236 35.736-24.216 62.071-35.451 29.327-12.51 60.819-22.015 90.708-26.601l.787-.15c28.444-5.346 59.829-7.55 93.073-7.17zm-41.694 35.511c-52.19 4.551-92.853 17.72-117.397 40.67-41.634 38.932-65.332 79.13-77.766 130.697-11.158 46.277-13.816 100.46-11.333 194.36 1.441 54.492 2.252 79.76 3.573 104.015l.136 2.45c.03.544.06 1.089.092 1.633l.094 1.635c.063 1.09.128 2.184.194 3.282 2.074 34.592 5.092 61.404 9.735 84.537 9.932 49.482 28.03 84.77 61.607 118.799 25.062 25.4 61.607 40.751 109.261 47.514A374.94 374.94 0 0 0 301.741 767c38.706 2.975 80.396 1.045 121.557-2.852 105.27-9.965 193.595-38.679 236.536-89.788 53.988-64.257 58.584-173.596 58.584-271.607 0-85.36 3.764-191.666-51.001-266.765-58.093-79.661-157.051-86.607-244.119-97.4a681.644 681.644 0 0 0-59.998-4.715c-18.732-.377-37.346.124-55.178 1.68zm-129.7 29.233-.01.006C153.943 75.23 134.484 86.58 125.248 94.65 38.929 170.07 30.102 249.752 34.39 401.285c4.538 160.35 6.696 231.296 77.083 297.952 14.103 13.355 31.855 31.903 72.206 46.05-6.676-4.83-12.867-10.122-18.563-15.895-35.933-36.417-55.549-74.662-66.107-127.266-4.817-24-7.917-51.53-10.033-86.83-.116-1.94-.228-3.863-.337-5.785l-.092-1.646-.042-.75-.082-1.5-.12-2.256-.079-1.51c-1.2-23.2-2-48.7-3.36-100.126-2.52-95.287.195-150.622 11.793-198.727 13.123-54.426 38.278-97.3 81.763-138.21z"/></g><path d="M419.985 284.416a5.109 5.109 0 0 1 2.68 2.679l53.77 116.664c5.615 11.576 10.504 31.896 10.504 45.271 0 38.091-30.879 68.97-68.97 68.97S349 487.121 349 449.03c0-13.383 6.737-33.794 12.183-45.271l52.092-116.664a5.109 5.109 0 0 1 6.71-2.68z" stroke="#000" stroke-linecap="round" stroke-linejoin="round" stroke-width="20"/><path d="M418.609 373.188c.485.234.872.669 1.08 1.214l21.67 52.848c2.264 5.243 4.235 14.449 4.235 20.507 0 17.255-12.446 31.243-27.797 31.243C402.445 479 390 465.012 390 447.757c0-6.062 2.715-15.308 4.91-20.507l20.995-52.848c.448-1.174 1.659-1.718 2.704-1.214z" fill="#000" stroke="#000" stroke-linecap="round" stroke-linejoin="round" stroke-width="20"/><path d="M722.233 561.051c80.27-8.241 133.538 4.306 159.803 37.644S881.39 679.467 801.301 741" stroke="#000" stroke-width="20"/></g></svg>