<svg viewBox="0 0 960 960" xmlns="http://www.w3.org/2000/svg"><g fill="none" fill-rule="evenodd" stroke="#000"><path d="M693 199h36v48h-36zm0 82h36v48h-36zm0 84h36v48h-36z" stroke-width="20"/><path d="M693 199h36v48h-36z" fill="#000" stroke-width="20"/><path d="m144.906 898.49 132.361 36.47 490.64-44.038V48.109l-490.64-7.148-132.36 17.96z" stroke-width="40"/><path d="M280 41v894m115-736h260v96H395zM339.89 41v507.945m0-111.405h59.434c20.748-5.214 31.121-21.487 31.121-48.817s-10.373-43.603-31.12-48.817H339.89m428.016 263.742-168.765 9.712v298.355M144.906 400.531l71.703 7.387m-71.703 92.613 71.703 7.387m-71.703 88.613 71.703 7.387m205.608-371.766L605 232" stroke-width="20"/></g></svg>