<svg viewBox="0 0 960 960" xmlns="http://www.w3.org/2000/svg"><g fill="none" fill-rule="evenodd" stroke="#000"><path d="M138.74 112.518V34.87c27.019-8.876 59.888-13.314 98.608-13.314 38.72 0 70.253 4.438 94.598 13.314v52.808l286.716 17.105V67.037c25.62-4.699 51.24-7.048 76.86-7.048 25.62 0 51.239 2.35 76.859 7.048v45.48c35.108 1.073 56.278 6.986 63.509 17.74s10.591 33.067 10.08 66.94v607.25c0 76.841-24.02 82.816-46.282 86.285-83.642 13.037-433.198 47.763-473.57 47.763s-98.095 1.778-141.905-13.93c-43.811-15.709-85.645-27.82-85.645-70.928 0-28.738 1.763-256.951 5.29-684.639-.065-22.755 2.013-37.55 6.234-44.386s13.77-10.867 28.648-12.094z" stroke-width="40"/><g stroke-width="20"><path d="M108.328 132.883s46.803-12.9 104.169-23.27c45.812-8.281 100.255-11.234 141.08-11.234m233.64 14.168s172.465 11.846 209.447 11.846M98.568 496.182c5.125 0-6.853 16.127 171.873 16.127 119.151 0 311.011-3.612 575.58-10.836"/><path d="M283.952 98.156c-2.667 6.74-4 143.361-4 409.861s1.333 409.88 4 430.14M416 167.536l60.043 2.765L805 185.498v266.625l-322.668 3.99-66.331.821zm-.23.074c-31.988-.603-47.982.703-47.982 3.92v275.737c-.18 6.578 1.041 9.867 3.66 9.867s16.966-.114 43.038-.341"/><path d="m460.9 214.405 300.214 8.532a3.993 3.993 0 0 1 2.754 1.21 3.988 3.988 0 0 1 1.132 2.789V406c0 1.105-.448 2.105-1.172 2.828S762.105 410 761 410H461c-1.105 0-2.105-.448-2.828-1.172S457 407.105 457 406V218.404c0-1.105.448-2.105 1.172-2.829a3.987 3.987 0 0 1 2.729-1.17z"/></g><path d="m456.5 319.506 309 3.939V367.5h-309z" fill="#000"/><path d="m477.217 279.152 155.459 2.914m-155.459-33.914 155.459 2.914" stroke-width="20"/></g></svg>