<svg xmlns="http://www.w3.org/2000/svg" viewBox="0 0 960 960"><g fill="none"><path d="M264.282 28.11c9.077-5.237 22.363-7.198 37.674-6.56l268.375 11.184c14.868.62 27.737 2.482 36.375 7.405 6.022 3.433 10.667 8.103 13.854 14.202 2.565 4.91 4.251 10.924 4.251 18.505V883.78c0 16.48-7.073 26.672-17.696 33.442-8.877 5.657-21.849 8.421-36.784 9.044L301.956 937.45c-15.404.642-29.14-4.31-39.04-12.7-10.526-8.917-17.105-21.744-17.105-37.203V61.902c0-7.753 1.7-13.977 4.315-19.066 3.262-6.346 8.034-11.196 14.156-14.727Z" stroke="#000" stroke-width="40" stroke-linejoin="round"/><path d="M315.363 36.786c6.919-4.324 17.04-5.786 28.596-5.275l231.165 11.364c11.354.5 21.293 2.387 28.047 6.862 6.99 4.632 11.64 11.658 11.64 23.109v812.483c0 11.365-4.61 18.608-11.626 23.45-6.803 4.693-16.747 6.85-28.087 7.347L343.932 926.28c-11.204.492-21.325-3.63-28.659-10.62-7.349-7.004-11.932-16.915-11.932-28.107V60.343c0-11.988 4.894-19.102 12.022-23.557Z" stroke="#000" stroke-width="20" stroke-linecap="round" stroke-linejoin="round"/><path d="m419.807 60.15 81.86 3.466c8.384.355 15.013 7.23 15.063 15.623.047 8.021-6.417 14.562-14.438 14.609-.153 0-.305 0-.458-.005l-82.018-2.103c-8.86-.227-15.923-7.474-15.923-16.336 0-8.432 6.836-15.267 15.268-15.267.215 0 .43.004.646.013Z" fill="#000" fill-rule="evenodd"/></g></svg>