<svg xmlns="http://www.w3.org/2000/svg" viewBox="0 0 960 960"><path d="M481 1c123.085 0 239.097 31.128 326.583 86.39 91.212 57.615 146.101 138.194 148.346 226.983l.01.502.035 2.758.026.732v155.32l-.062 4.38-.012.57C953.598 560.36 897.703 633.18 805.78 684.71 718.676 733.539 603.352 761 481 761c-122.352 0-237.676-27.461-324.78-76.29C64.297 633.182 8.402 560.36 6.074 478.635a40 40 0 0 1-.012-.57L6 473.97V319.1l.03-2.889c1.503-88.744 55.63-169.514 146.288-227.488C240.017 32.643 356.908 1 481 1zm0 234C245.547 235 56 343.063 56 473s189.547 238 425 238 425-108.063 425-238-189.547-238-425-238zm0 67c187.596 0 341 87.13 341 198S668.596 698 481 698s-341-87.13-341-198 153.404-198 341-198zm0 20c-178.016 0-321 81.211-321 178s142.984 178 321 178 321-81.211 321-178-142.984-178-321-178zm.5 43C627.4 365 747 433.11 747 520.5S627.4 676 481.5 676 216 607.89 216 520.5 335.6 365 481.5 365zm-.5 42c-133.043 0-239.845 59.433-241.968 129.862l-.029 1.916L239 539c0 .626-.057 1.238-.167 1.832C256.759 604.96 357.99 656 481.5 656c122.385 0 222.898-50.115 242.166-113.42a9.82 9.82 0 0 1-.662-3.3L723 539c0-71.36-107.613-132-242-132zm0-366C241.223 41 46.757 165.426 46 319.1l-.005 98.912C89.297 301.027 268.145 215 481 215c212.858 0 391.706 86.029 435.006 203.015L916 319.1l-.011.002-.047-3.718C912.1 163.426 718.842 41 481 41zm26.625 208c13.807 0 25 11.193 25 25s-11.193 25-25 25h-56.25c-13.807 0-25-11.193-25-25s11.193-25 25-25zm-9 20h-47.25a5 5 0 1 0 0 10h47.87a7.847 7.847 0 0 1-2.12-5.375 7.84 7.84 0 0 1 1.5-4.625z"/></svg>