<svg xmlns="http://www.w3.org/2000/svg" viewBox="0 0 960 960"><g fill="none" fill-rule="evenodd"><path d="m100.89 21 .001.001.34.006c.136.004.272.008.408.014l798.722 34.247C913.969 55.85 925 66.7 925 79.499v751.27c0 12.8-11.031 24.313-24.64 25.717L102.2 938.82c-.33.12-.656.18-.98.18-.312 0-.621-.008-.925-.024-.227.011-.452.018-.677.021l-.399.003c-4.87-.014-9.326-1.611-12.948-4.382-43.954-18.342-50.465-33.866-51.191-46.433l-1.08-.717V57.443l1.443-.452c1.134-11.386 5.114-22.055 18.87-25.465 11.05-2.739 23.392-5.573 37.024-8.502a22.301 22.301 0 0 1 9.489-2.023h.06z" stroke="#000" stroke-linecap="round" stroke-linejoin="round" stroke-width="40"/><path d="m108.92 33.026 778.595 33.38c13.265.568 24.019 11.142 24.019 23.617v732.24c0 12.476-10.754 23.698-24.019 25.066L108.92 927.635c-13.264 1.368-24.018-9.206-24.018-23.618V58.092c0-14.412 10.754-25.635 24.018-25.066z" stroke="#000" stroke-linecap="round" stroke-linejoin="round" stroke-width="20"/><path d="m498.527 527.053 40.783-3.565v127.004l-40.783 4.478zm60.953-201.134 35.669-20.949 63.27 105.711-35.67 21.433zm-115.625-13.667 35.318 18.295-65.252 115.787-35.318-17.839z" fill="#000"/></g></svg>