<svg viewBox="0 0 960 960" xmlns="http://www.w3.org/2000/svg"><g fill="none" fill-rule="evenodd" stroke="#000" stroke-linecap="round" stroke-linejoin="round"><path d="m144.454 172.078 43.193-22.096v121.9l34.21-10.535v117.257h42.119v136.654l51.769 10.957v174.977l65.282 38.781v193.632l434.126-68.844V682.294l-118.224-26.827-5.179-147.224-6.374-5.08-86.84-11.313-4.856-137.133-51.027 3.888-5.287-110.356h-52.89V138.105l-48.874 1.776V68.664l-291.148-23.06z" stroke-width="40"/><path d="m191 140 294 13m-259.185 97.228 289.518 8.88M270.339 369.232 587 369M323.771 518.908 686 508M324 689l370-25m-308.014 64.052 424.193-34.674" stroke-width="20"/><path d="M144.454 45.605 70.83 91.4m310.197 842.205-110.688-79.23L70.829 91.4" stroke-width="40"/></g></svg>