<svg xmlns="http://www.w3.org/2000/svg" viewBox="0 0 960 960"><g transform="translate(21 54)" fill="none" fill-rule="evenodd"><path d="M150.742 841.291a338.314 338.314 0 0 1-56.714-4.8c-19.133-3.265-33.02-19.829-33.02-39.389v-742.8c0-19.52 13.857-36.079 32.95-39.376a338.462 338.462 0 0 1 57.458-4.928c40.636 0 82.565 7.436 124.624 22.098 16.174 5.64 27.041 20.848 27.042 37.845l.015 711.178c0 16.972-10.848 32.174-26.992 37.83-42.327 14.825-84.506 22.342-125.363 22.342Z" stroke="#000" stroke-width="20" stroke-linecap="round" stroke-linejoin="round"/><ellipse fill="#000" fill-rule="nonzero" cx="248.19" cy="89.18" rx="24.024" ry="25.736"/><ellipse fill="#000" fill-rule="nonzero" cx="257.762" cy="168.908" rx="24.024" ry="25.736"/><ellipse fill="#000" fill-rule="nonzero" cx="189.715" cy="166.387" rx="24.024" ry="25.736"/><ellipse fill="#000" fill-rule="nonzero" cx="189.715" cy="245.372" rx="24.024" ry="25.736"/><ellipse fill="#000" fill-rule="nonzero" cx="189.715" cy="720.811" rx="24.024" ry="25.736"/><ellipse fill="#000" fill-rule="nonzero" cx="121.669" cy="165.597" rx="24.024" ry="25.736"/><ellipse fill="#000" fill-rule="nonzero" cx="257.762" cy="249.449" rx="24.024" ry="25.736"/><ellipse fill="#000" fill-rule="nonzero" cx="121.669" cy="244.056" rx="24.024" ry="25.736"/><ellipse fill="#000" fill-rule="nonzero" cx="121.669" cy="724.723" rx="24.024" ry="25.736"/><ellipse fill="#000" fill-rule="nonzero" cx="257.762" cy="717.246" rx="24.024" ry="25.736"/><path d="M94.405 544.522V651.73c0 16.404 13.374 29.661 29.777 29.518h.059c13.671-.12 24.691-11.238 24.691-24.91V539.913c0-13.548-10.828-24.612-24.373-24.903-16.547-.356-30.153 12.96-30.153 29.511l-.001.001Zm136.528-1.732V643.7c0 15.44 13.161 27.918 29.303 27.783h.058c13.454-.114 24.298-10.578 24.298-23.446V538.452c0-12.752-10.656-23.166-23.985-23.44-16.284-.335-29.673 12.2-29.673 27.778h-.001Z" fill="#000" fill-rule="nonzero"/><path d="m75.355 11.321-51.893 32.05A49.441 49.441 0 0 0 0 85.434v680.547a49.44 49.44 0 0 0 23.68 42.2l52.54 32.073m464.458-54.919c-40.371 0-73.215-37.231-73.215-82.995V358.325c0-45.762 32.877-82.99 73.288-82.99.599 0 1.193.008 1.796.024l293.882 7.965c19.25.522 37.26 9.399 50.712 24.99 13.452 15.593 20.86 36.183 20.86 57.977v309.548c0 20.931-6.91 40.927-19.457 56.304-12.548 15.378-29.611 24.761-48.047 26.424l-293.882 26.5a66.5 66.5 0 0 1-5.938.268h.001Z" stroke="#000" stroke-width="20" stroke-linecap="round" stroke-linejoin="round"/><path d="m518.501 275.39-67.161 6.906c-37.806 3.947-66.839 42.313-66.839 88.33v308.31c0 38.154 20.13 72.028 49.975 84.1l72.57 29.354" stroke="#000" stroke-width="20" stroke-linecap="round" stroke-linejoin="round"/><path stroke="#000" stroke-width="40" stroke-linecap="round" stroke-linejoin="round" d="m76.221 840.255-5.79-3.53m242.67-55.61c0 21.33-13.56 40.22-33.69 47.271-62.62 21.94-124.98 28.55-187.06 17.96a49.203 49.203 0 0 1-21.92-9.62l-.02-.02-46.73-28.52a49.442 49.442 0 0 1-23.68-42.2V85.436a49.46 49.46 0 0 1 23.46-42.07l50.4-31.12 1.49-.92a49.388 49.388 0 0 1 16.91-6.25c62.09-10.73 124.45-4.25 187.07 17.58 20.16 7.03 33.75 25.94 33.75 47.29l.02 711.17Zm604.9-405.935v302.206c0 48.02-33.39 87.973-76.71 91.785l-293.88 25.866a75.693 75.693 0 0 1-28.86-3.016l-8.21-3.028-.03-.01-71.07-26.198c-32.69-12.055-54.74-45.865-54.74-83.94v-307.72c0-45.931 31.8-84.216 73.22-88.16l70.91-6.641a74.02 74.02 0 0 1 14.15-.962l293.89 7.779c45.23 1.193 81.33 42.053 81.33 92.04h0Zm-399.45 417.155c-2.8-.77-5.53-1.69-8.21-2.74l8.21 2.74Zm.19.06-.19-.06"/><path d="M186.959 314.05c-19.612 0-37.667 7.163-51.997 19.177-3.213 2.694-3.508 7.533-.633 10.583l15.329 16.261c2.514 2.667 6.636 3.07 9.578.883 7.98-5.928 17.668-9.399 28.122-9.399 10.7 0 20.599 3.64 28.688 9.827 2.845 2.177 6.87 1.896 9.477-.56l15.825-14.918c3.082-2.906 3.059-7.84-.089-10.675-14.68-13.217-33.62-21.18-54.299-21.18l-.001.001Zm-45.851 60.341-15.629-16.578c-3.412-3.619-9.356-2.817-11.714 1.561-7.159 13.288-11.256 28.704-11.256 45.14 0 17.62 4.71 34.07 12.848 47.976 2.351 4.017 7.857 4.762 11.244 1.57l16.086-15.163c2.346-2.21 2.991-5.72 1.498-8.577-3.99-7.635-6.261-16.436-6.261-25.807 0-7.92 1.626-15.432 4.536-22.178 1.161-2.692.66-5.81-1.351-7.944h-.001Zm108.847-14.54-15.707 14.801c-2.218 2.09-2.971 5.343-1.791 8.153 2.783 6.626 4.335 13.975 4.335 21.708 0 11.34-3.332 21.845-9.001 30.46-1.831 2.782-1.445 6.473.84 8.897l14.721 15.615c3.144 3.335 8.588 2.992 11.216-.762 10.576-15.107 16.841-33.874 16.841-54.209 0-15.408-3.601-29.919-9.951-42.619-2.181-4.363-7.953-5.389-11.503-2.044Zm-62.598 97.62c-9.196 0-17.797-2.689-25.167-7.37a7.27 7.27 0 0 0-8.888.84l-16.601 15.644c-3.223 3.037-3.03 8.255.455 10.987 13.96 10.945 31.177 17.404 49.802 17.404 16.026 0 31.012-4.778 43.774-13.082 3.782-2.46 4.37-7.775 1.275-11.058l-15.639-16.592c-2.171-2.303-5.594-2.964-8.433-1.567a46.434 46.434 0 0 1-20.578 4.793Z" fill="#000" fill-rule="nonzero"/><ellipse fill="#000" fill-rule="nonzero" cx="187.358" cy="404.513" rx="41.676" ry="44.646"/></g></svg>