<svg xmlns="http://www.w3.org/2000/svg" viewBox="0 0 960 960"><g fill="none" fill-rule="evenodd" stroke="#000"><ellipse cx="379" cy="702.5" rx="58" ry="101.5" stroke-width="20"/><path d="M80.99 693c-18.148-2.716-36.7-12.847-47.723-39.018-4.138-9.823-7.893-29.71-11.267-59.665l3.46-190.815L70.9 238.74h579.64l94.229 190.868 168.457 17.17v19.286h19.794v126.332l-10.55 1.92V695.56l-411.955 61.236-30.515-9.25c-5.696 44.01-36.787 66.014-93.275 66.014-56.487 0-81.848-41.722-76.084-125.165l-149.727-46.752c-10.968 40.571-37.61 57.69-79.923 51.357z" stroke-width="40"/><g stroke-width="20"><path d="M923.02 476.7v106.743l-425 47.033v-127.59z"/><path d="m339.121 238.74 13.288 233.888 156.76 31.13m0 255.573V626.683"/><ellipse cx="77.5" cy="604" rx="43.5" ry="80"/><path d="m175.73 635.798-51.341-17.515M488 740l-55-18m-79-251 439-28M22 418.364l487.169 85.394m283.898 9.672v54.277l-132.089 13.52V522.3l132.089-8.869zm93.34 101.355v49.659l-348.429 49.344v-58.924l348.43-40.08zM811 712c-8.007 31.333-26.837 47-56.489 47s-48.481-10.382-56.489-31.147"/><ellipse cx="380.309" cy="703" rx="21.103" ry="41"/><ellipse cx="77.955" cy="600.5" rx="14.09" ry="29.5"/><path d="m216.106 238.741-53.445 213.094m467.48 72.195v61.697L524.978 597.19v-65.831l105.163-7.327zm265.721-17.348v50.612l-71.884 7.898v-53.171z"/></g></g></svg>