<svg xmlns="http://www.w3.org/2000/svg" viewBox="0 0 960 960"><g fill="none" fill-rule="evenodd" stroke="#000"><path d="m101.89 21 .001.001.34.006c.136.004.272.008.408.014l798.722 34.247C914.969 55.85 926 66.7 926 79.499v751.27c0 12.8-11.031 24.313-24.64 25.717L103.2 938.82c-.33.12-.656.18-.98.18-.312 0-.621-.008-.925-.024-.227.011-.452.018-.677.021l-.399.003c-4.87-.014-9.326-1.611-12.948-4.382-43.954-18.342-50.465-33.866-51.191-46.433l-1.08-.717V57.443l1.443-.452c1.134-11.386 5.114-22.055 18.87-25.465 11.05-2.739 23.392-5.573 37.024-8.502a22.301 22.301 0 0 1 9.489-2.023h.06z" stroke-linecap="round" stroke-linejoin="round" stroke-width="40"/><g stroke-width="20"><path d="m109.92 33.026 778.595 33.38c13.265.568 24.019 11.142 24.019 23.617v732.24c0 12.476-10.754 23.698-24.019 25.066L109.92 927.635c-13.264 1.368-24.018-9.206-24.018-23.618V58.092c0-14.412 10.754-25.635 24.018-25.066z" stroke-linecap="round" stroke-linejoin="round"/><path d="M218.309 265.358v428.955c0 10.493 8.507 19 19 19a19 19 0 0 0 1.082-.031l174-9.921c10.057-.574 17.918-8.896 17.918-18.97V326.708l7.235-42.119h-7.235v-10.903c0-10.14-7.963-18.493-18.092-18.978l-174-8.328c-10.481-.503-19.385 7.587-19.886 18.07a19 19 0 0 0-.022.907z" stroke-linecap="round" stroke-linejoin="round"/><path d="m279.881 277.454 157.722 7.06L403 477.888V677l-156.757 8.276V480.164z"/><path d="m283.252 277.6-36.784-1.114v203"/><path d="M561 276.925v401.968c0 10.494 8.507 19 19 19a19 19 0 0 0 1.074-.03l163.137-9.24c10.06-.57 17.925-8.893 17.925-18.97V333.601L769 293.908h-6.864v-9.226c0-10.143-7.966-18.497-18.097-18.979l-163.137-7.757c-10.481-.498-19.382 7.595-19.88 18.076a19 19 0 0 0-.022.903z" stroke-linecap="round" stroke-linejoin="round"/><path d="m620.778 287.384 148.356 6.604-32.674 181.607v187.123L589 670.461V477.847z"/><path d="M623 288.047 588 287v191"/></g><g transform="translate(301 116)"><ellipse cx="32.5" cy="39" rx="22.5" ry="29" stroke-width="20"/><path d="m43.583 8.567-23 61" stroke-width="10"/></g><g transform="translate(301.646 766)"><ellipse cx="32.5" cy="39" rx="22.5" ry="29" stroke-width="20"/><path d="m43.583 8.567-23 61" stroke-width="10"/></g><g transform="translate(642 734)"><ellipse cx="29.5" cy="35.5" rx="19.5" ry="25.5" stroke-width="20"/><path d="M39.79 8.391 18.706 63.488" stroke-width="10"/></g><g transform="translate(641 138)"><ellipse cx="29.5" cy="35.5" rx="19.5" ry="25.5" stroke-width="20"/><path d="M39.79 8.391 18.706 63.488" stroke-width="10"/></g></g></svg>