<svg xmlns="http://www.w3.org/2000/svg" viewBox="0 0 960 960"><g fill="none" fill-rule="evenodd" stroke="#000"><path d="m101.89 21 .001.001.34.006c.136.004.272.008.408.014l798.722 34.247C914.969 55.85 926 66.7 926 79.499v751.27c0 12.8-11.031 24.313-24.64 25.717L103.2 938.82c-.33.12-.656.18-.98.18-.312 0-.621-.008-.925-.024-.227.011-.452.018-.677.021l-.399.003c-4.87-.014-9.326-1.611-12.948-4.382-43.954-18.342-50.465-33.866-51.191-46.433l-1.08-.717V57.443l1.443-.452c1.134-11.386 5.114-22.055 18.87-25.465 11.05-2.739 23.392-5.573 37.024-8.502a22.301 22.301 0 0 1 9.489-2.023h.06z" stroke-linecap="round" stroke-linejoin="round" stroke-width="40"/><g stroke-width="20"><path d="m109.92 33.026 778.595 33.38c13.265.568 24.019 11.142 24.019 23.617v732.24c0 12.476-10.754 23.698-24.019 25.066L109.92 927.635c-13.264 1.368-24.018-9.206-24.018-23.618V58.092c0-14.412 10.754-25.635 24.018-25.066z" stroke-linecap="round" stroke-linejoin="round"/><path d="M228.537 423.524h41.43c6.065 13.208 9.95 23.193 11.652 29.957 1.702 6.765 2.923 17.061 3.662 30.89l63.405 54.587-11.47 47.499H288.61l-60.074-47.499V423.524z"/><path d="M348.686 538.958h-48.634l-11.44 47.499"/><path d="M228.537 423.524c5.628 16.292 9.275 28.098 10.938 35.417 1.664 7.32 2.857 16.799 3.578 28.44l56.999 51.577"/><path d="M300 578.457H195v-195h105l.052 115.195-.052-14.095m172.054-67.491h39.598c5.797 12.623 9.51 22.167 11.136 28.632 1.628 6.465 2.794 16.307 3.5 29.524l60.602 52.173-10.963 45.399h-46.455l-57.418-45.399v-110.33z"/><path d="M586.89 527.395h-46.483l-10.935 45.399m-57.418-155.728c5.38 15.571 8.864 26.855 10.455 33.85 1.59 6.996 2.73 16.056 3.42 27.182l54.478 49.297"/><path d="M540.357 565.148H440V378.77h100.357l.05 110.102-.05-13.472m167.873 48.54h37.343c5.466-11.905 8.967-20.905 10.502-27.002 1.534-6.097 2.634-15.378 3.3-27.843l57.151-49.202-10.339-42.814h-43.81l-54.147 42.814z"/><path d="M708.23 523.94c5.072-14.685 8.359-25.326 9.858-31.923 1.5-6.597 2.575-15.142 3.225-25.634l51.377-46.49"/><path d="M772.643 384.29H678v175.765h94.643l.047-103.833-.047 12.705"/><path d="M816.526 417.893H772.69l-10.312-42.814"/></g><g transform="translate(226 139)"><ellipse cx="32.5" cy="39" rx="22.5" ry="29" stroke-width="20"/><path d="m43.583 8.567-23 61" stroke-width="10"/></g><g transform="translate(223.646 738)"><ellipse cx="32.5" cy="39" rx="22.5" ry="29" stroke-width="20"/><path d="m43.583 8.567-23 61" stroke-width="10"/></g><g transform="translate(470 151)"><ellipse cx="31.5" cy="38" rx="21.5" ry="28" stroke-width="20"/><path d="M41.78 8.419 19.738 67.452" stroke-width="10"/></g><g transform="translate(468 720)"><ellipse cx="31.5" cy="38" rx="21.5" ry="28" stroke-width="20"/><path d="M41.78 8.419 19.738 67.452" stroke-width="10"/></g><g transform="translate(712 160)"><ellipse cx="30.5" cy="37" rx="20.5" ry="27" stroke-width="20"/><path d="M40.79 8.405 19.706 65.47" stroke-width="10"/></g><g transform="translate(710 701)"><ellipse cx="30.5" cy="37" rx="20.5" ry="27" stroke-width="20"/><path d="M40.79 8.405 19.706 65.47" stroke-width="10"/></g></g></svg>