<svg xmlns="http://www.w3.org/2000/svg" viewBox="0 0 960 960"><g fill="none" fill-rule="evenodd"><path d="m291.162.424.356.08.498-.014a51.336 51.336 0 0 1 4.087.087l.819.057 412 31.776C735.488 34.459 756 56.614 756 83.259v790.13c0 26.718-20.62 48.907-47.265 50.863l-412 30.251a51 51 0 0 1-5.545.106l-.15-.008-.348.07a19.857 19.857 0 0 1-9.045-.4l-.384-.112-42.32-12.672c-20.738-6.21-34.943-25.293-34.943-46.94V60.103c0-21.786 14.384-40.956 35.302-47.046L281.409.798a19.872 19.872 0 0 1 9.753-.374zm-18.369 59.85a21 21 0 0 0-.059 1.579v831.27c0 11.597 9.402 21 21 21a21 21 0 0 0 1.504-.055l267.149-19.179 143.419-10.53A11 11 0 0 0 716 873.39V83.26a11 11 0 0 0-10.154-10.967L459.81 53.315 295.313 40.912c-11.565-.872-21.648 7.797-22.52 19.362zm-18.415-9.945-3.894 1.134A9.01 9.01 0 0 0 244 59.832v834.714a9 9 0 0 0 6.418 8.622l3.866 1.158a41.029 41.029 0 0 1-1.55-11.204V61.852a41.168 41.168 0 0 1 1.644-11.524z" fill="#000" fill-rule="nonzero"/><g stroke="#000"><g stroke-width="20"><path d="M403.308 263.358v428.955c0 10.493 8.507 19 19 19a19 19 0 0 0 1.082-.031l174-9.921c10.057-.574 17.918-8.896 17.918-18.97V324.708l7.235-42.119h-7.235v-10.903c0-10.14-7.963-18.493-18.092-18.978l-174-8.328c-10.481-.503-19.385 7.587-19.886 18.07a19 19 0 0 0-.022.907z" stroke-linecap="round" stroke-linejoin="round"/><path d="m464.88 275.454 157.722 7.06-34.603 193.374V675l-156.757 8.276V478.164z"/><path d="m468.251 275.6-36.784-1.114v203"/></g><g transform="translate(480 116)"><ellipse cx="32.5" cy="39" rx="22.5" ry="29" stroke-width="20"/><path d="m43.583 8.567-23 61" stroke-width="10"/></g><g transform="translate(480.646 766)"><ellipse cx="32.5" cy="39" rx="22.5" ry="29" stroke-width="20"/><path d="m43.583 8.567-23 61" stroke-width="10"/></g></g></g></svg>