<svg xmlns="http://www.w3.org/2000/svg" viewBox="0 0 960 960"><g fill="none" fill-rule="evenodd"><path d="m291.162 5.424.356.08.498-.014a51.336 51.336 0 0 1 4.087.087l.819.057 412 31.776C735.488 39.459 756 61.614 756 88.259v790.13c0 26.718-20.62 48.907-47.265 50.863l-412 30.251a51 51 0 0 1-5.545.106l-.15-.008-.348.07a19.857 19.857 0 0 1-9.045-.4l-.384-.112-42.32-12.672c-20.738-6.21-34.943-25.293-34.943-46.94V65.103c0-21.786 14.384-40.956 35.302-47.046l42.107-12.26a19.872 19.872 0 0 1 9.753-.374zm-18.369 59.85a21 21 0 0 0-.059 1.579v831.27c0 11.597 9.402 21 21 21a21 21 0 0 0 1.504-.055l267.149-19.179 143.419-10.53A11 11 0 0 0 716 878.39V88.26a11 11 0 0 0-10.154-10.967L459.81 58.315 295.313 45.912c-11.565-.872-21.648 7.797-22.52 19.362zm-18.415-9.945-3.894 1.134A9.01 9.01 0 0 0 244 64.832v834.714a9 9 0 0 0 6.418 8.622l3.866 1.158a41.029 41.029 0 0 1-1.55-11.204V66.852a41.168 41.168 0 0 1 1.644-11.524z" fill="#000" fill-rule="nonzero"/><g stroke="#000" stroke-width="20"><path d="M497 401.302c.376 0 .752.003 1.128.01l6.472.105c18.623.304 35.444 7.972 47.682 20.22 12.238 12.247 19.892 29.074 20.182 47.698l.319 20.518c.294 18.94-7.073 36.226-19.248 48.892-12.176 12.665-29.159 20.709-48.095 21.162l-6.79.162c-19.05.455-36.479-6.853-49.26-19.038-12.782-12.184-20.915-29.245-21.37-48.293-.013-.55-.02-1.1-.02-1.65v-20.786c0-19.054 7.723-36.304 20.21-48.79 12.486-12.487 29.736-20.21 48.79-20.21z"/><path d="M511.834 435.962c13.49-2.317 26.641 1.052 37 8.373s17.925 18.594 20.243 32.084c.637 3.71.85 7.482.634 11.24l-.357 6.21c-.99 17.18-8.232 32.682-19.515 44.239-11.284 11.557-26.607 19.169-43.758 20.568l-6.462.528c-14.41 1.176-27.934-3.6-38.149-12.273-10.214-8.673-17.12-21.243-18.296-35.654a52.359 52.359 0 0 1-.174-4.259v-1.073c0-16.8 6.05-32.378 16.24-44.468s24.518-20.69 41.075-23.535z"/></g></g></svg>