<svg xmlns="http://www.w3.org/2000/svg" viewBox="0 0 960 960"><g stroke="#000" fill="none" fill-rule="evenodd"><path d="m101.89 21 .001.001.34.006c.136.004.272.008.408.014l798.722 34.247C914.969 55.85 926 66.7 926 79.499v751.27c0 12.8-11.031 24.313-24.64 25.717L103.2 938.82c-.33.12-.656.18-.98.18-.312 0-.621-.008-.925-.024-.227.011-.452.018-.677.021l-.399.003c-4.87-.014-9.326-1.611-12.948-4.382-43.954-18.342-50.465-33.866-51.191-46.433l-1.08-.717V57.443l1.443-.452c1.134-11.386 5.114-22.055 18.87-25.465 11.05-2.739 23.392-5.573 37.024-8.502a22.301 22.301 0 0 1 9.489-2.023h.06z" stroke-width="40" stroke-linecap="round" stroke-linejoin="round"/><path d="m109.92 33.026 778.595 33.38c13.265.568 24.019 11.142 24.019 23.617v732.24c0 12.476-10.754 23.698-24.019 25.066L109.92 927.635c-13.264 1.368-24.018-9.206-24.018-23.618V58.092c0-14.412 10.754-25.635 24.018-25.066z" stroke-width="20" stroke-linecap="round" stroke-linejoin="round"/><ellipse stroke-width="20" cx="212.73" cy="480.5" rx="27.083" ry="34.5"/><g transform="translate(773.646 429)"><ellipse stroke-width="20" cx="32.5" cy="39" rx="22.5" ry="29"/><path stroke-width="10" d="m43.583 8.567-23 61"/></g><g stroke-width="20"><path d="m332.068 327.499 122.59.153a.998.998 0 0 1 .99.875l37.978 300.866a.997.997 0 0 1-.974 1.125l-134.7 2.351a.997.997 0 0 1-1.014-.915L331.156 328.58a.997.997 0 0 1 .91-1.081zm27.697 303.709-41.578 17.376"/><path d="M477.129 502.178 474.23 336.12c-.454-26.02-10.165-25.85-21.55-25.651-7.59.132-49.323-.045-125.2-.533-11.9.52-17.687 10.202-17.358 29.047l5.05 289.366c2.153 20.53 12.844 30.63 32.076 30.295l111.476-1.946c14.046-1.268 20.956-8.417 20.728-21.445"/></g><g stroke-width="20"><path d="m565.126 324.524 114.343.202a.998.998 0 0 1 .99.878l35.865 290.99a.997.997 0 0 1-.974 1.122l-125.73 2.195a.997.997 0 0 1-1.015-.917l-24.392-293.39a.997.997 0 0 1 .914-1.08zm24.732 295.136-38.715 16.679"/><path d="m702.333 493.878-2.816-161.3c-.441-25.274-9.672-25.113-20.492-24.924-7.214.126-46.878-.062-118.995-.563-11.313.5-16.809 9.904-16.49 28.209l4.907 281.073c2.053 19.945 12.218 29.758 30.497 29.44l105.951-1.85c13.351-1.226 19.915-8.168 19.694-20.823"/></g><path stroke-width="10" d="m223 453-23 61"/></g></svg>