<svg xmlns="http://www.w3.org/2000/svg" viewBox="0 0 960 960"><g fill="none" stroke="#000"><path d="m323.91 445.565 61.259-44.663v-27.268h-43.827v-81.238h52.697v-50.239l61.2-.66v-50.516H426.22c-2.844.158-4.904-.182-6.18-1.02-1.278-.836-2.019-2.333-2.224-4.489l-.476-18.074-83.852 9.997c-40.752 4.97-61.129-9.868-61.129-44.51 0-34.643 20.377-48.63 61.13-41.962l86.074 15.577.476-21.531c-.066-3.29.509-5.562 1.724-6.82 1.215-1.256 3.462-1.903 6.742-1.938h56.862l51.483-.439c3.49-.28 6.143.365 7.957 1.939 1.814 1.573 2.61 3.92 2.392 7.038v23.3l97.405-17.126c37.556-2.406 56.333 12.445 56.333 44.554 0 32.108-18.777 46.081-56.333 41.918l-97.405-11.017v17.3c0 2.095.053 3.22-1.766 4.735-1.213 1.01-3.138 1.526-5.777 1.549h-21.705v51.535h59.385v50.899h49.594v81.238h-39.631v27.268l39.63 44.663c87.768-13.398 158.724 15.44 212.87 86.512 30.03 39.418 43.8 98.79 53.482 142.042 5.184 23.156 7.745 57.173 7.683 102.05 20.997 7.1 32.61 13.031 34.839 17.796 1.767 3.777 11.088 32.703 0 52.647-12.684 22.813-50.15 36.72-123.12 36.72-136.76 0-133.699-31.452-135.878-36.72-5.033-12.162-3.156-41.429 0-46.356 6.413-10.015 35.305-22.926 35.3-24.087 0-38.182-.26-53.268-5.076-72.535-11.026-44.112-20.68-45.896-35.267-48.991-15.537-3.298-26.443 3.195-32.719 19.476-33.002 51.116-84.442 76.674-154.32 76.674-69.879 0-123.483-29.931-160.813-89.793h-85.749c-17.22 24.012-33.75 38.223-49.59 42.634-23.761 6.616-39.91 7.151-60.244 7.151-20.335 0-109.834 6.81-109.834-165.667 0-90.21 18.852-153.634 75.387-169.015 15.525-4.224 42.725-2.469 62.917-2.469 8.627 0 32.156.584 52 20.277 7.416 7.358 17.204 24.576 29.364 51.654h85.75Z" stroke-width="40"/><path d="M221.582 414.71c-73.27-21.943-109.906 20.375-109.906 126.954 0 106.58 36.635 156.068 109.906 148.465" stroke-width="20"/><path d="M228.535 455.36c-37.131 1.947-55.697 34.496-55.697 97.646s20.235 95.7 60.705 97.652M563.672 416.36c18.804 0 25.432 2.7 31.243 7.22l.413.327a81.175 81.175 0 0 1 2.896 2.45c1.681 1.474 3.46 3.029 5.496 4.649 6.03 4.796 11.706 13.264 17.359 25.107-17.65 9.393-30.276 22.958-38.008 40.567-8.622 19.634-11.078 44.615-6.781 75.054 3.314 23.482 11.77 42.525 25.06 57.281 10.98 12.19 25.317 21.513 43.122 27.804-11.006 22.097-21.17 37.26-30.875 45.135-34.21 27.76-95.59 49.53-125 49.53-48.312 0-92.567-22.387-124.954-57.15-33.16-35.593-53.96-84.212-53.96-135.627 0-44.559 13.889-89.573 43.98-123.073 4.316-4.804 11.377-11.213 21.138-19.274ZM387.504 302.199H583.23m-189.726-48.5H589.23m-201.726 110H583.23M433 90h101v88H433zm269.492 691.81c37.16 11.021 71.164 16.532 102.015 16.532 30.85 0 64.854-5.511 102.014-16.532" stroke-width="20"/></g></svg>