<svg viewBox="0 0 960 960" xmlns="http://www.w3.org/2000/svg"><g fill="none" fill-rule="evenodd" stroke="#000"><path d="M515.861 93.377c76.144-12.232 101.137-28.993 120.002-22.932 12.577 4.041 19.602 16.413 21.076 37.115 19.467 0 31.915.574 37.344 1.723 20.333 4.304 23.659 22.854 23.659 25.924 0 33.513-.326 66.556 0 66.814.997.794 67.339 24.487 108.23 45.506 30.676 15.77 43.913 47.07 44.48 47.844 17.441 23.805 36.277 430.994 27.375 438.145-9.871 7.928-229.8 53.297-659.785 136.106-36.509 9.192-60.028 9.192-70.558 0-15.795-13.788-79.94-97.545-87.081-109.29s-22.904-38.574-22.904-74.16c0-35.585 7.524-310.606 7.524-348.834S62.05 220.856 139.306 208.23c50.288-8.22 174.35 3.555 174.35-14.598 0-13.955-1.482-92.2 31.749-108.896 33.23-16.697 94.313 20.874 170.456 8.642z" stroke-width="40"/><g stroke-width="20"><path d="m236.546 876.516 8.196-420.438c2.247-48.138 26.08-74.723 71.5-79.754s206.764-25.953 484.035-62.765c25.599-3.245 40.62 15.3 45.062 55.636 6.664 60.504 15.465 353.813 15.465 370.594"/><path d="m167.207 876.516 13.578-460.887c2.505-61.13 27.985-95.273 76.441-102.433s141.724-19.176 279.805-36.051l276.344-33.375"/><path d="M99.57 277.672c2.116-4.25 13.34-25.354 36.41-32.914 23.072-7.56 40.249-4.003 46.046.65 3.866 3.102 17.375 16.764 40.527 40.985 3.883 4.267-1.706 10.16-16.768 17.68-22.593 11.277-46.437 45.783-49.668 82.03s-5.436 198.443-8.657 211.643-15.804 17.038-24.17 15.212-35.595-20.138-38.152-31.84c-1.704-7.803-1.704-55.457 0-142.963l2.628-117.75c1.475-10.854 2.756-18.33 3.843-22.427 3.08-11.611 7.038-18.453 7.96-20.306zm284.27 17.793s-62.069 1.531-80.475-13.85c-12.271-10.254-47.22-38.39-104.848-84.406"/></g><path d="M833.41 758.047c12.478 3.301 16.438 7.04 11.881 11.214-6.835 6.262-20.829 8.323-29.78 7.293-5.966-.687-10.02-5.494-12.163-14.422zm-551 118c12.478 3.301 16.438 7.04 11.881 11.214-6.835 6.262-20.829 8.323-29.78 7.293-5.966-.687-10.02-5.494-12.163-14.422z" stroke-width="40"/><path d="M707.189 254.32V133.705c0-11.644-8.363-16.626-25.09-14.945-55.849 12.418-103.826 20.24-143.932 23.469-40.107 3.227-88.084-1.039-143.933-12.8-14.559-.097-21.838 11.175-21.838 33.817 0 33.963 3.416 113.957 8.107 125.384" stroke-width="20"/><path d="m372.396 257.645-56.756 8.425c-6.966 1.222-13.018-.182-18.157-4.213s-12.946-10.06-23.422-18.087c-1.044-2.23 3.322-3.915 13.098-5.054s21.773-2.67 35.994-4.593" stroke-width="10"/><path d="M328.546 266.497 320.007 159" stroke-width="20"/><path d="M342.928 293.195c-17.777-7.59-23.184-12.018-16.22-13.281 6.963-1.263 23.076-3.394 48.34-6.392" stroke-width="10"/><path d="M149.18 321.506c1.58 0-24.283-36.509-27.012-36.509s-23.593 4.387-23.593 13.154 15.48 29.338 23.76 29.338 25.263-5.983 26.844-5.983z" stroke-width="20"/><path d="M149.249 319.944c1.617 14.087-.75 21.75-7.103 22.989-9.528 1.858-20.226 5.063-27.321 0-7.096-5.064-16.265-26.693-16.25-27.171.1-3.195.1-9.517 0-18.968" stroke-width="20"/><path d="M170.863 273.522c-9.042 7.1-17.913 17.826-26.614 32.181-13.052 21.532-21.068 54.856-25.337 105.465-2.847 33.74-4.27 86.774-4.27 159.103M676.007 690.75l-187.873 30.446.693 47.013 187.18-35.491z" stroke-width="20"/></g></svg>