<svg xmlns="http://www.w3.org/2000/svg" viewBox="0 0 960 960"><g fill="none" fill-rule="evenodd" stroke="#000"><path d="m263 248-61 200" stroke-width="20"/><ellipse cx="379" cy="702.5" rx="58" ry="101.5" stroke-width="20"/><path d="M108.224 703c-25.43-8.994-40.839-40.901-46.224-95.723l-36.54-12.96V399.743h180.199l48.034-161.002H650.54l94.229 190.868 168.457 17.17v19.286h19.794v126.332l-10.55 1.92V695.56l-411.955 61.236-30.515-9.25c-6.954 44.305-36.477 66.457-88.568 66.457s-79.021-41.87-80.791-125.608l-104.982-35.147c-10.23 20.681-19.555 33.934-27.972 39.76-23.73 16.42-52.864 15.862-69.463 9.992z" stroke-width="40"/><g stroke-width="20"><path d="M923.02 476.7v106.743l-425 47.033v-127.59z"/><path d="m339.121 238.74 13.288 233.888 156.76 31.13m0 255.573V626.683"/><ellipse cx="115.5" cy="609" rx="43.5" ry="84"/><path d="m210.73 644.798-51.341-17.515m328.705 112.475-55-18M360.909 471.21 788 442M22.104 418.364l487.169 85.758m283.794 9.308v54.277l-132.089 13.52V522.3l132.089-8.869zm32.34 108.134v51.47l-205.753 30.381v-58.827l205.754-23.024zM811 712c-8.007 31.333-26.837 47-56.489 47s-48.481-10.382-56.489-31.147"/><ellipse cx="379.309" cy="702.5" rx="15.309" ry="31.5"/><ellipse cx="115.955" cy="609" rx="11.955" ry="26"/><path d="M630.141 524.03v61.697L524.978 597.19v-65.831l105.163-7.327zm-53.081 2.12v66.154m318.802-85.622v50.612l-71.884 7.898v-53.171zm-36.302-3.532v66.154"/></g></g></svg>