<svg viewBox="0 0 960 960" xmlns="http://www.w3.org/2000/svg"><g fill="none" fill-rule="evenodd" stroke="#000"><path d="M930.634 231.003c0 5.396-11.375 513.426-11.375 521.633 0 8.207-102.926 110.843-108.864 113.355-5.939 2.512-448.673 30.777-458.997 31.07-10.323.284-259.834-233.498-259.834-242.176V592.05h-25.93c-5.085 0-26.179-74.391-26.179-148.782s19.349-148.783 26.179-148.783h25.93V127.056c0-2.573 30.274-3.86 90.823-3.86V88.514c0-6.27 75.82-25.19 151.64-25.19s151.64 17.33 151.64 25.19v28.277h59.86V99.294c0-10.78 74.358-17.75 148.715-17.75s148.715 11.284 148.715 17.75v85.112c58.451 28.785 87.677 44.317 87.677 46.597z" stroke-linecap="round" stroke-linejoin="round" stroke-width="40"/><g stroke-width="20"><path d="M210.975 770.582c-2.924-362.342-4.385-545.587-4.385-549.732 0-4.146 222.128-10.771 666.385-19.875" stroke-linecap="round" stroke-linejoin="round"/><path d="M930.634 242.04c-451.511 6.778-677.267 12.818-677.267 18.12v542.75M95.564 125.355 253.367 260.16M95.564 304.485h33.301c8.884 46.334 13.326 92.667 13.326 139 0 46.334-4.442 92.667-13.326 139h-33.3" stroke-linecap="round" stroke-linejoin="round"/><ellipse cx="71" cy="444" rx="26" ry="133"/><path d="m415.219 403.594 351.173-12.84-2.217 98.855c4.663 8.36 6.92 15.825 6.773 22.397-.147 6.572-2.72 13.144-7.717 19.716l-2.277 101.536L415.22 650.3V549.826c-5.51-7.272-8.264-14.898-8.264-22.879 0-7.98 2.755-15.96 8.264-23.941zm130.01-292.477c5.147 18.58 54.829 27.87 149.045 27.87s143.9-9.29 149.046-27.87m-298.091 43.908c17.533 15.463 67.68 22.741 150.44 21.834s131.976-8.351 147.651-22.333M182.387 87.513c-5.154 19.675 45.289 29.512 151.329 29.512s156.482-9.837 151.328-29.512m-302.657 38c-5.154 19.675 45.289 29.512 151.329 29.512s156.482-9.837 151.328-29.512M545 117l-5.218 59.895M179 102l-4.534 63.735M491 102l5.885 63.735M107 304.485 162 301m-43.122 281.485L162 587" stroke-linecap="round" stroke-linejoin="round"/></g></g></svg>