<svg viewBox="0 0 960 960" xmlns="http://www.w3.org/2000/svg"><g fill="none" fill-rule="evenodd" stroke="#000"><ellipse cx="485.838" cy="408.355" rx="157.328" ry="78.237" stroke-width="20"/><ellipse cx="484.224" cy="408.893" rx="218.126" ry="119.666" stroke-width="20"/><path d="m267.739 415.76-8.449 185.084c11.412 82.016 87.93 123.023 229.551 123.023 141.622 0 218.138-42.716 229.55-128.147l-17.118-191.868m43.347-367.73c8.83-3.986 17.585-5.332 25.804-2.975 8.22 2.357 14.93 8.138 20.306 16.197 6.43 9.64 10.927 22.431 13.567 37.352 5.502 31.1 2.81 71.135-9.12 112.74-11.93 41.605-30.862 76.984-52.009 100.442-10.145 11.254-20.738 19.718-31.299 24.487-8.829 3.986-17.584 5.332-25.803 2.975-8.22-2.357-14.931-8.138-20.306-16.197-6.43-9.64-10.927-22.431-13.567-37.352-5.503-31.1-2.81-71.135 9.12-112.74 11.93-41.605 30.862-76.984 52.009-100.442 10.145-11.254 20.737-19.718 31.298-24.487z" stroke-width="20"/><path d="m107.92 878.893 71.338-12.844 34.656 12.844 84.603-16.904c54.053 65.847 135.496 88.654 244.329 68.421s163.446-68.785 163.84-145.656l92.981-22.293 5.55-26.71 81.705-18.18c7.712-20.889 8.757-43.454 3.137-67.696-5.621-24.24-16.45-38.99-32.487-44.249l-81.3 15.284-20.863-10.42-43.059 7.082" stroke-width="40"/><path d="m302.626 675.87-20.4 30.694L170.7 728.751l-10.402 18.782-72.415 14.65c-22.855 7.177-31.707 29.748-26.557 67.71s21.472 54.112 48.963 48.444" stroke-width="40"/><path d="M153.723 751.913c9.735 19.885 16.224 39.769 19.469 59.653 3.244 19.885 3.244 39.769 0 59.653M282.225 707.36c18.036 25.772 28.44 51.543 31.213 77.315s-2.086 51.542-14.575 77.314m-206.8-103.777c16.69 18.867 26.658 38.243 29.903 58.127 3.245 19.885 3.82 38.178 1.727 54.88m672.379-265.593c13.59 20.312 22.743 41.375 27.458 63.189 4.714 21.814 4.714 44.16 0 67.04m-126.86 57.281c-4.032-55.892-9.606-95.529-16.721-118.91M313.438 784.675l-137.813 26.891m648.57-137.339-135.885 27.65M334.228 424.77c41.477-33.353 88.71-51.966 141.696-55.84 52.987-3.873 106.765 10.786 161.334 43.976" stroke-width="20"/><path d="m730.878 617.884-12.486-169.329c-2.234-52.559-9.733-85.363-22.497-98.413-2.768-2.83 101.922 20.57 145.186-132.25 43.264-152.819-31.684-182.86-60.931-192.5-29.247-9.64-67.8 3.151-112.416 100.097-29.744 64.631-32.563 130.954-8.458 198.969-80.042-45.002-166.88-56.954-260.51-35.856-93.632 21.097-141.188 64.324-142.668 129.68l-9.345 179.563c5.273 34.709 19.5 62.967 42.68 84.774" stroke-width="40"/><path d="m458.12 490.52-28.959-72.99" stroke-width="20"/><ellipse cx="506.5" cy="418" rx="38.5" ry="19" stroke-width="20"/></g></svg>