<?xml version="1.0" encoding="utf-8"?>
<!-- Generator: Adobe Illustrator 19.0.0, SVG Export Plug-In . SVG Version: 6.00 Build 0)  -->
<svg version="1.1" id="Layer_1" xmlns="http://www.w3.org/2000/svg" xmlns:xlink="http://www.w3.org/1999/xlink" x="0px" y="0px"
	 viewBox="-233.4 354.2 59.5 48.1" style="enable-background:new -233.4 354.2 59.5 48.1;" xml:space="preserve">
<style type="text/css">
	.st0{fill:none;}
</style>
<path class="st0" d="M-185.7,374.5c0-4.7-3.8-8.5-8.5-8.5c-3.8,0-7.1,2.5-8.1,6l1.9,0.3c0.9-2.6,3.3-4.5,6.2-4.5
	c3.6,0,6.6,3,6.6,6.6c0,3.3-2.5,6.1-5.7,6.5l-0.4,1.9C-189.2,382.7-185.7,379-185.7,374.5z"/>
<path class="st0" d="M-207.9,371l0.6,0.1c1.5-5.8,6.8-10.2,13.1-10.2c7.5,0,13.5,6.1,13.5,13.5c0,7.5-6.1,13.5-13.5,13.5
	c-0.1,0-0.3,0-0.4,0l-0.3,1.7c0.2,0,0.5,0,0.7,0c8.4,0,15.2-6.8,15.2-15.2c0-8.4-6.8-15.2-15.2-15.2c-7.2,0-13.3,5.1-14.8,11.8
	C-208.7,371-208.3,371-207.9,371z"/>
<g>
	<path d="M-194.2,373c0.8,0,1.5,0.7,1.5,1.5c0,0.1,0,0.3-0.1,0.4c0.2,0.5,0.3,1,0.2,1.6l-0.8,4.5c3.2-0.4,5.7-3.2,5.7-6.5
		c0-3.6-2.9-6.6-6.6-6.6c-2.9,0-5.3,1.9-6.2,4.5l5.2,0.9C-194.9,373.1-194.6,373-194.2,373z"/>
	<path d="M-194.2,366c4.7,0,8.5,3.8,8.5,8.5c0,4.5-3.5,8.2-8,8.4l-0.9,5.1c0.1,0,0.3,0,0.4,0c7.5,0,13.5-6.1,13.5-13.5
		c0-7.5-6.1-13.5-13.5-13.5c-6.3,0-11.6,4.3-13.1,10.2l5,0.9C-201.2,368.6-198,366-194.2,366z"/>
	<path d="M-194.2,354.2c-10.9,0-19.8,8.7-20.2,19.5c1.3-0.2,2.6-0.3,3.5-0.4l0-0.1c0.2-1,0.9-1.8,1.9-2.1
		c1.6-6.8,7.6-11.8,14.8-11.8c8.4,0,15.2,6.8,15.2,15.2c0,8.4-6.8,15.2-15.2,15.2c-0.2,0-0.5,0-0.7,0l-0.9,5c0.5,0,1.1,0.1,1.6,0.1
		c11.2,0,20.3-9.1,20.3-20.3C-173.9,363.3-183,354.2-194.2,354.2z"/>
</g>
<path d="M-198.7,394.3c-0.4,0.1-0.8,0.2-1.3,0.3c-1.2,0.2-2.9,0.4-5.9,1.8l6.9,1.2c0.1,0,0.2-0.1,0.2-0.2l0.5-3l0.1-0.3
	C-198.4,394.2-198.5,394.2-198.7,394.3z"/>
<path d="M-195.1,375.9l-5.6-1l-1.9-0.3l-5-0.9l-0.6-0.1l-0.2,0.2l-0.7,3.6l-0.4,2.4l-0.5,3l-0.3,1.4l-0.3,1.6l-0.1,0.6l-0.1,0.6
	l-0.3,1.7c0.6,0,1.3-0.2,2.1-0.3c0.1,0,0.2,0,0.3-0.1c0.4-0.1,0.7-0.2,1.1-0.3c1.9-0.4,3.7-0.9,5.2-0.6c0.1,0,0.2,0,0.3,0.1
	c1.4,0.4,2.8,1,3.9,1.8c0.3,0.2,0.5,0.4,0.8,0.6l0.1-0.4l0.3-1.7l0.9-5l0.3-1.9l0.9-4.8C-194.9,376-195,375.9-195.1,375.9z"/>
<g>
	<path d="M-214.2,385.2c-0.1,0.5-0.1,1,0,1.5c0,0.2,0.1,0.4,0.2,0.5c0.1,0.2,0.2,0.3,0.3,0.4c0,0,0.1,0.1,0.1,0.1l0-0.2l0.2-1.2
		l0.3-1.6l0.3-1.4l0-0.2c-0.1,0.1-0.2,0.2-0.4,0.4c-0.4,0.4-0.8,0.9-1,1.4C-214.1,385.1-214.1,385.1-214.2,385.2z"/>
	<path d="M-202.8,389.7c-0.9-0.3-2.6,0.1-4.2,0.5c0,0-0.1,0-0.1,0c-1.5,0.3-3.1,0.7-4.6,0.7c-0.4,0-0.8,0-1.2-0.1
		c-0.4-0.1-0.7-0.2-1.1-0.3c0,0-0.1,0-0.1,0c-0.9-0.4-1.6-1.1-2.2-2.3c-0.1-0.3-0.2-0.5-0.3-0.8c-0.2-0.5-0.2-1.1-0.2-1.6
		c0-0.4,0.1-0.8,0.2-1.1c0.1-0.2,0.1-0.4,0.2-0.6c0-0.1,0.1-0.1,0.1-0.2c0.6-1.4,1.8-2.5,2.8-3.2c0.5-0.4,1-0.6,1.3-0.8l0.1-0.5
		l0.7-3.5c-0.9,0.1-2,0.2-3,0.4c-1,0.2-1.9,0.4-2.4,0.7c-1.4,0.8-10.3,10.8-16.2,17.6c-0.1,0.1-0.3,0.2-0.4,0.3l3.4,7.2
		c0.2-0.1,0.4-0.2,0.7-0.1c4.1,0.6,7.5,0.2,8.5,0c2.9-1.9,5.3-3.5,7.5-4.7c0.5-0.3,1-0.6,1.5-0.9c0.6-0.3,1.2-0.7,1.8-0.9
		c3.1-1.6,5.3-2.4,6.9-2.9c1.2-0.3,2.1-0.5,2.8-0.6c0.6-0.1,1-0.2,1.3-0.3C-199.4,391.2-200.8,390.3-202.8,389.7z"/>
</g>
<path d="M-211.4,389.7L-211.4,389.7L-211.4,389.7C-211.4,389.7-211.4,389.7-211.4,389.7z"/>
</svg>
