<?xml version="1.0" encoding="utf-8"?>
<!-- Generator: Adobe Illustrator 16.0.0, SVG Export Plug-In . SVG Version: 6.00 Build 0)  -->
<!DOCTYPE svg PUBLIC "-//W3C//DTD SVG 1.1//EN" "http://www.w3.org/Graphics/SVG/1.1/DTD/svg11.dtd">
<svg version="1.1" id="Your_Icon" xmlns="http://www.w3.org/2000/svg" xmlns:xlink="http://www.w3.org/1999/xlink" x="0px" y="0px"
	 width="42.952px" height="65.356px" viewBox="28.396 18.153 42.952 65.356" enable-background="new 28.396 18.153 42.952 65.356"
	 xml:space="preserve">
<g>
	<g>
		<g>
			<path d="M43.398,83.51c-4.657,0.001-8.36-2.336-10.183-5.029c-1.172-1.73-2.266-4.812-2.089-7.353
				c0.07-1.018,0.954-1.79,1.968-1.713c1.017,0.07,1.784,0.951,1.713,1.967c-0.108,1.557,0.67,3.856,1.464,5.029
				c1.451,2.143,4.975,4.057,9.278,3.189c4.653-0.938,6.137-4.378,8.362-10.379c0.895-2.413,1.908-5.147,3.354-7.794
				c1.227-2.245,2.709-4.355,4.143-6.395c2.112-3.006,4.107-5.845,5.096-8.799c2.182-6.519,1.226-12.986-2.619-17.743
				c-3.983-4.926-10.327-7.297-17.404-6.501c-6.998,0.786-10.729,3.22-13.311,8.683c-0.463,0.981-1.025,2.524-1.083,3.646
				c-0.053,1.018-0.917,1.796-1.94,1.746c-1.018-0.053-1.799-0.921-1.746-1.939c0.106-2.028,1.038-4.194,1.434-5.031
				c3.13-6.625,7.986-9.848,16.235-10.774c8.231-0.924,15.964,2.011,20.685,7.85c4.654,5.756,5.84,13.497,3.251,21.234
				c-1.159,3.465-3.405,6.66-5.576,9.75c-1.375,1.956-2.796,3.979-3.923,6.04c-1.318,2.413-2.239,4.901-3.133,7.309
				c-2.158,5.823-4.197,11.325-11.095,12.714C45.285,83.417,44.322,83.51,43.398,83.51z"/>
		</g>
	</g>
	<g>
		<path d="M53.007,50.447c-0.308-3.82,2.101-4.687,2.335-8.006c0.273-3.855-1.854-7.758-4.336-8.673
			c-4.879-1.797-9.427,1.466-9.341,5.672c0.109,5.314,7.517,6.556,7.673,12.342c0.129,4.799-3.221,14.097-9.674,12.343
			c-1.944-0.53-2.543-2.224-2.669-3.669c-0.412-4.746,5.147-6.078,5.004-10.341c-0.132-3.978-2.642-2.841-4.336-7.005
			c-2.426-12.971,13.164-17.342,19.016-9.007C59.771,38.511,58.508,48.45,53.007,50.447z"/>
	</g>
</g>
</svg>
