<?xml version="1.0" encoding="utf-8"?>
<!-- Generator: Adobe Illustrator 17.1.0, SVG Export Plug-In . SVG Version: 6.00 Build 0)  -->
<!DOCTYPE svg PUBLIC "-//W3C//DTD SVG 1.1//EN" "http://www.w3.org/Graphics/SVG/1.1/DTD/svg11.dtd">
<svg version="1.1" id="Layer_1" xmlns="http://www.w3.org/2000/svg" xmlns:xlink="http://www.w3.org/1999/xlink" x="0px" y="0px"
	 viewBox="32.9 170.2 548.8 284.3" enable-background="new 32.9 170.2 548.8 284.3" xml:space="preserve">
<path d="M542,170.2H72.5c-21.9,0-39.7,17.8-39.7,39.7V406c0,21.9,17.8,39.7,39.7,39.7v8.8h41.9v-8.8h385.7v8.8H542v-8.8
	c21.9,0,39.7-17.8,39.7-39.7V209.9C581.6,188,563.9,170.2,542,170.2z M548.6,406c0,3.6-3,6.6-6.6,6.6H72.5c-3.6,0-6.6-3-6.6-6.6
	V209.9c0-3.6,3-6.6,6.6-6.6H542c3.6,0,6.6,3,6.6,6.6V406z"/>
<path d="M109.9,308v-51l13,13v34.7l-8.2,8.2L109.9,308z M122.9,325.8v34.7l-13,13v-50.8l4.9-5L122.9,325.8z M180.1,254.7l-12.8,13
	h-42.1l-12.8-13H180.1z M180.1,375.9h-67.8l12.8-13h42.1L180.1,375.9z M168.8,308.8l6.6,6.5l-6.6,6.5h-45.3l-6.4-6.5l6.4-6.5H168.8z
	 M169.5,304.7V270l13-13v51l-4.7,4.9L169.5,304.7z M182.5,322.7v50.8l-13-13v-34.7l8.3-8.1L182.5,322.7z"/>
<path d="M203.3,308v-51l13,13v34.7l-8.2,8.2L203.3,308z M216.3,325.8v34.7l-13,13v-50.8l4.9-5L216.3,325.8z M273.5,254.7l-12.8,13
	h-42.1l-12.8-13H273.5z M273.5,375.9h-67.8l12.8-13h42.1L273.5,375.9z M262.3,308.8l6.6,6.5l-6.6,6.5H217l-6.4-6.5l6.4-6.5H262.3z
	 M263,304.7V270l13-13v51l-4.7,4.9L263,304.7z M276,322.7v50.8l-13-13v-34.7l8.3-8.1L276,322.7z"/>
<path d="M300.7,288v-13h13v13H300.7z M300.7,375.9v-13h13v13H300.7z"/>
<path d="M338.5,308v-51l13,13v34.7l-8.1,8.2L338.5,308z M351.5,325.8v34.7l-13,13v-50.8l4.9-5L351.5,325.8z M408.8,254.7l-12.8,13
	h-42.1l-12.8-13H408.8z M408.8,375.9H341l12.8-13h42.1L408.8,375.9z M397.5,308.8l6.6,6.5l-6.6,6.5h-45.3l-6.4-6.5l6.4-6.5H397.5z
	 M398.2,304.7V270l13-13v51l-4.7,4.9L398.2,304.7z M411.2,322.7v50.8l-13-13v-34.7l8.3-8.1L411.2,322.7z"/>
<path d="M432,308v-51l13,13v34.7l-8.1,8.2L432,308z M445,325.8v34.7l-13,13v-50.8l4.9-5L445,325.8z M502.2,254.7l-12.8,13h-42.1
	l-12.8-13H502.2z M502.2,375.9h-67.8l12.8-13h42.1L502.2,375.9z M490.9,308.8l6.6,6.5l-6.6,6.5h-45.3l-6.4-6.5l6.4-6.5H490.9z
	 M491.6,304.7V270l13-13v51l-4.7,4.9L491.6,304.7z M504.6,322.7v50.8l-13-13v-34.7l8.3-8.1L504.6,322.7z"/>
</svg>
