<?xml version="1.0" encoding="utf-8"?>
<!-- Generator: Adobe Illustrator 17.1.0, SVG Export Plug-In . SVG Version: 6.00 Build 0)  -->
<!DOCTYPE svg PUBLIC "-//W3C//DTD SVG 1.1//EN" "http://www.w3.org/Graphics/SVG/1.1/DTD/svg11.dtd">
<svg version="1.1" id="Layer_1" xmlns="http://www.w3.org/2000/svg" xmlns:xlink="http://www.w3.org/1999/xlink" x="0px" y="0px"
	 viewBox="0 0 560.8 291.5" enable-background="new 0 0 560.8 291.5" xml:space="preserve">
<g id="Layer_x0020_1">
	<path fill="none" stroke="#2B2A29" stroke-width="5.7848" d="M318.3,4.9c-6.4-0.5-12.7-1-19.1-1.5c-0.5,0-1.2,0-1.2,0.2
		c-0.7,1.7-1.2,3.4-2,5.1c0,0.2,0.2,0.5,1,0.5c6.4,0.5,12.7,1,19.4,1.5c0.7,0.2,1.2,0,1.2-0.2c0.5-1.7,1.2-3.4,1.7-5.1
		C319.2,5.1,318.7,4.9,318.3,4.9z"/>
	<path fill="none" stroke="#2B2A29" stroke-width="5.7848" d="M306.7,9.6c-3.9-0.2-6.9-1.7-6.4-2.9c0.7-1.5,4.2-2.4,8.1-2.2
		c3.9,0.5,6.9,1.7,6.4,3.2S310.7,10,306.7,9.6z"/>
	<path fill="none" stroke="#2B2A29" stroke-width="5.7848" d="M358.4,10.3c-6.4-1-12.5-2-18.9-2.9c-0.5,0-1.2,0-1.5,0.2
		c-1.5,1.7-2.9,3.4-4.2,4.9c-0.2,0.2,0,0.5,0.7,0.7c6.4,1,12.7,2,19.1,2.9c0.7,0,1.5,0,1.5-0.2c1.5-1.7,2.7-3.4,4.2-5.1
		C359.4,10.5,359.2,10.3,358.4,10.3z"/>
	<path fill="none" stroke="#2B2A29" stroke-width="5.7848" d="M344.5,14.2c-3.9-0.7-6.1-2.2-4.9-3.7c1-1.2,5.1-2,9.1-1.2
		c3.9,0.5,6.1,2.2,5.1,3.4C352.6,14.2,348.4,14.7,344.5,14.2z"/>
	<path fill="none" stroke="#2B2A29" stroke-width="5.7848" d="M397.9,18.9c-6.4-1.5-12.2-2.9-18.4-4.4c-0.5,0-1.5,0-1.7,0.2
		c-2.2,1.5-4.4,2.9-6.6,4.7c-0.5,0.2-0.2,0.5,0.5,0.5c6.1,1.7,12.2,3.2,18.6,4.7c0.5,0.2,1.2,0,1.7-0.2c2.2-1.5,4.2-2.9,6.4-4.7
		C398.9,19.4,398.4,19.1,397.9,18.9z"/>
	<path fill="none" stroke="#2B2A29" stroke-width="5.7848" d="M381.5,21.8c-3.9-1-5.4-2.7-3.7-3.9c2-1.2,6.4-1.7,10.3-0.7
		c3.7,1,5.4,2.7,3.7,3.9C390,22.5,385.4,22.8,381.5,21.8z"/>
	<path fill="none" stroke="#2B2A29" stroke-width="5.7848" d="M435.6,30.9c-5.9-2-11.8-3.9-17.4-5.9c-0.7-0.2-1.5-0.2-1.7,0
		c-3.2,1.2-6.4,2.7-9.6,4.2c-0.2,0-0.2,0.5,0.5,0.5c5.6,2.2,11.5,4.2,17.4,6.4c0.7,0,1.5,0.2,2,0c3.2-1.5,6.1-2.9,9.3-4.4
		C436.3,31.6,436.3,31.1,435.6,30.9z"/>
	<path fill="none" stroke="#2B2A29" stroke-width="5.7848" d="M417,32.3c-3.7-1.2-4.7-3.2-2-4.2c2.4-1.2,7.3-1,11,0.2
		c3.7,1.2,4.7,3.2,2,4.2C425.6,33.8,420.4,33.8,417,32.3z"/>
	<path fill="none" stroke="#2B2A29" stroke-width="5.7848" d="M470.9,46.5c-5.4-2.7-10.8-5.1-16.2-7.6c-0.5-0.2-1.5-0.5-2-0.2
		c-3.9,1-7.8,2.2-12,3.2c-0.5,0.2-0.5,0.5,0,0.7c5.4,2.7,10.8,5.4,16.2,8.1c0.5,0.2,1.5,0.2,2,0c3.9-1,8.1-2.2,12-3.4
		C471.4,47,471.4,46.8,470.9,46.5z"/>
	<path fill="none" stroke="#2B2A29" stroke-width="5.7848" d="M449.8,46.3c-3.4-1.7-3.2-3.7,0-4.7c3.2-0.7,8.6-0.2,11.8,1.2
		c3.4,1.7,3.7,3.7,0.2,4.7C458.6,48.5,453.3,48,449.8,46.3z"/>
	<path fill="none" stroke="#2B2A29" stroke-width="5.7848" d="M502.3,65.7c-4.9-3.2-9.6-6.4-14.2-9.3c-0.5-0.2-1.2-0.5-2-0.2
		c-4.9,0.7-9.8,1.5-14.7,2.2c-0.7,0-1,0.2-0.5,0.7c4.7,2.9,9.3,6.1,14,9.6c0.5,0.2,1.5,0.5,2,0.2c5.1-0.7,10.3-1.5,15.2-2.2
		C502.7,66.4,502.7,66.1,502.3,65.7z"/>
	<path fill="none" stroke="#2B2A29" stroke-width="5.7848" d="M479.2,63.5c-2.9-2-2-4.2,2-4.7c4.2-0.5,9.6,0.5,12.5,2.4
		c2.9,2,2.2,3.9-2,4.7C487.8,66.6,481.9,65.4,479.2,63.5z"/>
	<path fill="none" stroke="#2B2A29" stroke-width="5.7848" d="M528.2,88.7c-3.9-3.9-7.8-7.6-11.5-11.3c-0.5-0.2-1.2-0.5-2-0.5
		c-5.9,0.2-11.8,0.5-17.6,0.7c-0.7,0.2-1.2,0.5-0.7,0.7c3.4,3.7,7.1,7.6,10.8,11.3c0.5,0.5,1.5,0.7,2.2,0.7c5.9-0.2,12-0.5,18.1-1
		C528.2,89.4,528.5,89.2,528.2,88.7z"/>
	<path fill="none" stroke="#2B2A29" stroke-width="5.7848" d="M503.2,84c-2.2-2.4-0.2-4.4,4.7-4.7c4.7-0.2,10.5,1.5,12.7,3.7
		c2.5,2.4,0.5,4.4-4.4,4.7C511.3,88,505.4,86.2,503.2,84z"/>
	<path fill="none" stroke="#2B2A29" stroke-width="5.7848" d="M546.1,115.1c-2.7-4.4-5.1-8.6-7.6-12.7c-0.2-0.5-1-0.7-2-1
		c-6.9-0.2-13.5-0.5-20.1-1c-1,0-1.5,0.2-1.2,0.7c2.2,4.2,4.2,8.3,6.6,12.7c0.2,0.5,1,1,2,1c7.1,0.2,14,0.7,21.1,1
		C545.9,115.9,546.4,115.6,546.1,115.1z"/>
	<path fill="none" stroke="#2B2A29" stroke-width="5.7848" d="M520.1,107.6c-1.2-2.7,2-4.4,7.6-4.2c5.4,0.2,11,2.4,12.7,5.1
		c1.5,2.7-2,4.7-7.6,4.4C527.2,112.7,521.6,110.2,520.1,107.6z"/>
	<path fill="none" stroke="#2B2A29" stroke-width="5.7848" d="M553.5,144.8c-0.7-4.9-1.5-9.6-2.2-14.2c0-0.5-1-1-2-1.2
		c-7.6-1-15.2-2.2-22.5-3.2c-1-0.2-1.7,0-1.7,0.5c0.5,4.7,1,9.3,1.5,14c0,0.5,0.7,1,1.7,1.2c7.8,1,15.7,2.4,23.3,3.4
		C552.7,145.5,553.5,145.3,553.5,144.8z"/>
	<path fill="none" stroke="#2B2A29" stroke-width="5.7848" d="M527.7,133.8c-0.2-2.9,4.4-4.4,10.5-3.4c6.1,1,11.5,3.9,11.8,6.9
		c0.5,2.9-4.2,4.7-10.5,3.7C533.4,139.9,528,136.7,527.7,133.8z"/>
	<path fill="none" stroke="#2B2A29" stroke-width="5.7848" d="M546.8,176.4c1.7-5.1,3.2-10,4.7-14.9c0.2-0.5-0.5-1.2-1.7-1.5
		c-7.8-2.2-15.9-4.2-23.5-6.1c-1.2-0.5-2.2-0.2-2.2,0.2c-2,4.7-3.7,9.6-5.4,14.5c-0.2,0.5,0.5,1,1.5,1.5c8.1,2.2,16.4,4.4,24.5,6.6
		C545.9,177.1,546.8,176.9,546.8,176.4z"/>
	<path fill="none" stroke="#2B2A29" stroke-width="5.7848" d="M523.6,161.7c1-2.9,6.9-3.9,13.5-2.2c6.4,1.7,11,5.6,10,8.6
		c-1,3.2-7.3,4.2-14,2.4C526.5,168.6,522.3,164.9,523.6,161.7z"/>
	<path fill="none" stroke="#2B2A29" stroke-width="5.7848" d="M524.3,208c4.2-4.9,8.3-10,12.5-14.9c0.2-0.5-0.2-1-1.2-1.5
		c-8.1-3.2-15.9-6.4-23.8-9.6c-1-0.5-2.2-0.5-2.7,0c-4.2,4.7-8.6,9.3-13,14.2c-0.5,0.5,0,1.2,1,1.5c8.1,3.4,16.2,6.9,24.3,10.3
		C522.6,208.5,523.8,208.5,524.3,208z"/>
	<path fill="none" stroke="#2B2A29" stroke-width="5.7848" d="M504.9,189.9c2.7-2.9,9.8-3.2,16.4-0.5c6.4,2.4,9.6,7.1,7.1,10.3
		c-2.7,2.9-10.3,3.2-16.9,0.5C505.2,197.5,502.3,192.8,504.9,189.9z"/>
	<path fill="none" stroke="#2B2A29" stroke-width="5.7848" d="M483.1,236.9c7.3-4.4,14.5-8.8,21.3-13.2c0.7-0.2,0.5-1.2-0.5-1.7
		c-7.6-4.4-14.7-8.8-21.8-13c-1-0.7-2.2-0.7-2.9-0.5c-6.9,4.2-14,8.3-21.1,12.5c-0.7,0.5-0.7,1.2,0.2,1.7c7.1,4.7,14.5,9.3,21.8,14
		C481.2,237.2,482.7,237.4,483.1,236.9z"/>
	<path fill="none" stroke="#2B2A29" stroke-width="5.7848" d="M470.6,215.8c4.4-2.4,12.5-1.7,18.4,1.7c5.9,3.7,7.3,8.8,2.9,11.5
		c-4.4,2.7-13,1.7-18.9-2S466.2,218.5,470.6,215.8z"/>
	<path fill="none" stroke="#2B2A29" stroke-width="5.7848" d="M424.8,260.2c9.8-3.4,19.6-6.9,29.2-10.3c1-0.2,1-1.2,0.2-1.7
		c-5.9-5.6-11.8-11-17.4-16.4c-0.7-0.7-2.2-1-3.2-0.7c-9.3,2.9-18.9,6.4-28.4,9.6c-1,0.2-1.2,1.2-0.5,1.7c5.4,5.6,11,11.3,16.9,17.1
		C422.4,260.2,423.9,260.4,424.8,260.2z"/>
	<path fill="none" stroke="#2B2A29" stroke-width="5.7848" d="M421.2,237.2c5.9-2,14.2,0,19.1,4.4c4.7,4.4,3.7,9.8-2.2,11.8
		c-6.1,2.2-14.9,0-19.6-4.7C414.1,244.3,415.3,239.1,421.2,237.2z"/>
	<path fill="none" stroke="#2B2A29" stroke-width="5.7848" d="M352.3,274.2c11.8-1.7,23.5-3.7,35-5.6c1.2,0,1.7-1,1.2-1.7
		c-3.7-6.4-7.3-12.5-10.8-18.6c-0.5-0.7-1.7-1.2-2.9-1.2c-11.3,1.7-22.3,3.4-33.8,5.1c-1,0.2-1.7,1-1.2,1.7
		c2.9,6.4,6.1,12.5,9.6,19.1C349.9,273.9,351.1,274.4,352.3,274.2z"/>
	<path fill="none" stroke="#2B2A29" stroke-width="5.7848" d="M358.9,251.1c7.1-1,14.9,2.2,17.9,7.1c2.7,5.1-0.5,10.3-7.8,11.3
		c-7.3,1.2-15.4-2.2-18.1-7.3C348.4,257.2,352.1,252.1,358.9,251.1z"/>
	<path fill="none" stroke="#2B2A29" stroke-width="5.7848" d="M272.4,276.8c12.5,0,25,0,37.7,0c1.2,0,2.2-0.7,2-1.5
		c-0.7-6.9-1.7-13.5-2.5-19.8c-0.2-0.7-1.2-1.5-2.4-1.5c-12.2,0-24.3,0-36.3,0c-1.2,0-2.2,0.7-2,1.7c0.2,6.4,0.7,12.7,1,19.6
		C270.2,276.1,271.2,276.8,272.4,276.8z"/>
	<path fill="none" stroke="#2B2A29" stroke-width="5.7848" d="M289.1,255.8c7.6,0,14.2,4.2,14.9,9.3c0.5,5.4-5.4,10-13,10
		c-7.8,0-14.2-4.7-14.7-9.8C275.9,259.9,281.8,255.8,289.1,255.8z"/>
	<path fill="none" stroke="#2B2A29" stroke-width="5.7848" d="M193.6,267.8c12,2,24,3.7,36.3,5.4c1.2,0.2,2.4-0.2,2.7-1
		c2-6.6,3.9-13,5.9-19.1c0.2-0.7-0.5-1.7-1.5-2c-11.8-1.5-23.5-3.2-35-4.9c-1-0.2-2.2,0.5-2.4,1.2c-2.4,6.1-4.9,12.2-7.3,18.4
		C191.6,266.8,192.3,267.8,193.6,267.8z"/>
	<path fill="none" stroke="#2B2A29" stroke-width="5.7848" d="M218.8,250.4c7.1,1,11.8,5.9,10,11c-1.7,5.1-9.1,8.6-16.7,7.3
		c-7.3-1.2-11.8-6.1-9.8-11.3C204.3,252.6,211.4,249.2,218.8,250.4z"/>
	<path fill="none" stroke="#2B2A29" stroke-width="5.7848" d="M124,248.4c10.3,3.4,20.6,6.6,31.1,10c1,0.2,2.4,0,2.9-0.7
		c4.7-5.6,9.3-11.3,13.7-16.9c0.5-0.7,0-1.5-1-2c-10.3-2.9-20.3-6.1-30.4-9.1c-1-0.5-2.2,0-2.9,0.5c-4.7,5.4-9.6,10.8-14.2,16.2
		C122.5,247.2,123,248.2,124,248.4z"/>
	<path fill="none" stroke="#2B2A29" stroke-width="5.7848" d="M154.4,235.7c6.4,2,8.6,7.1,4.9,11.5c-3.7,4.7-12.2,6.9-18.6,4.7
		c-6.4-2-8.3-7.3-4.4-11.8C139.9,235.7,148,233.7,154.4,235.7z"/>
	<path fill="none" stroke="#2B2A29" stroke-width="5.7848" d="M69.1,221.7c7.6,4.4,15.7,8.6,23.8,13c0.7,0.5,2.2,0.2,2.9-0.2
		c6.4-4.7,12.7-9.3,19.1-13.7c1-0.7,1-1.5,0-2c-7.8-3.9-15.9-8.1-23.5-12.2c-0.7-0.5-2.2-0.2-2.9,0.2c-6.4,4.4-12.7,8.8-19.4,13
		C68.4,220.5,68.1,221.2,69.1,221.7z"/>
	<path fill="none" stroke="#2B2A29" stroke-width="5.7848" d="M101.4,213.9c4.9,2.4,4.9,7.3-0.5,11.3c-5.1,3.7-13.5,4.4-18.4,1.7
		c-4.9-2.7-4.7-7.8,0.7-11.3C88.5,211.9,96.5,211.2,101.4,213.9z"/>
	<path fill="none" stroke="#2B2A29" stroke-width="5.7848" d="M31.6,190.9c4.9,4.7,10,9.6,15.4,14.5c0.5,0.5,1.7,0.5,2.9,0
		c7.3-3.2,14.9-6.6,22.3-10c0.7-0.5,1.2-1.2,0.7-1.7c-5.6-4.7-11-9.3-15.9-14c-0.7-0.2-2-0.5-2.7,0c-7.3,3.2-14.7,6.4-22,9.6
		C31.4,189.6,31.1,190.4,31.6,190.9z"/>
	<path fill="none" stroke="#2B2A29" stroke-width="5.7848" d="M63,187.4c3.2,2.9,1.2,7.3-4.9,10.3c-5.9,2.7-13.7,2.4-16.9-0.5
		c-3.2-3.2-0.7-7.6,5.1-10.3S59.5,184.5,63,187.4z"/>
	<path fill="none" stroke="#2B2A29" stroke-width="5.7848" d="M11.3,158.8c2.4,4.9,5.1,9.8,7.6,14.9c0.5,0.5,1.5,0.7,2.4,0.2
		c7.8-2.2,15.7-4.4,23.3-6.6c1-0.2,1.7-1,1.5-1.5c-2.9-4.9-5.9-9.6-8.6-14.2c-0.2-0.5-1.2-0.7-2.2-0.5c-7.3,2.2-14.9,4.2-22.5,6.1
		C11.8,157.5,11,158.3,11.3,158.8z"/>
	<path fill="none" stroke="#2B2A29" stroke-width="5.7848" d="M39.7,159.2c1.7,2.9-2,6.9-8.1,8.6c-6.4,1.7-12.7,0.7-14.5-2.4
		c-1.7-2.9,2.2-6.9,8.3-8.6C31.6,155.1,38,156.1,39.7,159.2z"/>
	<path fill="none" stroke="#2B2A29" stroke-width="5.7848" d="M6.6,127.9c0.2,4.7,0.5,9.3,0.7,14.2c0,0.5,0.7,0.7,1.7,0.5
		c7.6-1.2,15.2-2.4,22.8-3.7c1,0,1.7-0.5,1.7-1c-0.7-4.7-1.2-9.3-1.7-13.7c0-0.5-1-0.7-1.7-0.7c-7.3,1.2-14.7,2.2-22,3.4
		C7.1,126.9,6.4,127.4,6.6,127.9z"/>
	<path fill="none" stroke="#2B2A29" stroke-width="5.7848" d="M30.6,131.1c0.2,2.9-4.2,6.1-10.3,7.1s-11.3-0.7-11.5-3.7
		c0-2.9,4.7-5.9,10.5-6.9C25.2,126.7,30.4,128.4,30.6,131.1z"/>
	<path fill="none" stroke="#2B2A29" stroke-width="5.7848" d="M14.5,100c-1.7,4.2-3.4,8.3-4.9,12.5c-0.2,0.5,0.5,1,1.2,0.7
		c7.1-0.2,14-0.5,20.8-1c1,0,2-0.5,2-0.7c1.5-4.4,2.7-8.6,4.2-12.7c0-0.5-0.5-0.7-1.5-0.7c-6.6,0.5-13.5,0.7-20.1,1
		C15.4,99,14.5,99.5,14.5,100z"/>
	<path fill="none" stroke="#2B2A29" stroke-width="5.7848" d="M33.8,105.1c-0.7,2.4-5.9,4.9-11.5,5.1c-5.9,0.2-9.6-1.7-8.6-4.2
		c1-2.7,6.4-4.9,11.8-5.1C30.9,100.4,34.8,102.4,33.8,105.1z"/>
	<path fill="none" stroke="#2B2A29" stroke-width="5.7848" d="M32.1,75.2c-3.2,3.7-6.1,7.3-9.1,11c-0.5,0.2,0,0.7,0.7,0.7
		c6.1,0.5,12.2,0.7,18.4,1c1,0,1.7-0.2,2-0.7c2.9-3.7,5.9-7.3,8.6-11c0.2-0.2-0.2-0.7-1-0.7c-5.9-0.2-11.8-0.5-17.6-1
		C33.1,74.5,32.3,74.7,32.1,75.2z"/>
	<path fill="none" stroke="#2B2A29" stroke-width="5.7848" d="M46.8,81.6c-1.7,2.4-7.1,3.9-12,3.7c-4.9-0.2-7.6-2.2-5.6-4.7
		c2-2.2,7.3-3.7,12-3.4C46.1,77.4,48.8,79.4,46.8,81.6z"/>
	<path fill="none" stroke="#2B2A29" stroke-width="5.7848" d="M57.1,54.1c-4.2,3.2-8.1,6.4-12.2,9.3c-0.5,0.5-0.2,0.7,0.5,1
		c5.1,0.7,10.3,1.5,15.7,2.4c0.7,0,1.5-0.2,2-0.5c3.9-3.2,7.8-6.4,11.8-9.6c0.5-0.2,0.2-0.5-0.5-0.7c-5.1-0.7-10-1.5-15.2-2.2
		C58.3,53.7,57.6,53.9,57.1,54.1z"/>
	<path fill="none" stroke="#2B2A29" stroke-width="5.7848" d="M67.6,61.5c-2.4,2-8.1,2.9-12.2,2.2C51.2,63.2,50,61,52.4,59
		c2.4-2,7.8-2.9,12-2.2C68.6,57.3,70.1,59.5,67.6,61.5z"/>
	<path fill="none" stroke="#2B2A29" stroke-width="5.7848" d="M87.5,37c-4.9,2.7-9.6,5.1-14.7,7.6c-0.5,0.2-0.2,0.7,0.2,0.7
		c4.2,1.2,8.6,2.4,13,3.7c0.5,0,1.2,0,1.7-0.2c4.9-2.7,9.8-5.1,14.7-7.8c0.5-0.2,0.2-0.5-0.2-0.7c-4.4-1-8.6-2.2-12.7-3.2
		C88.9,36.7,88,36.7,87.5,37z"/>
	<path fill="none" stroke="#2B2A29" stroke-width="5.7848" d="M94.1,44.6c-3.2,1.5-8.3,2-12,1.2c-3.4-1-3.7-3.2-0.7-4.7
		c3.2-1.5,8.3-2.2,11.8-1.2C96.5,40.9,97,42.9,94.1,44.6z"/>
	<path fill="none" stroke="#2B2A29" stroke-width="5.7848" d="M121.8,23.5c-5.4,2-10.8,3.9-16.2,5.9c-0.7,0.2-0.7,0.5-0.2,0.7
		c3.2,1.5,6.6,2.9,10,4.4c0.5,0,1.5,0,2-0.2c5.4-2,10.8-3.9,16.2-5.9c0.7-0.2,0.7-0.7,0.2-0.7c-3.4-1.5-6.9-2.9-10.3-4.2
		C123,23.3,122.3,23.3,121.8,23.5z"/>
	<path fill="none" stroke="#2B2A29" stroke-width="5.7848" d="M124.7,30.9c-3.4,1.5-8.6,1.5-11.3,0.2c-2.7-1-2.2-2.9,1.2-4.2
		c3.4-1.2,8.3-1.5,11-0.2C128.4,27.7,127.9,29.6,124.7,30.9z"/>
	<path fill="none" stroke="#2B2A29" stroke-width="5.7848" d="M158.8,13.5c-5.9,1.5-11.8,2.9-17.6,4.4c-0.5,0-0.7,0.2-0.5,0.5
		c2.7,1.7,5.1,3.2,7.6,4.9c0.5,0.2,1.2,0.2,1.7,0c6.1-1.5,12-2.9,17.6-4.4c0.7-0.2,0.7-0.5,0.5-0.7c-2.7-1.5-5.4-2.9-7.8-4.7
		C160,13.5,159.3,13.2,158.8,13.5z"/>
	<path fill="none" stroke="#2B2A29" stroke-width="5.7848" d="M158.3,20.6c-3.7,1-8.3,0.7-10.5-0.5c-2-1.5-0.7-3.2,2.9-4.2
		c3.7-0.7,8.1-0.5,10.3,0.7C162.9,17.9,161.7,19.6,158.3,20.6z"/>
	<path fill="none" stroke="#2B2A29" stroke-width="5.7848" d="M197.2,6.6c-5.9,1-12,2-18.1,2.9c-0.5,0-1,0.2-0.7,0.5
		c1.7,1.7,3.4,3.4,5.1,5.1c0.2,0.2,1,0.2,1.5,0.2c6.4-1,12.5-2,18.6-2.9c0.5-0.2,1-0.5,0.7-0.7c-2-1.5-3.7-3.2-5.6-4.9
		C198.5,6.6,198,6.6,197.2,6.6z"/>
	<path fill="none" stroke="#2B2A29" stroke-width="5.7848" d="M193.8,13.5c-3.7,0.5-8.1,0-9.6-1.5c-1.2-1.2,0.7-2.9,4.4-3.4
		c3.9-0.7,8.1,0,9.6,1.2C199.7,11.3,197.7,12.7,193.8,13.5z"/>
	<path fill="none" stroke="#2B2A29" stroke-width="5.7848" d="M237.2,2.9c-6.4,0.5-12.5,1-18.6,1.5c-0.7,0-1.2,0.2-1,0.5
		c1,1.7,1.7,3.4,2.7,5.1c0,0.2,0.7,0.5,1.2,0.5c6.6-0.5,13-1,19.1-1.5c0.7,0,1.2-0.2,1-0.5c-1-1.7-2-3.7-2.9-5.1
		C238.4,3.2,237.7,2.9,237.2,2.9z"/>
	<path fill="none" stroke="#2B2A29" stroke-width="5.7848" d="M231,9.3c-4.2,0.2-7.8-0.7-8.6-2.2c-0.7-1.2,1.7-2.7,5.6-2.9
		c3.9-0.2,7.6,0.5,8.6,2C237.4,7.6,235,9.1,231,9.3z"/>
	<path fill="none" stroke="#2B2A29" stroke-width="5.7848" d="M277.6,2.4c-6.4,0-12.7,0-19.1,0c-0.5,0-1,0-1,0.2
		c0,1.7,0.2,3.7,0.5,5.4c0,0.2,0.5,0.5,1,0.5c6.6,0,13,0,19.6,0c0.5,0,1-0.2,1-0.5c-0.2-1.7-0.5-3.4-0.7-5.4
		C278.8,2.4,278.1,2.4,277.6,2.4z"/>
	<path fill="none" stroke="#2B2A29" stroke-width="5.7848" d="M268.8,8.1c-3.9,0-7.3-1.2-7.6-2.7c0-1.5,3.2-2.4,7.1-2.4
		s7.1,1,7.3,2.4S272.7,8.1,268.8,8.1z"/>
	<path fill="none" stroke="#2B2A29" stroke-width="5.7848" d="M299.1,3.4c6.4,0.5,12.7,1,19.1,1.5c0.5,0,1,0.2,1,0.5
		c-0.5,1.7-1.2,3.4-1.7,5.1c0,0.2-0.5,0.5-1.2,0.2c-6.6-0.5-13-1-19.4-1.5c-0.7,0-1-0.2-1-0.5c0.7-1.7,1.2-3.4,2-5.1
		C297.9,3.4,298.7,3.4,299.1,3.4z"/>
	<path fill="none" stroke="#2B2A29" stroke-width="5.7848" d="M339.6,7.3c6.4,1,12.5,2,18.9,2.9c0.7,0,1,0.2,1,0.5
		c-1.5,1.7-2.7,3.4-4.2,5.1c0,0.2-0.7,0.2-1.5,0.2c-6.4-1-12.7-2-19.1-2.9c-0.7-0.2-1-0.5-0.7-0.7c1.2-1.5,2.7-3.2,4.2-4.9
		C338.3,7.3,339.1,7.3,339.6,7.3z"/>
	<path fill="none" stroke="#2B2A29" stroke-width="5.7848" d="M379.5,14.5c6.1,1.5,12,2.9,18.4,4.4c0.5,0.2,1,0.5,0.5,0.7
		c-2.2,1.7-4.2,3.2-6.4,4.7c-0.5,0.2-1.2,0.5-1.7,0.2c-6.4-1.5-12.5-2.9-18.6-4.7c-0.7,0-1-0.2-0.5-0.5c2.2-1.7,4.4-3.2,6.6-4.7
		C378,14.5,379,14.5,379.5,14.5z"/>
	<path fill="none" stroke="#2B2A29" stroke-width="5.7848" d="M418.2,25c5.6,2,11.5,3.9,17.4,5.9c0.7,0.2,0.7,0.7,0.5,0.7
		c-3.2,1.5-6.1,2.9-9.3,4.4c-0.5,0.2-1.2,0-2,0c-5.9-2.2-11.8-4.2-17.4-6.4c-0.7,0-0.7-0.5-0.5-0.5c3.2-1.5,6.4-2.9,9.6-4.2
		C416.7,24.7,417.5,24.7,418.2,25z"/>
	<path fill="none" stroke="#2B2A29" stroke-width="5.7848" d="M454.7,39c5.4,2.4,10.8,4.9,16.2,7.6c0.5,0.2,0.5,0.5,0,0.7
		c-3.9,1.2-8.1,2.4-12,3.4c-0.5,0.2-1.5,0.2-2,0c-5.4-2.7-10.8-5.4-16.2-8.1c-0.5-0.2-0.5-0.5,0-0.7c4.2-1,8.1-2.2,12-3.2
		C453.3,38.5,454.2,38.7,454.7,39z"/>
	<path fill="none" stroke="#2B2A29" stroke-width="5.7848" d="M488,56.3c4.7,2.9,9.3,6.1,14.2,9.3c0.5,0.5,0.5,0.7-0.2,1
		c-4.9,0.7-10,1.5-15.2,2.2c-0.5,0.2-1.5,0-2-0.2c-4.7-3.4-9.3-6.6-14-9.6c-0.5-0.5-0.2-0.7,0.5-0.7c4.9-0.7,9.8-1.5,14.7-2.2
		C486.8,55.9,487.6,56.1,488,56.3z"/>
	<path fill="none" stroke="#2B2A29" stroke-width="5.7848" d="M516.7,77.4c3.7,3.7,7.6,7.3,11.5,11.3c0.2,0.5,0,0.7-0.7,0.7
		c-6.1,0.5-12.2,0.7-18.1,1c-0.7,0-1.7-0.2-2.2-0.7c-3.7-3.7-7.3-7.6-10.8-11.3c-0.5-0.2,0-0.5,0.7-0.7c5.9-0.2,11.8-0.5,17.6-0.7
		C515.5,76.9,516.2,77.2,516.7,77.4z"/>
	<path fill="none" stroke="#2B2A29" stroke-width="5.7848" d="M538.5,102.4c2.4,4.2,4.9,8.3,7.6,12.7c0.2,0.5-0.2,0.7-1.2,0.7
		c-7.1-0.2-14-0.7-21.1-1c-1,0-1.7-0.5-2-1c-2.4-4.4-4.4-8.6-6.6-12.7c-0.2-0.5,0.2-0.7,1.2-0.7c6.6,0.5,13.2,0.7,20.1,1
		C537.5,101.7,538.3,101.9,538.5,102.4z"/>
	<path fill="none" stroke="#2B2A29" stroke-width="5.7848" d="M551.3,130.6c0.7,4.7,1.5,9.3,2.2,14.2c0,0.5-0.7,0.7-2,0.5
		c-7.6-1-15.4-2.4-23.3-3.4c-1-0.2-1.7-0.7-1.7-1.2c-0.5-4.7-1-9.3-1.5-14c0-0.5,0.7-0.7,1.7-0.5c7.3,1,14.9,2.2,22.5,3.2
		C550.3,129.6,551.3,130.1,551.3,130.6z"/>
	<path fill="none" stroke="#2B2A29" stroke-width="5.7848" d="M551.5,161.5c-1.5,4.9-2.9,9.8-4.7,14.9c0,0.5-1,0.7-2.2,0.2
		c-8.1-2.2-16.4-4.4-24.5-6.6c-1-0.5-1.7-1-1.5-1.5c1.7-4.9,3.4-9.8,5.4-14.5c0-0.5,1-0.7,2.2-0.2c7.6,2,15.7,3.9,23.5,6.1
		C551,160.2,551.7,161,551.5,161.5z"/>
	<path fill="none" stroke="#2B2A29" stroke-width="5.7848" d="M536.8,193.1c-4.2,4.9-8.3,10-12.5,14.9c-0.5,0.5-1.7,0.5-2.9,0
		c-8.1-3.4-16.2-6.9-24.3-10.3c-1-0.2-1.5-1-1-1.5c4.4-4.9,8.8-9.6,13-14.2c0.5-0.5,1.7-0.5,2.7,0c7.8,3.2,15.7,6.4,23.8,9.6
		C536.6,192.1,537,192.6,536.8,193.1z"/>
	<path fill="none" stroke="#2B2A29" stroke-width="5.7848" d="M504.5,223.7c-6.9,4.4-14,8.8-21.3,13.2c-0.5,0.5-2,0.2-2.9-0.2
		c-7.3-4.7-14.7-9.3-21.8-14c-1-0.5-1-1.2-0.2-1.7c7.1-4.2,14.2-8.3,21.1-12.5c0.7-0.2,2-0.2,2.9,0.5c7.1,4.2,14.2,8.6,21.8,13
		C504.9,222.5,505.2,223.4,504.5,223.7z"/>
	<path fill="none" stroke="#2B2A29" stroke-width="5.7848" d="M454,249.9c-9.6,3.4-19.4,6.9-29.2,10.3c-1,0.2-2.4,0-3.2-0.7
		c-5.9-5.9-11.5-11.5-16.9-17.1c-0.7-0.5-0.5-1.5,0.5-1.7c9.6-3.2,19.1-6.6,28.4-9.6c1-0.2,2.4,0,3.2,0.7
		c5.6,5.4,11.5,10.8,17.4,16.4C455,248.7,455,249.7,454,249.9z"/>
	<path fill="none" stroke="#2B2A29" stroke-width="5.7848" d="M387.3,268.5c-11.5,2-23.3,3.9-35,5.6c-1.2,0.2-2.4-0.2-2.9-1.2
		c-3.4-6.6-6.6-12.7-9.6-19.1c-0.5-0.7,0.2-1.5,1.2-1.7c11.5-1.7,22.5-3.4,33.8-5.1c1.2,0,2.5,0.5,2.9,1.2
		c3.4,6.1,7.1,12.2,10.8,18.6C389.1,267.5,388.6,268.5,387.3,268.5z"/>
	<path fill="none" stroke="#2B2A29" stroke-width="5.7848" d="M310.2,276.8c-12.7,0-25.2,0-37.7,0c-1.2,0-2.2-0.7-2.5-1.5
		c-0.2-6.9-0.7-13.2-1-19.6c-0.2-1,0.7-1.7,2-1.7c12,0,24,0,36.3,0c1.2,0,2.2,0.7,2.4,1.5c0.7,6.4,1.7,13,2.5,19.8
		C312.4,276.1,311.4,276.8,310.2,276.8z"/>
	<path fill="none" stroke="#2B2A29" stroke-width="5.7848" d="M229.8,273.2c-12.2-1.7-24.3-3.4-36.3-5.4c-1.2,0-2-1-1.5-2
		c2.4-6.1,4.9-12.2,7.3-18.4c0.2-0.7,1.5-1.5,2.4-1.2c11.5,1.7,23.3,3.4,35,4.9c1,0.2,1.7,1.2,1.5,2c-2,6.1-3.9,12.5-5.9,19.1
		C232.3,272.9,231,273.4,229.8,273.2z"/>
	<path fill="none" stroke="#2B2A29" stroke-width="5.7848" d="M155.1,258.5c-10.5-3.4-20.8-6.6-31.1-10c-1-0.2-1.5-1.2-0.7-2
		c4.7-5.4,9.6-10.8,14.2-16.2c0.7-0.5,2-1,2.9-0.5c10,2.9,20.1,6.1,30.4,9.1c1,0.5,1.5,1.2,1,2c-4.4,5.6-9.1,11.3-13.7,16.9
		C157.5,258.5,156.1,258.7,155.1,258.5z"/>
	<path fill="none" stroke="#2B2A29" stroke-width="5.7848" d="M92.9,234.7c-8.1-4.4-16.2-8.6-23.8-13c-1-0.5-0.7-1.2,0-2
		c6.6-4.2,13-8.6,19.4-13c0.7-0.5,2.2-0.7,2.9-0.2c7.6,4.2,15.7,8.3,23.5,12.2c1,0.5,1,1.2,0,2c-6.4,4.4-12.7,9.1-19.1,13.7
		C95.1,235,93.6,235.2,92.9,234.7z"/>
	<path fill="none" stroke="#2B2A29" stroke-width="5.7848" d="M47,205.3c-5.4-4.9-10.5-9.8-15.4-14.5c-0.5-0.5-0.2-1.2,0.7-1.7
		c7.3-3.2,14.7-6.4,22-9.6c0.7-0.5,2-0.2,2.7,0c4.9,4.7,10.3,9.3,15.9,14c0.5,0.5,0,1.2-0.7,1.7c-7.3,3.4-14.9,6.9-22.3,10
		C48.8,205.8,47.5,205.8,47,205.3z"/>
	<path fill="none" stroke="#2B2A29" stroke-width="5.7848" d="M18.9,173.7c-2.4-5.1-5.1-10-7.6-14.9c-0.2-0.5,0.5-1.2,1.5-1.5
		c7.6-2,15.2-3.9,22.5-6.1c1-0.2,2,0,2.2,0.5c2.7,4.7,5.6,9.3,8.6,14.2c0.2,0.5-0.5,1.2-1.5,1.5c-7.6,2.2-15.4,4.4-23.3,6.6
		C20.3,174.4,19.4,174.2,18.9,173.7z"/>
	<path fill="none" stroke="#2B2A29" stroke-width="5.7848" d="M7.4,142.1c-0.2-4.9-0.5-9.6-0.7-14.2c-0.2-0.5,0.5-1,1.5-1
		c7.3-1.2,14.7-2.2,22-3.4c0.7,0,1.7,0.2,1.7,0.7c0.5,4.4,1,9.1,1.7,13.7c0,0.5-0.7,1-1.7,1c-7.6,1.2-15.2,2.4-22.8,3.7
		C8.1,142.8,7.4,142.6,7.4,142.1z"/>
	<path fill="none" stroke="#2B2A29" stroke-width="5.7848" d="M9.6,112.5c1.5-4.2,3.2-8.3,4.9-12.5c0-0.5,1-1,1.7-1
		c6.6-0.2,13.5-0.5,20.1-1c1,0,1.5,0.2,1.5,0.7c-1.5,4.2-2.7,8.3-4.2,12.7c0,0.2-1,0.7-2,0.7c-6.9,0.5-13.7,0.7-20.8,1
		C10.1,113.4,9.3,112.9,9.6,112.5z"/>
	<path fill="none" stroke="#2B2A29" stroke-width="5.7848" d="M23,86.2c2.9-3.7,5.9-7.3,9.1-11c0.2-0.5,1-0.7,2-0.7
		c5.9,0.5,11.8,0.7,17.6,1c0.7,0,1.2,0.5,1,0.7c-2.7,3.7-5.6,7.3-8.6,11c-0.2,0.5-1,0.7-2,0.7c-6.1-0.2-12.2-0.5-18.4-1
		C23,87,22.5,86.5,23,86.2z"/>
	<path fill="none" stroke="#2B2A29" stroke-width="5.7848" d="M44.8,63.5c4.2-2.9,8.1-6.1,12.2-9.3c0.5-0.2,1.2-0.5,2-0.2
		c5.1,0.7,10,1.5,15.2,2.2c0.7,0.2,1,0.5,0.5,0.7c-3.9,3.2-7.8,6.4-11.8,9.6c-0.5,0.2-1.2,0.5-2,0.5c-5.4-1-10.5-1.7-15.7-2.4
		C44.6,64.2,44.4,63.9,44.8,63.5z"/>
	<path fill="none" stroke="#2B2A29" stroke-width="5.7848" d="M72.8,44.6c5.1-2.4,9.8-4.9,14.7-7.6c0.5-0.2,1.5-0.2,2,0
		c4.2,1,8.3,2.2,12.7,3.2c0.5,0.2,0.7,0.5,0.2,0.7c-4.9,2.7-9.8,5.1-14.7,7.8C87.2,49,86.5,49,86,49c-4.4-1.2-8.8-2.4-13-3.7
		C72.5,45.3,72.3,44.8,72.8,44.6z"/>
	<path fill="none" stroke="#2B2A29" stroke-width="5.7848" d="M105.6,29.4c5.4-2,10.8-3.9,16.2-5.9c0.5-0.2,1.2-0.2,1.7,0
		c3.4,1.2,6.9,2.7,10.3,4.2c0.5,0,0.5,0.5-0.2,0.7c-5.4,2-10.8,3.9-16.2,5.9c-0.5,0.2-1.5,0.2-2,0.2c-3.4-1.5-6.9-2.9-10-4.4
		C104.9,29.9,104.9,29.6,105.6,29.4z"/>
	<path fill="none" stroke="#2B2A29" stroke-width="5.7848" d="M141.1,17.9c5.9-1.5,11.8-2.9,17.6-4.4c0.5-0.2,1.2,0,1.5,0
		c2.4,1.7,5.1,3.2,7.8,4.7c0.2,0.2,0.2,0.5-0.5,0.7c-5.6,1.5-11.5,2.9-17.6,4.4c-0.5,0.2-1.2,0.2-1.7,0c-2.4-1.7-4.9-3.2-7.6-4.9
		C140.4,18.1,140.6,17.9,141.1,17.9z"/>
	<path fill="none" stroke="#2B2A29" stroke-width="5.7848" d="M179.1,9.6c6.1-1,12.2-2,18.1-2.9c0.7,0,1.2,0,1.5,0.2
		c2,1.7,3.7,3.4,5.6,4.9c0.2,0.2-0.2,0.5-0.7,0.7c-6.1,1-12.2,2-18.6,2.9c-0.5,0-1.2,0-1.5-0.2c-1.7-1.7-3.4-3.4-5.1-5.1
		C178.1,9.8,178.6,9.6,179.1,9.6z"/>
	<path fill="none" stroke="#2B2A29" stroke-width="5.7848" d="M218.5,4.4c6.1-0.5,12.2-1,18.6-1.5c0.5,0,1.2,0.2,1.5,0.5
		c1,1.5,2,3.4,2.9,5.1c0.2,0.2-0.2,0.5-1,0.5c-6.1,0.5-12.5,1-19.1,1.5c-0.5,0-1.2-0.2-1.2-0.5c-1-1.7-1.7-3.4-2.7-5.1
		C217.3,4.7,217.8,4.4,218.5,4.4z"/>
	<path fill="none" stroke="#2B2A29" stroke-width="5.7848" d="M258.5,2.4c6.4,0,12.7,0,19.1,0c0.5,0,1.2,0,1.2,0.2
		c0.2,2,0.5,3.7,0.7,5.4c0,0.2-0.5,0.5-1,0.5c-6.6,0-13,0-19.6,0c-0.5,0-1-0.2-1-0.5c-0.2-1.7-0.5-3.7-0.5-5.4
		C257.5,2.4,258,2.4,258.5,2.4z"/>
	<path fill="#2B2A29" d="M266.3,0C293,0,319.5,2,345,5.9c26,3.7,51,9.3,73.7,16.4c25,7.8,47.8,16.9,68.1,28.4
		c20.3,11.8,38,25.7,52.2,43.1c13,15.9,20.3,34.1,21.1,52.4c0.7,4.9,1,10,0.7,14.9c-1.2,19.8-10,39.7-27.4,57.3
		c-21.8,22-54.9,40.7-97.3,53.7c-39.4,12.2-86.7,19.4-139.9,19.4c-53.4,0-102.4-7.1-144.5-19.1c-45.1-13-82.3-31.6-108.8-53.7
		c-21.3-17.6-34.3-37.7-39.4-57.3C2.2,156.3,1.2,151.2,1,146c-2.9-18.4,0.7-36.5,10.5-52.4C22.1,75.9,37,62,55.1,50.5
		C73.3,38.7,94.6,29.6,117.9,22c21.6-7.1,45.3-12.7,70.8-16.4C213.2,2,239.4,0,266.3,0z M559.6,158.5c-2.2,18.1-10.8,36.3-26.9,52.4
		c-21.8,22-55.1,40.7-97.3,53.7c-39.4,12.2-86.7,19.4-139.9,19.4c-53.4,0-102.4-7.1-144.5-19.1c-45.1-13-82.3-31.6-108.8-53.7
		c-19.6-16.4-32.1-34.3-38-52.4c0.2,0.7,0.2,1.5,0.5,2.2c5.1,19.6,17.9,39.4,39,56.8c26.5,22,63.5,40.7,108.5,53.4
		c41.9,12,90.9,19.1,144.1,19.1s100.2-7.1,139.6-19.4c41.9-12.7,75-31.4,96.5-53.4c17.4-17.4,26-37,26.9-56.3
		C559.6,160.2,559.6,159.5,559.6,158.5z M2,143.3h0.2c0,0.2,0,0.5,0,0.7c0.5,3.2,1,6.1,1.7,9.3c5.1,19.4,17.9,39.2,39,56.6
		c26.5,22,63.5,40.7,108.3,53.4c42.1,12.2,91.1,19.1,144.3,19.1c52.9,0,100.2-7.1,139.6-19.4c41.9-12.7,75-31.4,96.5-53.2
		c17.1-17.4,26-37,26.9-56.6c0.2-2.9,0.2-5.9,0-8.8c0-0.2-0.2-0.7-0.2-1.2l0,0c-1.2-16.9-8.3-33.8-20.3-48.5
		c-14.2-17.4-31.6-31.4-51.9-42.9C466,40.4,443,31.4,418.2,23.8c-22.8-7.1-47.5-12.7-73.5-16.7c-25.2-3.7-51.7-5.6-78.4-5.6
		c-26.7,0-52.9,1.7-77.4,5.4c-25.5,3.9-49.2,9.3-70.6,16.4C95.1,31.1,74,40.2,55.9,51.7C38,63,23.3,76.9,12.5,94.3
		C3.4,109.3-0.2,126.2,2,143.3z"/>
	<path fill="#2B2A29" d="M73,45.3c4.2,1.2,8.6,2.4,13,3.7c0.5,0,1.2,0,1.7-0.2c4.9-2.7,9.8-5.1,14.7-7.8c0.5-0.2,0.2-0.5-0.2-0.7
		c-4.4-1-8.6-2.2-12.7-3.2c-0.5-0.2-1.5-0.2-2,0c-4.9,2.7-9.6,5.1-14.7,7.6C72.3,44.8,72.5,45.3,73,45.3z M94.1,44.6
		c-3.2,1.5-8.3,2-12,1.2c-3.4-1-3.7-3.2-0.7-4.7c3.2-1.5,8.3-2.2,11.8-1.2C96.5,40.9,97,42.9,94.1,44.6z"/>
	<path fill="#2B2A29" d="M105.4,30.1c3.2,1.5,6.6,2.9,10,4.4c0.5,0,1.5,0,2-0.2c5.4-2,10.8-3.9,16.2-5.9c0.7-0.2,0.7-0.7,0.2-0.7
		c-3.4-1.5-6.9-2.9-10.3-4.2c-0.5-0.2-1.2-0.2-1.7,0c-5.4,2-10.8,3.9-16.2,5.9C104.9,29.6,104.9,29.9,105.4,30.1z M124.7,30.9
		c-3.4,1.5-8.6,1.5-11.3,0.2c-2.7-1-2.2-2.9,1.2-4.2c3.4-1.2,8.3-1.5,11-0.2C128.4,27.7,127.9,29.6,124.7,30.9z"/>
	<path fill="#2B2A29" d="M140.6,18.4c2.7,1.7,5.1,3.2,7.6,4.9c0.5,0.2,1.2,0.2,1.7,0c6.1-1.5,12-2.9,17.6-4.4
		c0.7-0.2,0.7-0.5,0.5-0.7c-2.7-1.5-5.4-2.9-7.8-4.7c-0.2,0-1-0.2-1.5,0c-5.9,1.5-11.8,2.9-17.6,4.4
		C140.6,17.9,140.4,18.1,140.6,18.4z M158.3,20.6c-3.7,1-8.3,0.7-10.5-0.5c-2-1.5-0.7-3.2,2.9-4.2c3.7-0.7,8.1-0.5,10.3,0.7
		C162.9,17.9,161.7,19.6,158.3,20.6z"/>
	<path fill="#2B2A29" d="M178.4,10c1.7,1.7,3.4,3.4,5.1,5.1c0.2,0.2,1,0.2,1.5,0.2c6.4-1,12.5-2,18.6-2.9c0.5-0.2,1-0.5,0.7-0.7
		c-2-1.5-3.7-3.2-5.6-4.9c-0.2-0.2-0.7-0.2-1.5-0.2c-5.9,1-12,2-18.1,2.9C178.6,9.6,178.1,9.8,178.4,10z M193.8,13.5
		c-3.7,0.5-8.1,0-9.6-1.5c-1.2-1.2,0.7-2.9,4.4-3.4c3.9-0.7,8.1,0,9.6,1.2C199.7,11.3,197.7,12.7,193.8,13.5z"/>
	<path fill="#2B2A29" d="M217.6,4.9c1,1.7,1.7,3.4,2.7,5.1c0,0.2,0.7,0.5,1.2,0.5c6.6-0.5,13-1,19.1-1.5c0.7,0,1.2-0.2,1-0.5
		c-1-1.7-2-3.7-2.9-5.1c-0.2-0.2-1-0.5-1.5-0.5c-6.4,0.5-12.5,1-18.6,1.5C217.8,4.4,217.3,4.7,217.6,4.9z M231,9.3
		c-4.2,0.2-7.8-0.7-8.6-2.2c-0.7-1.2,1.7-2.7,5.6-2.9c3.9-0.2,7.6,0.5,8.6,2C237.4,7.6,235,9.1,231,9.3z"/>
	<path fill="#2B2A29" d="M257.5,2.7c0,1.7,0.2,3.7,0.5,5.4c0,0.2,0.5,0.5,1,0.5h19.6c0.5,0,1-0.2,1-0.5c-0.2-1.7-0.5-3.4-0.7-5.4
		c0-0.2-0.7-0.2-1.2-0.2h-19.1C258,2.4,257.5,2.4,257.5,2.7z M268.8,8.1c-3.9,0-7.3-1.2-7.6-2.7c0-1.5,3.2-2.4,7.1-2.4
		s7.1,1,7.3,2.4S272.7,8.1,268.8,8.1z"/>
	<path fill="#2B2A29" d="M297.9,3.7c-0.7,1.7-1.2,3.4-2,5.1c0,0.2,0.2,0.5,1,0.5c6.4,0.5,12.7,1,19.4,1.5c0.7,0.2,1.2,0,1.2-0.2
		c0.5-1.7,1.2-3.4,1.7-5.1c0-0.2-0.5-0.5-1-0.5c-6.4-0.5-12.7-1-19.1-1.5C298.7,3.4,297.9,3.4,297.9,3.7z M306.7,9.6
		c-3.9-0.2-6.9-1.7-6.4-2.9c0.7-1.5,4.2-2.4,8.1-2.2c3.9,0.5,6.9,1.7,6.4,3.2S310.7,10,306.7,9.6z"/>
	<path fill="#2B2A29" d="M338.1,7.6c-1.5,1.7-2.9,3.4-4.2,4.9c-0.2,0.2,0,0.5,0.7,0.7c6.4,1,12.7,2,19.1,2.9c0.7,0,1.5,0,1.5-0.2
		c1.5-1.7,2.7-3.4,4.2-5.1c0-0.2-0.2-0.5-1-0.5c-6.4-1-12.5-2-18.9-2.9C339.1,7.3,338.3,7.3,338.1,7.6z M344.5,14.2
		c-3.9-0.7-6.1-2.2-4.9-3.7c1-1.2,5.1-2,9.1-1.2c3.9,0.5,6.1,2.2,5.1,3.4C352.6,14.2,348.4,14.7,344.5,14.2z"/>
	<path fill="#2B2A29" d="M377.8,14.7c-2.2,1.5-4.4,2.9-6.6,4.7c-0.5,0.2-0.2,0.5,0.5,0.5c6.1,1.7,12.2,3.2,18.6,4.7
		c0.5,0.2,1.2,0,1.7-0.2l6.4-4.7c0.5-0.2,0-0.5-0.5-0.7c-6.4-1.5-12.2-2.9-18.4-4.4C379,14.5,378,14.5,377.8,14.7z M381.5,21.8
		c-3.9-1-5.4-2.7-3.7-3.9c2-1.2,6.4-1.7,10.3-0.7c3.7,1,5.4,2.7,3.7,3.9C390,22.5,385.4,22.8,381.5,21.8z"/>
	<path fill="#2B2A29" d="M416.5,25c-3.2,1.2-6.4,2.7-9.6,4.2c-0.2,0-0.2,0.5,0.5,0.5c5.6,2.2,11.5,4.2,17.4,6.4c0.7,0,1.5,0.2,2,0
		c3.2-1.5,6.1-2.9,9.3-4.4c0.2,0,0.2-0.5-0.5-0.7c-5.9-2-11.8-3.9-17.4-5.9C417.5,24.7,416.7,24.7,416.5,25z M417,32.3
		c-3.7-1.2-4.7-3.2-2-4.2c2.4-1.2,7.3-1,11,0.2c3.7,1.2,4.7,3.2,2,4.2C425.6,33.8,420.4,33.8,417,32.3z"/>
	<path fill="#2B2A29" d="M452.8,38.7c-3.9,1-7.8,2.2-12,3.2c-0.5,0.2-0.5,0.5,0,0.7c5.4,2.7,10.8,5.4,16.2,8.1c0.5,0.2,1.5,0.2,2,0
		c3.9-1,8.1-2.2,12-3.4c0.5-0.2,0.5-0.5,0-0.7c-5.4-2.7-10.8-5.1-16.2-7.6C454.2,38.7,453.3,38.5,452.8,38.7z M449.8,46.3
		c-3.4-1.7-3.2-3.7,0-4.7c3.2-0.7,8.6-0.2,11.8,1.2c3.4,1.7,3.7,3.7,0.2,4.7C458.6,48.5,453.3,48,449.8,46.3z"/>
	<path fill="#2B2A29" d="M486.1,56.1c-4.9,0.7-9.8,1.5-14.7,2.2c-0.7,0-1,0.2-0.5,0.7l14,9.6c0.5,0.2,1.5,0.5,2,0.2
		c5.1-0.7,10.3-1.5,15.2-2.2c0.7-0.2,0.7-0.5,0.2-1c-4.9-3.2-9.6-6.4-14.2-9.3C487.6,56.1,486.8,55.9,486.1,56.1z M479.2,63.5
		c-2.9-2-2-4.2,2-4.7c4.2-0.5,9.6,0.5,12.5,2.4c2.9,2,2.2,3.9-2,4.7C487.8,66.6,481.9,65.4,479.2,63.5z"/>
	<path fill="#2B2A29" d="M514.7,76.9c-5.9,0.2-11.8,0.5-17.6,0.7c-0.7,0.2-1.2,0.5-0.7,0.7c3.4,3.7,7.1,7.6,10.8,11.3
		c0.5,0.5,1.5,0.7,2.2,0.7c5.9-0.2,12-0.5,18.1-1c0.7,0,1-0.2,0.7-0.7c-3.9-3.9-7.8-7.6-11.5-11.3C516.2,77.2,515.5,76.9,514.7,76.9
		z M503.2,84c-2.2-2.4-0.2-4.4,4.7-4.7c4.7-0.2,10.5,1.5,12.7,3.7c2.5,2.4,0.5,4.4-4.4,4.7C511.3,88,505.4,86.2,503.2,84z"/>
	<path fill="#2B2A29" d="M536.6,101.4c-6.9-0.2-13.5-0.5-20.1-1c-1,0-1.5,0.2-1.2,0.7c2.2,4.2,4.2,8.3,6.6,12.7c0.2,0.5,1,1,2,1
		c7.1,0.2,14,0.7,21.1,1c1,0,1.5-0.2,1.2-0.7c-2.7-4.4-5.1-8.6-7.6-12.7C538.3,101.9,537.5,101.7,536.6,101.4z M520.1,107.6
		c-1.2-2.7,2-4.4,7.6-4.2c5.4,0.2,11,2.4,12.7,5.1c1.5,2.7-2,4.7-7.6,4.4C527.2,112.7,521.6,110.2,520.1,107.6z"/>
	<path fill="#2B2A29" d="M549.3,129.4c-7.6-1-15.2-2.2-22.5-3.2c-1-0.2-1.7,0-1.7,0.5c0.5,4.7,1,9.3,1.5,14c0,0.5,0.7,1,1.7,1.2
		c7.8,1,15.7,2.4,23.3,3.4c1.2,0.2,2,0,2-0.5c-0.7-4.9-1.5-9.6-2.2-14.2C551.3,130.1,550.3,129.6,549.3,129.4z M527.7,133.8
		c-0.2-2.9,4.4-4.4,10.5-3.4c6.1,1,11.5,3.9,11.8,6.9c0.5,2.9-4.2,4.7-10.5,3.7C533.4,139.9,528,136.7,527.7,133.8z"/>
	<path fill="#2B2A29" d="M549.8,160c-7.8-2.2-15.9-4.2-23.5-6.1c-1.2-0.5-2.2-0.2-2.2,0.2c-2,4.7-3.7,9.6-5.4,14.5
		c-0.2,0.5,0.5,1,1.5,1.5l24.5,6.6c1.2,0.5,2.2,0.2,2.2-0.2c1.7-5.1,3.2-10,4.7-14.9C551.7,161,551,160.2,549.8,160z M523.6,161.7
		c1-2.9,6.9-3.9,13.5-2.2c6.4,1.7,11,5.6,10,8.6c-1,3.2-7.3,4.2-14,2.4C526.5,168.6,522.3,164.9,523.6,161.7z"/>
	<path fill="#2B2A29" d="M535.6,191.6c-8.1-3.2-15.9-6.4-23.8-9.6c-1-0.5-2.2-0.5-2.7,0c-4.2,4.7-8.6,9.3-13,14.2
		c-0.5,0.5,0,1.2,1,1.5c8.1,3.4,16.2,6.9,24.3,10.3c1.2,0.5,2.5,0.5,2.9,0c4.2-4.9,8.3-10,12.5-14.9
		C537,192.6,536.6,192.1,535.6,191.6z M504.9,189.9c2.7-2.9,9.8-3.2,16.4-0.5c6.4,2.4,9.6,7.1,7.1,10.3c-2.7,2.9-10.3,3.2-16.9,0.5
		C505.2,197.5,502.3,192.8,504.9,189.9z"/>
	<path fill="#2B2A29" d="M504,222c-7.6-4.4-14.7-8.8-21.8-13c-1-0.7-2.2-0.7-2.9-0.5c-6.9,4.2-14,8.3-21.1,12.5
		c-0.7,0.5-0.7,1.2,0.2,1.7c7.1,4.7,14.5,9.3,21.8,14c1,0.5,2.5,0.7,2.9,0.2c7.3-4.4,14.5-8.8,21.3-13.2
		C505.2,223.4,504.9,222.5,504,222z M470.6,215.8c4.4-2.4,12.5-1.7,18.4,1.7c5.9,3.7,7.3,8.8,2.9,11.5c-4.4,2.7-13,1.7-18.9-2
		S466.2,218.5,470.6,215.8z"/>
	<path fill="#2B2A29" d="M454.2,248.2c-5.9-5.6-11.8-11-17.4-16.4c-0.7-0.7-2.2-1-3.2-0.7c-9.3,2.9-18.9,6.4-28.4,9.6
		c-1,0.2-1.2,1.2-0.5,1.7c5.4,5.6,11,11.3,16.9,17.1c0.7,0.7,2.2,1,3.2,0.7c9.8-3.4,19.6-6.9,29.2-10.3
		C455,249.7,455,248.7,454.2,248.2z M421.2,237.2c5.9-2,14.2,0,19.1,4.4c4.7,4.4,3.7,9.8-2.2,11.8c-6.1,2.2-14.9,0-19.6-4.7
		C414.1,244.3,415.3,239.1,421.2,237.2z"/>
	<path fill="#2B2A29" d="M388.6,266.8c-3.7-6.4-7.3-12.5-10.8-18.6c-0.5-0.7-1.7-1.2-2.9-1.2c-11.3,1.7-22.3,3.4-33.8,5.1
		c-1,0.2-1.7,1-1.2,1.7c2.9,6.4,6.1,12.5,9.6,19.1c0.5,1,1.7,1.5,2.9,1.2c11.8-1.7,23.5-3.7,35-5.6
		C388.6,268.5,389.1,267.5,388.6,266.8z M358.9,251.1c7.1-1,14.9,2.2,17.9,7.1c2.7,5.1-0.5,10.3-7.8,11.3
		c-7.3,1.2-15.4-2.2-18.1-7.3C348.4,257.2,352.1,252.1,358.9,251.1z"/>
	<path fill="#2B2A29" d="M312.1,275.4c-0.7-6.9-1.7-13.5-2.5-19.8c-0.2-0.7-1.2-1.5-2.4-1.5H271c-1.2,0-2.2,0.7-2,1.7
		c0.2,6.4,0.7,12.7,1,19.6c0.2,0.7,1.2,1.5,2.5,1.5h37.7C311.4,276.8,312.4,276.1,312.1,275.4z M289.1,255.8
		c7.6,0,14.2,4.2,14.9,9.3c0.5,5.4-5.4,10-13,10c-7.8,0-14.2-4.7-14.7-9.8C275.9,259.9,281.8,255.8,289.1,255.8z"/>
	<path fill="#2B2A29" d="M232.5,272.2c2-6.6,3.9-13,5.9-19.1c0.2-0.7-0.5-1.7-1.5-2c-11.8-1.5-23.5-3.2-35-4.9
		c-1-0.2-2.2,0.5-2.4,1.2c-2.4,6.1-4.9,12.2-7.3,18.4c-0.5,1,0.2,2,1.5,2c12,2,24,3.7,36.3,5.4C231,273.4,232.3,272.9,232.5,272.2z
		 M218.8,250.4c7.1,1,11.8,5.9,10,11c-1.7,5.1-9.1,8.6-16.7,7.3c-7.3-1.2-11.8-6.1-9.8-11.3C204.3,252.6,211.4,249.2,218.8,250.4z"
		/>
	<path fill="#2B2A29" d="M158,257.7c4.7-5.6,9.3-11.3,13.7-16.9c0.5-0.7,0-1.5-1-2c-10.3-2.9-20.3-6.1-30.4-9.1
		c-1-0.5-2.2,0-2.9,0.5c-4.7,5.4-9.6,10.8-14.2,16.2c-0.7,0.7-0.2,1.7,0.7,2c10.3,3.4,20.6,6.6,31.1,10
		C156.1,258.7,157.5,258.5,158,257.7z M154.4,235.7c6.4,2,8.6,7.1,4.9,11.5c-3.7,4.7-12.2,6.9-18.6,4.7c-6.4-2-8.3-7.3-4.4-11.8
		C139.9,235.7,148,233.7,154.4,235.7z"/>
	<path fill="#2B2A29" d="M95.8,234.5c6.4-4.7,12.7-9.3,19.1-13.7c1-0.7,1-1.5,0-2c-7.8-3.9-15.9-8.1-23.5-12.2
		c-0.7-0.5-2.2-0.2-2.9,0.2c-6.4,4.4-12.7,8.8-19.4,13c-0.7,0.7-1,1.5,0,2c7.6,4.4,15.7,8.6,23.8,13C93.6,235.2,95.1,235,95.8,234.5
		z M101.4,213.9c4.9,2.4,4.9,7.3-0.5,11.3c-5.1,3.7-13.5,4.4-18.4,1.7c-4.9-2.7-4.7-7.8,0.7-11.3C88.5,211.9,96.5,211.2,101.4,213.9
		z"/>
	<path fill="#2B2A29" d="M50,205.3c7.3-3.2,14.9-6.6,22.3-10c0.7-0.5,1.2-1.2,0.7-1.7c-5.6-4.7-11-9.3-15.9-14c-0.7-0.2-2-0.5-2.7,0
		c-7.3,3.2-14.7,6.4-22,9.6c-1,0.5-1.2,1.2-0.7,1.7c4.9,4.7,10,9.6,15.4,14.5C47.5,205.8,48.8,205.8,50,205.3z M63,187.4
		c3.2,2.9,1.2,7.3-4.9,10.3c-5.9,2.7-13.7,2.4-16.9-0.5c-3.2-3.2-0.7-7.6,5.1-10.3S59.5,184.5,63,187.4z"/>
	<path fill="#2B2A29" d="M21.3,173.9c7.8-2.2,15.7-4.4,23.3-6.6c1-0.2,1.7-1,1.5-1.5c-2.9-4.9-5.9-9.6-8.6-14.2
		c-0.2-0.5-1.2-0.7-2.2-0.5c-7.3,2.2-14.9,4.2-22.5,6.1c-1,0.2-1.7,1-1.5,1.5c2.4,4.9,5.1,9.8,7.6,14.9
		C19.4,174.2,20.3,174.4,21.3,173.9z M39.7,159.2c1.7,2.9-2,6.9-8.1,8.6c-6.4,1.7-12.7,0.7-14.5-2.4c-1.7-2.9,2.2-6.9,8.3-8.6
		C31.6,155.1,38,156.1,39.7,159.2z"/>
	<path fill="#2B2A29" d="M9.1,142.6c7.6-1.2,15.2-2.4,22.8-3.7c1,0,1.7-0.5,1.7-1c-0.7-4.7-1.2-9.3-1.7-13.7c0-0.5-1-0.7-1.7-0.7
		c-7.3,1.2-14.7,2.2-22,3.4c-1,0-1.7,0.5-1.5,1c0.2,4.7,0.5,9.3,0.7,14.2C7.4,142.6,8.1,142.8,9.1,142.6z M30.6,131.1
		c0.2,2.9-4.2,6.1-10.3,7.1s-11.3-0.7-11.5-3.7c0-2.9,4.7-5.9,10.5-6.9C25.2,126.7,30.4,128.4,30.6,131.1z"/>
	<path fill="#2B2A29" d="M10.8,113.2c7.1-0.2,14-0.5,20.8-1c1,0,2-0.5,2-0.7c1.5-4.4,2.7-8.6,4.2-12.7c0-0.5-0.5-0.7-1.5-0.7
		c-6.6,0.5-13.5,0.7-20.1,1c-0.7,0-1.7,0.5-1.7,1c-1.7,4.2-3.4,8.3-4.9,12.5C9.3,112.9,10.1,113.4,10.8,113.2z M33.8,105.1
		c-0.7,2.4-5.9,4.9-11.5,5.1c-5.9,0.2-9.6-1.7-8.6-4.2c1-2.7,6.4-4.9,11.8-5.1C30.9,100.4,34.8,102.4,33.8,105.1z"/>
	<path fill="#2B2A29" d="M23.8,87c6.1,0.5,12.2,0.7,18.4,1c1,0,1.7-0.2,2-0.7c2.9-3.7,5.9-7.3,8.6-11c0.2-0.2-0.2-0.7-1-0.7
		c-5.9-0.2-11.8-0.5-17.6-1c-1,0-1.7,0.2-2,0.7c-3.2,3.7-6.1,7.3-9.1,11C22.5,86.5,23,87,23.8,87z M46.8,81.6
		c-1.7,2.4-7.1,3.9-12,3.7c-4.9-0.2-7.6-2.2-5.6-4.7c2-2.2,7.3-3.7,12-3.4C46.1,77.4,48.8,79.4,46.8,81.6z"/>
	<path fill="#2B2A29" d="M45.3,64.4c5.1,0.7,10.3,1.5,15.7,2.4c0.7,0,1.5-0.2,2-0.5c3.9-3.2,7.8-6.4,11.8-9.6
		c0.5-0.2,0.2-0.5-0.5-0.7c-5.1-0.7-10-1.5-15.2-2.2c-0.7-0.2-1.5,0-2,0.2c-4.2,3.2-8.1,6.4-12.2,9.3C44.4,63.9,44.6,64.2,45.3,64.4
		z M67.6,61.5c-2.4,2-8.1,2.9-12.2,2.2C51.2,63.2,50,61,52.4,59c2.4-2,7.8-2.9,12-2.2C68.6,57.3,70.1,59.5,67.6,61.5z"/>
</g>
</svg>
