<?xml version="1.0" encoding="utf-8"?>
<!-- Generator: Adobe Illustrator 18.0.0, SVG Export Plug-In . SVG Version: 6.00 Build 0)  -->
<!DOCTYPE svg PUBLIC "-//W3C//DTD SVG 1.1//EN" "http://www.w3.org/Graphics/SVG/1.1/DTD/svg11.dtd">
<svg version="1.1" id="Layer_1" xmlns="http://www.w3.org/2000/svg" xmlns:xlink="http://www.w3.org/1999/xlink" x="0px" y="0px"
	 viewBox="0 0 100 100" enable-background="new 0 0 100 100" xml:space="preserve">
<g>
	<path d="M49.9,99.3c-27.3,0-49.6-22.4-49.4-49.7C0.7,22.4,22.8,0.5,49.9,0.5c27.3,0,49.6,22.4,49.4,49.7
		C99.1,77.4,77,99.4,49.9,99.3z M4.2,50.4c0,25.4,20.1,45.6,45.6,45.7c25.7,0.2,46.5-20.6,46.4-46.3C96,24.1,75.8,4.1,49.9,4.2
		C24.6,4.2,4.1,24.9,4.2,50.4z"/>
	<path d="M38.8,70.2c0-14.1,0-27.3,0-41.3c11.6,7,22.7,13.6,34.5,20.7C61.6,56.5,50.6,63.1,38.8,70.2z"/>
</g>
</svg>
